M48
; DRILL file {KiCad 8.0.1} date 2024-10-12T16:48:07+0200
; FORMAT={-:-/ absolute / metric / decimal}
; #@! TF.CreationDate,2024-10-12T16:48:07+02:00
; #@! TF.GenerationSoftware,Kicad,Pcbnew,8.0.1
; #@! TF.FileFunction,Plated,1,4,PTH
FMAT,2
METRIC
; #@! TA.AperFunction,Plated,PTH,ViaDrill
T1C0.300
; #@! TA.AperFunction,Plated,PTH,ComponentDrill
T2C0.300
; #@! TA.AperFunction,Plated,PTH,ComponentDrill
T3C1.000
; #@! TA.AperFunction,Plated,PTH,ComponentDrill
T4C1.016
; #@! TA.AperFunction,Plated,PTH,ComponentDrill
T5C1.300
; #@! TA.AperFunction,Plated,PTH,ComponentDrill
T6C1.500
; #@! TA.AperFunction,Plated,PTH,ComponentDrill
T7C1.700
; #@! TA.AperFunction,Plated,PTH,ComponentDrill
T8C2.845
; #@! TA.AperFunction,Plated,PTH,ComponentDrill
T9C3.200
%
G90
G05
T1
X86.4Y-84.0
X89.1Y-82.7
X89.5Y-93.5
X89.9Y-60.2
X89.9Y-63.1
X90.3Y-78.5
X90.6Y-83.0
X91.5Y-93.3
X92.5Y-70.6
X94.7Y-82.0
X94.8Y-78.5
X95.2Y-84.0
X96.0Y-73.9
X97.0Y-70.6
X98.1Y-99.2
X98.3Y-101.1
X98.4Y-82.7
X98.5Y-81.0
X98.5Y-92.9
X98.662Y-113.462
X99.3Y-78.5
X99.4Y-111.7
X100.5Y-92.5
X100.6Y-73.9
X101.345Y-57.18
X101.425Y-60.2
X101.425Y-63.2
X101.55Y-70.55
X104.2Y-82.7
X105.25Y-78.65
X105.3Y-73.4
X106.2Y-72.9
X106.7Y-78.5
X107.0Y-92.7
X107.1Y-73.4
X108.4Y-65.4
X108.4Y-67.5
X108.4Y-69.7
X108.4Y-74.8
X108.5Y-77.3
X108.5Y-113.3
X109.9Y-62.2
X110.8Y-95.3
X110.8Y-99.5
X111.8Y-55.7
X111.9Y-59.7
X112.3Y-95.3
X112.3Y-99.5
X113.1Y-96.4
X113.1Y-98.5
X113.8Y-58.2
X113.8Y-95.3
X113.8Y-97.4
X113.8Y-99.5
X115.1Y-62.2
X116.9Y-55.7
X117.0Y-59.7
X117.5Y-95.8
X118.9Y-58.2
X119.1Y-96.4
X119.1Y-97.9
X119.1Y-99.4
X120.2Y-59.7
X122.1Y-55.7
X122.2Y-62.2
X122.95Y-88.45
X123.0Y-85.0
X123.156Y-97.066
X123.4Y-95.1
X123.6Y-96.4
X124.0Y-58.2
X124.1Y-97.9
X124.5Y-92.3
X124.5Y-93.2
X124.5Y-95.1
X124.524Y-94.024
X125.2Y-62.2
X125.7Y-101.0
X125.762Y-97.938
X126.6Y-106.2
X127.1Y-55.7
X127.2Y-59.7
X127.75Y-85.15
X127.9Y-106.2
X127.975Y-86.875
X129.1Y-58.2
X129.1Y-94.5
X129.7Y-90.2
X129.7Y-91.125
X129.7Y-92.9
X129.7Y-93.8
X129.713Y-91.987
X129.8Y-106.1
X129.8Y-112.5
X130.1Y-99.3
X130.3Y-94.5
X130.9Y-106.1
X130.9Y-112.5
X132.0Y-106.1
X132.0Y-112.5
X132.7Y-85.8
X132.8Y-103.4
X133.1Y-90.2
X133.1Y-91.4
X133.1Y-93.5
X133.2Y-120.987
X134.0Y-104.0
X134.4Y-97.6
X134.4Y-122.012
X134.7Y-113.4
X134.9Y-100.7
X135.0Y-110.4
X135.8Y-92.4
X135.801Y-111.1
X136.1Y-88.4
X136.2Y-113.412
X136.345Y-85.3
X136.6Y-104.1
X137.0Y-88.1
X137.169Y-85.324
X137.3Y-126.2
X137.6Y-62.2
X137.7Y-113.412
X137.969Y-85.321
X138.2Y-88.3
X138.8Y-85.3
X139.0Y-108.0
X139.2Y-113.412
X139.3Y-127.4
X139.4Y-126.0
X139.6Y-62.2
X139.9Y-58.2
X140.0Y-107.1
X140.0Y-117.4
X140.2Y-69.7
X140.2Y-88.3
X140.6Y-105.2
X140.8Y-84.951
X140.8Y-106.2
X141.399Y-68.424
X141.4Y-91.8
X141.4Y-111.9
X141.8Y-58.2
X142.2Y-91.2
X142.224Y-68.4
X142.3Y-62.2
X142.3Y-111.0
X142.5Y-100.8
X142.5Y-122.9
X143.0Y-91.8
X143.0Y-112.8
X143.024Y-68.4
X143.5Y-101.0
X143.7Y-91.2
X144.0Y-113.7
X144.0Y-127.0
X144.2Y-63.6
X144.3Y-59.7
X144.4Y-85.1
X144.5Y-89.5
X145.2Y-69.2
X145.4Y-90.0
X145.4Y-118.5
X145.5Y-89.1
X145.5Y-103.7
X145.9Y-97.6
X145.9Y-98.9
X146.0Y-59.6
X146.1Y-63.6
X147.8Y-59.7
X147.8Y-63.6
X148.7Y-67.5
X149.162Y-103.562
X149.4Y-102.0
X149.6Y-59.6
X149.7Y-63.6
X150.1Y-89.4
X151.5Y-59.5
X151.5Y-63.5
X152.5Y-66.4
X153.2Y-59.6
X153.5Y-63.4
X154.5Y-97.0
X155.1Y-59.6
X155.3Y-63.5
X156.0Y-95.7
X156.09Y-135.99
X156.6Y-92.6
X156.835Y-101.635
X157.0Y-97.6
X157.2Y-63.4
X157.674Y-80.6
X158.162Y-83.237
X158.289Y-92.4
X158.7Y-89.4
X158.8Y-94.475
X159.1Y-86.0
X159.1Y-136.0
X159.4Y-88.8
X160.5Y-75.8
X160.7Y-88.6
X160.8Y-86.0
X161.0Y-102.0
X161.5Y-135.7
X161.7Y-72.3
X162.0Y-73.7
X162.004Y-79.714
X162.1Y-86.0
X162.15Y-75.15
X162.6Y-80.247
X162.8Y-131.4
X162.8Y-132.2
X162.8Y-133.0
X163.1Y-95.7
X163.2Y-91.3
X163.2Y-93.0
X163.3Y-90.3
X163.362Y-94.7
X163.6Y-86.0
X163.6Y-131.4
X163.6Y-132.2
X163.6Y-133.0
X164.0Y-88.8
X164.6Y-83.2
X164.776Y-84.476
X165.362Y-70.837
X166.3Y-75.3
X167.9Y-86.7
X167.9Y-88.8
X167.9Y-89.8
X168.95Y-71.95
X169.0Y-72.9
X169.0Y-73.8
X171.6Y-94.7
X171.8Y-92.3
X171.8Y-93.6
X172.1Y-72.3
X172.7Y-126.6
X173.3Y-110.4
X176.0Y-122.1
X176.7Y-95.0
X178.1Y-89.3
X179.135Y-127.1
X179.7Y-70.3
X180.1Y-116.5
X180.3Y-72.062
X180.405Y-118.7
X181.0Y-61.8
X183.5Y-96.4
X185.0Y-97.6
X185.162Y-120.737
X185.2Y-83.0
X185.4Y-122.1
X185.8Y-97.0
X186.0Y-88.8
X186.35Y-63.15
X186.675Y-80.825
X186.8Y-78.7
X186.8Y-100.5
X187.0Y-89.5
X187.0Y-95.5
X187.3Y-88.6
X187.425Y-104.725
X187.659Y-100.292
X188.1Y-95.0
X188.1Y-116.7
X188.9Y-106.0
X189.0Y-100.6
X189.8Y-73.4
X191.2Y-83.0
X191.875Y-88.825
X192.3Y-72.3
X192.4Y-81.8
X192.575Y-89.425
X192.6Y-127.3
X192.725Y-100.475
X193.05Y-110.35
X193.175Y-88.625
X193.325Y-99.675
X193.325Y-108.175
X194.025Y-100.275
X194.8Y-106.0
X195.2Y-68.0
X199.035Y-127.135
X199.595Y-70.295
X200.037Y-72.062
X200.1Y-116.5
X200.2Y-118.7
X200.865Y-61.565
X204.037Y-66.763
X204.675Y-120.737
X206.9Y-122.6
X207.0Y-78.6
X207.2Y-61.9
X208.0Y-116.7
X208.8Y-72.0
X210.3Y-70.3
T2
X135.787Y-120.4
X135.787Y-121.7
X135.787Y-123.0
X137.088Y-120.4
X137.088Y-121.7
X137.088Y-123.0
X138.387Y-120.4
X138.387Y-121.7
X138.387Y-123.0
X139.688Y-120.4
X139.688Y-121.7
X139.688Y-123.0
X140.987Y-120.4
X140.987Y-121.7
X140.987Y-123.0
T3
X91.52Y-97.432
X91.52Y-99.972
X91.52Y-102.512
X91.52Y-109.97
X91.52Y-112.51
X91.52Y-115.05
X115.0Y-75.6
X115.0Y-78.14
X115.0Y-80.68
X115.0Y-83.22
X115.0Y-85.76
X115.0Y-88.3
X115.0Y-90.84
T4
X112.84Y-47.96
X112.84Y-50.5
X115.38Y-47.96
X115.38Y-50.5
X117.92Y-47.96
X117.92Y-50.5
X120.46Y-47.96
X120.46Y-50.5
X123.0Y-47.96
X123.0Y-50.5
X125.54Y-47.96
X125.54Y-50.5
X128.08Y-47.96
X128.08Y-50.5
X130.62Y-47.96
X130.62Y-50.5
X133.16Y-47.96
X133.16Y-50.5
X135.7Y-47.96
X135.7Y-50.5
X138.24Y-47.96
X138.24Y-50.5
X140.78Y-47.96
X140.78Y-50.5
X143.32Y-47.96
X143.32Y-50.5
X145.86Y-47.96
X145.86Y-50.5
X148.4Y-47.96
X148.4Y-50.5
X150.94Y-47.96
X150.94Y-50.5
X153.48Y-47.96
X153.48Y-50.5
X156.02Y-47.96
X156.02Y-50.5
X158.56Y-47.96
X158.56Y-50.5
X161.1Y-47.96
X161.1Y-50.5
T5
X93.095Y-124.355
X93.095Y-129.435
T6
X180.1Y-84.5
X180.1Y-104.5
X200.0Y-84.5
X200.0Y-104.5
T7
X177.56Y-81.96
X177.56Y-87.04
X177.56Y-101.96
X177.56Y-107.04
X182.64Y-81.96
X182.64Y-87.04
X182.64Y-101.96
X182.64Y-107.04
X197.46Y-81.96
X197.46Y-87.04
X197.46Y-101.96
X197.46Y-107.04
X202.54Y-81.96
X202.54Y-87.04
X202.54Y-101.96
X202.54Y-107.04
T8
X103.709Y-49.23
X170.231Y-49.23
T9
X89.5Y-49.5
X89.5Y-139.5
X209.5Y-49.5
X209.5Y-139.5
M30
