M48
; DRILL file {KiCad 8.0.1} date 2024-10-23T11:49:37+0200
; FORMAT={-:-/ absolute / metric / decimal}
; #@! TF.CreationDate,2024-10-23T11:49:37+02:00
; #@! TF.GenerationSoftware,Kicad,Pcbnew,8.0.1
; #@! TF.FileFunction,Plated,1,4,PTH
FMAT,2
METRIC
; #@! TA.AperFunction,Plated,PTH,ViaDrill
T1C0.300
; #@! TA.AperFunction,Plated,PTH,ComponentDrill
T2C0.300
; #@! TA.AperFunction,Plated,PTH,ComponentDrill
T3C1.000
; #@! TA.AperFunction,Plated,PTH,ComponentDrill
T4C1.016
; #@! TA.AperFunction,Plated,PTH,ComponentDrill
T5C1.300
; #@! TA.AperFunction,Plated,PTH,ComponentDrill
T6C1.500
; #@! TA.AperFunction,Plated,PTH,ComponentDrill
T7C1.700
; #@! TA.AperFunction,Plated,PTH,ComponentDrill
T8C2.845
; #@! TA.AperFunction,Plated,PTH,ComponentDrill
T9C3.200
%
G90
G05
T1
X86.4Y-84.0
X87.0Y-90.0
X87.0Y-95.0
X87.0Y-100.0
X87.0Y-105.0
X87.0Y-110.0
X87.0Y-115.0
X87.0Y-120.0
X89.1Y-82.7
X89.5Y-93.5
X89.9Y-60.2
X89.9Y-63.1
X90.0Y-55.0
X90.2Y-81.3
X90.3Y-78.5
X91.5Y-93.3
X92.5Y-70.6
X93.2Y-85.0
X93.2Y-90.0
X93.2Y-95.0
X94.8Y-78.5
X94.8Y-81.3
X95.0Y-50.0
X95.0Y-55.0
X95.0Y-65.0
X95.0Y-135.0
X95.0Y-140.0
X95.1Y-99.2
X95.1Y-100.8
X95.2Y-84.0
X95.3Y-111.8
X95.3Y-113.4
X96.0Y-73.9
X97.0Y-70.6
X97.8Y-99.2
X97.8Y-101.0
X98.4Y-82.7
X98.5Y-81.0
X98.5Y-92.9
X98.7Y-111.8
X98.7Y-113.5
X99.3Y-78.5
X100.0Y-50.0
X100.0Y-55.0
X100.0Y-135.0
X100.0Y-140.0
X100.5Y-92.5
X100.6Y-73.9
X101.345Y-57.18
X101.425Y-60.2
X101.425Y-63.2
X101.55Y-70.55
X104.2Y-82.7
X105.0Y-55.0
X105.0Y-60.0
X105.0Y-135.0
X105.0Y-140.0
X105.25Y-78.65
X105.3Y-73.4
X106.2Y-72.9
X106.7Y-78.5
X107.0Y-92.7
X107.1Y-73.4
X108.4Y-65.4
X108.4Y-67.5
X108.4Y-69.7
X108.4Y-74.8
X108.5Y-77.3
X108.5Y-113.3
X109.9Y-62.1
X110.0Y-50.0
X110.0Y-55.0
X110.0Y-64.4
X110.0Y-75.0
X110.0Y-80.0
X110.0Y-85.0
X110.0Y-90.0
X110.0Y-105.0
X110.0Y-110.0
X110.0Y-130.0
X110.0Y-135.0
X110.0Y-140.0
X110.8Y-95.3
X110.8Y-99.5
X111.8Y-58.1
X111.924Y-62.076
X112.3Y-95.3
X112.3Y-99.5
X113.1Y-96.4
X113.1Y-98.5
X113.8Y-58.1
X113.8Y-95.3
X113.8Y-97.4
X113.8Y-99.5
X115.0Y-105.0
X115.0Y-110.0
X115.0Y-115.0
X115.0Y-130.0
X115.0Y-135.0
X115.0Y-140.0
X115.1Y-62.1
X115.6Y-63.9
X116.5Y-97.5
X116.5Y-101.0
X116.5Y-104.5
X116.9Y-58.1
X117.0Y-62.1
X117.5Y-95.8
X117.8Y-66.4
X118.9Y-58.1
X119.1Y-96.4
X119.1Y-97.9
X119.1Y-99.4
X119.5Y-104.0
X119.7Y-63.6
X119.7Y-130.1
X120.0Y-85.0
X120.0Y-105.0
X120.0Y-110.0
X120.0Y-115.0
X120.0Y-120.0
X120.0Y-135.0
X120.0Y-140.0
X120.1Y-68.6
X120.2Y-62.1
X120.5Y-74.0
X120.8Y-90.5
X122.1Y-58.1
X122.1Y-66.5
X122.2Y-62.1
X122.3Y-71.1
X122.95Y-88.45
X123.0Y-85.0
X123.156Y-97.066
X123.4Y-95.1
X123.5Y-108.0
X123.5Y-110.5
X123.6Y-96.4
X124.0Y-58.1
X124.1Y-97.9
X124.3Y-68.6
X124.5Y-92.3
X124.5Y-93.2
X124.5Y-95.1
X124.524Y-94.024
X125.0Y-115.0
X125.0Y-120.0
X125.0Y-125.0
X125.0Y-140.0
X125.2Y-62.1
X125.4Y-74.0
X125.7Y-101.0
X125.762Y-97.938
X126.3Y-66.5
X126.4Y-70.8
X126.6Y-106.2
X127.1Y-58.1
X127.2Y-62.1
X127.75Y-85.15
X127.9Y-106.2
X127.975Y-86.875
X128.4Y-68.6
X128.626Y-92.626
X129.1Y-58.1
X129.7Y-90.2
X129.7Y-91.125
X129.7Y-92.9
X129.7Y-93.8
X129.713Y-91.987
X129.8Y-106.1
X129.8Y-112.5
X130.0Y-55.0
X130.0Y-60.0
X130.0Y-115.0
X130.0Y-120.0
X130.0Y-125.0
X130.0Y-140.0
X130.1Y-99.3
X130.2Y-74.9
X130.3Y-94.5
X130.9Y-106.1
X130.9Y-112.5
X131.2Y-71.4
X132.0Y-106.1
X132.0Y-112.5
X132.7Y-85.8
X132.8Y-103.4
X133.1Y-90.2
X133.1Y-91.4
X133.1Y-93.5
X133.2Y-120.987
X133.5Y-108.0
X133.5Y-110.5
X134.0Y-104.0
X134.4Y-97.6
X134.4Y-122.012
X134.7Y-113.4
X134.9Y-100.7
X135.0Y-55.0
X135.0Y-60.0
X135.0Y-75.0
X135.0Y-110.4
X135.0Y-140.0
X135.1Y-70.5
X135.8Y-92.4
X135.801Y-111.1
X136.1Y-88.4
X136.2Y-113.412
X136.345Y-85.3
X136.5Y-108.0
X136.6Y-104.1
X137.0Y-88.1
X137.169Y-85.324
X137.3Y-54.787
X137.3Y-126.2
X137.6Y-62.1
X137.7Y-113.412
X137.969Y-85.321
X138.2Y-88.3
X138.3Y-57.8
X138.5Y-75.0
X138.8Y-85.3
X139.0Y-108.0
X139.2Y-113.412
X139.3Y-127.4
X139.4Y-126.0
X139.6Y-62.1
X139.9Y-58.1
X140.0Y-69.7
X140.0Y-88.5
X140.0Y-107.1
X140.0Y-117.4
X140.0Y-140.0
X140.6Y-105.2
X140.7Y-85.2
X140.8Y-106.2
X141.399Y-68.424
X141.4Y-91.8
X141.4Y-111.9
X141.8Y-58.1
X142.2Y-91.2
X142.224Y-68.9
X142.3Y-62.1
X142.3Y-111.0
X142.5Y-100.8
X142.5Y-122.9
X143.0Y-91.8
X143.0Y-112.8
X143.024Y-68.4
X143.3Y-57.7
X143.5Y-101.0
X143.7Y-91.2
X144.0Y-113.7
X144.0Y-127.0
X144.2Y-66.1
X144.3Y-54.8
X144.3Y-62.1
X144.4Y-84.5
X144.5Y-89.5
X144.9Y-73.2
X145.0Y-104.5
X145.0Y-140.0
X145.2Y-69.2
X145.4Y-90.0
X145.4Y-118.5
X145.5Y-89.1
X145.5Y-103.7
X145.6Y-70.2
X145.9Y-97.6
X145.9Y-98.9
X146.0Y-62.1
X146.1Y-66.0
X146.6Y-54.887
X147.4Y-57.8
X147.8Y-62.1
X147.8Y-66.1
X148.5Y-114.5
X148.7Y-67.5
X149.162Y-103.562
X149.4Y-102.0
X149.5Y-77.5
X149.5Y-81.5
X149.5Y-85.5
X149.6Y-62.1
X149.7Y-66.1
X149.9Y-57.8
X150.0Y-140.0
X150.1Y-89.4
X150.5Y-54.9
X150.5Y-99.0
X150.5Y-103.5
X150.8Y-96.4
X151.5Y-62.1
X151.5Y-66.1
X151.5Y-113.0
X151.5Y-117.0
X152.1Y-57.7
X152.1Y-87.4
X152.5Y-54.9
X152.5Y-66.4
X152.5Y-74.5
X152.5Y-79.1
X152.5Y-81.9
X152.5Y-84.7
X152.5Y-120.5
X152.8Y-94.4
X153.2Y-62.2
X153.4Y-66.1
X153.6Y-95.6
X153.8Y-57.7
X154.5Y-76.8
X154.5Y-111.0
X154.5Y-115.0
X154.887Y-54.887
X155.0Y-70.0
X155.0Y-119.0
X155.0Y-140.0
X155.1Y-62.2
X155.1Y-66.1
X155.5Y-71.5
X155.5Y-123.5
X155.8Y-97.0
X156.0Y-92.7
X156.0Y-107.0
X156.09Y-135.99
X156.2Y-58.0
X156.4Y-95.8
X156.835Y-101.635
X157.0Y-97.6
X157.1Y-66.1
X157.1Y-75.8
X157.4Y-55.0
X157.5Y-74.0
X157.674Y-80.6
X157.7Y-84.8
X158.0Y-122.0
X158.162Y-83.237
X158.4Y-90.0
X158.5Y-68.5
X158.5Y-126.5
X158.719Y-89.019
X158.8Y-94.475
X159.1Y-86.0
X159.1Y-136.0
X159.4Y-88.6
X159.6Y-74.8
X159.9Y-94.4
X159.926Y-110.0
X160.0Y-55.0
X160.0Y-60.0
X160.0Y-65.0
X160.0Y-115.0
X160.0Y-120.0
X160.0Y-140.0
X160.5Y-71.0
X160.5Y-75.8
X160.7Y-88.6
X160.8Y-86.0
X161.0Y-102.7
X161.0Y-125.0
X161.5Y-65.5
X161.5Y-135.7
X161.6Y-100.9
X161.948Y-79.86
X162.1Y-86.0
X162.3Y-75.3
X162.5Y-130.0
X162.6Y-80.324
X162.8Y-73.0
X162.8Y-131.4
X162.8Y-132.2
X162.8Y-133.0
X163.0Y-127.0
X163.089Y-95.7
X163.226Y-92.374
X163.3Y-90.0
X163.4Y-76.3
X163.45Y-74.75
X163.5Y-68.0
X163.5Y-94.7
X163.6Y-86.0
X163.6Y-131.4
X163.6Y-132.2
X163.6Y-133.0
X163.95Y-88.5
X164.5Y-62.5
X164.6Y-83.2
X164.6Y-85.9
X164.926Y-110.0
X165.0Y-50.0
X165.0Y-55.0
X165.0Y-60.0
X165.0Y-70.0
X165.0Y-105.0
X165.0Y-115.0
X165.0Y-120.0
X165.0Y-140.0
X165.5Y-78.4
X166.1Y-71.7
X166.15Y-66.75
X166.5Y-65.0
X166.5Y-127.0
X166.5Y-130.0
X166.55Y-88.7
X167.1Y-66.7
X167.1Y-71.6
X167.5Y-59.5
X167.5Y-95.3
X167.6Y-80.5
X167.6Y-82.2
X167.9Y-89.9
X168.0Y-66.7
X168.05Y-71.65
X168.1Y-87.6
X169.5Y-62.0
X169.926Y-110.0
X170.0Y-55.0
X170.0Y-65.0
X170.0Y-70.0
X170.0Y-75.0
X170.0Y-80.0
X170.0Y-105.0
X170.0Y-115.0
X170.0Y-120.0
X170.0Y-140.0
X170.5Y-127.0
X170.5Y-130.0
X170.6Y-94.0
X170.7Y-92.4
X171.5Y-93.2
X171.6Y-94.7
X172.0Y-59.0
X172.1Y-72.3
X172.7Y-126.4
X173.3Y-110.4
X173.5Y-62.0
X174.5Y-130.0
X175.0Y-50.0
X175.0Y-55.0
X175.0Y-65.0
X175.0Y-70.0
X175.0Y-85.0
X175.0Y-105.0
X175.0Y-140.0
X176.0Y-59.0
X176.0Y-122.1
X176.7Y-95.0
X177.5Y-62.0
X178.1Y-89.3
X178.5Y-127.5
X178.5Y-130.0
X179.135Y-126.7
X179.7Y-70.3
X180.0Y-50.0
X180.0Y-55.0
X180.0Y-59.0
X180.0Y-140.0
X180.1Y-116.5
X180.3Y-72.062
X180.405Y-118.7
X180.965Y-62.2
X181.5Y-95.662
X182.5Y-127.5
X182.5Y-130.0
X183.5Y-96.4
X184.0Y-59.0
X184.0Y-61.0
X185.0Y-50.0
X185.0Y-55.0
X185.0Y-97.6
X185.0Y-140.0
X185.162Y-120.737
X185.2Y-83.0
X185.4Y-122.1
X185.8Y-97.0
X186.0Y-88.8
X186.5Y-127.5
X186.5Y-130.0
X186.675Y-80.825
X186.8Y-78.7
X186.8Y-102.8
X187.0Y-89.5
X187.0Y-95.5
X187.2Y-100.0
X187.3Y-62.8
X187.3Y-86.1
X187.425Y-104.725
X188.0Y-59.0
X188.0Y-61.0
X188.085Y-100.3
X188.1Y-95.0
X188.1Y-116.7
X188.9Y-106.0
X189.8Y-73.4
X190.0Y-50.0
X190.0Y-55.0
X190.0Y-65.0
X190.0Y-140.0
X190.1Y-69.3
X190.5Y-127.5
X190.5Y-130.0
X191.2Y-83.0
X191.875Y-88.825
X192.0Y-59.0
X192.0Y-61.0
X192.3Y-72.3
X192.4Y-81.8
X192.6Y-89.7
X192.6Y-126.5
X192.7Y-102.9
X193.05Y-110.35
X193.2Y-86.0
X193.3Y-99.4
X193.325Y-108.175
X194.0Y-100.3
X194.5Y-127.5
X194.5Y-130.0
X194.8Y-106.0
X195.0Y-50.0
X195.0Y-55.0
X195.0Y-65.0
X195.0Y-69.2
X195.0Y-90.0
X195.0Y-140.0
X195.2Y-68.0
X196.0Y-59.0
X196.0Y-61.0
X198.5Y-128.0
X198.5Y-130.0
X199.035Y-126.8
X199.595Y-70.295
X200.0Y-50.0
X200.0Y-55.0
X200.0Y-59.0
X200.0Y-61.0
X200.0Y-90.0
X200.0Y-95.0
X200.0Y-100.0
X200.0Y-116.5
X200.0Y-140.0
X200.037Y-72.062
X200.2Y-118.7
X200.865Y-62.0
X204.0Y-60.0
X204.037Y-66.763
X204.5Y-62.0
X204.675Y-120.737
X205.0Y-50.0
X205.0Y-55.0
X205.0Y-85.0
X205.0Y-90.0
X205.0Y-95.0
X205.0Y-100.0
X205.0Y-105.0
X205.0Y-120.0
X205.0Y-135.0
X205.0Y-140.0
X206.2Y-125.6
X206.9Y-122.6
X207.0Y-78.6
X207.2Y-62.5
X208.0Y-116.7
X208.8Y-72.0
X210.0Y-55.0
X210.0Y-60.0
X210.0Y-65.0
X210.3Y-70.3
X212.4Y-70.3
X212.4Y-75.3
X212.4Y-80.3
X212.4Y-85.3
X212.4Y-90.3
X212.4Y-95.3
X212.4Y-100.3
X212.4Y-105.3
X212.4Y-110.3
X212.4Y-115.3
X212.4Y-120.3
X212.4Y-125.3
X212.4Y-130.3
T2
X135.787Y-120.4
X135.787Y-121.7
X135.787Y-123.0
X137.088Y-120.4
X137.088Y-121.7
X137.088Y-123.0
X138.387Y-120.4
X138.387Y-121.7
X138.387Y-123.0
X139.688Y-120.4
X139.688Y-121.7
X139.688Y-123.0
X140.987Y-120.4
X140.987Y-121.7
X140.987Y-123.0
T3
X91.52Y-97.432
X91.52Y-99.972
X91.52Y-102.512
X91.52Y-109.97
X91.52Y-112.51
X91.52Y-115.05
X115.0Y-75.6
X115.0Y-78.14
X115.0Y-80.68
X115.0Y-83.22
X115.0Y-85.76
X115.0Y-88.3
X115.0Y-90.84
T4
X112.84Y-47.96
X112.84Y-50.5
X115.38Y-47.96
X115.38Y-50.5
X117.92Y-47.96
X117.92Y-50.5
X120.46Y-47.96
X120.46Y-50.5
X123.0Y-47.96
X123.0Y-50.5
X125.54Y-47.96
X125.54Y-50.5
X128.08Y-47.96
X128.08Y-50.5
X130.62Y-47.96
X130.62Y-50.5
X133.16Y-47.96
X133.16Y-50.5
X135.7Y-47.96
X135.7Y-50.5
X138.24Y-47.96
X138.24Y-50.5
X140.78Y-47.96
X140.78Y-50.5
X143.32Y-47.96
X143.32Y-50.5
X145.86Y-47.96
X145.86Y-50.5
X148.4Y-47.96
X148.4Y-50.5
X150.94Y-47.96
X150.94Y-50.5
X153.48Y-47.96
X153.48Y-50.5
X156.02Y-47.96
X156.02Y-50.5
X158.56Y-47.96
X158.56Y-50.5
X161.1Y-47.96
X161.1Y-50.5
T5
X93.095Y-124.355
X93.095Y-129.435
T6
X180.1Y-84.5
X180.1Y-104.5
X200.0Y-84.5
X200.0Y-104.5
T7
X177.56Y-81.96
X177.56Y-87.04
X177.56Y-101.96
X177.56Y-107.04
X182.64Y-81.96
X182.64Y-87.04
X182.64Y-101.96
X182.64Y-107.04
X197.46Y-81.96
X197.46Y-87.04
X197.46Y-101.96
X197.46Y-107.04
X202.54Y-81.96
X202.54Y-87.04
X202.54Y-101.96
X202.54Y-107.04
T8
X103.709Y-49.23
X170.231Y-49.23
T9
X89.5Y-49.5
X89.5Y-139.5
X209.5Y-49.5
X209.5Y-139.5
M30
