%TF.GenerationSoftware,KiCad,Pcbnew,8.0.1*%
%TF.CreationDate,2024-10-12T16:48:09+02:00*%
%TF.ProjectId,ultrasonic_V3_HW,756c7472-6173-46f6-9e69-635f56335f48,rev?*%
%TF.SameCoordinates,Original*%
%TF.FileFunction,Soldermask,Bot*%
%TF.FilePolarity,Negative*%
%FSLAX46Y46*%
G04 Gerber Fmt 4.6, Leading zero omitted, Abs format (unit mm)*
G04 Created by KiCad (PCBNEW 8.0.1) date 2024-10-12 16:48:09*
%MOMM*%
%LPD*%
G01*
G04 APERTURE LIST*
G04 Aperture macros list*
%AMRoundRect*
0 Rectangle with rounded corners*
0 $1 Rounding radius*
0 $2 $3 $4 $5 $6 $7 $8 $9 X,Y pos of 4 corners*
0 Add a 4 corners polygon primitive as box body*
4,1,4,$2,$3,$4,$5,$6,$7,$8,$9,$2,$3,0*
0 Add four circle primitives for the rounded corners*
1,1,$1+$1,$2,$3*
1,1,$1+$1,$4,$5*
1,1,$1+$1,$6,$7*
1,1,$1+$1,$8,$9*
0 Add four rect primitives between the rounded corners*
20,1,$1+$1,$2,$3,$4,$5,0*
20,1,$1+$1,$4,$5,$6,$7,0*
20,1,$1+$1,$6,$7,$8,$9,0*
20,1,$1+$1,$8,$9,$2,$3,0*%
G04 Aperture macros list end*
%ADD10RoundRect,0.237500X-0.300000X-0.237500X0.300000X-0.237500X0.300000X0.237500X-0.300000X0.237500X0*%
%ADD11C,3.600000*%
%ADD12C,5.600000*%
%ADD13R,1.700000X1.700000*%
%ADD14O,1.700000X1.700000*%
%ADD15R,2.600000X2.600000*%
%ADD16C,2.600000*%
%ADD17C,2.050000*%
%ADD18C,2.250000*%
%ADD19R,1.800000X1.800000*%
%ADD20C,1.800000*%
%ADD21C,1.524000*%
%ADD22C,3.352800*%
%ADD23RoundRect,0.250000X-0.475000X0.337500X-0.475000X-0.337500X0.475000X-0.337500X0.475000X0.337500X0*%
%ADD24RoundRect,0.250000X-0.625000X0.400000X-0.625000X-0.400000X0.625000X-0.400000X0.625000X0.400000X0*%
%ADD25RoundRect,0.237500X0.300000X0.237500X-0.300000X0.237500X-0.300000X-0.237500X0.300000X-0.237500X0*%
%ADD26RoundRect,0.237500X-0.237500X0.300000X-0.237500X-0.300000X0.237500X-0.300000X0.237500X0.300000X0*%
%ADD27RoundRect,0.250000X0.337500X0.475000X-0.337500X0.475000X-0.337500X-0.475000X0.337500X-0.475000X0*%
%ADD28RoundRect,0.237500X-0.237500X0.250000X-0.237500X-0.250000X0.237500X-0.250000X0.237500X0.250000X0*%
%ADD29RoundRect,0.237500X0.237500X-0.300000X0.237500X0.300000X-0.237500X0.300000X-0.237500X-0.300000X0*%
%ADD30RoundRect,0.250000X-0.337500X-0.475000X0.337500X-0.475000X0.337500X0.475000X-0.337500X0.475000X0*%
%ADD31RoundRect,0.250000X0.475000X-0.337500X0.475000X0.337500X-0.475000X0.337500X-0.475000X-0.337500X0*%
%ADD32RoundRect,0.237500X0.237500X-0.250000X0.237500X0.250000X-0.237500X0.250000X-0.237500X-0.250000X0*%
%ADD33RoundRect,0.250000X0.625000X-0.400000X0.625000X0.400000X-0.625000X0.400000X-0.625000X-0.400000X0*%
%ADD34RoundRect,0.225000X0.250000X-0.225000X0.250000X0.225000X-0.250000X0.225000X-0.250000X-0.225000X0*%
%ADD35RoundRect,0.200000X-0.200000X-0.275000X0.200000X-0.275000X0.200000X0.275000X-0.200000X0.275000X0*%
%ADD36RoundRect,0.200000X0.200000X0.275000X-0.200000X0.275000X-0.200000X-0.275000X0.200000X-0.275000X0*%
G04 APERTURE END LIST*
D10*
%TO.C,C89*%
X105337500Y-77300000D03*
X107062500Y-77300000D03*
%TD*%
%TO.C,C88*%
X105237500Y-74800000D03*
X106962500Y-74800000D03*
%TD*%
D11*
%TO.C,H3*%
X209500000Y-139500000D03*
D12*
X209500000Y-139500000D03*
%TD*%
D13*
%TO.C,J4*%
X115000000Y-75600000D03*
D14*
X115000000Y-78140000D03*
X115000000Y-80680000D03*
X115000000Y-83220000D03*
X115000000Y-85760000D03*
X115000000Y-88300000D03*
X115000000Y-90840000D03*
%TD*%
D11*
%TO.C,H2*%
X89500000Y-139500000D03*
D12*
X89500000Y-139500000D03*
%TD*%
D15*
%TO.C,J5*%
X93095000Y-124355000D03*
D16*
X93095000Y-129435000D03*
%TD*%
D17*
%TO.C,J7*%
X180100000Y-104500000D03*
D18*
X177560000Y-107040000D03*
X182640000Y-107040000D03*
X177560000Y-101960000D03*
X182640000Y-101960000D03*
%TD*%
D11*
%TO.C,H1*%
X89500000Y-49500000D03*
D12*
X89500000Y-49500000D03*
%TD*%
D17*
%TO.C,J2*%
X200000000Y-84500000D03*
D18*
X202540000Y-81960000D03*
X197460000Y-81960000D03*
X202540000Y-87040000D03*
X197460000Y-87040000D03*
%TD*%
D17*
%TO.C,J6*%
X180100000Y-84500000D03*
D18*
X182640000Y-81960000D03*
X177560000Y-81960000D03*
X182640000Y-87040000D03*
X177560000Y-87040000D03*
%TD*%
D17*
%TO.C,J3*%
X200000000Y-104500000D03*
D18*
X197460000Y-107040000D03*
X202540000Y-107040000D03*
X197460000Y-101960000D03*
X202540000Y-101960000D03*
%TD*%
D11*
%TO.C,H4*%
X209500000Y-49500000D03*
D12*
X209500000Y-49500000D03*
%TD*%
D19*
%TO.C,U12*%
X91520000Y-102512500D03*
D20*
X91520000Y-99972500D03*
X91520000Y-97432500D03*
%TD*%
D19*
%TO.C,U13*%
X91520000Y-115050000D03*
D20*
X91520000Y-112510000D03*
X91520000Y-109970000D03*
%TD*%
D21*
%TO.C,J1*%
X112840000Y-50500000D03*
X115380000Y-50500000D03*
X117920000Y-50500000D03*
X120460000Y-50500000D03*
X123000000Y-50500000D03*
X125540000Y-50500000D03*
X128080000Y-50500000D03*
X130620000Y-50500000D03*
X133160000Y-50500000D03*
X135700000Y-50500000D03*
X138240000Y-50500000D03*
X140780000Y-50500000D03*
X143320000Y-50500000D03*
X145860000Y-50500000D03*
X148400000Y-50500000D03*
X150940000Y-50500000D03*
X153480000Y-50500000D03*
X156020000Y-50500000D03*
X158560000Y-50500000D03*
X161100000Y-50500000D03*
X161100000Y-47960000D03*
X158560000Y-47960000D03*
X156020000Y-47960000D03*
X153480000Y-47960000D03*
X150940000Y-47960000D03*
X148400000Y-47960000D03*
X145860000Y-47960000D03*
X143320000Y-47960000D03*
X140780000Y-47960000D03*
X138240000Y-47960000D03*
X135700000Y-47960000D03*
X133160000Y-47960000D03*
X130620000Y-47960000D03*
X128080000Y-47960000D03*
X125540000Y-47960000D03*
X123000000Y-47960000D03*
X120460000Y-47960000D03*
X117920000Y-47960000D03*
X115380000Y-47960000D03*
X112840000Y-47960000D03*
D22*
X103708700Y-49230000D03*
X170231300Y-49230000D03*
%TD*%
D23*
%TO.C,C31*%
X97000000Y-113462500D03*
X97000000Y-115537500D03*
%TD*%
D24*
%TO.C,R1*%
X195100000Y-110350000D03*
X195100000Y-113450000D03*
%TD*%
D25*
%TO.C,C36*%
X121962500Y-96400000D03*
X120237500Y-96400000D03*
%TD*%
%TO.C,C79*%
X93362500Y-82000000D03*
X91637500Y-82000000D03*
%TD*%
D26*
%TO.C,C23*%
X159100000Y-83237500D03*
X159100000Y-84962500D03*
%TD*%
D27*
%TO.C,C60*%
X139425000Y-124800000D03*
X137350000Y-124800000D03*
%TD*%
D28*
%TO.C,R24*%
X160700000Y-89487500D03*
X160700000Y-91312500D03*
%TD*%
D26*
%TO.C,R60*%
X151500000Y-55237500D03*
X151500000Y-56962500D03*
%TD*%
D10*
%TO.C,C14*%
X186637500Y-94200000D03*
X188362500Y-94200000D03*
%TD*%
D29*
%TO.C,C86*%
X186700000Y-75462500D03*
X186700000Y-73737500D03*
%TD*%
%TO.C,C30*%
X94000000Y-115225000D03*
X94000000Y-113500000D03*
%TD*%
%TO.C,C40*%
X148900000Y-89762500D03*
X148900000Y-88037500D03*
%TD*%
D10*
%TO.C,C81*%
X191337500Y-80900000D03*
X193062500Y-80900000D03*
%TD*%
%TO.C,C9*%
X164750000Y-95500000D03*
X166475000Y-95500000D03*
%TD*%
D30*
%TO.C,C53*%
X162962500Y-72300000D03*
X165037500Y-72300000D03*
%TD*%
D31*
%TO.C,C32*%
X97000000Y-111737500D03*
X97000000Y-109662500D03*
%TD*%
D28*
%TO.C,R15*%
X162200000Y-89487500D03*
X162200000Y-91312500D03*
%TD*%
D26*
%TO.C,C72*%
X201400000Y-118737500D03*
X201400000Y-120462500D03*
%TD*%
%TO.C,C33*%
X94000000Y-110000000D03*
X94000000Y-111725000D03*
%TD*%
D23*
%TO.C,C65*%
X208800000Y-73262500D03*
X208800000Y-75337500D03*
%TD*%
%TO.C,C28*%
X96000000Y-100962500D03*
X96000000Y-103037500D03*
%TD*%
D25*
%TO.C,C19*%
X166762500Y-90300000D03*
X165037500Y-90300000D03*
%TD*%
D29*
%TO.C,C39*%
X133600000Y-88362500D03*
X133600000Y-86637500D03*
%TD*%
D24*
%TO.C,R10*%
X175400000Y-110350000D03*
X175400000Y-113450000D03*
%TD*%
D31*
%TO.C,C71*%
X183800000Y-120737500D03*
X183800000Y-118662500D03*
%TD*%
D25*
%TO.C,C52*%
X133025000Y-99000000D03*
X131300000Y-99000000D03*
%TD*%
%TO.C,C34*%
X121962500Y-97900000D03*
X120237500Y-97900000D03*
%TD*%
D29*
%TO.C,C37*%
X135100000Y-88362500D03*
X135100000Y-86637500D03*
%TD*%
D23*
%TO.C,C64*%
X188500000Y-73362500D03*
X188500000Y-75437500D03*
%TD*%
D32*
%TO.C,R21*%
X170600000Y-94112500D03*
X170600000Y-92287500D03*
%TD*%
D29*
%TO.C,C66*%
X207000000Y-75262500D03*
X207000000Y-73537500D03*
%TD*%
D28*
%TO.C,R19*%
X169100000Y-92287500D03*
X169100000Y-94112500D03*
%TD*%
D31*
%TO.C,C77*%
X203100000Y-72237500D03*
X203100000Y-70162500D03*
%TD*%
D26*
%TO.C,C38*%
X146500000Y-101837500D03*
X146500000Y-103562500D03*
%TD*%
%TO.C,C42*%
X147200000Y-97337500D03*
X147200000Y-99062500D03*
%TD*%
D31*
%TO.C,C73*%
X203300000Y-120737500D03*
X203300000Y-118662500D03*
%TD*%
D10*
%TO.C,C83*%
X187162500Y-81700000D03*
X185437500Y-81700000D03*
%TD*%
D33*
%TO.C,R2*%
X204900000Y-78650000D03*
X204900000Y-75550000D03*
%TD*%
D25*
%TO.C,C54*%
X165062500Y-75600000D03*
X163337500Y-75600000D03*
%TD*%
D26*
%TO.C,C85*%
X167600000Y-72037500D03*
X167600000Y-73762500D03*
%TD*%
D34*
%TO.C,C4*%
X128900000Y-86875000D03*
X128900000Y-85325000D03*
%TD*%
D26*
%TO.C,C43*%
X133800000Y-100737500D03*
X133800000Y-102462500D03*
%TD*%
D25*
%TO.C,C51*%
X135762500Y-93500000D03*
X134037500Y-93500000D03*
%TD*%
D32*
%TO.C,R80*%
X138300000Y-56612500D03*
X138300000Y-54787500D03*
%TD*%
D33*
%TO.C,R9*%
X184800000Y-78650000D03*
X184800000Y-75550000D03*
%TD*%
D25*
%TO.C,C84*%
X188562500Y-107200000D03*
X186837500Y-107200000D03*
%TD*%
D26*
%TO.C,C46*%
X148100000Y-101837500D03*
X148100000Y-103562500D03*
%TD*%
D29*
%TO.C,C7*%
X160200000Y-94962500D03*
X160200000Y-93237500D03*
%TD*%
D25*
%TO.C,C82*%
X194562500Y-107200000D03*
X192837500Y-107200000D03*
%TD*%
%TO.C,C49*%
X133025000Y-97500000D03*
X131300000Y-97500000D03*
%TD*%
D29*
%TO.C,C29*%
X94000000Y-102562500D03*
X94000000Y-100837500D03*
%TD*%
%TO.C,C41*%
X147200000Y-89800000D03*
X147200000Y-88075000D03*
%TD*%
D25*
%TO.C,C25*%
X163162500Y-81500000D03*
X161437500Y-81500000D03*
%TD*%
D32*
%TO.C,R77*%
X149500000Y-57000000D03*
X149500000Y-55175000D03*
%TD*%
D31*
%TO.C,C69*%
X199000000Y-115487499D03*
X199000000Y-113412499D03*
%TD*%
D35*
%TO.C,R66*%
X124975000Y-105000000D03*
X126625000Y-105000000D03*
%TD*%
D36*
%TO.C,R61*%
X126125000Y-85100000D03*
X124475000Y-85100000D03*
%TD*%
D25*
%TO.C,C18*%
X166762500Y-88800000D03*
X165037500Y-88800000D03*
%TD*%
D32*
%TO.C,R22*%
X162000000Y-95012500D03*
X162000000Y-93187500D03*
%TD*%
D26*
%TO.C,C67*%
X197100000Y-113437500D03*
X197100000Y-115162500D03*
%TD*%
%TO.C,C27*%
X94000000Y-97462500D03*
X94000000Y-99187500D03*
%TD*%
D32*
%TO.C,R81*%
X143300000Y-56625000D03*
X143300000Y-54800000D03*
%TD*%
D26*
%TO.C,C87*%
X177300000Y-113437500D03*
X177300000Y-115162500D03*
%TD*%
D25*
%TO.C,C80*%
X102962500Y-82700000D03*
X101237500Y-82700000D03*
%TD*%
D29*
%TO.C,C44*%
X144700000Y-88262500D03*
X144700000Y-86537500D03*
%TD*%
D32*
%TO.C,R79*%
X156300000Y-56812500D03*
X156300000Y-54987500D03*
%TD*%
D26*
%TO.C,C74*%
X181400000Y-70337500D03*
X181400000Y-72062500D03*
%TD*%
D29*
%TO.C,C50*%
X134200000Y-91762500D03*
X134200000Y-90037500D03*
%TD*%
D26*
%TO.C,C70*%
X181700000Y-118737500D03*
X181700000Y-120462500D03*
%TD*%
D25*
%TO.C,C47*%
X138462500Y-86900000D03*
X136737500Y-86900000D03*
%TD*%
D31*
%TO.C,C68*%
X179200000Y-115537500D03*
X179200000Y-113462500D03*
%TD*%
D26*
%TO.C,C21*%
X162100000Y-83237500D03*
X162100000Y-84962500D03*
%TD*%
%TO.C,C22*%
X160600000Y-83237500D03*
X160600000Y-84962500D03*
%TD*%
D10*
%TO.C,C45*%
X142137500Y-99800000D03*
X143862500Y-99800000D03*
%TD*%
D31*
%TO.C,C75*%
X183400000Y-72337500D03*
X183400000Y-70262500D03*
%TD*%
D26*
%TO.C,C76*%
X201200000Y-70337500D03*
X201200000Y-72062500D03*
%TD*%
D25*
%TO.C,C3*%
X125762500Y-99400000D03*
X124037500Y-99400000D03*
%TD*%
D10*
%TO.C,C13*%
X156537500Y-91300000D03*
X158262500Y-91300000D03*
%TD*%
%TO.C,C78*%
X158137500Y-101600000D03*
X159862500Y-101600000D03*
%TD*%
D26*
%TO.C,C20*%
X163600000Y-83237500D03*
X163600000Y-84962500D03*
%TD*%
D31*
%TO.C,C26*%
X96000000Y-99237500D03*
X96000000Y-97162500D03*
%TD*%
D25*
%TO.C,C55*%
X165062500Y-74100000D03*
X163337500Y-74100000D03*
%TD*%
%TO.C,C35*%
X121962500Y-99400000D03*
X120237500Y-99400000D03*
%TD*%
D32*
%TO.C,R78*%
X153800000Y-56912500D03*
X153800000Y-55087500D03*
%TD*%
%TO.C,R76*%
X147700000Y-57012500D03*
X147700000Y-55187500D03*
%TD*%
D26*
%TO.C,C48*%
X132300000Y-100737500D03*
X132300000Y-102462500D03*
%TD*%
M02*
