%TF.GenerationSoftware,KiCad,Pcbnew,8.0.1*%
%TF.CreationDate,2024-10-12T16:48:09+02:00*%
%TF.ProjectId,ultrasonic_V3_HW,756c7472-6173-46f6-9e69-635f56335f48,rev?*%
%TF.SameCoordinates,Original*%
%TF.FileFunction,Legend,Bot*%
%TF.FilePolarity,Positive*%
%FSLAX46Y46*%
G04 Gerber Fmt 4.6, Leading zero omitted, Abs format (unit mm)*
G04 Created by KiCad (PCBNEW 8.0.1) date 2024-10-12 16:48:09*
%MOMM*%
%LPD*%
G01*
G04 APERTURE LIST*
%ADD10C,0.150000*%
%ADD11C,0.120000*%
%ADD12C,0.508000*%
G04 APERTURE END LIST*
D10*
X106842857Y-79089580D02*
X106890476Y-79137200D01*
X106890476Y-79137200D02*
X107033333Y-79184819D01*
X107033333Y-79184819D02*
X107128571Y-79184819D01*
X107128571Y-79184819D02*
X107271428Y-79137200D01*
X107271428Y-79137200D02*
X107366666Y-79041961D01*
X107366666Y-79041961D02*
X107414285Y-78946723D01*
X107414285Y-78946723D02*
X107461904Y-78756247D01*
X107461904Y-78756247D02*
X107461904Y-78613390D01*
X107461904Y-78613390D02*
X107414285Y-78422914D01*
X107414285Y-78422914D02*
X107366666Y-78327676D01*
X107366666Y-78327676D02*
X107271428Y-78232438D01*
X107271428Y-78232438D02*
X107128571Y-78184819D01*
X107128571Y-78184819D02*
X107033333Y-78184819D01*
X107033333Y-78184819D02*
X106890476Y-78232438D01*
X106890476Y-78232438D02*
X106842857Y-78280057D01*
X106271428Y-78613390D02*
X106366666Y-78565771D01*
X106366666Y-78565771D02*
X106414285Y-78518152D01*
X106414285Y-78518152D02*
X106461904Y-78422914D01*
X106461904Y-78422914D02*
X106461904Y-78375295D01*
X106461904Y-78375295D02*
X106414285Y-78280057D01*
X106414285Y-78280057D02*
X106366666Y-78232438D01*
X106366666Y-78232438D02*
X106271428Y-78184819D01*
X106271428Y-78184819D02*
X106080952Y-78184819D01*
X106080952Y-78184819D02*
X105985714Y-78232438D01*
X105985714Y-78232438D02*
X105938095Y-78280057D01*
X105938095Y-78280057D02*
X105890476Y-78375295D01*
X105890476Y-78375295D02*
X105890476Y-78422914D01*
X105890476Y-78422914D02*
X105938095Y-78518152D01*
X105938095Y-78518152D02*
X105985714Y-78565771D01*
X105985714Y-78565771D02*
X106080952Y-78613390D01*
X106080952Y-78613390D02*
X106271428Y-78613390D01*
X106271428Y-78613390D02*
X106366666Y-78661009D01*
X106366666Y-78661009D02*
X106414285Y-78708628D01*
X106414285Y-78708628D02*
X106461904Y-78803866D01*
X106461904Y-78803866D02*
X106461904Y-78994342D01*
X106461904Y-78994342D02*
X106414285Y-79089580D01*
X106414285Y-79089580D02*
X106366666Y-79137200D01*
X106366666Y-79137200D02*
X106271428Y-79184819D01*
X106271428Y-79184819D02*
X106080952Y-79184819D01*
X106080952Y-79184819D02*
X105985714Y-79137200D01*
X105985714Y-79137200D02*
X105938095Y-79089580D01*
X105938095Y-79089580D02*
X105890476Y-78994342D01*
X105890476Y-78994342D02*
X105890476Y-78803866D01*
X105890476Y-78803866D02*
X105938095Y-78708628D01*
X105938095Y-78708628D02*
X105985714Y-78661009D01*
X105985714Y-78661009D02*
X106080952Y-78613390D01*
X105414285Y-79184819D02*
X105223809Y-79184819D01*
X105223809Y-79184819D02*
X105128571Y-79137200D01*
X105128571Y-79137200D02*
X105080952Y-79089580D01*
X105080952Y-79089580D02*
X104985714Y-78946723D01*
X104985714Y-78946723D02*
X104938095Y-78756247D01*
X104938095Y-78756247D02*
X104938095Y-78375295D01*
X104938095Y-78375295D02*
X104985714Y-78280057D01*
X104985714Y-78280057D02*
X105033333Y-78232438D01*
X105033333Y-78232438D02*
X105128571Y-78184819D01*
X105128571Y-78184819D02*
X105319047Y-78184819D01*
X105319047Y-78184819D02*
X105414285Y-78232438D01*
X105414285Y-78232438D02*
X105461904Y-78280057D01*
X105461904Y-78280057D02*
X105509523Y-78375295D01*
X105509523Y-78375295D02*
X105509523Y-78613390D01*
X105509523Y-78613390D02*
X105461904Y-78708628D01*
X105461904Y-78708628D02*
X105414285Y-78756247D01*
X105414285Y-78756247D02*
X105319047Y-78803866D01*
X105319047Y-78803866D02*
X105128571Y-78803866D01*
X105128571Y-78803866D02*
X105033333Y-78756247D01*
X105033333Y-78756247D02*
X104985714Y-78708628D01*
X104985714Y-78708628D02*
X104938095Y-78613390D01*
X106742857Y-76589580D02*
X106790476Y-76637200D01*
X106790476Y-76637200D02*
X106933333Y-76684819D01*
X106933333Y-76684819D02*
X107028571Y-76684819D01*
X107028571Y-76684819D02*
X107171428Y-76637200D01*
X107171428Y-76637200D02*
X107266666Y-76541961D01*
X107266666Y-76541961D02*
X107314285Y-76446723D01*
X107314285Y-76446723D02*
X107361904Y-76256247D01*
X107361904Y-76256247D02*
X107361904Y-76113390D01*
X107361904Y-76113390D02*
X107314285Y-75922914D01*
X107314285Y-75922914D02*
X107266666Y-75827676D01*
X107266666Y-75827676D02*
X107171428Y-75732438D01*
X107171428Y-75732438D02*
X107028571Y-75684819D01*
X107028571Y-75684819D02*
X106933333Y-75684819D01*
X106933333Y-75684819D02*
X106790476Y-75732438D01*
X106790476Y-75732438D02*
X106742857Y-75780057D01*
X106171428Y-76113390D02*
X106266666Y-76065771D01*
X106266666Y-76065771D02*
X106314285Y-76018152D01*
X106314285Y-76018152D02*
X106361904Y-75922914D01*
X106361904Y-75922914D02*
X106361904Y-75875295D01*
X106361904Y-75875295D02*
X106314285Y-75780057D01*
X106314285Y-75780057D02*
X106266666Y-75732438D01*
X106266666Y-75732438D02*
X106171428Y-75684819D01*
X106171428Y-75684819D02*
X105980952Y-75684819D01*
X105980952Y-75684819D02*
X105885714Y-75732438D01*
X105885714Y-75732438D02*
X105838095Y-75780057D01*
X105838095Y-75780057D02*
X105790476Y-75875295D01*
X105790476Y-75875295D02*
X105790476Y-75922914D01*
X105790476Y-75922914D02*
X105838095Y-76018152D01*
X105838095Y-76018152D02*
X105885714Y-76065771D01*
X105885714Y-76065771D02*
X105980952Y-76113390D01*
X105980952Y-76113390D02*
X106171428Y-76113390D01*
X106171428Y-76113390D02*
X106266666Y-76161009D01*
X106266666Y-76161009D02*
X106314285Y-76208628D01*
X106314285Y-76208628D02*
X106361904Y-76303866D01*
X106361904Y-76303866D02*
X106361904Y-76494342D01*
X106361904Y-76494342D02*
X106314285Y-76589580D01*
X106314285Y-76589580D02*
X106266666Y-76637200D01*
X106266666Y-76637200D02*
X106171428Y-76684819D01*
X106171428Y-76684819D02*
X105980952Y-76684819D01*
X105980952Y-76684819D02*
X105885714Y-76637200D01*
X105885714Y-76637200D02*
X105838095Y-76589580D01*
X105838095Y-76589580D02*
X105790476Y-76494342D01*
X105790476Y-76494342D02*
X105790476Y-76303866D01*
X105790476Y-76303866D02*
X105838095Y-76208628D01*
X105838095Y-76208628D02*
X105885714Y-76161009D01*
X105885714Y-76161009D02*
X105980952Y-76113390D01*
X105219047Y-76113390D02*
X105314285Y-76065771D01*
X105314285Y-76065771D02*
X105361904Y-76018152D01*
X105361904Y-76018152D02*
X105409523Y-75922914D01*
X105409523Y-75922914D02*
X105409523Y-75875295D01*
X105409523Y-75875295D02*
X105361904Y-75780057D01*
X105361904Y-75780057D02*
X105314285Y-75732438D01*
X105314285Y-75732438D02*
X105219047Y-75684819D01*
X105219047Y-75684819D02*
X105028571Y-75684819D01*
X105028571Y-75684819D02*
X104933333Y-75732438D01*
X104933333Y-75732438D02*
X104885714Y-75780057D01*
X104885714Y-75780057D02*
X104838095Y-75875295D01*
X104838095Y-75875295D02*
X104838095Y-75922914D01*
X104838095Y-75922914D02*
X104885714Y-76018152D01*
X104885714Y-76018152D02*
X104933333Y-76065771D01*
X104933333Y-76065771D02*
X105028571Y-76113390D01*
X105028571Y-76113390D02*
X105219047Y-76113390D01*
X105219047Y-76113390D02*
X105314285Y-76161009D01*
X105314285Y-76161009D02*
X105361904Y-76208628D01*
X105361904Y-76208628D02*
X105409523Y-76303866D01*
X105409523Y-76303866D02*
X105409523Y-76494342D01*
X105409523Y-76494342D02*
X105361904Y-76589580D01*
X105361904Y-76589580D02*
X105314285Y-76637200D01*
X105314285Y-76637200D02*
X105219047Y-76684819D01*
X105219047Y-76684819D02*
X105028571Y-76684819D01*
X105028571Y-76684819D02*
X104933333Y-76637200D01*
X104933333Y-76637200D02*
X104885714Y-76589580D01*
X104885714Y-76589580D02*
X104838095Y-76494342D01*
X104838095Y-76494342D02*
X104838095Y-76303866D01*
X104838095Y-76303866D02*
X104885714Y-76208628D01*
X104885714Y-76208628D02*
X104933333Y-76161009D01*
X104933333Y-76161009D02*
X105028571Y-76113390D01*
X95679580Y-113857142D02*
X95727200Y-113809523D01*
X95727200Y-113809523D02*
X95774819Y-113666666D01*
X95774819Y-113666666D02*
X95774819Y-113571428D01*
X95774819Y-113571428D02*
X95727200Y-113428571D01*
X95727200Y-113428571D02*
X95631961Y-113333333D01*
X95631961Y-113333333D02*
X95536723Y-113285714D01*
X95536723Y-113285714D02*
X95346247Y-113238095D01*
X95346247Y-113238095D02*
X95203390Y-113238095D01*
X95203390Y-113238095D02*
X95012914Y-113285714D01*
X95012914Y-113285714D02*
X94917676Y-113333333D01*
X94917676Y-113333333D02*
X94822438Y-113428571D01*
X94822438Y-113428571D02*
X94774819Y-113571428D01*
X94774819Y-113571428D02*
X94774819Y-113666666D01*
X94774819Y-113666666D02*
X94822438Y-113809523D01*
X94822438Y-113809523D02*
X94870057Y-113857142D01*
X94774819Y-114190476D02*
X94774819Y-114809523D01*
X94774819Y-114809523D02*
X95155771Y-114476190D01*
X95155771Y-114476190D02*
X95155771Y-114619047D01*
X95155771Y-114619047D02*
X95203390Y-114714285D01*
X95203390Y-114714285D02*
X95251009Y-114761904D01*
X95251009Y-114761904D02*
X95346247Y-114809523D01*
X95346247Y-114809523D02*
X95584342Y-114809523D01*
X95584342Y-114809523D02*
X95679580Y-114761904D01*
X95679580Y-114761904D02*
X95727200Y-114714285D01*
X95727200Y-114714285D02*
X95774819Y-114619047D01*
X95774819Y-114619047D02*
X95774819Y-114333333D01*
X95774819Y-114333333D02*
X95727200Y-114238095D01*
X95727200Y-114238095D02*
X95679580Y-114190476D01*
X95774819Y-115761904D02*
X95774819Y-115190476D01*
X95774819Y-115476190D02*
X94774819Y-115476190D01*
X94774819Y-115476190D02*
X94917676Y-115380952D01*
X94917676Y-115380952D02*
X95012914Y-115285714D01*
X95012914Y-115285714D02*
X95060533Y-115190476D01*
X193734819Y-111733333D02*
X193258628Y-111400000D01*
X193734819Y-111161905D02*
X192734819Y-111161905D01*
X192734819Y-111161905D02*
X192734819Y-111542857D01*
X192734819Y-111542857D02*
X192782438Y-111638095D01*
X192782438Y-111638095D02*
X192830057Y-111685714D01*
X192830057Y-111685714D02*
X192925295Y-111733333D01*
X192925295Y-111733333D02*
X193068152Y-111733333D01*
X193068152Y-111733333D02*
X193163390Y-111685714D01*
X193163390Y-111685714D02*
X193211009Y-111638095D01*
X193211009Y-111638095D02*
X193258628Y-111542857D01*
X193258628Y-111542857D02*
X193258628Y-111161905D01*
X193734819Y-112685714D02*
X193734819Y-112114286D01*
X193734819Y-112400000D02*
X192734819Y-112400000D01*
X192734819Y-112400000D02*
X192877676Y-112304762D01*
X192877676Y-112304762D02*
X192972914Y-112209524D01*
X192972914Y-112209524D02*
X193020533Y-112114286D01*
X121742857Y-95329580D02*
X121790476Y-95377200D01*
X121790476Y-95377200D02*
X121933333Y-95424819D01*
X121933333Y-95424819D02*
X122028571Y-95424819D01*
X122028571Y-95424819D02*
X122171428Y-95377200D01*
X122171428Y-95377200D02*
X122266666Y-95281961D01*
X122266666Y-95281961D02*
X122314285Y-95186723D01*
X122314285Y-95186723D02*
X122361904Y-94996247D01*
X122361904Y-94996247D02*
X122361904Y-94853390D01*
X122361904Y-94853390D02*
X122314285Y-94662914D01*
X122314285Y-94662914D02*
X122266666Y-94567676D01*
X122266666Y-94567676D02*
X122171428Y-94472438D01*
X122171428Y-94472438D02*
X122028571Y-94424819D01*
X122028571Y-94424819D02*
X121933333Y-94424819D01*
X121933333Y-94424819D02*
X121790476Y-94472438D01*
X121790476Y-94472438D02*
X121742857Y-94520057D01*
X121409523Y-94424819D02*
X120790476Y-94424819D01*
X120790476Y-94424819D02*
X121123809Y-94805771D01*
X121123809Y-94805771D02*
X120980952Y-94805771D01*
X120980952Y-94805771D02*
X120885714Y-94853390D01*
X120885714Y-94853390D02*
X120838095Y-94901009D01*
X120838095Y-94901009D02*
X120790476Y-94996247D01*
X120790476Y-94996247D02*
X120790476Y-95234342D01*
X120790476Y-95234342D02*
X120838095Y-95329580D01*
X120838095Y-95329580D02*
X120885714Y-95377200D01*
X120885714Y-95377200D02*
X120980952Y-95424819D01*
X120980952Y-95424819D02*
X121266666Y-95424819D01*
X121266666Y-95424819D02*
X121361904Y-95377200D01*
X121361904Y-95377200D02*
X121409523Y-95329580D01*
X119933333Y-94424819D02*
X120123809Y-94424819D01*
X120123809Y-94424819D02*
X120219047Y-94472438D01*
X120219047Y-94472438D02*
X120266666Y-94520057D01*
X120266666Y-94520057D02*
X120361904Y-94662914D01*
X120361904Y-94662914D02*
X120409523Y-94853390D01*
X120409523Y-94853390D02*
X120409523Y-95234342D01*
X120409523Y-95234342D02*
X120361904Y-95329580D01*
X120361904Y-95329580D02*
X120314285Y-95377200D01*
X120314285Y-95377200D02*
X120219047Y-95424819D01*
X120219047Y-95424819D02*
X120028571Y-95424819D01*
X120028571Y-95424819D02*
X119933333Y-95377200D01*
X119933333Y-95377200D02*
X119885714Y-95329580D01*
X119885714Y-95329580D02*
X119838095Y-95234342D01*
X119838095Y-95234342D02*
X119838095Y-94996247D01*
X119838095Y-94996247D02*
X119885714Y-94901009D01*
X119885714Y-94901009D02*
X119933333Y-94853390D01*
X119933333Y-94853390D02*
X120028571Y-94805771D01*
X120028571Y-94805771D02*
X120219047Y-94805771D01*
X120219047Y-94805771D02*
X120314285Y-94853390D01*
X120314285Y-94853390D02*
X120361904Y-94901009D01*
X120361904Y-94901009D02*
X120409523Y-94996247D01*
X93142857Y-80929580D02*
X93190476Y-80977200D01*
X93190476Y-80977200D02*
X93333333Y-81024819D01*
X93333333Y-81024819D02*
X93428571Y-81024819D01*
X93428571Y-81024819D02*
X93571428Y-80977200D01*
X93571428Y-80977200D02*
X93666666Y-80881961D01*
X93666666Y-80881961D02*
X93714285Y-80786723D01*
X93714285Y-80786723D02*
X93761904Y-80596247D01*
X93761904Y-80596247D02*
X93761904Y-80453390D01*
X93761904Y-80453390D02*
X93714285Y-80262914D01*
X93714285Y-80262914D02*
X93666666Y-80167676D01*
X93666666Y-80167676D02*
X93571428Y-80072438D01*
X93571428Y-80072438D02*
X93428571Y-80024819D01*
X93428571Y-80024819D02*
X93333333Y-80024819D01*
X93333333Y-80024819D02*
X93190476Y-80072438D01*
X93190476Y-80072438D02*
X93142857Y-80120057D01*
X92809523Y-80024819D02*
X92142857Y-80024819D01*
X92142857Y-80024819D02*
X92571428Y-81024819D01*
X91714285Y-81024819D02*
X91523809Y-81024819D01*
X91523809Y-81024819D02*
X91428571Y-80977200D01*
X91428571Y-80977200D02*
X91380952Y-80929580D01*
X91380952Y-80929580D02*
X91285714Y-80786723D01*
X91285714Y-80786723D02*
X91238095Y-80596247D01*
X91238095Y-80596247D02*
X91238095Y-80215295D01*
X91238095Y-80215295D02*
X91285714Y-80120057D01*
X91285714Y-80120057D02*
X91333333Y-80072438D01*
X91333333Y-80072438D02*
X91428571Y-80024819D01*
X91428571Y-80024819D02*
X91619047Y-80024819D01*
X91619047Y-80024819D02*
X91714285Y-80072438D01*
X91714285Y-80072438D02*
X91761904Y-80120057D01*
X91761904Y-80120057D02*
X91809523Y-80215295D01*
X91809523Y-80215295D02*
X91809523Y-80453390D01*
X91809523Y-80453390D02*
X91761904Y-80548628D01*
X91761904Y-80548628D02*
X91714285Y-80596247D01*
X91714285Y-80596247D02*
X91619047Y-80643866D01*
X91619047Y-80643866D02*
X91428571Y-80643866D01*
X91428571Y-80643866D02*
X91333333Y-80596247D01*
X91333333Y-80596247D02*
X91285714Y-80548628D01*
X91285714Y-80548628D02*
X91238095Y-80453390D01*
X158029580Y-83457142D02*
X158077200Y-83409523D01*
X158077200Y-83409523D02*
X158124819Y-83266666D01*
X158124819Y-83266666D02*
X158124819Y-83171428D01*
X158124819Y-83171428D02*
X158077200Y-83028571D01*
X158077200Y-83028571D02*
X157981961Y-82933333D01*
X157981961Y-82933333D02*
X157886723Y-82885714D01*
X157886723Y-82885714D02*
X157696247Y-82838095D01*
X157696247Y-82838095D02*
X157553390Y-82838095D01*
X157553390Y-82838095D02*
X157362914Y-82885714D01*
X157362914Y-82885714D02*
X157267676Y-82933333D01*
X157267676Y-82933333D02*
X157172438Y-83028571D01*
X157172438Y-83028571D02*
X157124819Y-83171428D01*
X157124819Y-83171428D02*
X157124819Y-83266666D01*
X157124819Y-83266666D02*
X157172438Y-83409523D01*
X157172438Y-83409523D02*
X157220057Y-83457142D01*
X157220057Y-83838095D02*
X157172438Y-83885714D01*
X157172438Y-83885714D02*
X157124819Y-83980952D01*
X157124819Y-83980952D02*
X157124819Y-84219047D01*
X157124819Y-84219047D02*
X157172438Y-84314285D01*
X157172438Y-84314285D02*
X157220057Y-84361904D01*
X157220057Y-84361904D02*
X157315295Y-84409523D01*
X157315295Y-84409523D02*
X157410533Y-84409523D01*
X157410533Y-84409523D02*
X157553390Y-84361904D01*
X157553390Y-84361904D02*
X158124819Y-83790476D01*
X158124819Y-83790476D02*
X158124819Y-84409523D01*
X157124819Y-84742857D02*
X157124819Y-85361904D01*
X157124819Y-85361904D02*
X157505771Y-85028571D01*
X157505771Y-85028571D02*
X157505771Y-85171428D01*
X157505771Y-85171428D02*
X157553390Y-85266666D01*
X157553390Y-85266666D02*
X157601009Y-85314285D01*
X157601009Y-85314285D02*
X157696247Y-85361904D01*
X157696247Y-85361904D02*
X157934342Y-85361904D01*
X157934342Y-85361904D02*
X158029580Y-85314285D01*
X158029580Y-85314285D02*
X158077200Y-85266666D01*
X158077200Y-85266666D02*
X158124819Y-85171428D01*
X158124819Y-85171428D02*
X158124819Y-84885714D01*
X158124819Y-84885714D02*
X158077200Y-84790476D01*
X158077200Y-84790476D02*
X158029580Y-84742857D01*
X139030357Y-123479580D02*
X139077976Y-123527200D01*
X139077976Y-123527200D02*
X139220833Y-123574819D01*
X139220833Y-123574819D02*
X139316071Y-123574819D01*
X139316071Y-123574819D02*
X139458928Y-123527200D01*
X139458928Y-123527200D02*
X139554166Y-123431961D01*
X139554166Y-123431961D02*
X139601785Y-123336723D01*
X139601785Y-123336723D02*
X139649404Y-123146247D01*
X139649404Y-123146247D02*
X139649404Y-123003390D01*
X139649404Y-123003390D02*
X139601785Y-122812914D01*
X139601785Y-122812914D02*
X139554166Y-122717676D01*
X139554166Y-122717676D02*
X139458928Y-122622438D01*
X139458928Y-122622438D02*
X139316071Y-122574819D01*
X139316071Y-122574819D02*
X139220833Y-122574819D01*
X139220833Y-122574819D02*
X139077976Y-122622438D01*
X139077976Y-122622438D02*
X139030357Y-122670057D01*
X138173214Y-122574819D02*
X138363690Y-122574819D01*
X138363690Y-122574819D02*
X138458928Y-122622438D01*
X138458928Y-122622438D02*
X138506547Y-122670057D01*
X138506547Y-122670057D02*
X138601785Y-122812914D01*
X138601785Y-122812914D02*
X138649404Y-123003390D01*
X138649404Y-123003390D02*
X138649404Y-123384342D01*
X138649404Y-123384342D02*
X138601785Y-123479580D01*
X138601785Y-123479580D02*
X138554166Y-123527200D01*
X138554166Y-123527200D02*
X138458928Y-123574819D01*
X138458928Y-123574819D02*
X138268452Y-123574819D01*
X138268452Y-123574819D02*
X138173214Y-123527200D01*
X138173214Y-123527200D02*
X138125595Y-123479580D01*
X138125595Y-123479580D02*
X138077976Y-123384342D01*
X138077976Y-123384342D02*
X138077976Y-123146247D01*
X138077976Y-123146247D02*
X138125595Y-123051009D01*
X138125595Y-123051009D02*
X138173214Y-123003390D01*
X138173214Y-123003390D02*
X138268452Y-122955771D01*
X138268452Y-122955771D02*
X138458928Y-122955771D01*
X138458928Y-122955771D02*
X138554166Y-123003390D01*
X138554166Y-123003390D02*
X138601785Y-123051009D01*
X138601785Y-123051009D02*
X138649404Y-123146247D01*
X137458928Y-122574819D02*
X137363690Y-122574819D01*
X137363690Y-122574819D02*
X137268452Y-122622438D01*
X137268452Y-122622438D02*
X137220833Y-122670057D01*
X137220833Y-122670057D02*
X137173214Y-122765295D01*
X137173214Y-122765295D02*
X137125595Y-122955771D01*
X137125595Y-122955771D02*
X137125595Y-123193866D01*
X137125595Y-123193866D02*
X137173214Y-123384342D01*
X137173214Y-123384342D02*
X137220833Y-123479580D01*
X137220833Y-123479580D02*
X137268452Y-123527200D01*
X137268452Y-123527200D02*
X137363690Y-123574819D01*
X137363690Y-123574819D02*
X137458928Y-123574819D01*
X137458928Y-123574819D02*
X137554166Y-123527200D01*
X137554166Y-123527200D02*
X137601785Y-123479580D01*
X137601785Y-123479580D02*
X137649404Y-123384342D01*
X137649404Y-123384342D02*
X137697023Y-123193866D01*
X137697023Y-123193866D02*
X137697023Y-122955771D01*
X137697023Y-122955771D02*
X137649404Y-122765295D01*
X137649404Y-122765295D02*
X137601785Y-122670057D01*
X137601785Y-122670057D02*
X137554166Y-122622438D01*
X137554166Y-122622438D02*
X137458928Y-122574819D01*
X159724819Y-89757142D02*
X159248628Y-89423809D01*
X159724819Y-89185714D02*
X158724819Y-89185714D01*
X158724819Y-89185714D02*
X158724819Y-89566666D01*
X158724819Y-89566666D02*
X158772438Y-89661904D01*
X158772438Y-89661904D02*
X158820057Y-89709523D01*
X158820057Y-89709523D02*
X158915295Y-89757142D01*
X158915295Y-89757142D02*
X159058152Y-89757142D01*
X159058152Y-89757142D02*
X159153390Y-89709523D01*
X159153390Y-89709523D02*
X159201009Y-89661904D01*
X159201009Y-89661904D02*
X159248628Y-89566666D01*
X159248628Y-89566666D02*
X159248628Y-89185714D01*
X158820057Y-90138095D02*
X158772438Y-90185714D01*
X158772438Y-90185714D02*
X158724819Y-90280952D01*
X158724819Y-90280952D02*
X158724819Y-90519047D01*
X158724819Y-90519047D02*
X158772438Y-90614285D01*
X158772438Y-90614285D02*
X158820057Y-90661904D01*
X158820057Y-90661904D02*
X158915295Y-90709523D01*
X158915295Y-90709523D02*
X159010533Y-90709523D01*
X159010533Y-90709523D02*
X159153390Y-90661904D01*
X159153390Y-90661904D02*
X159724819Y-90090476D01*
X159724819Y-90090476D02*
X159724819Y-90709523D01*
X159058152Y-91566666D02*
X159724819Y-91566666D01*
X158677200Y-91328571D02*
X159391485Y-91090476D01*
X159391485Y-91090476D02*
X159391485Y-91709523D01*
X150524819Y-55457142D02*
X150048628Y-55123809D01*
X150524819Y-54885714D02*
X149524819Y-54885714D01*
X149524819Y-54885714D02*
X149524819Y-55266666D01*
X149524819Y-55266666D02*
X149572438Y-55361904D01*
X149572438Y-55361904D02*
X149620057Y-55409523D01*
X149620057Y-55409523D02*
X149715295Y-55457142D01*
X149715295Y-55457142D02*
X149858152Y-55457142D01*
X149858152Y-55457142D02*
X149953390Y-55409523D01*
X149953390Y-55409523D02*
X150001009Y-55361904D01*
X150001009Y-55361904D02*
X150048628Y-55266666D01*
X150048628Y-55266666D02*
X150048628Y-54885714D01*
X149524819Y-56314285D02*
X149524819Y-56123809D01*
X149524819Y-56123809D02*
X149572438Y-56028571D01*
X149572438Y-56028571D02*
X149620057Y-55980952D01*
X149620057Y-55980952D02*
X149762914Y-55885714D01*
X149762914Y-55885714D02*
X149953390Y-55838095D01*
X149953390Y-55838095D02*
X150334342Y-55838095D01*
X150334342Y-55838095D02*
X150429580Y-55885714D01*
X150429580Y-55885714D02*
X150477200Y-55933333D01*
X150477200Y-55933333D02*
X150524819Y-56028571D01*
X150524819Y-56028571D02*
X150524819Y-56219047D01*
X150524819Y-56219047D02*
X150477200Y-56314285D01*
X150477200Y-56314285D02*
X150429580Y-56361904D01*
X150429580Y-56361904D02*
X150334342Y-56409523D01*
X150334342Y-56409523D02*
X150096247Y-56409523D01*
X150096247Y-56409523D02*
X150001009Y-56361904D01*
X150001009Y-56361904D02*
X149953390Y-56314285D01*
X149953390Y-56314285D02*
X149905771Y-56219047D01*
X149905771Y-56219047D02*
X149905771Y-56028571D01*
X149905771Y-56028571D02*
X149953390Y-55933333D01*
X149953390Y-55933333D02*
X150001009Y-55885714D01*
X150001009Y-55885714D02*
X150096247Y-55838095D01*
X149524819Y-57028571D02*
X149524819Y-57123809D01*
X149524819Y-57123809D02*
X149572438Y-57219047D01*
X149572438Y-57219047D02*
X149620057Y-57266666D01*
X149620057Y-57266666D02*
X149715295Y-57314285D01*
X149715295Y-57314285D02*
X149905771Y-57361904D01*
X149905771Y-57361904D02*
X150143866Y-57361904D01*
X150143866Y-57361904D02*
X150334342Y-57314285D01*
X150334342Y-57314285D02*
X150429580Y-57266666D01*
X150429580Y-57266666D02*
X150477200Y-57219047D01*
X150477200Y-57219047D02*
X150524819Y-57123809D01*
X150524819Y-57123809D02*
X150524819Y-57028571D01*
X150524819Y-57028571D02*
X150477200Y-56933333D01*
X150477200Y-56933333D02*
X150429580Y-56885714D01*
X150429580Y-56885714D02*
X150334342Y-56838095D01*
X150334342Y-56838095D02*
X150143866Y-56790476D01*
X150143866Y-56790476D02*
X149905771Y-56790476D01*
X149905771Y-56790476D02*
X149715295Y-56838095D01*
X149715295Y-56838095D02*
X149620057Y-56885714D01*
X149620057Y-56885714D02*
X149572438Y-56933333D01*
X149572438Y-56933333D02*
X149524819Y-57028571D01*
X188142857Y-95989580D02*
X188190476Y-96037200D01*
X188190476Y-96037200D02*
X188333333Y-96084819D01*
X188333333Y-96084819D02*
X188428571Y-96084819D01*
X188428571Y-96084819D02*
X188571428Y-96037200D01*
X188571428Y-96037200D02*
X188666666Y-95941961D01*
X188666666Y-95941961D02*
X188714285Y-95846723D01*
X188714285Y-95846723D02*
X188761904Y-95656247D01*
X188761904Y-95656247D02*
X188761904Y-95513390D01*
X188761904Y-95513390D02*
X188714285Y-95322914D01*
X188714285Y-95322914D02*
X188666666Y-95227676D01*
X188666666Y-95227676D02*
X188571428Y-95132438D01*
X188571428Y-95132438D02*
X188428571Y-95084819D01*
X188428571Y-95084819D02*
X188333333Y-95084819D01*
X188333333Y-95084819D02*
X188190476Y-95132438D01*
X188190476Y-95132438D02*
X188142857Y-95180057D01*
X187190476Y-96084819D02*
X187761904Y-96084819D01*
X187476190Y-96084819D02*
X187476190Y-95084819D01*
X187476190Y-95084819D02*
X187571428Y-95227676D01*
X187571428Y-95227676D02*
X187666666Y-95322914D01*
X187666666Y-95322914D02*
X187761904Y-95370533D01*
X186333333Y-95418152D02*
X186333333Y-96084819D01*
X186571428Y-95037200D02*
X186809523Y-95751485D01*
X186809523Y-95751485D02*
X186190476Y-95751485D01*
X188489580Y-73957142D02*
X188537200Y-73909523D01*
X188537200Y-73909523D02*
X188584819Y-73766666D01*
X188584819Y-73766666D02*
X188584819Y-73671428D01*
X188584819Y-73671428D02*
X188537200Y-73528571D01*
X188537200Y-73528571D02*
X188441961Y-73433333D01*
X188441961Y-73433333D02*
X188346723Y-73385714D01*
X188346723Y-73385714D02*
X188156247Y-73338095D01*
X188156247Y-73338095D02*
X188013390Y-73338095D01*
X188013390Y-73338095D02*
X187822914Y-73385714D01*
X187822914Y-73385714D02*
X187727676Y-73433333D01*
X187727676Y-73433333D02*
X187632438Y-73528571D01*
X187632438Y-73528571D02*
X187584819Y-73671428D01*
X187584819Y-73671428D02*
X187584819Y-73766666D01*
X187584819Y-73766666D02*
X187632438Y-73909523D01*
X187632438Y-73909523D02*
X187680057Y-73957142D01*
X188013390Y-74528571D02*
X187965771Y-74433333D01*
X187965771Y-74433333D02*
X187918152Y-74385714D01*
X187918152Y-74385714D02*
X187822914Y-74338095D01*
X187822914Y-74338095D02*
X187775295Y-74338095D01*
X187775295Y-74338095D02*
X187680057Y-74385714D01*
X187680057Y-74385714D02*
X187632438Y-74433333D01*
X187632438Y-74433333D02*
X187584819Y-74528571D01*
X187584819Y-74528571D02*
X187584819Y-74719047D01*
X187584819Y-74719047D02*
X187632438Y-74814285D01*
X187632438Y-74814285D02*
X187680057Y-74861904D01*
X187680057Y-74861904D02*
X187775295Y-74909523D01*
X187775295Y-74909523D02*
X187822914Y-74909523D01*
X187822914Y-74909523D02*
X187918152Y-74861904D01*
X187918152Y-74861904D02*
X187965771Y-74814285D01*
X187965771Y-74814285D02*
X188013390Y-74719047D01*
X188013390Y-74719047D02*
X188013390Y-74528571D01*
X188013390Y-74528571D02*
X188061009Y-74433333D01*
X188061009Y-74433333D02*
X188108628Y-74385714D01*
X188108628Y-74385714D02*
X188203866Y-74338095D01*
X188203866Y-74338095D02*
X188394342Y-74338095D01*
X188394342Y-74338095D02*
X188489580Y-74385714D01*
X188489580Y-74385714D02*
X188537200Y-74433333D01*
X188537200Y-74433333D02*
X188584819Y-74528571D01*
X188584819Y-74528571D02*
X188584819Y-74719047D01*
X188584819Y-74719047D02*
X188537200Y-74814285D01*
X188537200Y-74814285D02*
X188489580Y-74861904D01*
X188489580Y-74861904D02*
X188394342Y-74909523D01*
X188394342Y-74909523D02*
X188203866Y-74909523D01*
X188203866Y-74909523D02*
X188108628Y-74861904D01*
X188108628Y-74861904D02*
X188061009Y-74814285D01*
X188061009Y-74814285D02*
X188013390Y-74719047D01*
X187584819Y-75766666D02*
X187584819Y-75576190D01*
X187584819Y-75576190D02*
X187632438Y-75480952D01*
X187632438Y-75480952D02*
X187680057Y-75433333D01*
X187680057Y-75433333D02*
X187822914Y-75338095D01*
X187822914Y-75338095D02*
X188013390Y-75290476D01*
X188013390Y-75290476D02*
X188394342Y-75290476D01*
X188394342Y-75290476D02*
X188489580Y-75338095D01*
X188489580Y-75338095D02*
X188537200Y-75385714D01*
X188537200Y-75385714D02*
X188584819Y-75480952D01*
X188584819Y-75480952D02*
X188584819Y-75671428D01*
X188584819Y-75671428D02*
X188537200Y-75766666D01*
X188537200Y-75766666D02*
X188489580Y-75814285D01*
X188489580Y-75814285D02*
X188394342Y-75861904D01*
X188394342Y-75861904D02*
X188156247Y-75861904D01*
X188156247Y-75861904D02*
X188061009Y-75814285D01*
X188061009Y-75814285D02*
X188013390Y-75766666D01*
X188013390Y-75766666D02*
X187965771Y-75671428D01*
X187965771Y-75671428D02*
X187965771Y-75480952D01*
X187965771Y-75480952D02*
X188013390Y-75385714D01*
X188013390Y-75385714D02*
X188061009Y-75338095D01*
X188061009Y-75338095D02*
X188156247Y-75290476D01*
X95789580Y-113719642D02*
X95837200Y-113672023D01*
X95837200Y-113672023D02*
X95884819Y-113529166D01*
X95884819Y-113529166D02*
X95884819Y-113433928D01*
X95884819Y-113433928D02*
X95837200Y-113291071D01*
X95837200Y-113291071D02*
X95741961Y-113195833D01*
X95741961Y-113195833D02*
X95646723Y-113148214D01*
X95646723Y-113148214D02*
X95456247Y-113100595D01*
X95456247Y-113100595D02*
X95313390Y-113100595D01*
X95313390Y-113100595D02*
X95122914Y-113148214D01*
X95122914Y-113148214D02*
X95027676Y-113195833D01*
X95027676Y-113195833D02*
X94932438Y-113291071D01*
X94932438Y-113291071D02*
X94884819Y-113433928D01*
X94884819Y-113433928D02*
X94884819Y-113529166D01*
X94884819Y-113529166D02*
X94932438Y-113672023D01*
X94932438Y-113672023D02*
X94980057Y-113719642D01*
X94884819Y-114052976D02*
X94884819Y-114672023D01*
X94884819Y-114672023D02*
X95265771Y-114338690D01*
X95265771Y-114338690D02*
X95265771Y-114481547D01*
X95265771Y-114481547D02*
X95313390Y-114576785D01*
X95313390Y-114576785D02*
X95361009Y-114624404D01*
X95361009Y-114624404D02*
X95456247Y-114672023D01*
X95456247Y-114672023D02*
X95694342Y-114672023D01*
X95694342Y-114672023D02*
X95789580Y-114624404D01*
X95789580Y-114624404D02*
X95837200Y-114576785D01*
X95837200Y-114576785D02*
X95884819Y-114481547D01*
X95884819Y-114481547D02*
X95884819Y-114195833D01*
X95884819Y-114195833D02*
X95837200Y-114100595D01*
X95837200Y-114100595D02*
X95789580Y-114052976D01*
X94884819Y-115291071D02*
X94884819Y-115386309D01*
X94884819Y-115386309D02*
X94932438Y-115481547D01*
X94932438Y-115481547D02*
X94980057Y-115529166D01*
X94980057Y-115529166D02*
X95075295Y-115576785D01*
X95075295Y-115576785D02*
X95265771Y-115624404D01*
X95265771Y-115624404D02*
X95503866Y-115624404D01*
X95503866Y-115624404D02*
X95694342Y-115576785D01*
X95694342Y-115576785D02*
X95789580Y-115529166D01*
X95789580Y-115529166D02*
X95837200Y-115481547D01*
X95837200Y-115481547D02*
X95884819Y-115386309D01*
X95884819Y-115386309D02*
X95884819Y-115291071D01*
X95884819Y-115291071D02*
X95837200Y-115195833D01*
X95837200Y-115195833D02*
X95789580Y-115148214D01*
X95789580Y-115148214D02*
X95694342Y-115100595D01*
X95694342Y-115100595D02*
X95503866Y-115052976D01*
X95503866Y-115052976D02*
X95265771Y-115052976D01*
X95265771Y-115052976D02*
X95075295Y-115100595D01*
X95075295Y-115100595D02*
X94980057Y-115148214D01*
X94980057Y-115148214D02*
X94932438Y-115195833D01*
X94932438Y-115195833D02*
X94884819Y-115291071D01*
X150689580Y-88257142D02*
X150737200Y-88209523D01*
X150737200Y-88209523D02*
X150784819Y-88066666D01*
X150784819Y-88066666D02*
X150784819Y-87971428D01*
X150784819Y-87971428D02*
X150737200Y-87828571D01*
X150737200Y-87828571D02*
X150641961Y-87733333D01*
X150641961Y-87733333D02*
X150546723Y-87685714D01*
X150546723Y-87685714D02*
X150356247Y-87638095D01*
X150356247Y-87638095D02*
X150213390Y-87638095D01*
X150213390Y-87638095D02*
X150022914Y-87685714D01*
X150022914Y-87685714D02*
X149927676Y-87733333D01*
X149927676Y-87733333D02*
X149832438Y-87828571D01*
X149832438Y-87828571D02*
X149784819Y-87971428D01*
X149784819Y-87971428D02*
X149784819Y-88066666D01*
X149784819Y-88066666D02*
X149832438Y-88209523D01*
X149832438Y-88209523D02*
X149880057Y-88257142D01*
X150118152Y-89114285D02*
X150784819Y-89114285D01*
X149737200Y-88876190D02*
X150451485Y-88638095D01*
X150451485Y-88638095D02*
X150451485Y-89257142D01*
X149784819Y-89828571D02*
X149784819Y-89923809D01*
X149784819Y-89923809D02*
X149832438Y-90019047D01*
X149832438Y-90019047D02*
X149880057Y-90066666D01*
X149880057Y-90066666D02*
X149975295Y-90114285D01*
X149975295Y-90114285D02*
X150165771Y-90161904D01*
X150165771Y-90161904D02*
X150403866Y-90161904D01*
X150403866Y-90161904D02*
X150594342Y-90114285D01*
X150594342Y-90114285D02*
X150689580Y-90066666D01*
X150689580Y-90066666D02*
X150737200Y-90019047D01*
X150737200Y-90019047D02*
X150784819Y-89923809D01*
X150784819Y-89923809D02*
X150784819Y-89828571D01*
X150784819Y-89828571D02*
X150737200Y-89733333D01*
X150737200Y-89733333D02*
X150689580Y-89685714D01*
X150689580Y-89685714D02*
X150594342Y-89638095D01*
X150594342Y-89638095D02*
X150403866Y-89590476D01*
X150403866Y-89590476D02*
X150165771Y-89590476D01*
X150165771Y-89590476D02*
X149975295Y-89638095D01*
X149975295Y-89638095D02*
X149880057Y-89685714D01*
X149880057Y-89685714D02*
X149832438Y-89733333D01*
X149832438Y-89733333D02*
X149784819Y-89828571D01*
X192842857Y-82689580D02*
X192890476Y-82737200D01*
X192890476Y-82737200D02*
X193033333Y-82784819D01*
X193033333Y-82784819D02*
X193128571Y-82784819D01*
X193128571Y-82784819D02*
X193271428Y-82737200D01*
X193271428Y-82737200D02*
X193366666Y-82641961D01*
X193366666Y-82641961D02*
X193414285Y-82546723D01*
X193414285Y-82546723D02*
X193461904Y-82356247D01*
X193461904Y-82356247D02*
X193461904Y-82213390D01*
X193461904Y-82213390D02*
X193414285Y-82022914D01*
X193414285Y-82022914D02*
X193366666Y-81927676D01*
X193366666Y-81927676D02*
X193271428Y-81832438D01*
X193271428Y-81832438D02*
X193128571Y-81784819D01*
X193128571Y-81784819D02*
X193033333Y-81784819D01*
X193033333Y-81784819D02*
X192890476Y-81832438D01*
X192890476Y-81832438D02*
X192842857Y-81880057D01*
X192271428Y-82213390D02*
X192366666Y-82165771D01*
X192366666Y-82165771D02*
X192414285Y-82118152D01*
X192414285Y-82118152D02*
X192461904Y-82022914D01*
X192461904Y-82022914D02*
X192461904Y-81975295D01*
X192461904Y-81975295D02*
X192414285Y-81880057D01*
X192414285Y-81880057D02*
X192366666Y-81832438D01*
X192366666Y-81832438D02*
X192271428Y-81784819D01*
X192271428Y-81784819D02*
X192080952Y-81784819D01*
X192080952Y-81784819D02*
X191985714Y-81832438D01*
X191985714Y-81832438D02*
X191938095Y-81880057D01*
X191938095Y-81880057D02*
X191890476Y-81975295D01*
X191890476Y-81975295D02*
X191890476Y-82022914D01*
X191890476Y-82022914D02*
X191938095Y-82118152D01*
X191938095Y-82118152D02*
X191985714Y-82165771D01*
X191985714Y-82165771D02*
X192080952Y-82213390D01*
X192080952Y-82213390D02*
X192271428Y-82213390D01*
X192271428Y-82213390D02*
X192366666Y-82261009D01*
X192366666Y-82261009D02*
X192414285Y-82308628D01*
X192414285Y-82308628D02*
X192461904Y-82403866D01*
X192461904Y-82403866D02*
X192461904Y-82594342D01*
X192461904Y-82594342D02*
X192414285Y-82689580D01*
X192414285Y-82689580D02*
X192366666Y-82737200D01*
X192366666Y-82737200D02*
X192271428Y-82784819D01*
X192271428Y-82784819D02*
X192080952Y-82784819D01*
X192080952Y-82784819D02*
X191985714Y-82737200D01*
X191985714Y-82737200D02*
X191938095Y-82689580D01*
X191938095Y-82689580D02*
X191890476Y-82594342D01*
X191890476Y-82594342D02*
X191890476Y-82403866D01*
X191890476Y-82403866D02*
X191938095Y-82308628D01*
X191938095Y-82308628D02*
X191985714Y-82261009D01*
X191985714Y-82261009D02*
X192080952Y-82213390D01*
X190938095Y-82784819D02*
X191509523Y-82784819D01*
X191223809Y-82784819D02*
X191223809Y-81784819D01*
X191223809Y-81784819D02*
X191319047Y-81927676D01*
X191319047Y-81927676D02*
X191414285Y-82022914D01*
X191414285Y-82022914D02*
X191509523Y-82070533D01*
X165779166Y-97289580D02*
X165826785Y-97337200D01*
X165826785Y-97337200D02*
X165969642Y-97384819D01*
X165969642Y-97384819D02*
X166064880Y-97384819D01*
X166064880Y-97384819D02*
X166207737Y-97337200D01*
X166207737Y-97337200D02*
X166302975Y-97241961D01*
X166302975Y-97241961D02*
X166350594Y-97146723D01*
X166350594Y-97146723D02*
X166398213Y-96956247D01*
X166398213Y-96956247D02*
X166398213Y-96813390D01*
X166398213Y-96813390D02*
X166350594Y-96622914D01*
X166350594Y-96622914D02*
X166302975Y-96527676D01*
X166302975Y-96527676D02*
X166207737Y-96432438D01*
X166207737Y-96432438D02*
X166064880Y-96384819D01*
X166064880Y-96384819D02*
X165969642Y-96384819D01*
X165969642Y-96384819D02*
X165826785Y-96432438D01*
X165826785Y-96432438D02*
X165779166Y-96480057D01*
X165302975Y-97384819D02*
X165112499Y-97384819D01*
X165112499Y-97384819D02*
X165017261Y-97337200D01*
X165017261Y-97337200D02*
X164969642Y-97289580D01*
X164969642Y-97289580D02*
X164874404Y-97146723D01*
X164874404Y-97146723D02*
X164826785Y-96956247D01*
X164826785Y-96956247D02*
X164826785Y-96575295D01*
X164826785Y-96575295D02*
X164874404Y-96480057D01*
X164874404Y-96480057D02*
X164922023Y-96432438D01*
X164922023Y-96432438D02*
X165017261Y-96384819D01*
X165017261Y-96384819D02*
X165207737Y-96384819D01*
X165207737Y-96384819D02*
X165302975Y-96432438D01*
X165302975Y-96432438D02*
X165350594Y-96480057D01*
X165350594Y-96480057D02*
X165398213Y-96575295D01*
X165398213Y-96575295D02*
X165398213Y-96813390D01*
X165398213Y-96813390D02*
X165350594Y-96908628D01*
X165350594Y-96908628D02*
X165302975Y-96956247D01*
X165302975Y-96956247D02*
X165207737Y-97003866D01*
X165207737Y-97003866D02*
X165017261Y-97003866D01*
X165017261Y-97003866D02*
X164922023Y-96956247D01*
X164922023Y-96956247D02*
X164874404Y-96908628D01*
X164874404Y-96908628D02*
X164826785Y-96813390D01*
X164642857Y-74339580D02*
X164690476Y-74387200D01*
X164690476Y-74387200D02*
X164833333Y-74434819D01*
X164833333Y-74434819D02*
X164928571Y-74434819D01*
X164928571Y-74434819D02*
X165071428Y-74387200D01*
X165071428Y-74387200D02*
X165166666Y-74291961D01*
X165166666Y-74291961D02*
X165214285Y-74196723D01*
X165214285Y-74196723D02*
X165261904Y-74006247D01*
X165261904Y-74006247D02*
X165261904Y-73863390D01*
X165261904Y-73863390D02*
X165214285Y-73672914D01*
X165214285Y-73672914D02*
X165166666Y-73577676D01*
X165166666Y-73577676D02*
X165071428Y-73482438D01*
X165071428Y-73482438D02*
X164928571Y-73434819D01*
X164928571Y-73434819D02*
X164833333Y-73434819D01*
X164833333Y-73434819D02*
X164690476Y-73482438D01*
X164690476Y-73482438D02*
X164642857Y-73530057D01*
X163738095Y-73434819D02*
X164214285Y-73434819D01*
X164214285Y-73434819D02*
X164261904Y-73911009D01*
X164261904Y-73911009D02*
X164214285Y-73863390D01*
X164214285Y-73863390D02*
X164119047Y-73815771D01*
X164119047Y-73815771D02*
X163880952Y-73815771D01*
X163880952Y-73815771D02*
X163785714Y-73863390D01*
X163785714Y-73863390D02*
X163738095Y-73911009D01*
X163738095Y-73911009D02*
X163690476Y-74006247D01*
X163690476Y-74006247D02*
X163690476Y-74244342D01*
X163690476Y-74244342D02*
X163738095Y-74339580D01*
X163738095Y-74339580D02*
X163785714Y-74387200D01*
X163785714Y-74387200D02*
X163880952Y-74434819D01*
X163880952Y-74434819D02*
X164119047Y-74434819D01*
X164119047Y-74434819D02*
X164214285Y-74387200D01*
X164214285Y-74387200D02*
X164261904Y-74339580D01*
X163357142Y-73434819D02*
X162738095Y-73434819D01*
X162738095Y-73434819D02*
X163071428Y-73815771D01*
X163071428Y-73815771D02*
X162928571Y-73815771D01*
X162928571Y-73815771D02*
X162833333Y-73863390D01*
X162833333Y-73863390D02*
X162785714Y-73911009D01*
X162785714Y-73911009D02*
X162738095Y-74006247D01*
X162738095Y-74006247D02*
X162738095Y-74244342D01*
X162738095Y-74244342D02*
X162785714Y-74339580D01*
X162785714Y-74339580D02*
X162833333Y-74387200D01*
X162833333Y-74387200D02*
X162928571Y-74434819D01*
X162928571Y-74434819D02*
X163214285Y-74434819D01*
X163214285Y-74434819D02*
X163309523Y-74387200D01*
X163309523Y-74387200D02*
X163357142Y-74339580D01*
X99039580Y-110057142D02*
X99087200Y-110009523D01*
X99087200Y-110009523D02*
X99134819Y-109866666D01*
X99134819Y-109866666D02*
X99134819Y-109771428D01*
X99134819Y-109771428D02*
X99087200Y-109628571D01*
X99087200Y-109628571D02*
X98991961Y-109533333D01*
X98991961Y-109533333D02*
X98896723Y-109485714D01*
X98896723Y-109485714D02*
X98706247Y-109438095D01*
X98706247Y-109438095D02*
X98563390Y-109438095D01*
X98563390Y-109438095D02*
X98372914Y-109485714D01*
X98372914Y-109485714D02*
X98277676Y-109533333D01*
X98277676Y-109533333D02*
X98182438Y-109628571D01*
X98182438Y-109628571D02*
X98134819Y-109771428D01*
X98134819Y-109771428D02*
X98134819Y-109866666D01*
X98134819Y-109866666D02*
X98182438Y-110009523D01*
X98182438Y-110009523D02*
X98230057Y-110057142D01*
X98134819Y-110390476D02*
X98134819Y-111009523D01*
X98134819Y-111009523D02*
X98515771Y-110676190D01*
X98515771Y-110676190D02*
X98515771Y-110819047D01*
X98515771Y-110819047D02*
X98563390Y-110914285D01*
X98563390Y-110914285D02*
X98611009Y-110961904D01*
X98611009Y-110961904D02*
X98706247Y-111009523D01*
X98706247Y-111009523D02*
X98944342Y-111009523D01*
X98944342Y-111009523D02*
X99039580Y-110961904D01*
X99039580Y-110961904D02*
X99087200Y-110914285D01*
X99087200Y-110914285D02*
X99134819Y-110819047D01*
X99134819Y-110819047D02*
X99134819Y-110533333D01*
X99134819Y-110533333D02*
X99087200Y-110438095D01*
X99087200Y-110438095D02*
X99039580Y-110390476D01*
X98230057Y-111390476D02*
X98182438Y-111438095D01*
X98182438Y-111438095D02*
X98134819Y-111533333D01*
X98134819Y-111533333D02*
X98134819Y-111771428D01*
X98134819Y-111771428D02*
X98182438Y-111866666D01*
X98182438Y-111866666D02*
X98230057Y-111914285D01*
X98230057Y-111914285D02*
X98325295Y-111961904D01*
X98325295Y-111961904D02*
X98420533Y-111961904D01*
X98420533Y-111961904D02*
X98563390Y-111914285D01*
X98563390Y-111914285D02*
X99134819Y-111342857D01*
X99134819Y-111342857D02*
X99134819Y-111961904D01*
X161224819Y-89757142D02*
X160748628Y-89423809D01*
X161224819Y-89185714D02*
X160224819Y-89185714D01*
X160224819Y-89185714D02*
X160224819Y-89566666D01*
X160224819Y-89566666D02*
X160272438Y-89661904D01*
X160272438Y-89661904D02*
X160320057Y-89709523D01*
X160320057Y-89709523D02*
X160415295Y-89757142D01*
X160415295Y-89757142D02*
X160558152Y-89757142D01*
X160558152Y-89757142D02*
X160653390Y-89709523D01*
X160653390Y-89709523D02*
X160701009Y-89661904D01*
X160701009Y-89661904D02*
X160748628Y-89566666D01*
X160748628Y-89566666D02*
X160748628Y-89185714D01*
X161224819Y-90709523D02*
X161224819Y-90138095D01*
X161224819Y-90423809D02*
X160224819Y-90423809D01*
X160224819Y-90423809D02*
X160367676Y-90328571D01*
X160367676Y-90328571D02*
X160462914Y-90233333D01*
X160462914Y-90233333D02*
X160510533Y-90138095D01*
X160224819Y-91614285D02*
X160224819Y-91138095D01*
X160224819Y-91138095D02*
X160701009Y-91090476D01*
X160701009Y-91090476D02*
X160653390Y-91138095D01*
X160653390Y-91138095D02*
X160605771Y-91233333D01*
X160605771Y-91233333D02*
X160605771Y-91471428D01*
X160605771Y-91471428D02*
X160653390Y-91566666D01*
X160653390Y-91566666D02*
X160701009Y-91614285D01*
X160701009Y-91614285D02*
X160796247Y-91661904D01*
X160796247Y-91661904D02*
X161034342Y-91661904D01*
X161034342Y-91661904D02*
X161129580Y-91614285D01*
X161129580Y-91614285D02*
X161177200Y-91566666D01*
X161177200Y-91566666D02*
X161224819Y-91471428D01*
X161224819Y-91471428D02*
X161224819Y-91233333D01*
X161224819Y-91233333D02*
X161177200Y-91138095D01*
X161177200Y-91138095D02*
X161129580Y-91090476D01*
X200329580Y-118957142D02*
X200377200Y-118909523D01*
X200377200Y-118909523D02*
X200424819Y-118766666D01*
X200424819Y-118766666D02*
X200424819Y-118671428D01*
X200424819Y-118671428D02*
X200377200Y-118528571D01*
X200377200Y-118528571D02*
X200281961Y-118433333D01*
X200281961Y-118433333D02*
X200186723Y-118385714D01*
X200186723Y-118385714D02*
X199996247Y-118338095D01*
X199996247Y-118338095D02*
X199853390Y-118338095D01*
X199853390Y-118338095D02*
X199662914Y-118385714D01*
X199662914Y-118385714D02*
X199567676Y-118433333D01*
X199567676Y-118433333D02*
X199472438Y-118528571D01*
X199472438Y-118528571D02*
X199424819Y-118671428D01*
X199424819Y-118671428D02*
X199424819Y-118766666D01*
X199424819Y-118766666D02*
X199472438Y-118909523D01*
X199472438Y-118909523D02*
X199520057Y-118957142D01*
X199424819Y-119290476D02*
X199424819Y-119957142D01*
X199424819Y-119957142D02*
X200424819Y-119528571D01*
X199520057Y-120290476D02*
X199472438Y-120338095D01*
X199472438Y-120338095D02*
X199424819Y-120433333D01*
X199424819Y-120433333D02*
X199424819Y-120671428D01*
X199424819Y-120671428D02*
X199472438Y-120766666D01*
X199472438Y-120766666D02*
X199520057Y-120814285D01*
X199520057Y-120814285D02*
X199615295Y-120861904D01*
X199615295Y-120861904D02*
X199710533Y-120861904D01*
X199710533Y-120861904D02*
X199853390Y-120814285D01*
X199853390Y-120814285D02*
X200424819Y-120242857D01*
X200424819Y-120242857D02*
X200424819Y-120861904D01*
X92929580Y-110219642D02*
X92977200Y-110172023D01*
X92977200Y-110172023D02*
X93024819Y-110029166D01*
X93024819Y-110029166D02*
X93024819Y-109933928D01*
X93024819Y-109933928D02*
X92977200Y-109791071D01*
X92977200Y-109791071D02*
X92881961Y-109695833D01*
X92881961Y-109695833D02*
X92786723Y-109648214D01*
X92786723Y-109648214D02*
X92596247Y-109600595D01*
X92596247Y-109600595D02*
X92453390Y-109600595D01*
X92453390Y-109600595D02*
X92262914Y-109648214D01*
X92262914Y-109648214D02*
X92167676Y-109695833D01*
X92167676Y-109695833D02*
X92072438Y-109791071D01*
X92072438Y-109791071D02*
X92024819Y-109933928D01*
X92024819Y-109933928D02*
X92024819Y-110029166D01*
X92024819Y-110029166D02*
X92072438Y-110172023D01*
X92072438Y-110172023D02*
X92120057Y-110219642D01*
X92024819Y-110552976D02*
X92024819Y-111172023D01*
X92024819Y-111172023D02*
X92405771Y-110838690D01*
X92405771Y-110838690D02*
X92405771Y-110981547D01*
X92405771Y-110981547D02*
X92453390Y-111076785D01*
X92453390Y-111076785D02*
X92501009Y-111124404D01*
X92501009Y-111124404D02*
X92596247Y-111172023D01*
X92596247Y-111172023D02*
X92834342Y-111172023D01*
X92834342Y-111172023D02*
X92929580Y-111124404D01*
X92929580Y-111124404D02*
X92977200Y-111076785D01*
X92977200Y-111076785D02*
X93024819Y-110981547D01*
X93024819Y-110981547D02*
X93024819Y-110695833D01*
X93024819Y-110695833D02*
X92977200Y-110600595D01*
X92977200Y-110600595D02*
X92929580Y-110552976D01*
X92024819Y-111505357D02*
X92024819Y-112124404D01*
X92024819Y-112124404D02*
X92405771Y-111791071D01*
X92405771Y-111791071D02*
X92405771Y-111933928D01*
X92405771Y-111933928D02*
X92453390Y-112029166D01*
X92453390Y-112029166D02*
X92501009Y-112076785D01*
X92501009Y-112076785D02*
X92596247Y-112124404D01*
X92596247Y-112124404D02*
X92834342Y-112124404D01*
X92834342Y-112124404D02*
X92929580Y-112076785D01*
X92929580Y-112076785D02*
X92977200Y-112029166D01*
X92977200Y-112029166D02*
X93024819Y-111933928D01*
X93024819Y-111933928D02*
X93024819Y-111648214D01*
X93024819Y-111648214D02*
X92977200Y-111552976D01*
X92977200Y-111552976D02*
X92929580Y-111505357D01*
X207479580Y-73657142D02*
X207527200Y-73609523D01*
X207527200Y-73609523D02*
X207574819Y-73466666D01*
X207574819Y-73466666D02*
X207574819Y-73371428D01*
X207574819Y-73371428D02*
X207527200Y-73228571D01*
X207527200Y-73228571D02*
X207431961Y-73133333D01*
X207431961Y-73133333D02*
X207336723Y-73085714D01*
X207336723Y-73085714D02*
X207146247Y-73038095D01*
X207146247Y-73038095D02*
X207003390Y-73038095D01*
X207003390Y-73038095D02*
X206812914Y-73085714D01*
X206812914Y-73085714D02*
X206717676Y-73133333D01*
X206717676Y-73133333D02*
X206622438Y-73228571D01*
X206622438Y-73228571D02*
X206574819Y-73371428D01*
X206574819Y-73371428D02*
X206574819Y-73466666D01*
X206574819Y-73466666D02*
X206622438Y-73609523D01*
X206622438Y-73609523D02*
X206670057Y-73657142D01*
X206574819Y-74514285D02*
X206574819Y-74323809D01*
X206574819Y-74323809D02*
X206622438Y-74228571D01*
X206622438Y-74228571D02*
X206670057Y-74180952D01*
X206670057Y-74180952D02*
X206812914Y-74085714D01*
X206812914Y-74085714D02*
X207003390Y-74038095D01*
X207003390Y-74038095D02*
X207384342Y-74038095D01*
X207384342Y-74038095D02*
X207479580Y-74085714D01*
X207479580Y-74085714D02*
X207527200Y-74133333D01*
X207527200Y-74133333D02*
X207574819Y-74228571D01*
X207574819Y-74228571D02*
X207574819Y-74419047D01*
X207574819Y-74419047D02*
X207527200Y-74514285D01*
X207527200Y-74514285D02*
X207479580Y-74561904D01*
X207479580Y-74561904D02*
X207384342Y-74609523D01*
X207384342Y-74609523D02*
X207146247Y-74609523D01*
X207146247Y-74609523D02*
X207051009Y-74561904D01*
X207051009Y-74561904D02*
X207003390Y-74514285D01*
X207003390Y-74514285D02*
X206955771Y-74419047D01*
X206955771Y-74419047D02*
X206955771Y-74228571D01*
X206955771Y-74228571D02*
X207003390Y-74133333D01*
X207003390Y-74133333D02*
X207051009Y-74085714D01*
X207051009Y-74085714D02*
X207146247Y-74038095D01*
X206574819Y-75514285D02*
X206574819Y-75038095D01*
X206574819Y-75038095D02*
X207051009Y-74990476D01*
X207051009Y-74990476D02*
X207003390Y-75038095D01*
X207003390Y-75038095D02*
X206955771Y-75133333D01*
X206955771Y-75133333D02*
X206955771Y-75371428D01*
X206955771Y-75371428D02*
X207003390Y-75466666D01*
X207003390Y-75466666D02*
X207051009Y-75514285D01*
X207051009Y-75514285D02*
X207146247Y-75561904D01*
X207146247Y-75561904D02*
X207384342Y-75561904D01*
X207384342Y-75561904D02*
X207479580Y-75514285D01*
X207479580Y-75514285D02*
X207527200Y-75466666D01*
X207527200Y-75466666D02*
X207574819Y-75371428D01*
X207574819Y-75371428D02*
X207574819Y-75133333D01*
X207574819Y-75133333D02*
X207527200Y-75038095D01*
X207527200Y-75038095D02*
X207479580Y-74990476D01*
X94679580Y-101357142D02*
X94727200Y-101309523D01*
X94727200Y-101309523D02*
X94774819Y-101166666D01*
X94774819Y-101166666D02*
X94774819Y-101071428D01*
X94774819Y-101071428D02*
X94727200Y-100928571D01*
X94727200Y-100928571D02*
X94631961Y-100833333D01*
X94631961Y-100833333D02*
X94536723Y-100785714D01*
X94536723Y-100785714D02*
X94346247Y-100738095D01*
X94346247Y-100738095D02*
X94203390Y-100738095D01*
X94203390Y-100738095D02*
X94012914Y-100785714D01*
X94012914Y-100785714D02*
X93917676Y-100833333D01*
X93917676Y-100833333D02*
X93822438Y-100928571D01*
X93822438Y-100928571D02*
X93774819Y-101071428D01*
X93774819Y-101071428D02*
X93774819Y-101166666D01*
X93774819Y-101166666D02*
X93822438Y-101309523D01*
X93822438Y-101309523D02*
X93870057Y-101357142D01*
X93870057Y-101738095D02*
X93822438Y-101785714D01*
X93822438Y-101785714D02*
X93774819Y-101880952D01*
X93774819Y-101880952D02*
X93774819Y-102119047D01*
X93774819Y-102119047D02*
X93822438Y-102214285D01*
X93822438Y-102214285D02*
X93870057Y-102261904D01*
X93870057Y-102261904D02*
X93965295Y-102309523D01*
X93965295Y-102309523D02*
X94060533Y-102309523D01*
X94060533Y-102309523D02*
X94203390Y-102261904D01*
X94203390Y-102261904D02*
X94774819Y-101690476D01*
X94774819Y-101690476D02*
X94774819Y-102309523D01*
X94203390Y-102880952D02*
X94155771Y-102785714D01*
X94155771Y-102785714D02*
X94108152Y-102738095D01*
X94108152Y-102738095D02*
X94012914Y-102690476D01*
X94012914Y-102690476D02*
X93965295Y-102690476D01*
X93965295Y-102690476D02*
X93870057Y-102738095D01*
X93870057Y-102738095D02*
X93822438Y-102785714D01*
X93822438Y-102785714D02*
X93774819Y-102880952D01*
X93774819Y-102880952D02*
X93774819Y-103071428D01*
X93774819Y-103071428D02*
X93822438Y-103166666D01*
X93822438Y-103166666D02*
X93870057Y-103214285D01*
X93870057Y-103214285D02*
X93965295Y-103261904D01*
X93965295Y-103261904D02*
X94012914Y-103261904D01*
X94012914Y-103261904D02*
X94108152Y-103214285D01*
X94108152Y-103214285D02*
X94155771Y-103166666D01*
X94155771Y-103166666D02*
X94203390Y-103071428D01*
X94203390Y-103071428D02*
X94203390Y-102880952D01*
X94203390Y-102880952D02*
X94251009Y-102785714D01*
X94251009Y-102785714D02*
X94298628Y-102738095D01*
X94298628Y-102738095D02*
X94393866Y-102690476D01*
X94393866Y-102690476D02*
X94584342Y-102690476D01*
X94584342Y-102690476D02*
X94679580Y-102738095D01*
X94679580Y-102738095D02*
X94727200Y-102785714D01*
X94727200Y-102785714D02*
X94774819Y-102880952D01*
X94774819Y-102880952D02*
X94774819Y-103071428D01*
X94774819Y-103071428D02*
X94727200Y-103166666D01*
X94727200Y-103166666D02*
X94679580Y-103214285D01*
X94679580Y-103214285D02*
X94584342Y-103261904D01*
X94584342Y-103261904D02*
X94393866Y-103261904D01*
X94393866Y-103261904D02*
X94298628Y-103214285D01*
X94298628Y-103214285D02*
X94251009Y-103166666D01*
X94251009Y-103166666D02*
X94203390Y-103071428D01*
X166542857Y-89229580D02*
X166590476Y-89277200D01*
X166590476Y-89277200D02*
X166733333Y-89324819D01*
X166733333Y-89324819D02*
X166828571Y-89324819D01*
X166828571Y-89324819D02*
X166971428Y-89277200D01*
X166971428Y-89277200D02*
X167066666Y-89181961D01*
X167066666Y-89181961D02*
X167114285Y-89086723D01*
X167114285Y-89086723D02*
X167161904Y-88896247D01*
X167161904Y-88896247D02*
X167161904Y-88753390D01*
X167161904Y-88753390D02*
X167114285Y-88562914D01*
X167114285Y-88562914D02*
X167066666Y-88467676D01*
X167066666Y-88467676D02*
X166971428Y-88372438D01*
X166971428Y-88372438D02*
X166828571Y-88324819D01*
X166828571Y-88324819D02*
X166733333Y-88324819D01*
X166733333Y-88324819D02*
X166590476Y-88372438D01*
X166590476Y-88372438D02*
X166542857Y-88420057D01*
X165590476Y-89324819D02*
X166161904Y-89324819D01*
X165876190Y-89324819D02*
X165876190Y-88324819D01*
X165876190Y-88324819D02*
X165971428Y-88467676D01*
X165971428Y-88467676D02*
X166066666Y-88562914D01*
X166066666Y-88562914D02*
X166161904Y-88610533D01*
X165114285Y-89324819D02*
X164923809Y-89324819D01*
X164923809Y-89324819D02*
X164828571Y-89277200D01*
X164828571Y-89277200D02*
X164780952Y-89229580D01*
X164780952Y-89229580D02*
X164685714Y-89086723D01*
X164685714Y-89086723D02*
X164638095Y-88896247D01*
X164638095Y-88896247D02*
X164638095Y-88515295D01*
X164638095Y-88515295D02*
X164685714Y-88420057D01*
X164685714Y-88420057D02*
X164733333Y-88372438D01*
X164733333Y-88372438D02*
X164828571Y-88324819D01*
X164828571Y-88324819D02*
X165019047Y-88324819D01*
X165019047Y-88324819D02*
X165114285Y-88372438D01*
X165114285Y-88372438D02*
X165161904Y-88420057D01*
X165161904Y-88420057D02*
X165209523Y-88515295D01*
X165209523Y-88515295D02*
X165209523Y-88753390D01*
X165209523Y-88753390D02*
X165161904Y-88848628D01*
X165161904Y-88848628D02*
X165114285Y-88896247D01*
X165114285Y-88896247D02*
X165019047Y-88943866D01*
X165019047Y-88943866D02*
X164828571Y-88943866D01*
X164828571Y-88943866D02*
X164733333Y-88896247D01*
X164733333Y-88896247D02*
X164685714Y-88848628D01*
X164685714Y-88848628D02*
X164638095Y-88753390D01*
X135389580Y-86857142D02*
X135437200Y-86809523D01*
X135437200Y-86809523D02*
X135484819Y-86666666D01*
X135484819Y-86666666D02*
X135484819Y-86571428D01*
X135484819Y-86571428D02*
X135437200Y-86428571D01*
X135437200Y-86428571D02*
X135341961Y-86333333D01*
X135341961Y-86333333D02*
X135246723Y-86285714D01*
X135246723Y-86285714D02*
X135056247Y-86238095D01*
X135056247Y-86238095D02*
X134913390Y-86238095D01*
X134913390Y-86238095D02*
X134722914Y-86285714D01*
X134722914Y-86285714D02*
X134627676Y-86333333D01*
X134627676Y-86333333D02*
X134532438Y-86428571D01*
X134532438Y-86428571D02*
X134484819Y-86571428D01*
X134484819Y-86571428D02*
X134484819Y-86666666D01*
X134484819Y-86666666D02*
X134532438Y-86809523D01*
X134532438Y-86809523D02*
X134580057Y-86857142D01*
X134484819Y-87190476D02*
X134484819Y-87809523D01*
X134484819Y-87809523D02*
X134865771Y-87476190D01*
X134865771Y-87476190D02*
X134865771Y-87619047D01*
X134865771Y-87619047D02*
X134913390Y-87714285D01*
X134913390Y-87714285D02*
X134961009Y-87761904D01*
X134961009Y-87761904D02*
X135056247Y-87809523D01*
X135056247Y-87809523D02*
X135294342Y-87809523D01*
X135294342Y-87809523D02*
X135389580Y-87761904D01*
X135389580Y-87761904D02*
X135437200Y-87714285D01*
X135437200Y-87714285D02*
X135484819Y-87619047D01*
X135484819Y-87619047D02*
X135484819Y-87333333D01*
X135484819Y-87333333D02*
X135437200Y-87238095D01*
X135437200Y-87238095D02*
X135389580Y-87190476D01*
X135484819Y-88285714D02*
X135484819Y-88476190D01*
X135484819Y-88476190D02*
X135437200Y-88571428D01*
X135437200Y-88571428D02*
X135389580Y-88619047D01*
X135389580Y-88619047D02*
X135246723Y-88714285D01*
X135246723Y-88714285D02*
X135056247Y-88761904D01*
X135056247Y-88761904D02*
X134675295Y-88761904D01*
X134675295Y-88761904D02*
X134580057Y-88714285D01*
X134580057Y-88714285D02*
X134532438Y-88666666D01*
X134532438Y-88666666D02*
X134484819Y-88571428D01*
X134484819Y-88571428D02*
X134484819Y-88380952D01*
X134484819Y-88380952D02*
X134532438Y-88285714D01*
X134532438Y-88285714D02*
X134580057Y-88238095D01*
X134580057Y-88238095D02*
X134675295Y-88190476D01*
X134675295Y-88190476D02*
X134913390Y-88190476D01*
X134913390Y-88190476D02*
X135008628Y-88238095D01*
X135008628Y-88238095D02*
X135056247Y-88285714D01*
X135056247Y-88285714D02*
X135103866Y-88380952D01*
X135103866Y-88380952D02*
X135103866Y-88571428D01*
X135103866Y-88571428D02*
X135056247Y-88666666D01*
X135056247Y-88666666D02*
X135008628Y-88714285D01*
X135008628Y-88714285D02*
X134913390Y-88761904D01*
X174034819Y-111257142D02*
X173558628Y-110923809D01*
X174034819Y-110685714D02*
X173034819Y-110685714D01*
X173034819Y-110685714D02*
X173034819Y-111066666D01*
X173034819Y-111066666D02*
X173082438Y-111161904D01*
X173082438Y-111161904D02*
X173130057Y-111209523D01*
X173130057Y-111209523D02*
X173225295Y-111257142D01*
X173225295Y-111257142D02*
X173368152Y-111257142D01*
X173368152Y-111257142D02*
X173463390Y-111209523D01*
X173463390Y-111209523D02*
X173511009Y-111161904D01*
X173511009Y-111161904D02*
X173558628Y-111066666D01*
X173558628Y-111066666D02*
X173558628Y-110685714D01*
X174034819Y-112209523D02*
X174034819Y-111638095D01*
X174034819Y-111923809D02*
X173034819Y-111923809D01*
X173034819Y-111923809D02*
X173177676Y-111828571D01*
X173177676Y-111828571D02*
X173272914Y-111733333D01*
X173272914Y-111733333D02*
X173320533Y-111638095D01*
X173034819Y-112828571D02*
X173034819Y-112923809D01*
X173034819Y-112923809D02*
X173082438Y-113019047D01*
X173082438Y-113019047D02*
X173130057Y-113066666D01*
X173130057Y-113066666D02*
X173225295Y-113114285D01*
X173225295Y-113114285D02*
X173415771Y-113161904D01*
X173415771Y-113161904D02*
X173653866Y-113161904D01*
X173653866Y-113161904D02*
X173844342Y-113114285D01*
X173844342Y-113114285D02*
X173939580Y-113066666D01*
X173939580Y-113066666D02*
X173987200Y-113019047D01*
X173987200Y-113019047D02*
X174034819Y-112923809D01*
X174034819Y-112923809D02*
X174034819Y-112828571D01*
X174034819Y-112828571D02*
X173987200Y-112733333D01*
X173987200Y-112733333D02*
X173939580Y-112685714D01*
X173939580Y-112685714D02*
X173844342Y-112638095D01*
X173844342Y-112638095D02*
X173653866Y-112590476D01*
X173653866Y-112590476D02*
X173415771Y-112590476D01*
X173415771Y-112590476D02*
X173225295Y-112638095D01*
X173225295Y-112638095D02*
X173130057Y-112685714D01*
X173130057Y-112685714D02*
X173082438Y-112733333D01*
X173082438Y-112733333D02*
X173034819Y-112828571D01*
X185839580Y-119057142D02*
X185887200Y-119009523D01*
X185887200Y-119009523D02*
X185934819Y-118866666D01*
X185934819Y-118866666D02*
X185934819Y-118771428D01*
X185934819Y-118771428D02*
X185887200Y-118628571D01*
X185887200Y-118628571D02*
X185791961Y-118533333D01*
X185791961Y-118533333D02*
X185696723Y-118485714D01*
X185696723Y-118485714D02*
X185506247Y-118438095D01*
X185506247Y-118438095D02*
X185363390Y-118438095D01*
X185363390Y-118438095D02*
X185172914Y-118485714D01*
X185172914Y-118485714D02*
X185077676Y-118533333D01*
X185077676Y-118533333D02*
X184982438Y-118628571D01*
X184982438Y-118628571D02*
X184934819Y-118771428D01*
X184934819Y-118771428D02*
X184934819Y-118866666D01*
X184934819Y-118866666D02*
X184982438Y-119009523D01*
X184982438Y-119009523D02*
X185030057Y-119057142D01*
X184934819Y-119390476D02*
X184934819Y-120057142D01*
X184934819Y-120057142D02*
X185934819Y-119628571D01*
X185934819Y-120961904D02*
X185934819Y-120390476D01*
X185934819Y-120676190D02*
X184934819Y-120676190D01*
X184934819Y-120676190D02*
X185077676Y-120580952D01*
X185077676Y-120580952D02*
X185172914Y-120485714D01*
X185172914Y-120485714D02*
X185220533Y-120390476D01*
X132805357Y-97929580D02*
X132852976Y-97977200D01*
X132852976Y-97977200D02*
X132995833Y-98024819D01*
X132995833Y-98024819D02*
X133091071Y-98024819D01*
X133091071Y-98024819D02*
X133233928Y-97977200D01*
X133233928Y-97977200D02*
X133329166Y-97881961D01*
X133329166Y-97881961D02*
X133376785Y-97786723D01*
X133376785Y-97786723D02*
X133424404Y-97596247D01*
X133424404Y-97596247D02*
X133424404Y-97453390D01*
X133424404Y-97453390D02*
X133376785Y-97262914D01*
X133376785Y-97262914D02*
X133329166Y-97167676D01*
X133329166Y-97167676D02*
X133233928Y-97072438D01*
X133233928Y-97072438D02*
X133091071Y-97024819D01*
X133091071Y-97024819D02*
X132995833Y-97024819D01*
X132995833Y-97024819D02*
X132852976Y-97072438D01*
X132852976Y-97072438D02*
X132805357Y-97120057D01*
X131900595Y-97024819D02*
X132376785Y-97024819D01*
X132376785Y-97024819D02*
X132424404Y-97501009D01*
X132424404Y-97501009D02*
X132376785Y-97453390D01*
X132376785Y-97453390D02*
X132281547Y-97405771D01*
X132281547Y-97405771D02*
X132043452Y-97405771D01*
X132043452Y-97405771D02*
X131948214Y-97453390D01*
X131948214Y-97453390D02*
X131900595Y-97501009D01*
X131900595Y-97501009D02*
X131852976Y-97596247D01*
X131852976Y-97596247D02*
X131852976Y-97834342D01*
X131852976Y-97834342D02*
X131900595Y-97929580D01*
X131900595Y-97929580D02*
X131948214Y-97977200D01*
X131948214Y-97977200D02*
X132043452Y-98024819D01*
X132043452Y-98024819D02*
X132281547Y-98024819D01*
X132281547Y-98024819D02*
X132376785Y-97977200D01*
X132376785Y-97977200D02*
X132424404Y-97929580D01*
X131472023Y-97120057D02*
X131424404Y-97072438D01*
X131424404Y-97072438D02*
X131329166Y-97024819D01*
X131329166Y-97024819D02*
X131091071Y-97024819D01*
X131091071Y-97024819D02*
X130995833Y-97072438D01*
X130995833Y-97072438D02*
X130948214Y-97120057D01*
X130948214Y-97120057D02*
X130900595Y-97215295D01*
X130900595Y-97215295D02*
X130900595Y-97310533D01*
X130900595Y-97310533D02*
X130948214Y-97453390D01*
X130948214Y-97453390D02*
X131519642Y-98024819D01*
X131519642Y-98024819D02*
X130900595Y-98024819D01*
X121742857Y-96829580D02*
X121790476Y-96877200D01*
X121790476Y-96877200D02*
X121933333Y-96924819D01*
X121933333Y-96924819D02*
X122028571Y-96924819D01*
X122028571Y-96924819D02*
X122171428Y-96877200D01*
X122171428Y-96877200D02*
X122266666Y-96781961D01*
X122266666Y-96781961D02*
X122314285Y-96686723D01*
X122314285Y-96686723D02*
X122361904Y-96496247D01*
X122361904Y-96496247D02*
X122361904Y-96353390D01*
X122361904Y-96353390D02*
X122314285Y-96162914D01*
X122314285Y-96162914D02*
X122266666Y-96067676D01*
X122266666Y-96067676D02*
X122171428Y-95972438D01*
X122171428Y-95972438D02*
X122028571Y-95924819D01*
X122028571Y-95924819D02*
X121933333Y-95924819D01*
X121933333Y-95924819D02*
X121790476Y-95972438D01*
X121790476Y-95972438D02*
X121742857Y-96020057D01*
X121409523Y-95924819D02*
X120790476Y-95924819D01*
X120790476Y-95924819D02*
X121123809Y-96305771D01*
X121123809Y-96305771D02*
X120980952Y-96305771D01*
X120980952Y-96305771D02*
X120885714Y-96353390D01*
X120885714Y-96353390D02*
X120838095Y-96401009D01*
X120838095Y-96401009D02*
X120790476Y-96496247D01*
X120790476Y-96496247D02*
X120790476Y-96734342D01*
X120790476Y-96734342D02*
X120838095Y-96829580D01*
X120838095Y-96829580D02*
X120885714Y-96877200D01*
X120885714Y-96877200D02*
X120980952Y-96924819D01*
X120980952Y-96924819D02*
X121266666Y-96924819D01*
X121266666Y-96924819D02*
X121361904Y-96877200D01*
X121361904Y-96877200D02*
X121409523Y-96829580D01*
X119933333Y-96258152D02*
X119933333Y-96924819D01*
X120171428Y-95877200D02*
X120409523Y-96591485D01*
X120409523Y-96591485D02*
X119790476Y-96591485D01*
X136889580Y-86857142D02*
X136937200Y-86809523D01*
X136937200Y-86809523D02*
X136984819Y-86666666D01*
X136984819Y-86666666D02*
X136984819Y-86571428D01*
X136984819Y-86571428D02*
X136937200Y-86428571D01*
X136937200Y-86428571D02*
X136841961Y-86333333D01*
X136841961Y-86333333D02*
X136746723Y-86285714D01*
X136746723Y-86285714D02*
X136556247Y-86238095D01*
X136556247Y-86238095D02*
X136413390Y-86238095D01*
X136413390Y-86238095D02*
X136222914Y-86285714D01*
X136222914Y-86285714D02*
X136127676Y-86333333D01*
X136127676Y-86333333D02*
X136032438Y-86428571D01*
X136032438Y-86428571D02*
X135984819Y-86571428D01*
X135984819Y-86571428D02*
X135984819Y-86666666D01*
X135984819Y-86666666D02*
X136032438Y-86809523D01*
X136032438Y-86809523D02*
X136080057Y-86857142D01*
X135984819Y-87190476D02*
X135984819Y-87809523D01*
X135984819Y-87809523D02*
X136365771Y-87476190D01*
X136365771Y-87476190D02*
X136365771Y-87619047D01*
X136365771Y-87619047D02*
X136413390Y-87714285D01*
X136413390Y-87714285D02*
X136461009Y-87761904D01*
X136461009Y-87761904D02*
X136556247Y-87809523D01*
X136556247Y-87809523D02*
X136794342Y-87809523D01*
X136794342Y-87809523D02*
X136889580Y-87761904D01*
X136889580Y-87761904D02*
X136937200Y-87714285D01*
X136937200Y-87714285D02*
X136984819Y-87619047D01*
X136984819Y-87619047D02*
X136984819Y-87333333D01*
X136984819Y-87333333D02*
X136937200Y-87238095D01*
X136937200Y-87238095D02*
X136889580Y-87190476D01*
X135984819Y-88142857D02*
X135984819Y-88809523D01*
X135984819Y-88809523D02*
X136984819Y-88380952D01*
X187179580Y-73757142D02*
X187227200Y-73709523D01*
X187227200Y-73709523D02*
X187274819Y-73566666D01*
X187274819Y-73566666D02*
X187274819Y-73471428D01*
X187274819Y-73471428D02*
X187227200Y-73328571D01*
X187227200Y-73328571D02*
X187131961Y-73233333D01*
X187131961Y-73233333D02*
X187036723Y-73185714D01*
X187036723Y-73185714D02*
X186846247Y-73138095D01*
X186846247Y-73138095D02*
X186703390Y-73138095D01*
X186703390Y-73138095D02*
X186512914Y-73185714D01*
X186512914Y-73185714D02*
X186417676Y-73233333D01*
X186417676Y-73233333D02*
X186322438Y-73328571D01*
X186322438Y-73328571D02*
X186274819Y-73471428D01*
X186274819Y-73471428D02*
X186274819Y-73566666D01*
X186274819Y-73566666D02*
X186322438Y-73709523D01*
X186322438Y-73709523D02*
X186370057Y-73757142D01*
X186274819Y-74614285D02*
X186274819Y-74423809D01*
X186274819Y-74423809D02*
X186322438Y-74328571D01*
X186322438Y-74328571D02*
X186370057Y-74280952D01*
X186370057Y-74280952D02*
X186512914Y-74185714D01*
X186512914Y-74185714D02*
X186703390Y-74138095D01*
X186703390Y-74138095D02*
X187084342Y-74138095D01*
X187084342Y-74138095D02*
X187179580Y-74185714D01*
X187179580Y-74185714D02*
X187227200Y-74233333D01*
X187227200Y-74233333D02*
X187274819Y-74328571D01*
X187274819Y-74328571D02*
X187274819Y-74519047D01*
X187274819Y-74519047D02*
X187227200Y-74614285D01*
X187227200Y-74614285D02*
X187179580Y-74661904D01*
X187179580Y-74661904D02*
X187084342Y-74709523D01*
X187084342Y-74709523D02*
X186846247Y-74709523D01*
X186846247Y-74709523D02*
X186751009Y-74661904D01*
X186751009Y-74661904D02*
X186703390Y-74614285D01*
X186703390Y-74614285D02*
X186655771Y-74519047D01*
X186655771Y-74519047D02*
X186655771Y-74328571D01*
X186655771Y-74328571D02*
X186703390Y-74233333D01*
X186703390Y-74233333D02*
X186751009Y-74185714D01*
X186751009Y-74185714D02*
X186846247Y-74138095D01*
X186608152Y-75566666D02*
X187274819Y-75566666D01*
X186227200Y-75328571D02*
X186941485Y-75090476D01*
X186941485Y-75090476D02*
X186941485Y-75709523D01*
X172484819Y-92557142D02*
X172008628Y-92223809D01*
X172484819Y-91985714D02*
X171484819Y-91985714D01*
X171484819Y-91985714D02*
X171484819Y-92366666D01*
X171484819Y-92366666D02*
X171532438Y-92461904D01*
X171532438Y-92461904D02*
X171580057Y-92509523D01*
X171580057Y-92509523D02*
X171675295Y-92557142D01*
X171675295Y-92557142D02*
X171818152Y-92557142D01*
X171818152Y-92557142D02*
X171913390Y-92509523D01*
X171913390Y-92509523D02*
X171961009Y-92461904D01*
X171961009Y-92461904D02*
X172008628Y-92366666D01*
X172008628Y-92366666D02*
X172008628Y-91985714D01*
X171580057Y-92938095D02*
X171532438Y-92985714D01*
X171532438Y-92985714D02*
X171484819Y-93080952D01*
X171484819Y-93080952D02*
X171484819Y-93319047D01*
X171484819Y-93319047D02*
X171532438Y-93414285D01*
X171532438Y-93414285D02*
X171580057Y-93461904D01*
X171580057Y-93461904D02*
X171675295Y-93509523D01*
X171675295Y-93509523D02*
X171770533Y-93509523D01*
X171770533Y-93509523D02*
X171913390Y-93461904D01*
X171913390Y-93461904D02*
X172484819Y-92890476D01*
X172484819Y-92890476D02*
X172484819Y-93509523D01*
X172484819Y-94461904D02*
X172484819Y-93890476D01*
X172484819Y-94176190D02*
X171484819Y-94176190D01*
X171484819Y-94176190D02*
X171627676Y-94080952D01*
X171627676Y-94080952D02*
X171722914Y-93985714D01*
X171722914Y-93985714D02*
X171770533Y-93890476D01*
X205859580Y-73757142D02*
X205907200Y-73709523D01*
X205907200Y-73709523D02*
X205954819Y-73566666D01*
X205954819Y-73566666D02*
X205954819Y-73471428D01*
X205954819Y-73471428D02*
X205907200Y-73328571D01*
X205907200Y-73328571D02*
X205811961Y-73233333D01*
X205811961Y-73233333D02*
X205716723Y-73185714D01*
X205716723Y-73185714D02*
X205526247Y-73138095D01*
X205526247Y-73138095D02*
X205383390Y-73138095D01*
X205383390Y-73138095D02*
X205192914Y-73185714D01*
X205192914Y-73185714D02*
X205097676Y-73233333D01*
X205097676Y-73233333D02*
X205002438Y-73328571D01*
X205002438Y-73328571D02*
X204954819Y-73471428D01*
X204954819Y-73471428D02*
X204954819Y-73566666D01*
X204954819Y-73566666D02*
X205002438Y-73709523D01*
X205002438Y-73709523D02*
X205050057Y-73757142D01*
X204954819Y-74614285D02*
X204954819Y-74423809D01*
X204954819Y-74423809D02*
X205002438Y-74328571D01*
X205002438Y-74328571D02*
X205050057Y-74280952D01*
X205050057Y-74280952D02*
X205192914Y-74185714D01*
X205192914Y-74185714D02*
X205383390Y-74138095D01*
X205383390Y-74138095D02*
X205764342Y-74138095D01*
X205764342Y-74138095D02*
X205859580Y-74185714D01*
X205859580Y-74185714D02*
X205907200Y-74233333D01*
X205907200Y-74233333D02*
X205954819Y-74328571D01*
X205954819Y-74328571D02*
X205954819Y-74519047D01*
X205954819Y-74519047D02*
X205907200Y-74614285D01*
X205907200Y-74614285D02*
X205859580Y-74661904D01*
X205859580Y-74661904D02*
X205764342Y-74709523D01*
X205764342Y-74709523D02*
X205526247Y-74709523D01*
X205526247Y-74709523D02*
X205431009Y-74661904D01*
X205431009Y-74661904D02*
X205383390Y-74614285D01*
X205383390Y-74614285D02*
X205335771Y-74519047D01*
X205335771Y-74519047D02*
X205335771Y-74328571D01*
X205335771Y-74328571D02*
X205383390Y-74233333D01*
X205383390Y-74233333D02*
X205431009Y-74185714D01*
X205431009Y-74185714D02*
X205526247Y-74138095D01*
X204954819Y-75566666D02*
X204954819Y-75376190D01*
X204954819Y-75376190D02*
X205002438Y-75280952D01*
X205002438Y-75280952D02*
X205050057Y-75233333D01*
X205050057Y-75233333D02*
X205192914Y-75138095D01*
X205192914Y-75138095D02*
X205383390Y-75090476D01*
X205383390Y-75090476D02*
X205764342Y-75090476D01*
X205764342Y-75090476D02*
X205859580Y-75138095D01*
X205859580Y-75138095D02*
X205907200Y-75185714D01*
X205907200Y-75185714D02*
X205954819Y-75280952D01*
X205954819Y-75280952D02*
X205954819Y-75471428D01*
X205954819Y-75471428D02*
X205907200Y-75566666D01*
X205907200Y-75566666D02*
X205859580Y-75614285D01*
X205859580Y-75614285D02*
X205764342Y-75661904D01*
X205764342Y-75661904D02*
X205526247Y-75661904D01*
X205526247Y-75661904D02*
X205431009Y-75614285D01*
X205431009Y-75614285D02*
X205383390Y-75566666D01*
X205383390Y-75566666D02*
X205335771Y-75471428D01*
X205335771Y-75471428D02*
X205335771Y-75280952D01*
X205335771Y-75280952D02*
X205383390Y-75185714D01*
X205383390Y-75185714D02*
X205431009Y-75138095D01*
X205431009Y-75138095D02*
X205526247Y-75090476D01*
X168124819Y-92557142D02*
X167648628Y-92223809D01*
X168124819Y-91985714D02*
X167124819Y-91985714D01*
X167124819Y-91985714D02*
X167124819Y-92366666D01*
X167124819Y-92366666D02*
X167172438Y-92461904D01*
X167172438Y-92461904D02*
X167220057Y-92509523D01*
X167220057Y-92509523D02*
X167315295Y-92557142D01*
X167315295Y-92557142D02*
X167458152Y-92557142D01*
X167458152Y-92557142D02*
X167553390Y-92509523D01*
X167553390Y-92509523D02*
X167601009Y-92461904D01*
X167601009Y-92461904D02*
X167648628Y-92366666D01*
X167648628Y-92366666D02*
X167648628Y-91985714D01*
X168124819Y-93509523D02*
X168124819Y-92938095D01*
X168124819Y-93223809D02*
X167124819Y-93223809D01*
X167124819Y-93223809D02*
X167267676Y-93128571D01*
X167267676Y-93128571D02*
X167362914Y-93033333D01*
X167362914Y-93033333D02*
X167410533Y-92938095D01*
X168124819Y-93985714D02*
X168124819Y-94176190D01*
X168124819Y-94176190D02*
X168077200Y-94271428D01*
X168077200Y-94271428D02*
X168029580Y-94319047D01*
X168029580Y-94319047D02*
X167886723Y-94414285D01*
X167886723Y-94414285D02*
X167696247Y-94461904D01*
X167696247Y-94461904D02*
X167315295Y-94461904D01*
X167315295Y-94461904D02*
X167220057Y-94414285D01*
X167220057Y-94414285D02*
X167172438Y-94366666D01*
X167172438Y-94366666D02*
X167124819Y-94271428D01*
X167124819Y-94271428D02*
X167124819Y-94080952D01*
X167124819Y-94080952D02*
X167172438Y-93985714D01*
X167172438Y-93985714D02*
X167220057Y-93938095D01*
X167220057Y-93938095D02*
X167315295Y-93890476D01*
X167315295Y-93890476D02*
X167553390Y-93890476D01*
X167553390Y-93890476D02*
X167648628Y-93938095D01*
X167648628Y-93938095D02*
X167696247Y-93985714D01*
X167696247Y-93985714D02*
X167743866Y-94080952D01*
X167743866Y-94080952D02*
X167743866Y-94271428D01*
X167743866Y-94271428D02*
X167696247Y-94366666D01*
X167696247Y-94366666D02*
X167648628Y-94414285D01*
X167648628Y-94414285D02*
X167553390Y-94461904D01*
X205139580Y-70557142D02*
X205187200Y-70509523D01*
X205187200Y-70509523D02*
X205234819Y-70366666D01*
X205234819Y-70366666D02*
X205234819Y-70271428D01*
X205234819Y-70271428D02*
X205187200Y-70128571D01*
X205187200Y-70128571D02*
X205091961Y-70033333D01*
X205091961Y-70033333D02*
X204996723Y-69985714D01*
X204996723Y-69985714D02*
X204806247Y-69938095D01*
X204806247Y-69938095D02*
X204663390Y-69938095D01*
X204663390Y-69938095D02*
X204472914Y-69985714D01*
X204472914Y-69985714D02*
X204377676Y-70033333D01*
X204377676Y-70033333D02*
X204282438Y-70128571D01*
X204282438Y-70128571D02*
X204234819Y-70271428D01*
X204234819Y-70271428D02*
X204234819Y-70366666D01*
X204234819Y-70366666D02*
X204282438Y-70509523D01*
X204282438Y-70509523D02*
X204330057Y-70557142D01*
X204234819Y-70890476D02*
X204234819Y-71557142D01*
X204234819Y-71557142D02*
X205234819Y-71128571D01*
X204234819Y-71842857D02*
X204234819Y-72509523D01*
X204234819Y-72509523D02*
X205234819Y-72080952D01*
X145429580Y-102057142D02*
X145477200Y-102009523D01*
X145477200Y-102009523D02*
X145524819Y-101866666D01*
X145524819Y-101866666D02*
X145524819Y-101771428D01*
X145524819Y-101771428D02*
X145477200Y-101628571D01*
X145477200Y-101628571D02*
X145381961Y-101533333D01*
X145381961Y-101533333D02*
X145286723Y-101485714D01*
X145286723Y-101485714D02*
X145096247Y-101438095D01*
X145096247Y-101438095D02*
X144953390Y-101438095D01*
X144953390Y-101438095D02*
X144762914Y-101485714D01*
X144762914Y-101485714D02*
X144667676Y-101533333D01*
X144667676Y-101533333D02*
X144572438Y-101628571D01*
X144572438Y-101628571D02*
X144524819Y-101771428D01*
X144524819Y-101771428D02*
X144524819Y-101866666D01*
X144524819Y-101866666D02*
X144572438Y-102009523D01*
X144572438Y-102009523D02*
X144620057Y-102057142D01*
X144524819Y-102390476D02*
X144524819Y-103009523D01*
X144524819Y-103009523D02*
X144905771Y-102676190D01*
X144905771Y-102676190D02*
X144905771Y-102819047D01*
X144905771Y-102819047D02*
X144953390Y-102914285D01*
X144953390Y-102914285D02*
X145001009Y-102961904D01*
X145001009Y-102961904D02*
X145096247Y-103009523D01*
X145096247Y-103009523D02*
X145334342Y-103009523D01*
X145334342Y-103009523D02*
X145429580Y-102961904D01*
X145429580Y-102961904D02*
X145477200Y-102914285D01*
X145477200Y-102914285D02*
X145524819Y-102819047D01*
X145524819Y-102819047D02*
X145524819Y-102533333D01*
X145524819Y-102533333D02*
X145477200Y-102438095D01*
X145477200Y-102438095D02*
X145429580Y-102390476D01*
X144953390Y-103580952D02*
X144905771Y-103485714D01*
X144905771Y-103485714D02*
X144858152Y-103438095D01*
X144858152Y-103438095D02*
X144762914Y-103390476D01*
X144762914Y-103390476D02*
X144715295Y-103390476D01*
X144715295Y-103390476D02*
X144620057Y-103438095D01*
X144620057Y-103438095D02*
X144572438Y-103485714D01*
X144572438Y-103485714D02*
X144524819Y-103580952D01*
X144524819Y-103580952D02*
X144524819Y-103771428D01*
X144524819Y-103771428D02*
X144572438Y-103866666D01*
X144572438Y-103866666D02*
X144620057Y-103914285D01*
X144620057Y-103914285D02*
X144715295Y-103961904D01*
X144715295Y-103961904D02*
X144762914Y-103961904D01*
X144762914Y-103961904D02*
X144858152Y-103914285D01*
X144858152Y-103914285D02*
X144905771Y-103866666D01*
X144905771Y-103866666D02*
X144953390Y-103771428D01*
X144953390Y-103771428D02*
X144953390Y-103580952D01*
X144953390Y-103580952D02*
X145001009Y-103485714D01*
X145001009Y-103485714D02*
X145048628Y-103438095D01*
X145048628Y-103438095D02*
X145143866Y-103390476D01*
X145143866Y-103390476D02*
X145334342Y-103390476D01*
X145334342Y-103390476D02*
X145429580Y-103438095D01*
X145429580Y-103438095D02*
X145477200Y-103485714D01*
X145477200Y-103485714D02*
X145524819Y-103580952D01*
X145524819Y-103580952D02*
X145524819Y-103771428D01*
X145524819Y-103771428D02*
X145477200Y-103866666D01*
X145477200Y-103866666D02*
X145429580Y-103914285D01*
X145429580Y-103914285D02*
X145334342Y-103961904D01*
X145334342Y-103961904D02*
X145143866Y-103961904D01*
X145143866Y-103961904D02*
X145048628Y-103914285D01*
X145048628Y-103914285D02*
X145001009Y-103866666D01*
X145001009Y-103866666D02*
X144953390Y-103771428D01*
X146129580Y-97557142D02*
X146177200Y-97509523D01*
X146177200Y-97509523D02*
X146224819Y-97366666D01*
X146224819Y-97366666D02*
X146224819Y-97271428D01*
X146224819Y-97271428D02*
X146177200Y-97128571D01*
X146177200Y-97128571D02*
X146081961Y-97033333D01*
X146081961Y-97033333D02*
X145986723Y-96985714D01*
X145986723Y-96985714D02*
X145796247Y-96938095D01*
X145796247Y-96938095D02*
X145653390Y-96938095D01*
X145653390Y-96938095D02*
X145462914Y-96985714D01*
X145462914Y-96985714D02*
X145367676Y-97033333D01*
X145367676Y-97033333D02*
X145272438Y-97128571D01*
X145272438Y-97128571D02*
X145224819Y-97271428D01*
X145224819Y-97271428D02*
X145224819Y-97366666D01*
X145224819Y-97366666D02*
X145272438Y-97509523D01*
X145272438Y-97509523D02*
X145320057Y-97557142D01*
X145558152Y-98414285D02*
X146224819Y-98414285D01*
X145177200Y-98176190D02*
X145891485Y-97938095D01*
X145891485Y-97938095D02*
X145891485Y-98557142D01*
X145320057Y-98890476D02*
X145272438Y-98938095D01*
X145272438Y-98938095D02*
X145224819Y-99033333D01*
X145224819Y-99033333D02*
X145224819Y-99271428D01*
X145224819Y-99271428D02*
X145272438Y-99366666D01*
X145272438Y-99366666D02*
X145320057Y-99414285D01*
X145320057Y-99414285D02*
X145415295Y-99461904D01*
X145415295Y-99461904D02*
X145510533Y-99461904D01*
X145510533Y-99461904D02*
X145653390Y-99414285D01*
X145653390Y-99414285D02*
X146224819Y-98842857D01*
X146224819Y-98842857D02*
X146224819Y-99461904D01*
X205339580Y-119057142D02*
X205387200Y-119009523D01*
X205387200Y-119009523D02*
X205434819Y-118866666D01*
X205434819Y-118866666D02*
X205434819Y-118771428D01*
X205434819Y-118771428D02*
X205387200Y-118628571D01*
X205387200Y-118628571D02*
X205291961Y-118533333D01*
X205291961Y-118533333D02*
X205196723Y-118485714D01*
X205196723Y-118485714D02*
X205006247Y-118438095D01*
X205006247Y-118438095D02*
X204863390Y-118438095D01*
X204863390Y-118438095D02*
X204672914Y-118485714D01*
X204672914Y-118485714D02*
X204577676Y-118533333D01*
X204577676Y-118533333D02*
X204482438Y-118628571D01*
X204482438Y-118628571D02*
X204434819Y-118771428D01*
X204434819Y-118771428D02*
X204434819Y-118866666D01*
X204434819Y-118866666D02*
X204482438Y-119009523D01*
X204482438Y-119009523D02*
X204530057Y-119057142D01*
X204434819Y-119390476D02*
X204434819Y-120057142D01*
X204434819Y-120057142D02*
X205434819Y-119628571D01*
X204434819Y-120342857D02*
X204434819Y-120961904D01*
X204434819Y-120961904D02*
X204815771Y-120628571D01*
X204815771Y-120628571D02*
X204815771Y-120771428D01*
X204815771Y-120771428D02*
X204863390Y-120866666D01*
X204863390Y-120866666D02*
X204911009Y-120914285D01*
X204911009Y-120914285D02*
X205006247Y-120961904D01*
X205006247Y-120961904D02*
X205244342Y-120961904D01*
X205244342Y-120961904D02*
X205339580Y-120914285D01*
X205339580Y-120914285D02*
X205387200Y-120866666D01*
X205387200Y-120866666D02*
X205434819Y-120771428D01*
X205434819Y-120771428D02*
X205434819Y-120485714D01*
X205434819Y-120485714D02*
X205387200Y-120390476D01*
X205387200Y-120390476D02*
X205339580Y-120342857D01*
X186942857Y-83489580D02*
X186990476Y-83537200D01*
X186990476Y-83537200D02*
X187133333Y-83584819D01*
X187133333Y-83584819D02*
X187228571Y-83584819D01*
X187228571Y-83584819D02*
X187371428Y-83537200D01*
X187371428Y-83537200D02*
X187466666Y-83441961D01*
X187466666Y-83441961D02*
X187514285Y-83346723D01*
X187514285Y-83346723D02*
X187561904Y-83156247D01*
X187561904Y-83156247D02*
X187561904Y-83013390D01*
X187561904Y-83013390D02*
X187514285Y-82822914D01*
X187514285Y-82822914D02*
X187466666Y-82727676D01*
X187466666Y-82727676D02*
X187371428Y-82632438D01*
X187371428Y-82632438D02*
X187228571Y-82584819D01*
X187228571Y-82584819D02*
X187133333Y-82584819D01*
X187133333Y-82584819D02*
X186990476Y-82632438D01*
X186990476Y-82632438D02*
X186942857Y-82680057D01*
X186371428Y-83013390D02*
X186466666Y-82965771D01*
X186466666Y-82965771D02*
X186514285Y-82918152D01*
X186514285Y-82918152D02*
X186561904Y-82822914D01*
X186561904Y-82822914D02*
X186561904Y-82775295D01*
X186561904Y-82775295D02*
X186514285Y-82680057D01*
X186514285Y-82680057D02*
X186466666Y-82632438D01*
X186466666Y-82632438D02*
X186371428Y-82584819D01*
X186371428Y-82584819D02*
X186180952Y-82584819D01*
X186180952Y-82584819D02*
X186085714Y-82632438D01*
X186085714Y-82632438D02*
X186038095Y-82680057D01*
X186038095Y-82680057D02*
X185990476Y-82775295D01*
X185990476Y-82775295D02*
X185990476Y-82822914D01*
X185990476Y-82822914D02*
X186038095Y-82918152D01*
X186038095Y-82918152D02*
X186085714Y-82965771D01*
X186085714Y-82965771D02*
X186180952Y-83013390D01*
X186180952Y-83013390D02*
X186371428Y-83013390D01*
X186371428Y-83013390D02*
X186466666Y-83061009D01*
X186466666Y-83061009D02*
X186514285Y-83108628D01*
X186514285Y-83108628D02*
X186561904Y-83203866D01*
X186561904Y-83203866D02*
X186561904Y-83394342D01*
X186561904Y-83394342D02*
X186514285Y-83489580D01*
X186514285Y-83489580D02*
X186466666Y-83537200D01*
X186466666Y-83537200D02*
X186371428Y-83584819D01*
X186371428Y-83584819D02*
X186180952Y-83584819D01*
X186180952Y-83584819D02*
X186085714Y-83537200D01*
X186085714Y-83537200D02*
X186038095Y-83489580D01*
X186038095Y-83489580D02*
X185990476Y-83394342D01*
X185990476Y-83394342D02*
X185990476Y-83203866D01*
X185990476Y-83203866D02*
X186038095Y-83108628D01*
X186038095Y-83108628D02*
X186085714Y-83061009D01*
X186085714Y-83061009D02*
X186180952Y-83013390D01*
X185657142Y-82584819D02*
X185038095Y-82584819D01*
X185038095Y-82584819D02*
X185371428Y-82965771D01*
X185371428Y-82965771D02*
X185228571Y-82965771D01*
X185228571Y-82965771D02*
X185133333Y-83013390D01*
X185133333Y-83013390D02*
X185085714Y-83061009D01*
X185085714Y-83061009D02*
X185038095Y-83156247D01*
X185038095Y-83156247D02*
X185038095Y-83394342D01*
X185038095Y-83394342D02*
X185085714Y-83489580D01*
X185085714Y-83489580D02*
X185133333Y-83537200D01*
X185133333Y-83537200D02*
X185228571Y-83584819D01*
X185228571Y-83584819D02*
X185514285Y-83584819D01*
X185514285Y-83584819D02*
X185609523Y-83537200D01*
X185609523Y-83537200D02*
X185657142Y-83489580D01*
X207174819Y-76933333D02*
X206698628Y-76600000D01*
X207174819Y-76361905D02*
X206174819Y-76361905D01*
X206174819Y-76361905D02*
X206174819Y-76742857D01*
X206174819Y-76742857D02*
X206222438Y-76838095D01*
X206222438Y-76838095D02*
X206270057Y-76885714D01*
X206270057Y-76885714D02*
X206365295Y-76933333D01*
X206365295Y-76933333D02*
X206508152Y-76933333D01*
X206508152Y-76933333D02*
X206603390Y-76885714D01*
X206603390Y-76885714D02*
X206651009Y-76838095D01*
X206651009Y-76838095D02*
X206698628Y-76742857D01*
X206698628Y-76742857D02*
X206698628Y-76361905D01*
X206270057Y-77314286D02*
X206222438Y-77361905D01*
X206222438Y-77361905D02*
X206174819Y-77457143D01*
X206174819Y-77457143D02*
X206174819Y-77695238D01*
X206174819Y-77695238D02*
X206222438Y-77790476D01*
X206222438Y-77790476D02*
X206270057Y-77838095D01*
X206270057Y-77838095D02*
X206365295Y-77885714D01*
X206365295Y-77885714D02*
X206460533Y-77885714D01*
X206460533Y-77885714D02*
X206603390Y-77838095D01*
X206603390Y-77838095D02*
X207174819Y-77266667D01*
X207174819Y-77266667D02*
X207174819Y-77885714D01*
X164842857Y-74529580D02*
X164890476Y-74577200D01*
X164890476Y-74577200D02*
X165033333Y-74624819D01*
X165033333Y-74624819D02*
X165128571Y-74624819D01*
X165128571Y-74624819D02*
X165271428Y-74577200D01*
X165271428Y-74577200D02*
X165366666Y-74481961D01*
X165366666Y-74481961D02*
X165414285Y-74386723D01*
X165414285Y-74386723D02*
X165461904Y-74196247D01*
X165461904Y-74196247D02*
X165461904Y-74053390D01*
X165461904Y-74053390D02*
X165414285Y-73862914D01*
X165414285Y-73862914D02*
X165366666Y-73767676D01*
X165366666Y-73767676D02*
X165271428Y-73672438D01*
X165271428Y-73672438D02*
X165128571Y-73624819D01*
X165128571Y-73624819D02*
X165033333Y-73624819D01*
X165033333Y-73624819D02*
X164890476Y-73672438D01*
X164890476Y-73672438D02*
X164842857Y-73720057D01*
X163938095Y-73624819D02*
X164414285Y-73624819D01*
X164414285Y-73624819D02*
X164461904Y-74101009D01*
X164461904Y-74101009D02*
X164414285Y-74053390D01*
X164414285Y-74053390D02*
X164319047Y-74005771D01*
X164319047Y-74005771D02*
X164080952Y-74005771D01*
X164080952Y-74005771D02*
X163985714Y-74053390D01*
X163985714Y-74053390D02*
X163938095Y-74101009D01*
X163938095Y-74101009D02*
X163890476Y-74196247D01*
X163890476Y-74196247D02*
X163890476Y-74434342D01*
X163890476Y-74434342D02*
X163938095Y-74529580D01*
X163938095Y-74529580D02*
X163985714Y-74577200D01*
X163985714Y-74577200D02*
X164080952Y-74624819D01*
X164080952Y-74624819D02*
X164319047Y-74624819D01*
X164319047Y-74624819D02*
X164414285Y-74577200D01*
X164414285Y-74577200D02*
X164461904Y-74529580D01*
X163033333Y-73958152D02*
X163033333Y-74624819D01*
X163271428Y-73577200D02*
X163509523Y-74291485D01*
X163509523Y-74291485D02*
X162890476Y-74291485D01*
X166529580Y-72257142D02*
X166577200Y-72209523D01*
X166577200Y-72209523D02*
X166624819Y-72066666D01*
X166624819Y-72066666D02*
X166624819Y-71971428D01*
X166624819Y-71971428D02*
X166577200Y-71828571D01*
X166577200Y-71828571D02*
X166481961Y-71733333D01*
X166481961Y-71733333D02*
X166386723Y-71685714D01*
X166386723Y-71685714D02*
X166196247Y-71638095D01*
X166196247Y-71638095D02*
X166053390Y-71638095D01*
X166053390Y-71638095D02*
X165862914Y-71685714D01*
X165862914Y-71685714D02*
X165767676Y-71733333D01*
X165767676Y-71733333D02*
X165672438Y-71828571D01*
X165672438Y-71828571D02*
X165624819Y-71971428D01*
X165624819Y-71971428D02*
X165624819Y-72066666D01*
X165624819Y-72066666D02*
X165672438Y-72209523D01*
X165672438Y-72209523D02*
X165720057Y-72257142D01*
X166053390Y-72828571D02*
X166005771Y-72733333D01*
X166005771Y-72733333D02*
X165958152Y-72685714D01*
X165958152Y-72685714D02*
X165862914Y-72638095D01*
X165862914Y-72638095D02*
X165815295Y-72638095D01*
X165815295Y-72638095D02*
X165720057Y-72685714D01*
X165720057Y-72685714D02*
X165672438Y-72733333D01*
X165672438Y-72733333D02*
X165624819Y-72828571D01*
X165624819Y-72828571D02*
X165624819Y-73019047D01*
X165624819Y-73019047D02*
X165672438Y-73114285D01*
X165672438Y-73114285D02*
X165720057Y-73161904D01*
X165720057Y-73161904D02*
X165815295Y-73209523D01*
X165815295Y-73209523D02*
X165862914Y-73209523D01*
X165862914Y-73209523D02*
X165958152Y-73161904D01*
X165958152Y-73161904D02*
X166005771Y-73114285D01*
X166005771Y-73114285D02*
X166053390Y-73019047D01*
X166053390Y-73019047D02*
X166053390Y-72828571D01*
X166053390Y-72828571D02*
X166101009Y-72733333D01*
X166101009Y-72733333D02*
X166148628Y-72685714D01*
X166148628Y-72685714D02*
X166243866Y-72638095D01*
X166243866Y-72638095D02*
X166434342Y-72638095D01*
X166434342Y-72638095D02*
X166529580Y-72685714D01*
X166529580Y-72685714D02*
X166577200Y-72733333D01*
X166577200Y-72733333D02*
X166624819Y-72828571D01*
X166624819Y-72828571D02*
X166624819Y-73019047D01*
X166624819Y-73019047D02*
X166577200Y-73114285D01*
X166577200Y-73114285D02*
X166529580Y-73161904D01*
X166529580Y-73161904D02*
X166434342Y-73209523D01*
X166434342Y-73209523D02*
X166243866Y-73209523D01*
X166243866Y-73209523D02*
X166148628Y-73161904D01*
X166148628Y-73161904D02*
X166101009Y-73114285D01*
X166101009Y-73114285D02*
X166053390Y-73019047D01*
X165624819Y-74114285D02*
X165624819Y-73638095D01*
X165624819Y-73638095D02*
X166101009Y-73590476D01*
X166101009Y-73590476D02*
X166053390Y-73638095D01*
X166053390Y-73638095D02*
X166005771Y-73733333D01*
X166005771Y-73733333D02*
X166005771Y-73971428D01*
X166005771Y-73971428D02*
X166053390Y-74066666D01*
X166053390Y-74066666D02*
X166101009Y-74114285D01*
X166101009Y-74114285D02*
X166196247Y-74161904D01*
X166196247Y-74161904D02*
X166434342Y-74161904D01*
X166434342Y-74161904D02*
X166529580Y-74114285D01*
X166529580Y-74114285D02*
X166577200Y-74066666D01*
X166577200Y-74066666D02*
X166624819Y-73971428D01*
X166624819Y-73971428D02*
X166624819Y-73733333D01*
X166624819Y-73733333D02*
X166577200Y-73638095D01*
X166577200Y-73638095D02*
X166529580Y-73590476D01*
X130689580Y-85933333D02*
X130737200Y-85885714D01*
X130737200Y-85885714D02*
X130784819Y-85742857D01*
X130784819Y-85742857D02*
X130784819Y-85647619D01*
X130784819Y-85647619D02*
X130737200Y-85504762D01*
X130737200Y-85504762D02*
X130641961Y-85409524D01*
X130641961Y-85409524D02*
X130546723Y-85361905D01*
X130546723Y-85361905D02*
X130356247Y-85314286D01*
X130356247Y-85314286D02*
X130213390Y-85314286D01*
X130213390Y-85314286D02*
X130022914Y-85361905D01*
X130022914Y-85361905D02*
X129927676Y-85409524D01*
X129927676Y-85409524D02*
X129832438Y-85504762D01*
X129832438Y-85504762D02*
X129784819Y-85647619D01*
X129784819Y-85647619D02*
X129784819Y-85742857D01*
X129784819Y-85742857D02*
X129832438Y-85885714D01*
X129832438Y-85885714D02*
X129880057Y-85933333D01*
X130118152Y-86790476D02*
X130784819Y-86790476D01*
X129737200Y-86552381D02*
X130451485Y-86314286D01*
X130451485Y-86314286D02*
X130451485Y-86933333D01*
X134159580Y-100957142D02*
X134207200Y-100909523D01*
X134207200Y-100909523D02*
X134254819Y-100766666D01*
X134254819Y-100766666D02*
X134254819Y-100671428D01*
X134254819Y-100671428D02*
X134207200Y-100528571D01*
X134207200Y-100528571D02*
X134111961Y-100433333D01*
X134111961Y-100433333D02*
X134016723Y-100385714D01*
X134016723Y-100385714D02*
X133826247Y-100338095D01*
X133826247Y-100338095D02*
X133683390Y-100338095D01*
X133683390Y-100338095D02*
X133492914Y-100385714D01*
X133492914Y-100385714D02*
X133397676Y-100433333D01*
X133397676Y-100433333D02*
X133302438Y-100528571D01*
X133302438Y-100528571D02*
X133254819Y-100671428D01*
X133254819Y-100671428D02*
X133254819Y-100766666D01*
X133254819Y-100766666D02*
X133302438Y-100909523D01*
X133302438Y-100909523D02*
X133350057Y-100957142D01*
X133588152Y-101814285D02*
X134254819Y-101814285D01*
X133207200Y-101576190D02*
X133921485Y-101338095D01*
X133921485Y-101338095D02*
X133921485Y-101957142D01*
X133254819Y-102242857D02*
X133254819Y-102861904D01*
X133254819Y-102861904D02*
X133635771Y-102528571D01*
X133635771Y-102528571D02*
X133635771Y-102671428D01*
X133635771Y-102671428D02*
X133683390Y-102766666D01*
X133683390Y-102766666D02*
X133731009Y-102814285D01*
X133731009Y-102814285D02*
X133826247Y-102861904D01*
X133826247Y-102861904D02*
X134064342Y-102861904D01*
X134064342Y-102861904D02*
X134159580Y-102814285D01*
X134159580Y-102814285D02*
X134207200Y-102766666D01*
X134207200Y-102766666D02*
X134254819Y-102671428D01*
X134254819Y-102671428D02*
X134254819Y-102385714D01*
X134254819Y-102385714D02*
X134207200Y-102290476D01*
X134207200Y-102290476D02*
X134159580Y-102242857D01*
X135542857Y-92429580D02*
X135590476Y-92477200D01*
X135590476Y-92477200D02*
X135733333Y-92524819D01*
X135733333Y-92524819D02*
X135828571Y-92524819D01*
X135828571Y-92524819D02*
X135971428Y-92477200D01*
X135971428Y-92477200D02*
X136066666Y-92381961D01*
X136066666Y-92381961D02*
X136114285Y-92286723D01*
X136114285Y-92286723D02*
X136161904Y-92096247D01*
X136161904Y-92096247D02*
X136161904Y-91953390D01*
X136161904Y-91953390D02*
X136114285Y-91762914D01*
X136114285Y-91762914D02*
X136066666Y-91667676D01*
X136066666Y-91667676D02*
X135971428Y-91572438D01*
X135971428Y-91572438D02*
X135828571Y-91524819D01*
X135828571Y-91524819D02*
X135733333Y-91524819D01*
X135733333Y-91524819D02*
X135590476Y-91572438D01*
X135590476Y-91572438D02*
X135542857Y-91620057D01*
X134638095Y-91524819D02*
X135114285Y-91524819D01*
X135114285Y-91524819D02*
X135161904Y-92001009D01*
X135161904Y-92001009D02*
X135114285Y-91953390D01*
X135114285Y-91953390D02*
X135019047Y-91905771D01*
X135019047Y-91905771D02*
X134780952Y-91905771D01*
X134780952Y-91905771D02*
X134685714Y-91953390D01*
X134685714Y-91953390D02*
X134638095Y-92001009D01*
X134638095Y-92001009D02*
X134590476Y-92096247D01*
X134590476Y-92096247D02*
X134590476Y-92334342D01*
X134590476Y-92334342D02*
X134638095Y-92429580D01*
X134638095Y-92429580D02*
X134685714Y-92477200D01*
X134685714Y-92477200D02*
X134780952Y-92524819D01*
X134780952Y-92524819D02*
X135019047Y-92524819D01*
X135019047Y-92524819D02*
X135114285Y-92477200D01*
X135114285Y-92477200D02*
X135161904Y-92429580D01*
X133638095Y-92524819D02*
X134209523Y-92524819D01*
X133923809Y-92524819D02*
X133923809Y-91524819D01*
X133923809Y-91524819D02*
X134019047Y-91667676D01*
X134019047Y-91667676D02*
X134114285Y-91762914D01*
X134114285Y-91762914D02*
X134209523Y-91810533D01*
X140184819Y-55057142D02*
X139708628Y-54723809D01*
X140184819Y-54485714D02*
X139184819Y-54485714D01*
X139184819Y-54485714D02*
X139184819Y-54866666D01*
X139184819Y-54866666D02*
X139232438Y-54961904D01*
X139232438Y-54961904D02*
X139280057Y-55009523D01*
X139280057Y-55009523D02*
X139375295Y-55057142D01*
X139375295Y-55057142D02*
X139518152Y-55057142D01*
X139518152Y-55057142D02*
X139613390Y-55009523D01*
X139613390Y-55009523D02*
X139661009Y-54961904D01*
X139661009Y-54961904D02*
X139708628Y-54866666D01*
X139708628Y-54866666D02*
X139708628Y-54485714D01*
X139613390Y-55628571D02*
X139565771Y-55533333D01*
X139565771Y-55533333D02*
X139518152Y-55485714D01*
X139518152Y-55485714D02*
X139422914Y-55438095D01*
X139422914Y-55438095D02*
X139375295Y-55438095D01*
X139375295Y-55438095D02*
X139280057Y-55485714D01*
X139280057Y-55485714D02*
X139232438Y-55533333D01*
X139232438Y-55533333D02*
X139184819Y-55628571D01*
X139184819Y-55628571D02*
X139184819Y-55819047D01*
X139184819Y-55819047D02*
X139232438Y-55914285D01*
X139232438Y-55914285D02*
X139280057Y-55961904D01*
X139280057Y-55961904D02*
X139375295Y-56009523D01*
X139375295Y-56009523D02*
X139422914Y-56009523D01*
X139422914Y-56009523D02*
X139518152Y-55961904D01*
X139518152Y-55961904D02*
X139565771Y-55914285D01*
X139565771Y-55914285D02*
X139613390Y-55819047D01*
X139613390Y-55819047D02*
X139613390Y-55628571D01*
X139613390Y-55628571D02*
X139661009Y-55533333D01*
X139661009Y-55533333D02*
X139708628Y-55485714D01*
X139708628Y-55485714D02*
X139803866Y-55438095D01*
X139803866Y-55438095D02*
X139994342Y-55438095D01*
X139994342Y-55438095D02*
X140089580Y-55485714D01*
X140089580Y-55485714D02*
X140137200Y-55533333D01*
X140137200Y-55533333D02*
X140184819Y-55628571D01*
X140184819Y-55628571D02*
X140184819Y-55819047D01*
X140184819Y-55819047D02*
X140137200Y-55914285D01*
X140137200Y-55914285D02*
X140089580Y-55961904D01*
X140089580Y-55961904D02*
X139994342Y-56009523D01*
X139994342Y-56009523D02*
X139803866Y-56009523D01*
X139803866Y-56009523D02*
X139708628Y-55961904D01*
X139708628Y-55961904D02*
X139661009Y-55914285D01*
X139661009Y-55914285D02*
X139613390Y-55819047D01*
X139184819Y-56628571D02*
X139184819Y-56723809D01*
X139184819Y-56723809D02*
X139232438Y-56819047D01*
X139232438Y-56819047D02*
X139280057Y-56866666D01*
X139280057Y-56866666D02*
X139375295Y-56914285D01*
X139375295Y-56914285D02*
X139565771Y-56961904D01*
X139565771Y-56961904D02*
X139803866Y-56961904D01*
X139803866Y-56961904D02*
X139994342Y-56914285D01*
X139994342Y-56914285D02*
X140089580Y-56866666D01*
X140089580Y-56866666D02*
X140137200Y-56819047D01*
X140137200Y-56819047D02*
X140184819Y-56723809D01*
X140184819Y-56723809D02*
X140184819Y-56628571D01*
X140184819Y-56628571D02*
X140137200Y-56533333D01*
X140137200Y-56533333D02*
X140089580Y-56485714D01*
X140089580Y-56485714D02*
X139994342Y-56438095D01*
X139994342Y-56438095D02*
X139803866Y-56390476D01*
X139803866Y-56390476D02*
X139565771Y-56390476D01*
X139565771Y-56390476D02*
X139375295Y-56438095D01*
X139375295Y-56438095D02*
X139280057Y-56485714D01*
X139280057Y-56485714D02*
X139232438Y-56533333D01*
X139232438Y-56533333D02*
X139184819Y-56628571D01*
X187074819Y-76933333D02*
X186598628Y-76600000D01*
X187074819Y-76361905D02*
X186074819Y-76361905D01*
X186074819Y-76361905D02*
X186074819Y-76742857D01*
X186074819Y-76742857D02*
X186122438Y-76838095D01*
X186122438Y-76838095D02*
X186170057Y-76885714D01*
X186170057Y-76885714D02*
X186265295Y-76933333D01*
X186265295Y-76933333D02*
X186408152Y-76933333D01*
X186408152Y-76933333D02*
X186503390Y-76885714D01*
X186503390Y-76885714D02*
X186551009Y-76838095D01*
X186551009Y-76838095D02*
X186598628Y-76742857D01*
X186598628Y-76742857D02*
X186598628Y-76361905D01*
X187074819Y-77409524D02*
X187074819Y-77600000D01*
X187074819Y-77600000D02*
X187027200Y-77695238D01*
X187027200Y-77695238D02*
X186979580Y-77742857D01*
X186979580Y-77742857D02*
X186836723Y-77838095D01*
X186836723Y-77838095D02*
X186646247Y-77885714D01*
X186646247Y-77885714D02*
X186265295Y-77885714D01*
X186265295Y-77885714D02*
X186170057Y-77838095D01*
X186170057Y-77838095D02*
X186122438Y-77790476D01*
X186122438Y-77790476D02*
X186074819Y-77695238D01*
X186074819Y-77695238D02*
X186074819Y-77504762D01*
X186074819Y-77504762D02*
X186122438Y-77409524D01*
X186122438Y-77409524D02*
X186170057Y-77361905D01*
X186170057Y-77361905D02*
X186265295Y-77314286D01*
X186265295Y-77314286D02*
X186503390Y-77314286D01*
X186503390Y-77314286D02*
X186598628Y-77361905D01*
X186598628Y-77361905D02*
X186646247Y-77409524D01*
X186646247Y-77409524D02*
X186693866Y-77504762D01*
X186693866Y-77504762D02*
X186693866Y-77695238D01*
X186693866Y-77695238D02*
X186646247Y-77790476D01*
X186646247Y-77790476D02*
X186598628Y-77838095D01*
X186598628Y-77838095D02*
X186503390Y-77885714D01*
X188342857Y-106129580D02*
X188390476Y-106177200D01*
X188390476Y-106177200D02*
X188533333Y-106224819D01*
X188533333Y-106224819D02*
X188628571Y-106224819D01*
X188628571Y-106224819D02*
X188771428Y-106177200D01*
X188771428Y-106177200D02*
X188866666Y-106081961D01*
X188866666Y-106081961D02*
X188914285Y-105986723D01*
X188914285Y-105986723D02*
X188961904Y-105796247D01*
X188961904Y-105796247D02*
X188961904Y-105653390D01*
X188961904Y-105653390D02*
X188914285Y-105462914D01*
X188914285Y-105462914D02*
X188866666Y-105367676D01*
X188866666Y-105367676D02*
X188771428Y-105272438D01*
X188771428Y-105272438D02*
X188628571Y-105224819D01*
X188628571Y-105224819D02*
X188533333Y-105224819D01*
X188533333Y-105224819D02*
X188390476Y-105272438D01*
X188390476Y-105272438D02*
X188342857Y-105320057D01*
X187771428Y-105653390D02*
X187866666Y-105605771D01*
X187866666Y-105605771D02*
X187914285Y-105558152D01*
X187914285Y-105558152D02*
X187961904Y-105462914D01*
X187961904Y-105462914D02*
X187961904Y-105415295D01*
X187961904Y-105415295D02*
X187914285Y-105320057D01*
X187914285Y-105320057D02*
X187866666Y-105272438D01*
X187866666Y-105272438D02*
X187771428Y-105224819D01*
X187771428Y-105224819D02*
X187580952Y-105224819D01*
X187580952Y-105224819D02*
X187485714Y-105272438D01*
X187485714Y-105272438D02*
X187438095Y-105320057D01*
X187438095Y-105320057D02*
X187390476Y-105415295D01*
X187390476Y-105415295D02*
X187390476Y-105462914D01*
X187390476Y-105462914D02*
X187438095Y-105558152D01*
X187438095Y-105558152D02*
X187485714Y-105605771D01*
X187485714Y-105605771D02*
X187580952Y-105653390D01*
X187580952Y-105653390D02*
X187771428Y-105653390D01*
X187771428Y-105653390D02*
X187866666Y-105701009D01*
X187866666Y-105701009D02*
X187914285Y-105748628D01*
X187914285Y-105748628D02*
X187961904Y-105843866D01*
X187961904Y-105843866D02*
X187961904Y-106034342D01*
X187961904Y-106034342D02*
X187914285Y-106129580D01*
X187914285Y-106129580D02*
X187866666Y-106177200D01*
X187866666Y-106177200D02*
X187771428Y-106224819D01*
X187771428Y-106224819D02*
X187580952Y-106224819D01*
X187580952Y-106224819D02*
X187485714Y-106177200D01*
X187485714Y-106177200D02*
X187438095Y-106129580D01*
X187438095Y-106129580D02*
X187390476Y-106034342D01*
X187390476Y-106034342D02*
X187390476Y-105843866D01*
X187390476Y-105843866D02*
X187438095Y-105748628D01*
X187438095Y-105748628D02*
X187485714Y-105701009D01*
X187485714Y-105701009D02*
X187580952Y-105653390D01*
X186533333Y-105558152D02*
X186533333Y-106224819D01*
X186771428Y-105177200D02*
X187009523Y-105891485D01*
X187009523Y-105891485D02*
X186390476Y-105891485D01*
X147029580Y-102057142D02*
X147077200Y-102009523D01*
X147077200Y-102009523D02*
X147124819Y-101866666D01*
X147124819Y-101866666D02*
X147124819Y-101771428D01*
X147124819Y-101771428D02*
X147077200Y-101628571D01*
X147077200Y-101628571D02*
X146981961Y-101533333D01*
X146981961Y-101533333D02*
X146886723Y-101485714D01*
X146886723Y-101485714D02*
X146696247Y-101438095D01*
X146696247Y-101438095D02*
X146553390Y-101438095D01*
X146553390Y-101438095D02*
X146362914Y-101485714D01*
X146362914Y-101485714D02*
X146267676Y-101533333D01*
X146267676Y-101533333D02*
X146172438Y-101628571D01*
X146172438Y-101628571D02*
X146124819Y-101771428D01*
X146124819Y-101771428D02*
X146124819Y-101866666D01*
X146124819Y-101866666D02*
X146172438Y-102009523D01*
X146172438Y-102009523D02*
X146220057Y-102057142D01*
X146458152Y-102914285D02*
X147124819Y-102914285D01*
X146077200Y-102676190D02*
X146791485Y-102438095D01*
X146791485Y-102438095D02*
X146791485Y-103057142D01*
X146124819Y-103866666D02*
X146124819Y-103676190D01*
X146124819Y-103676190D02*
X146172438Y-103580952D01*
X146172438Y-103580952D02*
X146220057Y-103533333D01*
X146220057Y-103533333D02*
X146362914Y-103438095D01*
X146362914Y-103438095D02*
X146553390Y-103390476D01*
X146553390Y-103390476D02*
X146934342Y-103390476D01*
X146934342Y-103390476D02*
X147029580Y-103438095D01*
X147029580Y-103438095D02*
X147077200Y-103485714D01*
X147077200Y-103485714D02*
X147124819Y-103580952D01*
X147124819Y-103580952D02*
X147124819Y-103771428D01*
X147124819Y-103771428D02*
X147077200Y-103866666D01*
X147077200Y-103866666D02*
X147029580Y-103914285D01*
X147029580Y-103914285D02*
X146934342Y-103961904D01*
X146934342Y-103961904D02*
X146696247Y-103961904D01*
X146696247Y-103961904D02*
X146601009Y-103914285D01*
X146601009Y-103914285D02*
X146553390Y-103866666D01*
X146553390Y-103866666D02*
X146505771Y-103771428D01*
X146505771Y-103771428D02*
X146505771Y-103580952D01*
X146505771Y-103580952D02*
X146553390Y-103485714D01*
X146553390Y-103485714D02*
X146601009Y-103438095D01*
X146601009Y-103438095D02*
X146696247Y-103390476D01*
X161989580Y-93933333D02*
X162037200Y-93885714D01*
X162037200Y-93885714D02*
X162084819Y-93742857D01*
X162084819Y-93742857D02*
X162084819Y-93647619D01*
X162084819Y-93647619D02*
X162037200Y-93504762D01*
X162037200Y-93504762D02*
X161941961Y-93409524D01*
X161941961Y-93409524D02*
X161846723Y-93361905D01*
X161846723Y-93361905D02*
X161656247Y-93314286D01*
X161656247Y-93314286D02*
X161513390Y-93314286D01*
X161513390Y-93314286D02*
X161322914Y-93361905D01*
X161322914Y-93361905D02*
X161227676Y-93409524D01*
X161227676Y-93409524D02*
X161132438Y-93504762D01*
X161132438Y-93504762D02*
X161084819Y-93647619D01*
X161084819Y-93647619D02*
X161084819Y-93742857D01*
X161084819Y-93742857D02*
X161132438Y-93885714D01*
X161132438Y-93885714D02*
X161180057Y-93933333D01*
X161084819Y-94266667D02*
X161084819Y-94933333D01*
X161084819Y-94933333D02*
X162084819Y-94504762D01*
X194342857Y-106129580D02*
X194390476Y-106177200D01*
X194390476Y-106177200D02*
X194533333Y-106224819D01*
X194533333Y-106224819D02*
X194628571Y-106224819D01*
X194628571Y-106224819D02*
X194771428Y-106177200D01*
X194771428Y-106177200D02*
X194866666Y-106081961D01*
X194866666Y-106081961D02*
X194914285Y-105986723D01*
X194914285Y-105986723D02*
X194961904Y-105796247D01*
X194961904Y-105796247D02*
X194961904Y-105653390D01*
X194961904Y-105653390D02*
X194914285Y-105462914D01*
X194914285Y-105462914D02*
X194866666Y-105367676D01*
X194866666Y-105367676D02*
X194771428Y-105272438D01*
X194771428Y-105272438D02*
X194628571Y-105224819D01*
X194628571Y-105224819D02*
X194533333Y-105224819D01*
X194533333Y-105224819D02*
X194390476Y-105272438D01*
X194390476Y-105272438D02*
X194342857Y-105320057D01*
X193771428Y-105653390D02*
X193866666Y-105605771D01*
X193866666Y-105605771D02*
X193914285Y-105558152D01*
X193914285Y-105558152D02*
X193961904Y-105462914D01*
X193961904Y-105462914D02*
X193961904Y-105415295D01*
X193961904Y-105415295D02*
X193914285Y-105320057D01*
X193914285Y-105320057D02*
X193866666Y-105272438D01*
X193866666Y-105272438D02*
X193771428Y-105224819D01*
X193771428Y-105224819D02*
X193580952Y-105224819D01*
X193580952Y-105224819D02*
X193485714Y-105272438D01*
X193485714Y-105272438D02*
X193438095Y-105320057D01*
X193438095Y-105320057D02*
X193390476Y-105415295D01*
X193390476Y-105415295D02*
X193390476Y-105462914D01*
X193390476Y-105462914D02*
X193438095Y-105558152D01*
X193438095Y-105558152D02*
X193485714Y-105605771D01*
X193485714Y-105605771D02*
X193580952Y-105653390D01*
X193580952Y-105653390D02*
X193771428Y-105653390D01*
X193771428Y-105653390D02*
X193866666Y-105701009D01*
X193866666Y-105701009D02*
X193914285Y-105748628D01*
X193914285Y-105748628D02*
X193961904Y-105843866D01*
X193961904Y-105843866D02*
X193961904Y-106034342D01*
X193961904Y-106034342D02*
X193914285Y-106129580D01*
X193914285Y-106129580D02*
X193866666Y-106177200D01*
X193866666Y-106177200D02*
X193771428Y-106224819D01*
X193771428Y-106224819D02*
X193580952Y-106224819D01*
X193580952Y-106224819D02*
X193485714Y-106177200D01*
X193485714Y-106177200D02*
X193438095Y-106129580D01*
X193438095Y-106129580D02*
X193390476Y-106034342D01*
X193390476Y-106034342D02*
X193390476Y-105843866D01*
X193390476Y-105843866D02*
X193438095Y-105748628D01*
X193438095Y-105748628D02*
X193485714Y-105701009D01*
X193485714Y-105701009D02*
X193580952Y-105653390D01*
X193009523Y-105320057D02*
X192961904Y-105272438D01*
X192961904Y-105272438D02*
X192866666Y-105224819D01*
X192866666Y-105224819D02*
X192628571Y-105224819D01*
X192628571Y-105224819D02*
X192533333Y-105272438D01*
X192533333Y-105272438D02*
X192485714Y-105320057D01*
X192485714Y-105320057D02*
X192438095Y-105415295D01*
X192438095Y-105415295D02*
X192438095Y-105510533D01*
X192438095Y-105510533D02*
X192485714Y-105653390D01*
X192485714Y-105653390D02*
X193057142Y-106224819D01*
X193057142Y-106224819D02*
X192438095Y-106224819D01*
X132805357Y-96429580D02*
X132852976Y-96477200D01*
X132852976Y-96477200D02*
X132995833Y-96524819D01*
X132995833Y-96524819D02*
X133091071Y-96524819D01*
X133091071Y-96524819D02*
X133233928Y-96477200D01*
X133233928Y-96477200D02*
X133329166Y-96381961D01*
X133329166Y-96381961D02*
X133376785Y-96286723D01*
X133376785Y-96286723D02*
X133424404Y-96096247D01*
X133424404Y-96096247D02*
X133424404Y-95953390D01*
X133424404Y-95953390D02*
X133376785Y-95762914D01*
X133376785Y-95762914D02*
X133329166Y-95667676D01*
X133329166Y-95667676D02*
X133233928Y-95572438D01*
X133233928Y-95572438D02*
X133091071Y-95524819D01*
X133091071Y-95524819D02*
X132995833Y-95524819D01*
X132995833Y-95524819D02*
X132852976Y-95572438D01*
X132852976Y-95572438D02*
X132805357Y-95620057D01*
X131948214Y-95858152D02*
X131948214Y-96524819D01*
X132186309Y-95477200D02*
X132424404Y-96191485D01*
X132424404Y-96191485D02*
X131805357Y-96191485D01*
X131376785Y-96524819D02*
X131186309Y-96524819D01*
X131186309Y-96524819D02*
X131091071Y-96477200D01*
X131091071Y-96477200D02*
X131043452Y-96429580D01*
X131043452Y-96429580D02*
X130948214Y-96286723D01*
X130948214Y-96286723D02*
X130900595Y-96096247D01*
X130900595Y-96096247D02*
X130900595Y-95715295D01*
X130900595Y-95715295D02*
X130948214Y-95620057D01*
X130948214Y-95620057D02*
X130995833Y-95572438D01*
X130995833Y-95572438D02*
X131091071Y-95524819D01*
X131091071Y-95524819D02*
X131281547Y-95524819D01*
X131281547Y-95524819D02*
X131376785Y-95572438D01*
X131376785Y-95572438D02*
X131424404Y-95620057D01*
X131424404Y-95620057D02*
X131472023Y-95715295D01*
X131472023Y-95715295D02*
X131472023Y-95953390D01*
X131472023Y-95953390D02*
X131424404Y-96048628D01*
X131424404Y-96048628D02*
X131376785Y-96096247D01*
X131376785Y-96096247D02*
X131281547Y-96143866D01*
X131281547Y-96143866D02*
X131091071Y-96143866D01*
X131091071Y-96143866D02*
X130995833Y-96096247D01*
X130995833Y-96096247D02*
X130948214Y-96048628D01*
X130948214Y-96048628D02*
X130900595Y-95953390D01*
X95789580Y-101057142D02*
X95837200Y-101009523D01*
X95837200Y-101009523D02*
X95884819Y-100866666D01*
X95884819Y-100866666D02*
X95884819Y-100771428D01*
X95884819Y-100771428D02*
X95837200Y-100628571D01*
X95837200Y-100628571D02*
X95741961Y-100533333D01*
X95741961Y-100533333D02*
X95646723Y-100485714D01*
X95646723Y-100485714D02*
X95456247Y-100438095D01*
X95456247Y-100438095D02*
X95313390Y-100438095D01*
X95313390Y-100438095D02*
X95122914Y-100485714D01*
X95122914Y-100485714D02*
X95027676Y-100533333D01*
X95027676Y-100533333D02*
X94932438Y-100628571D01*
X94932438Y-100628571D02*
X94884819Y-100771428D01*
X94884819Y-100771428D02*
X94884819Y-100866666D01*
X94884819Y-100866666D02*
X94932438Y-101009523D01*
X94932438Y-101009523D02*
X94980057Y-101057142D01*
X94980057Y-101438095D02*
X94932438Y-101485714D01*
X94932438Y-101485714D02*
X94884819Y-101580952D01*
X94884819Y-101580952D02*
X94884819Y-101819047D01*
X94884819Y-101819047D02*
X94932438Y-101914285D01*
X94932438Y-101914285D02*
X94980057Y-101961904D01*
X94980057Y-101961904D02*
X95075295Y-102009523D01*
X95075295Y-102009523D02*
X95170533Y-102009523D01*
X95170533Y-102009523D02*
X95313390Y-101961904D01*
X95313390Y-101961904D02*
X95884819Y-101390476D01*
X95884819Y-101390476D02*
X95884819Y-102009523D01*
X95884819Y-102485714D02*
X95884819Y-102676190D01*
X95884819Y-102676190D02*
X95837200Y-102771428D01*
X95837200Y-102771428D02*
X95789580Y-102819047D01*
X95789580Y-102819047D02*
X95646723Y-102914285D01*
X95646723Y-102914285D02*
X95456247Y-102961904D01*
X95456247Y-102961904D02*
X95075295Y-102961904D01*
X95075295Y-102961904D02*
X94980057Y-102914285D01*
X94980057Y-102914285D02*
X94932438Y-102866666D01*
X94932438Y-102866666D02*
X94884819Y-102771428D01*
X94884819Y-102771428D02*
X94884819Y-102580952D01*
X94884819Y-102580952D02*
X94932438Y-102485714D01*
X94932438Y-102485714D02*
X94980057Y-102438095D01*
X94980057Y-102438095D02*
X95075295Y-102390476D01*
X95075295Y-102390476D02*
X95313390Y-102390476D01*
X95313390Y-102390476D02*
X95408628Y-102438095D01*
X95408628Y-102438095D02*
X95456247Y-102485714D01*
X95456247Y-102485714D02*
X95503866Y-102580952D01*
X95503866Y-102580952D02*
X95503866Y-102771428D01*
X95503866Y-102771428D02*
X95456247Y-102866666D01*
X95456247Y-102866666D02*
X95408628Y-102914285D01*
X95408628Y-102914285D02*
X95313390Y-102961904D01*
X148989580Y-88294642D02*
X149037200Y-88247023D01*
X149037200Y-88247023D02*
X149084819Y-88104166D01*
X149084819Y-88104166D02*
X149084819Y-88008928D01*
X149084819Y-88008928D02*
X149037200Y-87866071D01*
X149037200Y-87866071D02*
X148941961Y-87770833D01*
X148941961Y-87770833D02*
X148846723Y-87723214D01*
X148846723Y-87723214D02*
X148656247Y-87675595D01*
X148656247Y-87675595D02*
X148513390Y-87675595D01*
X148513390Y-87675595D02*
X148322914Y-87723214D01*
X148322914Y-87723214D02*
X148227676Y-87770833D01*
X148227676Y-87770833D02*
X148132438Y-87866071D01*
X148132438Y-87866071D02*
X148084819Y-88008928D01*
X148084819Y-88008928D02*
X148084819Y-88104166D01*
X148084819Y-88104166D02*
X148132438Y-88247023D01*
X148132438Y-88247023D02*
X148180057Y-88294642D01*
X148418152Y-89151785D02*
X149084819Y-89151785D01*
X148037200Y-88913690D02*
X148751485Y-88675595D01*
X148751485Y-88675595D02*
X148751485Y-89294642D01*
X149084819Y-90199404D02*
X149084819Y-89627976D01*
X149084819Y-89913690D02*
X148084819Y-89913690D01*
X148084819Y-89913690D02*
X148227676Y-89818452D01*
X148227676Y-89818452D02*
X148322914Y-89723214D01*
X148322914Y-89723214D02*
X148370533Y-89627976D01*
X162942857Y-80429580D02*
X162990476Y-80477200D01*
X162990476Y-80477200D02*
X163133333Y-80524819D01*
X163133333Y-80524819D02*
X163228571Y-80524819D01*
X163228571Y-80524819D02*
X163371428Y-80477200D01*
X163371428Y-80477200D02*
X163466666Y-80381961D01*
X163466666Y-80381961D02*
X163514285Y-80286723D01*
X163514285Y-80286723D02*
X163561904Y-80096247D01*
X163561904Y-80096247D02*
X163561904Y-79953390D01*
X163561904Y-79953390D02*
X163514285Y-79762914D01*
X163514285Y-79762914D02*
X163466666Y-79667676D01*
X163466666Y-79667676D02*
X163371428Y-79572438D01*
X163371428Y-79572438D02*
X163228571Y-79524819D01*
X163228571Y-79524819D02*
X163133333Y-79524819D01*
X163133333Y-79524819D02*
X162990476Y-79572438D01*
X162990476Y-79572438D02*
X162942857Y-79620057D01*
X162561904Y-79620057D02*
X162514285Y-79572438D01*
X162514285Y-79572438D02*
X162419047Y-79524819D01*
X162419047Y-79524819D02*
X162180952Y-79524819D01*
X162180952Y-79524819D02*
X162085714Y-79572438D01*
X162085714Y-79572438D02*
X162038095Y-79620057D01*
X162038095Y-79620057D02*
X161990476Y-79715295D01*
X161990476Y-79715295D02*
X161990476Y-79810533D01*
X161990476Y-79810533D02*
X162038095Y-79953390D01*
X162038095Y-79953390D02*
X162609523Y-80524819D01*
X162609523Y-80524819D02*
X161990476Y-80524819D01*
X161085714Y-79524819D02*
X161561904Y-79524819D01*
X161561904Y-79524819D02*
X161609523Y-80001009D01*
X161609523Y-80001009D02*
X161561904Y-79953390D01*
X161561904Y-79953390D02*
X161466666Y-79905771D01*
X161466666Y-79905771D02*
X161228571Y-79905771D01*
X161228571Y-79905771D02*
X161133333Y-79953390D01*
X161133333Y-79953390D02*
X161085714Y-80001009D01*
X161085714Y-80001009D02*
X161038095Y-80096247D01*
X161038095Y-80096247D02*
X161038095Y-80334342D01*
X161038095Y-80334342D02*
X161085714Y-80429580D01*
X161085714Y-80429580D02*
X161133333Y-80477200D01*
X161133333Y-80477200D02*
X161228571Y-80524819D01*
X161228571Y-80524819D02*
X161466666Y-80524819D01*
X161466666Y-80524819D02*
X161561904Y-80477200D01*
X161561904Y-80477200D02*
X161609523Y-80429580D01*
X151384819Y-55444642D02*
X150908628Y-55111309D01*
X151384819Y-54873214D02*
X150384819Y-54873214D01*
X150384819Y-54873214D02*
X150384819Y-55254166D01*
X150384819Y-55254166D02*
X150432438Y-55349404D01*
X150432438Y-55349404D02*
X150480057Y-55397023D01*
X150480057Y-55397023D02*
X150575295Y-55444642D01*
X150575295Y-55444642D02*
X150718152Y-55444642D01*
X150718152Y-55444642D02*
X150813390Y-55397023D01*
X150813390Y-55397023D02*
X150861009Y-55349404D01*
X150861009Y-55349404D02*
X150908628Y-55254166D01*
X150908628Y-55254166D02*
X150908628Y-54873214D01*
X150384819Y-55777976D02*
X150384819Y-56444642D01*
X150384819Y-56444642D02*
X151384819Y-56016071D01*
X150384819Y-56730357D02*
X150384819Y-57397023D01*
X150384819Y-57397023D02*
X151384819Y-56968452D01*
X201039580Y-113807141D02*
X201087200Y-113759522D01*
X201087200Y-113759522D02*
X201134819Y-113616665D01*
X201134819Y-113616665D02*
X201134819Y-113521427D01*
X201134819Y-113521427D02*
X201087200Y-113378570D01*
X201087200Y-113378570D02*
X200991961Y-113283332D01*
X200991961Y-113283332D02*
X200896723Y-113235713D01*
X200896723Y-113235713D02*
X200706247Y-113188094D01*
X200706247Y-113188094D02*
X200563390Y-113188094D01*
X200563390Y-113188094D02*
X200372914Y-113235713D01*
X200372914Y-113235713D02*
X200277676Y-113283332D01*
X200277676Y-113283332D02*
X200182438Y-113378570D01*
X200182438Y-113378570D02*
X200134819Y-113521427D01*
X200134819Y-113521427D02*
X200134819Y-113616665D01*
X200134819Y-113616665D02*
X200182438Y-113759522D01*
X200182438Y-113759522D02*
X200230057Y-113807141D01*
X200134819Y-114664284D02*
X200134819Y-114473808D01*
X200134819Y-114473808D02*
X200182438Y-114378570D01*
X200182438Y-114378570D02*
X200230057Y-114330951D01*
X200230057Y-114330951D02*
X200372914Y-114235713D01*
X200372914Y-114235713D02*
X200563390Y-114188094D01*
X200563390Y-114188094D02*
X200944342Y-114188094D01*
X200944342Y-114188094D02*
X201039580Y-114235713D01*
X201039580Y-114235713D02*
X201087200Y-114283332D01*
X201087200Y-114283332D02*
X201134819Y-114378570D01*
X201134819Y-114378570D02*
X201134819Y-114569046D01*
X201134819Y-114569046D02*
X201087200Y-114664284D01*
X201087200Y-114664284D02*
X201039580Y-114711903D01*
X201039580Y-114711903D02*
X200944342Y-114759522D01*
X200944342Y-114759522D02*
X200706247Y-114759522D01*
X200706247Y-114759522D02*
X200611009Y-114711903D01*
X200611009Y-114711903D02*
X200563390Y-114664284D01*
X200563390Y-114664284D02*
X200515771Y-114569046D01*
X200515771Y-114569046D02*
X200515771Y-114378570D01*
X200515771Y-114378570D02*
X200563390Y-114283332D01*
X200563390Y-114283332D02*
X200611009Y-114235713D01*
X200611009Y-114235713D02*
X200706247Y-114188094D01*
X201134819Y-115235713D02*
X201134819Y-115426189D01*
X201134819Y-115426189D02*
X201087200Y-115521427D01*
X201087200Y-115521427D02*
X201039580Y-115569046D01*
X201039580Y-115569046D02*
X200896723Y-115664284D01*
X200896723Y-115664284D02*
X200706247Y-115711903D01*
X200706247Y-115711903D02*
X200325295Y-115711903D01*
X200325295Y-115711903D02*
X200230057Y-115664284D01*
X200230057Y-115664284D02*
X200182438Y-115616665D01*
X200182438Y-115616665D02*
X200134819Y-115521427D01*
X200134819Y-115521427D02*
X200134819Y-115330951D01*
X200134819Y-115330951D02*
X200182438Y-115235713D01*
X200182438Y-115235713D02*
X200230057Y-115188094D01*
X200230057Y-115188094D02*
X200325295Y-115140475D01*
X200325295Y-115140475D02*
X200563390Y-115140475D01*
X200563390Y-115140475D02*
X200658628Y-115188094D01*
X200658628Y-115188094D02*
X200706247Y-115235713D01*
X200706247Y-115235713D02*
X200753866Y-115330951D01*
X200753866Y-115330951D02*
X200753866Y-115521427D01*
X200753866Y-115521427D02*
X200706247Y-115616665D01*
X200706247Y-115616665D02*
X200658628Y-115664284D01*
X200658628Y-115664284D02*
X200563390Y-115711903D01*
X126442857Y-106884819D02*
X126776190Y-106408628D01*
X127014285Y-106884819D02*
X127014285Y-105884819D01*
X127014285Y-105884819D02*
X126633333Y-105884819D01*
X126633333Y-105884819D02*
X126538095Y-105932438D01*
X126538095Y-105932438D02*
X126490476Y-105980057D01*
X126490476Y-105980057D02*
X126442857Y-106075295D01*
X126442857Y-106075295D02*
X126442857Y-106218152D01*
X126442857Y-106218152D02*
X126490476Y-106313390D01*
X126490476Y-106313390D02*
X126538095Y-106361009D01*
X126538095Y-106361009D02*
X126633333Y-106408628D01*
X126633333Y-106408628D02*
X127014285Y-106408628D01*
X125585714Y-105884819D02*
X125776190Y-105884819D01*
X125776190Y-105884819D02*
X125871428Y-105932438D01*
X125871428Y-105932438D02*
X125919047Y-105980057D01*
X125919047Y-105980057D02*
X126014285Y-106122914D01*
X126014285Y-106122914D02*
X126061904Y-106313390D01*
X126061904Y-106313390D02*
X126061904Y-106694342D01*
X126061904Y-106694342D02*
X126014285Y-106789580D01*
X126014285Y-106789580D02*
X125966666Y-106837200D01*
X125966666Y-106837200D02*
X125871428Y-106884819D01*
X125871428Y-106884819D02*
X125680952Y-106884819D01*
X125680952Y-106884819D02*
X125585714Y-106837200D01*
X125585714Y-106837200D02*
X125538095Y-106789580D01*
X125538095Y-106789580D02*
X125490476Y-106694342D01*
X125490476Y-106694342D02*
X125490476Y-106456247D01*
X125490476Y-106456247D02*
X125538095Y-106361009D01*
X125538095Y-106361009D02*
X125585714Y-106313390D01*
X125585714Y-106313390D02*
X125680952Y-106265771D01*
X125680952Y-106265771D02*
X125871428Y-106265771D01*
X125871428Y-106265771D02*
X125966666Y-106313390D01*
X125966666Y-106313390D02*
X126014285Y-106361009D01*
X126014285Y-106361009D02*
X126061904Y-106456247D01*
X124633333Y-105884819D02*
X124823809Y-105884819D01*
X124823809Y-105884819D02*
X124919047Y-105932438D01*
X124919047Y-105932438D02*
X124966666Y-105980057D01*
X124966666Y-105980057D02*
X125061904Y-106122914D01*
X125061904Y-106122914D02*
X125109523Y-106313390D01*
X125109523Y-106313390D02*
X125109523Y-106694342D01*
X125109523Y-106694342D02*
X125061904Y-106789580D01*
X125061904Y-106789580D02*
X125014285Y-106837200D01*
X125014285Y-106837200D02*
X124919047Y-106884819D01*
X124919047Y-106884819D02*
X124728571Y-106884819D01*
X124728571Y-106884819D02*
X124633333Y-106837200D01*
X124633333Y-106837200D02*
X124585714Y-106789580D01*
X124585714Y-106789580D02*
X124538095Y-106694342D01*
X124538095Y-106694342D02*
X124538095Y-106456247D01*
X124538095Y-106456247D02*
X124585714Y-106361009D01*
X124585714Y-106361009D02*
X124633333Y-106313390D01*
X124633333Y-106313390D02*
X124728571Y-106265771D01*
X124728571Y-106265771D02*
X124919047Y-106265771D01*
X124919047Y-106265771D02*
X125014285Y-106313390D01*
X125014285Y-106313390D02*
X125061904Y-106361009D01*
X125061904Y-106361009D02*
X125109523Y-106456247D01*
X125942857Y-84124819D02*
X126276190Y-83648628D01*
X126514285Y-84124819D02*
X126514285Y-83124819D01*
X126514285Y-83124819D02*
X126133333Y-83124819D01*
X126133333Y-83124819D02*
X126038095Y-83172438D01*
X126038095Y-83172438D02*
X125990476Y-83220057D01*
X125990476Y-83220057D02*
X125942857Y-83315295D01*
X125942857Y-83315295D02*
X125942857Y-83458152D01*
X125942857Y-83458152D02*
X125990476Y-83553390D01*
X125990476Y-83553390D02*
X126038095Y-83601009D01*
X126038095Y-83601009D02*
X126133333Y-83648628D01*
X126133333Y-83648628D02*
X126514285Y-83648628D01*
X125085714Y-83124819D02*
X125276190Y-83124819D01*
X125276190Y-83124819D02*
X125371428Y-83172438D01*
X125371428Y-83172438D02*
X125419047Y-83220057D01*
X125419047Y-83220057D02*
X125514285Y-83362914D01*
X125514285Y-83362914D02*
X125561904Y-83553390D01*
X125561904Y-83553390D02*
X125561904Y-83934342D01*
X125561904Y-83934342D02*
X125514285Y-84029580D01*
X125514285Y-84029580D02*
X125466666Y-84077200D01*
X125466666Y-84077200D02*
X125371428Y-84124819D01*
X125371428Y-84124819D02*
X125180952Y-84124819D01*
X125180952Y-84124819D02*
X125085714Y-84077200D01*
X125085714Y-84077200D02*
X125038095Y-84029580D01*
X125038095Y-84029580D02*
X124990476Y-83934342D01*
X124990476Y-83934342D02*
X124990476Y-83696247D01*
X124990476Y-83696247D02*
X125038095Y-83601009D01*
X125038095Y-83601009D02*
X125085714Y-83553390D01*
X125085714Y-83553390D02*
X125180952Y-83505771D01*
X125180952Y-83505771D02*
X125371428Y-83505771D01*
X125371428Y-83505771D02*
X125466666Y-83553390D01*
X125466666Y-83553390D02*
X125514285Y-83601009D01*
X125514285Y-83601009D02*
X125561904Y-83696247D01*
X124038095Y-84124819D02*
X124609523Y-84124819D01*
X124323809Y-84124819D02*
X124323809Y-83124819D01*
X124323809Y-83124819D02*
X124419047Y-83267676D01*
X124419047Y-83267676D02*
X124514285Y-83362914D01*
X124514285Y-83362914D02*
X124609523Y-83410533D01*
X166542857Y-87729580D02*
X166590476Y-87777200D01*
X166590476Y-87777200D02*
X166733333Y-87824819D01*
X166733333Y-87824819D02*
X166828571Y-87824819D01*
X166828571Y-87824819D02*
X166971428Y-87777200D01*
X166971428Y-87777200D02*
X167066666Y-87681961D01*
X167066666Y-87681961D02*
X167114285Y-87586723D01*
X167114285Y-87586723D02*
X167161904Y-87396247D01*
X167161904Y-87396247D02*
X167161904Y-87253390D01*
X167161904Y-87253390D02*
X167114285Y-87062914D01*
X167114285Y-87062914D02*
X167066666Y-86967676D01*
X167066666Y-86967676D02*
X166971428Y-86872438D01*
X166971428Y-86872438D02*
X166828571Y-86824819D01*
X166828571Y-86824819D02*
X166733333Y-86824819D01*
X166733333Y-86824819D02*
X166590476Y-86872438D01*
X166590476Y-86872438D02*
X166542857Y-86920057D01*
X165590476Y-87824819D02*
X166161904Y-87824819D01*
X165876190Y-87824819D02*
X165876190Y-86824819D01*
X165876190Y-86824819D02*
X165971428Y-86967676D01*
X165971428Y-86967676D02*
X166066666Y-87062914D01*
X166066666Y-87062914D02*
X166161904Y-87110533D01*
X165019047Y-87253390D02*
X165114285Y-87205771D01*
X165114285Y-87205771D02*
X165161904Y-87158152D01*
X165161904Y-87158152D02*
X165209523Y-87062914D01*
X165209523Y-87062914D02*
X165209523Y-87015295D01*
X165209523Y-87015295D02*
X165161904Y-86920057D01*
X165161904Y-86920057D02*
X165114285Y-86872438D01*
X165114285Y-86872438D02*
X165019047Y-86824819D01*
X165019047Y-86824819D02*
X164828571Y-86824819D01*
X164828571Y-86824819D02*
X164733333Y-86872438D01*
X164733333Y-86872438D02*
X164685714Y-86920057D01*
X164685714Y-86920057D02*
X164638095Y-87015295D01*
X164638095Y-87015295D02*
X164638095Y-87062914D01*
X164638095Y-87062914D02*
X164685714Y-87158152D01*
X164685714Y-87158152D02*
X164733333Y-87205771D01*
X164733333Y-87205771D02*
X164828571Y-87253390D01*
X164828571Y-87253390D02*
X165019047Y-87253390D01*
X165019047Y-87253390D02*
X165114285Y-87301009D01*
X165114285Y-87301009D02*
X165161904Y-87348628D01*
X165161904Y-87348628D02*
X165209523Y-87443866D01*
X165209523Y-87443866D02*
X165209523Y-87634342D01*
X165209523Y-87634342D02*
X165161904Y-87729580D01*
X165161904Y-87729580D02*
X165114285Y-87777200D01*
X165114285Y-87777200D02*
X165019047Y-87824819D01*
X165019047Y-87824819D02*
X164828571Y-87824819D01*
X164828571Y-87824819D02*
X164733333Y-87777200D01*
X164733333Y-87777200D02*
X164685714Y-87729580D01*
X164685714Y-87729580D02*
X164638095Y-87634342D01*
X164638095Y-87634342D02*
X164638095Y-87443866D01*
X164638095Y-87443866D02*
X164685714Y-87348628D01*
X164685714Y-87348628D02*
X164733333Y-87301009D01*
X164733333Y-87301009D02*
X164828571Y-87253390D01*
X163884819Y-93457142D02*
X163408628Y-93123809D01*
X163884819Y-92885714D02*
X162884819Y-92885714D01*
X162884819Y-92885714D02*
X162884819Y-93266666D01*
X162884819Y-93266666D02*
X162932438Y-93361904D01*
X162932438Y-93361904D02*
X162980057Y-93409523D01*
X162980057Y-93409523D02*
X163075295Y-93457142D01*
X163075295Y-93457142D02*
X163218152Y-93457142D01*
X163218152Y-93457142D02*
X163313390Y-93409523D01*
X163313390Y-93409523D02*
X163361009Y-93361904D01*
X163361009Y-93361904D02*
X163408628Y-93266666D01*
X163408628Y-93266666D02*
X163408628Y-92885714D01*
X162980057Y-93838095D02*
X162932438Y-93885714D01*
X162932438Y-93885714D02*
X162884819Y-93980952D01*
X162884819Y-93980952D02*
X162884819Y-94219047D01*
X162884819Y-94219047D02*
X162932438Y-94314285D01*
X162932438Y-94314285D02*
X162980057Y-94361904D01*
X162980057Y-94361904D02*
X163075295Y-94409523D01*
X163075295Y-94409523D02*
X163170533Y-94409523D01*
X163170533Y-94409523D02*
X163313390Y-94361904D01*
X163313390Y-94361904D02*
X163884819Y-93790476D01*
X163884819Y-93790476D02*
X163884819Y-94409523D01*
X162980057Y-94790476D02*
X162932438Y-94838095D01*
X162932438Y-94838095D02*
X162884819Y-94933333D01*
X162884819Y-94933333D02*
X162884819Y-95171428D01*
X162884819Y-95171428D02*
X162932438Y-95266666D01*
X162932438Y-95266666D02*
X162980057Y-95314285D01*
X162980057Y-95314285D02*
X163075295Y-95361904D01*
X163075295Y-95361904D02*
X163170533Y-95361904D01*
X163170533Y-95361904D02*
X163313390Y-95314285D01*
X163313390Y-95314285D02*
X163884819Y-94742857D01*
X163884819Y-94742857D02*
X163884819Y-95361904D01*
X198959580Y-113657142D02*
X199007200Y-113609523D01*
X199007200Y-113609523D02*
X199054819Y-113466666D01*
X199054819Y-113466666D02*
X199054819Y-113371428D01*
X199054819Y-113371428D02*
X199007200Y-113228571D01*
X199007200Y-113228571D02*
X198911961Y-113133333D01*
X198911961Y-113133333D02*
X198816723Y-113085714D01*
X198816723Y-113085714D02*
X198626247Y-113038095D01*
X198626247Y-113038095D02*
X198483390Y-113038095D01*
X198483390Y-113038095D02*
X198292914Y-113085714D01*
X198292914Y-113085714D02*
X198197676Y-113133333D01*
X198197676Y-113133333D02*
X198102438Y-113228571D01*
X198102438Y-113228571D02*
X198054819Y-113371428D01*
X198054819Y-113371428D02*
X198054819Y-113466666D01*
X198054819Y-113466666D02*
X198102438Y-113609523D01*
X198102438Y-113609523D02*
X198150057Y-113657142D01*
X198054819Y-114514285D02*
X198054819Y-114323809D01*
X198054819Y-114323809D02*
X198102438Y-114228571D01*
X198102438Y-114228571D02*
X198150057Y-114180952D01*
X198150057Y-114180952D02*
X198292914Y-114085714D01*
X198292914Y-114085714D02*
X198483390Y-114038095D01*
X198483390Y-114038095D02*
X198864342Y-114038095D01*
X198864342Y-114038095D02*
X198959580Y-114085714D01*
X198959580Y-114085714D02*
X199007200Y-114133333D01*
X199007200Y-114133333D02*
X199054819Y-114228571D01*
X199054819Y-114228571D02*
X199054819Y-114419047D01*
X199054819Y-114419047D02*
X199007200Y-114514285D01*
X199007200Y-114514285D02*
X198959580Y-114561904D01*
X198959580Y-114561904D02*
X198864342Y-114609523D01*
X198864342Y-114609523D02*
X198626247Y-114609523D01*
X198626247Y-114609523D02*
X198531009Y-114561904D01*
X198531009Y-114561904D02*
X198483390Y-114514285D01*
X198483390Y-114514285D02*
X198435771Y-114419047D01*
X198435771Y-114419047D02*
X198435771Y-114228571D01*
X198435771Y-114228571D02*
X198483390Y-114133333D01*
X198483390Y-114133333D02*
X198531009Y-114085714D01*
X198531009Y-114085714D02*
X198626247Y-114038095D01*
X198054819Y-114942857D02*
X198054819Y-115609523D01*
X198054819Y-115609523D02*
X199054819Y-115180952D01*
X92929580Y-97682142D02*
X92977200Y-97634523D01*
X92977200Y-97634523D02*
X93024819Y-97491666D01*
X93024819Y-97491666D02*
X93024819Y-97396428D01*
X93024819Y-97396428D02*
X92977200Y-97253571D01*
X92977200Y-97253571D02*
X92881961Y-97158333D01*
X92881961Y-97158333D02*
X92786723Y-97110714D01*
X92786723Y-97110714D02*
X92596247Y-97063095D01*
X92596247Y-97063095D02*
X92453390Y-97063095D01*
X92453390Y-97063095D02*
X92262914Y-97110714D01*
X92262914Y-97110714D02*
X92167676Y-97158333D01*
X92167676Y-97158333D02*
X92072438Y-97253571D01*
X92072438Y-97253571D02*
X92024819Y-97396428D01*
X92024819Y-97396428D02*
X92024819Y-97491666D01*
X92024819Y-97491666D02*
X92072438Y-97634523D01*
X92072438Y-97634523D02*
X92120057Y-97682142D01*
X92120057Y-98063095D02*
X92072438Y-98110714D01*
X92072438Y-98110714D02*
X92024819Y-98205952D01*
X92024819Y-98205952D02*
X92024819Y-98444047D01*
X92024819Y-98444047D02*
X92072438Y-98539285D01*
X92072438Y-98539285D02*
X92120057Y-98586904D01*
X92120057Y-98586904D02*
X92215295Y-98634523D01*
X92215295Y-98634523D02*
X92310533Y-98634523D01*
X92310533Y-98634523D02*
X92453390Y-98586904D01*
X92453390Y-98586904D02*
X93024819Y-98015476D01*
X93024819Y-98015476D02*
X93024819Y-98634523D01*
X92024819Y-98967857D02*
X92024819Y-99634523D01*
X92024819Y-99634523D02*
X93024819Y-99205952D01*
X145184819Y-55069642D02*
X144708628Y-54736309D01*
X145184819Y-54498214D02*
X144184819Y-54498214D01*
X144184819Y-54498214D02*
X144184819Y-54879166D01*
X144184819Y-54879166D02*
X144232438Y-54974404D01*
X144232438Y-54974404D02*
X144280057Y-55022023D01*
X144280057Y-55022023D02*
X144375295Y-55069642D01*
X144375295Y-55069642D02*
X144518152Y-55069642D01*
X144518152Y-55069642D02*
X144613390Y-55022023D01*
X144613390Y-55022023D02*
X144661009Y-54974404D01*
X144661009Y-54974404D02*
X144708628Y-54879166D01*
X144708628Y-54879166D02*
X144708628Y-54498214D01*
X144613390Y-55641071D02*
X144565771Y-55545833D01*
X144565771Y-55545833D02*
X144518152Y-55498214D01*
X144518152Y-55498214D02*
X144422914Y-55450595D01*
X144422914Y-55450595D02*
X144375295Y-55450595D01*
X144375295Y-55450595D02*
X144280057Y-55498214D01*
X144280057Y-55498214D02*
X144232438Y-55545833D01*
X144232438Y-55545833D02*
X144184819Y-55641071D01*
X144184819Y-55641071D02*
X144184819Y-55831547D01*
X144184819Y-55831547D02*
X144232438Y-55926785D01*
X144232438Y-55926785D02*
X144280057Y-55974404D01*
X144280057Y-55974404D02*
X144375295Y-56022023D01*
X144375295Y-56022023D02*
X144422914Y-56022023D01*
X144422914Y-56022023D02*
X144518152Y-55974404D01*
X144518152Y-55974404D02*
X144565771Y-55926785D01*
X144565771Y-55926785D02*
X144613390Y-55831547D01*
X144613390Y-55831547D02*
X144613390Y-55641071D01*
X144613390Y-55641071D02*
X144661009Y-55545833D01*
X144661009Y-55545833D02*
X144708628Y-55498214D01*
X144708628Y-55498214D02*
X144803866Y-55450595D01*
X144803866Y-55450595D02*
X144994342Y-55450595D01*
X144994342Y-55450595D02*
X145089580Y-55498214D01*
X145089580Y-55498214D02*
X145137200Y-55545833D01*
X145137200Y-55545833D02*
X145184819Y-55641071D01*
X145184819Y-55641071D02*
X145184819Y-55831547D01*
X145184819Y-55831547D02*
X145137200Y-55926785D01*
X145137200Y-55926785D02*
X145089580Y-55974404D01*
X145089580Y-55974404D02*
X144994342Y-56022023D01*
X144994342Y-56022023D02*
X144803866Y-56022023D01*
X144803866Y-56022023D02*
X144708628Y-55974404D01*
X144708628Y-55974404D02*
X144661009Y-55926785D01*
X144661009Y-55926785D02*
X144613390Y-55831547D01*
X145184819Y-56974404D02*
X145184819Y-56402976D01*
X145184819Y-56688690D02*
X144184819Y-56688690D01*
X144184819Y-56688690D02*
X144327676Y-56593452D01*
X144327676Y-56593452D02*
X144422914Y-56498214D01*
X144422914Y-56498214D02*
X144470533Y-56402976D01*
X176229580Y-113657142D02*
X176277200Y-113609523D01*
X176277200Y-113609523D02*
X176324819Y-113466666D01*
X176324819Y-113466666D02*
X176324819Y-113371428D01*
X176324819Y-113371428D02*
X176277200Y-113228571D01*
X176277200Y-113228571D02*
X176181961Y-113133333D01*
X176181961Y-113133333D02*
X176086723Y-113085714D01*
X176086723Y-113085714D02*
X175896247Y-113038095D01*
X175896247Y-113038095D02*
X175753390Y-113038095D01*
X175753390Y-113038095D02*
X175562914Y-113085714D01*
X175562914Y-113085714D02*
X175467676Y-113133333D01*
X175467676Y-113133333D02*
X175372438Y-113228571D01*
X175372438Y-113228571D02*
X175324819Y-113371428D01*
X175324819Y-113371428D02*
X175324819Y-113466666D01*
X175324819Y-113466666D02*
X175372438Y-113609523D01*
X175372438Y-113609523D02*
X175420057Y-113657142D01*
X175753390Y-114228571D02*
X175705771Y-114133333D01*
X175705771Y-114133333D02*
X175658152Y-114085714D01*
X175658152Y-114085714D02*
X175562914Y-114038095D01*
X175562914Y-114038095D02*
X175515295Y-114038095D01*
X175515295Y-114038095D02*
X175420057Y-114085714D01*
X175420057Y-114085714D02*
X175372438Y-114133333D01*
X175372438Y-114133333D02*
X175324819Y-114228571D01*
X175324819Y-114228571D02*
X175324819Y-114419047D01*
X175324819Y-114419047D02*
X175372438Y-114514285D01*
X175372438Y-114514285D02*
X175420057Y-114561904D01*
X175420057Y-114561904D02*
X175515295Y-114609523D01*
X175515295Y-114609523D02*
X175562914Y-114609523D01*
X175562914Y-114609523D02*
X175658152Y-114561904D01*
X175658152Y-114561904D02*
X175705771Y-114514285D01*
X175705771Y-114514285D02*
X175753390Y-114419047D01*
X175753390Y-114419047D02*
X175753390Y-114228571D01*
X175753390Y-114228571D02*
X175801009Y-114133333D01*
X175801009Y-114133333D02*
X175848628Y-114085714D01*
X175848628Y-114085714D02*
X175943866Y-114038095D01*
X175943866Y-114038095D02*
X176134342Y-114038095D01*
X176134342Y-114038095D02*
X176229580Y-114085714D01*
X176229580Y-114085714D02*
X176277200Y-114133333D01*
X176277200Y-114133333D02*
X176324819Y-114228571D01*
X176324819Y-114228571D02*
X176324819Y-114419047D01*
X176324819Y-114419047D02*
X176277200Y-114514285D01*
X176277200Y-114514285D02*
X176229580Y-114561904D01*
X176229580Y-114561904D02*
X176134342Y-114609523D01*
X176134342Y-114609523D02*
X175943866Y-114609523D01*
X175943866Y-114609523D02*
X175848628Y-114561904D01*
X175848628Y-114561904D02*
X175801009Y-114514285D01*
X175801009Y-114514285D02*
X175753390Y-114419047D01*
X175324819Y-114942857D02*
X175324819Y-115609523D01*
X175324819Y-115609523D02*
X176324819Y-115180952D01*
X102742857Y-81629580D02*
X102790476Y-81677200D01*
X102790476Y-81677200D02*
X102933333Y-81724819D01*
X102933333Y-81724819D02*
X103028571Y-81724819D01*
X103028571Y-81724819D02*
X103171428Y-81677200D01*
X103171428Y-81677200D02*
X103266666Y-81581961D01*
X103266666Y-81581961D02*
X103314285Y-81486723D01*
X103314285Y-81486723D02*
X103361904Y-81296247D01*
X103361904Y-81296247D02*
X103361904Y-81153390D01*
X103361904Y-81153390D02*
X103314285Y-80962914D01*
X103314285Y-80962914D02*
X103266666Y-80867676D01*
X103266666Y-80867676D02*
X103171428Y-80772438D01*
X103171428Y-80772438D02*
X103028571Y-80724819D01*
X103028571Y-80724819D02*
X102933333Y-80724819D01*
X102933333Y-80724819D02*
X102790476Y-80772438D01*
X102790476Y-80772438D02*
X102742857Y-80820057D01*
X102171428Y-81153390D02*
X102266666Y-81105771D01*
X102266666Y-81105771D02*
X102314285Y-81058152D01*
X102314285Y-81058152D02*
X102361904Y-80962914D01*
X102361904Y-80962914D02*
X102361904Y-80915295D01*
X102361904Y-80915295D02*
X102314285Y-80820057D01*
X102314285Y-80820057D02*
X102266666Y-80772438D01*
X102266666Y-80772438D02*
X102171428Y-80724819D01*
X102171428Y-80724819D02*
X101980952Y-80724819D01*
X101980952Y-80724819D02*
X101885714Y-80772438D01*
X101885714Y-80772438D02*
X101838095Y-80820057D01*
X101838095Y-80820057D02*
X101790476Y-80915295D01*
X101790476Y-80915295D02*
X101790476Y-80962914D01*
X101790476Y-80962914D02*
X101838095Y-81058152D01*
X101838095Y-81058152D02*
X101885714Y-81105771D01*
X101885714Y-81105771D02*
X101980952Y-81153390D01*
X101980952Y-81153390D02*
X102171428Y-81153390D01*
X102171428Y-81153390D02*
X102266666Y-81201009D01*
X102266666Y-81201009D02*
X102314285Y-81248628D01*
X102314285Y-81248628D02*
X102361904Y-81343866D01*
X102361904Y-81343866D02*
X102361904Y-81534342D01*
X102361904Y-81534342D02*
X102314285Y-81629580D01*
X102314285Y-81629580D02*
X102266666Y-81677200D01*
X102266666Y-81677200D02*
X102171428Y-81724819D01*
X102171428Y-81724819D02*
X101980952Y-81724819D01*
X101980952Y-81724819D02*
X101885714Y-81677200D01*
X101885714Y-81677200D02*
X101838095Y-81629580D01*
X101838095Y-81629580D02*
X101790476Y-81534342D01*
X101790476Y-81534342D02*
X101790476Y-81343866D01*
X101790476Y-81343866D02*
X101838095Y-81248628D01*
X101838095Y-81248628D02*
X101885714Y-81201009D01*
X101885714Y-81201009D02*
X101980952Y-81153390D01*
X101171428Y-80724819D02*
X101076190Y-80724819D01*
X101076190Y-80724819D02*
X100980952Y-80772438D01*
X100980952Y-80772438D02*
X100933333Y-80820057D01*
X100933333Y-80820057D02*
X100885714Y-80915295D01*
X100885714Y-80915295D02*
X100838095Y-81105771D01*
X100838095Y-81105771D02*
X100838095Y-81343866D01*
X100838095Y-81343866D02*
X100885714Y-81534342D01*
X100885714Y-81534342D02*
X100933333Y-81629580D01*
X100933333Y-81629580D02*
X100980952Y-81677200D01*
X100980952Y-81677200D02*
X101076190Y-81724819D01*
X101076190Y-81724819D02*
X101171428Y-81724819D01*
X101171428Y-81724819D02*
X101266666Y-81677200D01*
X101266666Y-81677200D02*
X101314285Y-81629580D01*
X101314285Y-81629580D02*
X101361904Y-81534342D01*
X101361904Y-81534342D02*
X101409523Y-81343866D01*
X101409523Y-81343866D02*
X101409523Y-81105771D01*
X101409523Y-81105771D02*
X101361904Y-80915295D01*
X101361904Y-80915295D02*
X101314285Y-80820057D01*
X101314285Y-80820057D02*
X101266666Y-80772438D01*
X101266666Y-80772438D02*
X101171428Y-80724819D01*
X145059580Y-86757142D02*
X145107200Y-86709523D01*
X145107200Y-86709523D02*
X145154819Y-86566666D01*
X145154819Y-86566666D02*
X145154819Y-86471428D01*
X145154819Y-86471428D02*
X145107200Y-86328571D01*
X145107200Y-86328571D02*
X145011961Y-86233333D01*
X145011961Y-86233333D02*
X144916723Y-86185714D01*
X144916723Y-86185714D02*
X144726247Y-86138095D01*
X144726247Y-86138095D02*
X144583390Y-86138095D01*
X144583390Y-86138095D02*
X144392914Y-86185714D01*
X144392914Y-86185714D02*
X144297676Y-86233333D01*
X144297676Y-86233333D02*
X144202438Y-86328571D01*
X144202438Y-86328571D02*
X144154819Y-86471428D01*
X144154819Y-86471428D02*
X144154819Y-86566666D01*
X144154819Y-86566666D02*
X144202438Y-86709523D01*
X144202438Y-86709523D02*
X144250057Y-86757142D01*
X144488152Y-87614285D02*
X145154819Y-87614285D01*
X144107200Y-87376190D02*
X144821485Y-87138095D01*
X144821485Y-87138095D02*
X144821485Y-87757142D01*
X144488152Y-88566666D02*
X145154819Y-88566666D01*
X144107200Y-88328571D02*
X144821485Y-88090476D01*
X144821485Y-88090476D02*
X144821485Y-88709523D01*
X158184819Y-55257142D02*
X157708628Y-54923809D01*
X158184819Y-54685714D02*
X157184819Y-54685714D01*
X157184819Y-54685714D02*
X157184819Y-55066666D01*
X157184819Y-55066666D02*
X157232438Y-55161904D01*
X157232438Y-55161904D02*
X157280057Y-55209523D01*
X157280057Y-55209523D02*
X157375295Y-55257142D01*
X157375295Y-55257142D02*
X157518152Y-55257142D01*
X157518152Y-55257142D02*
X157613390Y-55209523D01*
X157613390Y-55209523D02*
X157661009Y-55161904D01*
X157661009Y-55161904D02*
X157708628Y-55066666D01*
X157708628Y-55066666D02*
X157708628Y-54685714D01*
X157184819Y-55590476D02*
X157184819Y-56257142D01*
X157184819Y-56257142D02*
X158184819Y-55828571D01*
X158184819Y-56685714D02*
X158184819Y-56876190D01*
X158184819Y-56876190D02*
X158137200Y-56971428D01*
X158137200Y-56971428D02*
X158089580Y-57019047D01*
X158089580Y-57019047D02*
X157946723Y-57114285D01*
X157946723Y-57114285D02*
X157756247Y-57161904D01*
X157756247Y-57161904D02*
X157375295Y-57161904D01*
X157375295Y-57161904D02*
X157280057Y-57114285D01*
X157280057Y-57114285D02*
X157232438Y-57066666D01*
X157232438Y-57066666D02*
X157184819Y-56971428D01*
X157184819Y-56971428D02*
X157184819Y-56780952D01*
X157184819Y-56780952D02*
X157232438Y-56685714D01*
X157232438Y-56685714D02*
X157280057Y-56638095D01*
X157280057Y-56638095D02*
X157375295Y-56590476D01*
X157375295Y-56590476D02*
X157613390Y-56590476D01*
X157613390Y-56590476D02*
X157708628Y-56638095D01*
X157708628Y-56638095D02*
X157756247Y-56685714D01*
X157756247Y-56685714D02*
X157803866Y-56780952D01*
X157803866Y-56780952D02*
X157803866Y-56971428D01*
X157803866Y-56971428D02*
X157756247Y-57066666D01*
X157756247Y-57066666D02*
X157708628Y-57114285D01*
X157708628Y-57114285D02*
X157613390Y-57161904D01*
X180329580Y-70557142D02*
X180377200Y-70509523D01*
X180377200Y-70509523D02*
X180424819Y-70366666D01*
X180424819Y-70366666D02*
X180424819Y-70271428D01*
X180424819Y-70271428D02*
X180377200Y-70128571D01*
X180377200Y-70128571D02*
X180281961Y-70033333D01*
X180281961Y-70033333D02*
X180186723Y-69985714D01*
X180186723Y-69985714D02*
X179996247Y-69938095D01*
X179996247Y-69938095D02*
X179853390Y-69938095D01*
X179853390Y-69938095D02*
X179662914Y-69985714D01*
X179662914Y-69985714D02*
X179567676Y-70033333D01*
X179567676Y-70033333D02*
X179472438Y-70128571D01*
X179472438Y-70128571D02*
X179424819Y-70271428D01*
X179424819Y-70271428D02*
X179424819Y-70366666D01*
X179424819Y-70366666D02*
X179472438Y-70509523D01*
X179472438Y-70509523D02*
X179520057Y-70557142D01*
X179424819Y-70890476D02*
X179424819Y-71557142D01*
X179424819Y-71557142D02*
X180424819Y-71128571D01*
X179758152Y-72366666D02*
X180424819Y-72366666D01*
X179377200Y-72128571D02*
X180091485Y-71890476D01*
X180091485Y-71890476D02*
X180091485Y-72509523D01*
X135989580Y-90257142D02*
X136037200Y-90209523D01*
X136037200Y-90209523D02*
X136084819Y-90066666D01*
X136084819Y-90066666D02*
X136084819Y-89971428D01*
X136084819Y-89971428D02*
X136037200Y-89828571D01*
X136037200Y-89828571D02*
X135941961Y-89733333D01*
X135941961Y-89733333D02*
X135846723Y-89685714D01*
X135846723Y-89685714D02*
X135656247Y-89638095D01*
X135656247Y-89638095D02*
X135513390Y-89638095D01*
X135513390Y-89638095D02*
X135322914Y-89685714D01*
X135322914Y-89685714D02*
X135227676Y-89733333D01*
X135227676Y-89733333D02*
X135132438Y-89828571D01*
X135132438Y-89828571D02*
X135084819Y-89971428D01*
X135084819Y-89971428D02*
X135084819Y-90066666D01*
X135084819Y-90066666D02*
X135132438Y-90209523D01*
X135132438Y-90209523D02*
X135180057Y-90257142D01*
X135084819Y-91161904D02*
X135084819Y-90685714D01*
X135084819Y-90685714D02*
X135561009Y-90638095D01*
X135561009Y-90638095D02*
X135513390Y-90685714D01*
X135513390Y-90685714D02*
X135465771Y-90780952D01*
X135465771Y-90780952D02*
X135465771Y-91019047D01*
X135465771Y-91019047D02*
X135513390Y-91114285D01*
X135513390Y-91114285D02*
X135561009Y-91161904D01*
X135561009Y-91161904D02*
X135656247Y-91209523D01*
X135656247Y-91209523D02*
X135894342Y-91209523D01*
X135894342Y-91209523D02*
X135989580Y-91161904D01*
X135989580Y-91161904D02*
X136037200Y-91114285D01*
X136037200Y-91114285D02*
X136084819Y-91019047D01*
X136084819Y-91019047D02*
X136084819Y-90780952D01*
X136084819Y-90780952D02*
X136037200Y-90685714D01*
X136037200Y-90685714D02*
X135989580Y-90638095D01*
X135084819Y-91828571D02*
X135084819Y-91923809D01*
X135084819Y-91923809D02*
X135132438Y-92019047D01*
X135132438Y-92019047D02*
X135180057Y-92066666D01*
X135180057Y-92066666D02*
X135275295Y-92114285D01*
X135275295Y-92114285D02*
X135465771Y-92161904D01*
X135465771Y-92161904D02*
X135703866Y-92161904D01*
X135703866Y-92161904D02*
X135894342Y-92114285D01*
X135894342Y-92114285D02*
X135989580Y-92066666D01*
X135989580Y-92066666D02*
X136037200Y-92019047D01*
X136037200Y-92019047D02*
X136084819Y-91923809D01*
X136084819Y-91923809D02*
X136084819Y-91828571D01*
X136084819Y-91828571D02*
X136037200Y-91733333D01*
X136037200Y-91733333D02*
X135989580Y-91685714D01*
X135989580Y-91685714D02*
X135894342Y-91638095D01*
X135894342Y-91638095D02*
X135703866Y-91590476D01*
X135703866Y-91590476D02*
X135465771Y-91590476D01*
X135465771Y-91590476D02*
X135275295Y-91638095D01*
X135275295Y-91638095D02*
X135180057Y-91685714D01*
X135180057Y-91685714D02*
X135132438Y-91733333D01*
X135132438Y-91733333D02*
X135084819Y-91828571D01*
X180629580Y-118957142D02*
X180677200Y-118909523D01*
X180677200Y-118909523D02*
X180724819Y-118766666D01*
X180724819Y-118766666D02*
X180724819Y-118671428D01*
X180724819Y-118671428D02*
X180677200Y-118528571D01*
X180677200Y-118528571D02*
X180581961Y-118433333D01*
X180581961Y-118433333D02*
X180486723Y-118385714D01*
X180486723Y-118385714D02*
X180296247Y-118338095D01*
X180296247Y-118338095D02*
X180153390Y-118338095D01*
X180153390Y-118338095D02*
X179962914Y-118385714D01*
X179962914Y-118385714D02*
X179867676Y-118433333D01*
X179867676Y-118433333D02*
X179772438Y-118528571D01*
X179772438Y-118528571D02*
X179724819Y-118671428D01*
X179724819Y-118671428D02*
X179724819Y-118766666D01*
X179724819Y-118766666D02*
X179772438Y-118909523D01*
X179772438Y-118909523D02*
X179820057Y-118957142D01*
X179724819Y-119290476D02*
X179724819Y-119957142D01*
X179724819Y-119957142D02*
X180724819Y-119528571D01*
X179724819Y-120528571D02*
X179724819Y-120623809D01*
X179724819Y-120623809D02*
X179772438Y-120719047D01*
X179772438Y-120719047D02*
X179820057Y-120766666D01*
X179820057Y-120766666D02*
X179915295Y-120814285D01*
X179915295Y-120814285D02*
X180105771Y-120861904D01*
X180105771Y-120861904D02*
X180343866Y-120861904D01*
X180343866Y-120861904D02*
X180534342Y-120814285D01*
X180534342Y-120814285D02*
X180629580Y-120766666D01*
X180629580Y-120766666D02*
X180677200Y-120719047D01*
X180677200Y-120719047D02*
X180724819Y-120623809D01*
X180724819Y-120623809D02*
X180724819Y-120528571D01*
X180724819Y-120528571D02*
X180677200Y-120433333D01*
X180677200Y-120433333D02*
X180629580Y-120385714D01*
X180629580Y-120385714D02*
X180534342Y-120338095D01*
X180534342Y-120338095D02*
X180343866Y-120290476D01*
X180343866Y-120290476D02*
X180105771Y-120290476D01*
X180105771Y-120290476D02*
X179915295Y-120338095D01*
X179915295Y-120338095D02*
X179820057Y-120385714D01*
X179820057Y-120385714D02*
X179772438Y-120433333D01*
X179772438Y-120433333D02*
X179724819Y-120528571D01*
X138242857Y-85829580D02*
X138290476Y-85877200D01*
X138290476Y-85877200D02*
X138433333Y-85924819D01*
X138433333Y-85924819D02*
X138528571Y-85924819D01*
X138528571Y-85924819D02*
X138671428Y-85877200D01*
X138671428Y-85877200D02*
X138766666Y-85781961D01*
X138766666Y-85781961D02*
X138814285Y-85686723D01*
X138814285Y-85686723D02*
X138861904Y-85496247D01*
X138861904Y-85496247D02*
X138861904Y-85353390D01*
X138861904Y-85353390D02*
X138814285Y-85162914D01*
X138814285Y-85162914D02*
X138766666Y-85067676D01*
X138766666Y-85067676D02*
X138671428Y-84972438D01*
X138671428Y-84972438D02*
X138528571Y-84924819D01*
X138528571Y-84924819D02*
X138433333Y-84924819D01*
X138433333Y-84924819D02*
X138290476Y-84972438D01*
X138290476Y-84972438D02*
X138242857Y-85020057D01*
X137385714Y-85258152D02*
X137385714Y-85924819D01*
X137623809Y-84877200D02*
X137861904Y-85591485D01*
X137861904Y-85591485D02*
X137242857Y-85591485D01*
X136957142Y-84924819D02*
X136290476Y-84924819D01*
X136290476Y-84924819D02*
X136719047Y-85924819D01*
X181239580Y-113857142D02*
X181287200Y-113809523D01*
X181287200Y-113809523D02*
X181334819Y-113666666D01*
X181334819Y-113666666D02*
X181334819Y-113571428D01*
X181334819Y-113571428D02*
X181287200Y-113428571D01*
X181287200Y-113428571D02*
X181191961Y-113333333D01*
X181191961Y-113333333D02*
X181096723Y-113285714D01*
X181096723Y-113285714D02*
X180906247Y-113238095D01*
X180906247Y-113238095D02*
X180763390Y-113238095D01*
X180763390Y-113238095D02*
X180572914Y-113285714D01*
X180572914Y-113285714D02*
X180477676Y-113333333D01*
X180477676Y-113333333D02*
X180382438Y-113428571D01*
X180382438Y-113428571D02*
X180334819Y-113571428D01*
X180334819Y-113571428D02*
X180334819Y-113666666D01*
X180334819Y-113666666D02*
X180382438Y-113809523D01*
X180382438Y-113809523D02*
X180430057Y-113857142D01*
X180334819Y-114714285D02*
X180334819Y-114523809D01*
X180334819Y-114523809D02*
X180382438Y-114428571D01*
X180382438Y-114428571D02*
X180430057Y-114380952D01*
X180430057Y-114380952D02*
X180572914Y-114285714D01*
X180572914Y-114285714D02*
X180763390Y-114238095D01*
X180763390Y-114238095D02*
X181144342Y-114238095D01*
X181144342Y-114238095D02*
X181239580Y-114285714D01*
X181239580Y-114285714D02*
X181287200Y-114333333D01*
X181287200Y-114333333D02*
X181334819Y-114428571D01*
X181334819Y-114428571D02*
X181334819Y-114619047D01*
X181334819Y-114619047D02*
X181287200Y-114714285D01*
X181287200Y-114714285D02*
X181239580Y-114761904D01*
X181239580Y-114761904D02*
X181144342Y-114809523D01*
X181144342Y-114809523D02*
X180906247Y-114809523D01*
X180906247Y-114809523D02*
X180811009Y-114761904D01*
X180811009Y-114761904D02*
X180763390Y-114714285D01*
X180763390Y-114714285D02*
X180715771Y-114619047D01*
X180715771Y-114619047D02*
X180715771Y-114428571D01*
X180715771Y-114428571D02*
X180763390Y-114333333D01*
X180763390Y-114333333D02*
X180811009Y-114285714D01*
X180811009Y-114285714D02*
X180906247Y-114238095D01*
X180763390Y-115380952D02*
X180715771Y-115285714D01*
X180715771Y-115285714D02*
X180668152Y-115238095D01*
X180668152Y-115238095D02*
X180572914Y-115190476D01*
X180572914Y-115190476D02*
X180525295Y-115190476D01*
X180525295Y-115190476D02*
X180430057Y-115238095D01*
X180430057Y-115238095D02*
X180382438Y-115285714D01*
X180382438Y-115285714D02*
X180334819Y-115380952D01*
X180334819Y-115380952D02*
X180334819Y-115571428D01*
X180334819Y-115571428D02*
X180382438Y-115666666D01*
X180382438Y-115666666D02*
X180430057Y-115714285D01*
X180430057Y-115714285D02*
X180525295Y-115761904D01*
X180525295Y-115761904D02*
X180572914Y-115761904D01*
X180572914Y-115761904D02*
X180668152Y-115714285D01*
X180668152Y-115714285D02*
X180715771Y-115666666D01*
X180715771Y-115666666D02*
X180763390Y-115571428D01*
X180763390Y-115571428D02*
X180763390Y-115380952D01*
X180763390Y-115380952D02*
X180811009Y-115285714D01*
X180811009Y-115285714D02*
X180858628Y-115238095D01*
X180858628Y-115238095D02*
X180953866Y-115190476D01*
X180953866Y-115190476D02*
X181144342Y-115190476D01*
X181144342Y-115190476D02*
X181239580Y-115238095D01*
X181239580Y-115238095D02*
X181287200Y-115285714D01*
X181287200Y-115285714D02*
X181334819Y-115380952D01*
X181334819Y-115380952D02*
X181334819Y-115571428D01*
X181334819Y-115571428D02*
X181287200Y-115666666D01*
X181287200Y-115666666D02*
X181239580Y-115714285D01*
X181239580Y-115714285D02*
X181144342Y-115761904D01*
X181144342Y-115761904D02*
X180953866Y-115761904D01*
X180953866Y-115761904D02*
X180858628Y-115714285D01*
X180858628Y-115714285D02*
X180811009Y-115666666D01*
X180811009Y-115666666D02*
X180763390Y-115571428D01*
X161029580Y-83457142D02*
X161077200Y-83409523D01*
X161077200Y-83409523D02*
X161124819Y-83266666D01*
X161124819Y-83266666D02*
X161124819Y-83171428D01*
X161124819Y-83171428D02*
X161077200Y-83028571D01*
X161077200Y-83028571D02*
X160981961Y-82933333D01*
X160981961Y-82933333D02*
X160886723Y-82885714D01*
X160886723Y-82885714D02*
X160696247Y-82838095D01*
X160696247Y-82838095D02*
X160553390Y-82838095D01*
X160553390Y-82838095D02*
X160362914Y-82885714D01*
X160362914Y-82885714D02*
X160267676Y-82933333D01*
X160267676Y-82933333D02*
X160172438Y-83028571D01*
X160172438Y-83028571D02*
X160124819Y-83171428D01*
X160124819Y-83171428D02*
X160124819Y-83266666D01*
X160124819Y-83266666D02*
X160172438Y-83409523D01*
X160172438Y-83409523D02*
X160220057Y-83457142D01*
X160220057Y-83838095D02*
X160172438Y-83885714D01*
X160172438Y-83885714D02*
X160124819Y-83980952D01*
X160124819Y-83980952D02*
X160124819Y-84219047D01*
X160124819Y-84219047D02*
X160172438Y-84314285D01*
X160172438Y-84314285D02*
X160220057Y-84361904D01*
X160220057Y-84361904D02*
X160315295Y-84409523D01*
X160315295Y-84409523D02*
X160410533Y-84409523D01*
X160410533Y-84409523D02*
X160553390Y-84361904D01*
X160553390Y-84361904D02*
X161124819Y-83790476D01*
X161124819Y-83790476D02*
X161124819Y-84409523D01*
X161124819Y-85361904D02*
X161124819Y-84790476D01*
X161124819Y-85076190D02*
X160124819Y-85076190D01*
X160124819Y-85076190D02*
X160267676Y-84980952D01*
X160267676Y-84980952D02*
X160362914Y-84885714D01*
X160362914Y-84885714D02*
X160410533Y-84790476D01*
X159529580Y-83457142D02*
X159577200Y-83409523D01*
X159577200Y-83409523D02*
X159624819Y-83266666D01*
X159624819Y-83266666D02*
X159624819Y-83171428D01*
X159624819Y-83171428D02*
X159577200Y-83028571D01*
X159577200Y-83028571D02*
X159481961Y-82933333D01*
X159481961Y-82933333D02*
X159386723Y-82885714D01*
X159386723Y-82885714D02*
X159196247Y-82838095D01*
X159196247Y-82838095D02*
X159053390Y-82838095D01*
X159053390Y-82838095D02*
X158862914Y-82885714D01*
X158862914Y-82885714D02*
X158767676Y-82933333D01*
X158767676Y-82933333D02*
X158672438Y-83028571D01*
X158672438Y-83028571D02*
X158624819Y-83171428D01*
X158624819Y-83171428D02*
X158624819Y-83266666D01*
X158624819Y-83266666D02*
X158672438Y-83409523D01*
X158672438Y-83409523D02*
X158720057Y-83457142D01*
X158720057Y-83838095D02*
X158672438Y-83885714D01*
X158672438Y-83885714D02*
X158624819Y-83980952D01*
X158624819Y-83980952D02*
X158624819Y-84219047D01*
X158624819Y-84219047D02*
X158672438Y-84314285D01*
X158672438Y-84314285D02*
X158720057Y-84361904D01*
X158720057Y-84361904D02*
X158815295Y-84409523D01*
X158815295Y-84409523D02*
X158910533Y-84409523D01*
X158910533Y-84409523D02*
X159053390Y-84361904D01*
X159053390Y-84361904D02*
X159624819Y-83790476D01*
X159624819Y-83790476D02*
X159624819Y-84409523D01*
X158720057Y-84790476D02*
X158672438Y-84838095D01*
X158672438Y-84838095D02*
X158624819Y-84933333D01*
X158624819Y-84933333D02*
X158624819Y-85171428D01*
X158624819Y-85171428D02*
X158672438Y-85266666D01*
X158672438Y-85266666D02*
X158720057Y-85314285D01*
X158720057Y-85314285D02*
X158815295Y-85361904D01*
X158815295Y-85361904D02*
X158910533Y-85361904D01*
X158910533Y-85361904D02*
X159053390Y-85314285D01*
X159053390Y-85314285D02*
X159624819Y-84742857D01*
X159624819Y-84742857D02*
X159624819Y-85361904D01*
X143642857Y-101589580D02*
X143690476Y-101637200D01*
X143690476Y-101637200D02*
X143833333Y-101684819D01*
X143833333Y-101684819D02*
X143928571Y-101684819D01*
X143928571Y-101684819D02*
X144071428Y-101637200D01*
X144071428Y-101637200D02*
X144166666Y-101541961D01*
X144166666Y-101541961D02*
X144214285Y-101446723D01*
X144214285Y-101446723D02*
X144261904Y-101256247D01*
X144261904Y-101256247D02*
X144261904Y-101113390D01*
X144261904Y-101113390D02*
X144214285Y-100922914D01*
X144214285Y-100922914D02*
X144166666Y-100827676D01*
X144166666Y-100827676D02*
X144071428Y-100732438D01*
X144071428Y-100732438D02*
X143928571Y-100684819D01*
X143928571Y-100684819D02*
X143833333Y-100684819D01*
X143833333Y-100684819D02*
X143690476Y-100732438D01*
X143690476Y-100732438D02*
X143642857Y-100780057D01*
X142785714Y-101018152D02*
X142785714Y-101684819D01*
X143023809Y-100637200D02*
X143261904Y-101351485D01*
X143261904Y-101351485D02*
X142642857Y-101351485D01*
X141785714Y-100684819D02*
X142261904Y-100684819D01*
X142261904Y-100684819D02*
X142309523Y-101161009D01*
X142309523Y-101161009D02*
X142261904Y-101113390D01*
X142261904Y-101113390D02*
X142166666Y-101065771D01*
X142166666Y-101065771D02*
X141928571Y-101065771D01*
X141928571Y-101065771D02*
X141833333Y-101113390D01*
X141833333Y-101113390D02*
X141785714Y-101161009D01*
X141785714Y-101161009D02*
X141738095Y-101256247D01*
X141738095Y-101256247D02*
X141738095Y-101494342D01*
X141738095Y-101494342D02*
X141785714Y-101589580D01*
X141785714Y-101589580D02*
X141833333Y-101637200D01*
X141833333Y-101637200D02*
X141928571Y-101684819D01*
X141928571Y-101684819D02*
X142166666Y-101684819D01*
X142166666Y-101684819D02*
X142261904Y-101637200D01*
X142261904Y-101637200D02*
X142309523Y-101589580D01*
X185439580Y-70657142D02*
X185487200Y-70609523D01*
X185487200Y-70609523D02*
X185534819Y-70466666D01*
X185534819Y-70466666D02*
X185534819Y-70371428D01*
X185534819Y-70371428D02*
X185487200Y-70228571D01*
X185487200Y-70228571D02*
X185391961Y-70133333D01*
X185391961Y-70133333D02*
X185296723Y-70085714D01*
X185296723Y-70085714D02*
X185106247Y-70038095D01*
X185106247Y-70038095D02*
X184963390Y-70038095D01*
X184963390Y-70038095D02*
X184772914Y-70085714D01*
X184772914Y-70085714D02*
X184677676Y-70133333D01*
X184677676Y-70133333D02*
X184582438Y-70228571D01*
X184582438Y-70228571D02*
X184534819Y-70371428D01*
X184534819Y-70371428D02*
X184534819Y-70466666D01*
X184534819Y-70466666D02*
X184582438Y-70609523D01*
X184582438Y-70609523D02*
X184630057Y-70657142D01*
X184534819Y-70990476D02*
X184534819Y-71657142D01*
X184534819Y-71657142D02*
X185534819Y-71228571D01*
X184534819Y-72514285D02*
X184534819Y-72038095D01*
X184534819Y-72038095D02*
X185011009Y-71990476D01*
X185011009Y-71990476D02*
X184963390Y-72038095D01*
X184963390Y-72038095D02*
X184915771Y-72133333D01*
X184915771Y-72133333D02*
X184915771Y-72371428D01*
X184915771Y-72371428D02*
X184963390Y-72466666D01*
X184963390Y-72466666D02*
X185011009Y-72514285D01*
X185011009Y-72514285D02*
X185106247Y-72561904D01*
X185106247Y-72561904D02*
X185344342Y-72561904D01*
X185344342Y-72561904D02*
X185439580Y-72514285D01*
X185439580Y-72514285D02*
X185487200Y-72466666D01*
X185487200Y-72466666D02*
X185534819Y-72371428D01*
X185534819Y-72371428D02*
X185534819Y-72133333D01*
X185534819Y-72133333D02*
X185487200Y-72038095D01*
X185487200Y-72038095D02*
X185439580Y-71990476D01*
X203059580Y-70557142D02*
X203107200Y-70509523D01*
X203107200Y-70509523D02*
X203154819Y-70366666D01*
X203154819Y-70366666D02*
X203154819Y-70271428D01*
X203154819Y-70271428D02*
X203107200Y-70128571D01*
X203107200Y-70128571D02*
X203011961Y-70033333D01*
X203011961Y-70033333D02*
X202916723Y-69985714D01*
X202916723Y-69985714D02*
X202726247Y-69938095D01*
X202726247Y-69938095D02*
X202583390Y-69938095D01*
X202583390Y-69938095D02*
X202392914Y-69985714D01*
X202392914Y-69985714D02*
X202297676Y-70033333D01*
X202297676Y-70033333D02*
X202202438Y-70128571D01*
X202202438Y-70128571D02*
X202154819Y-70271428D01*
X202154819Y-70271428D02*
X202154819Y-70366666D01*
X202154819Y-70366666D02*
X202202438Y-70509523D01*
X202202438Y-70509523D02*
X202250057Y-70557142D01*
X202154819Y-70890476D02*
X202154819Y-71557142D01*
X202154819Y-71557142D02*
X203154819Y-71128571D01*
X202154819Y-72366666D02*
X202154819Y-72176190D01*
X202154819Y-72176190D02*
X202202438Y-72080952D01*
X202202438Y-72080952D02*
X202250057Y-72033333D01*
X202250057Y-72033333D02*
X202392914Y-71938095D01*
X202392914Y-71938095D02*
X202583390Y-71890476D01*
X202583390Y-71890476D02*
X202964342Y-71890476D01*
X202964342Y-71890476D02*
X203059580Y-71938095D01*
X203059580Y-71938095D02*
X203107200Y-71985714D01*
X203107200Y-71985714D02*
X203154819Y-72080952D01*
X203154819Y-72080952D02*
X203154819Y-72271428D01*
X203154819Y-72271428D02*
X203107200Y-72366666D01*
X203107200Y-72366666D02*
X203059580Y-72414285D01*
X203059580Y-72414285D02*
X202964342Y-72461904D01*
X202964342Y-72461904D02*
X202726247Y-72461904D01*
X202726247Y-72461904D02*
X202631009Y-72414285D01*
X202631009Y-72414285D02*
X202583390Y-72366666D01*
X202583390Y-72366666D02*
X202535771Y-72271428D01*
X202535771Y-72271428D02*
X202535771Y-72080952D01*
X202535771Y-72080952D02*
X202583390Y-71985714D01*
X202583390Y-71985714D02*
X202631009Y-71938095D01*
X202631009Y-71938095D02*
X202726247Y-71890476D01*
X125066666Y-98329580D02*
X125114285Y-98377200D01*
X125114285Y-98377200D02*
X125257142Y-98424819D01*
X125257142Y-98424819D02*
X125352380Y-98424819D01*
X125352380Y-98424819D02*
X125495237Y-98377200D01*
X125495237Y-98377200D02*
X125590475Y-98281961D01*
X125590475Y-98281961D02*
X125638094Y-98186723D01*
X125638094Y-98186723D02*
X125685713Y-97996247D01*
X125685713Y-97996247D02*
X125685713Y-97853390D01*
X125685713Y-97853390D02*
X125638094Y-97662914D01*
X125638094Y-97662914D02*
X125590475Y-97567676D01*
X125590475Y-97567676D02*
X125495237Y-97472438D01*
X125495237Y-97472438D02*
X125352380Y-97424819D01*
X125352380Y-97424819D02*
X125257142Y-97424819D01*
X125257142Y-97424819D02*
X125114285Y-97472438D01*
X125114285Y-97472438D02*
X125066666Y-97520057D01*
X124733332Y-97424819D02*
X124114285Y-97424819D01*
X124114285Y-97424819D02*
X124447618Y-97805771D01*
X124447618Y-97805771D02*
X124304761Y-97805771D01*
X124304761Y-97805771D02*
X124209523Y-97853390D01*
X124209523Y-97853390D02*
X124161904Y-97901009D01*
X124161904Y-97901009D02*
X124114285Y-97996247D01*
X124114285Y-97996247D02*
X124114285Y-98234342D01*
X124114285Y-98234342D02*
X124161904Y-98329580D01*
X124161904Y-98329580D02*
X124209523Y-98377200D01*
X124209523Y-98377200D02*
X124304761Y-98424819D01*
X124304761Y-98424819D02*
X124590475Y-98424819D01*
X124590475Y-98424819D02*
X124685713Y-98377200D01*
X124685713Y-98377200D02*
X124733332Y-98329580D01*
X158042857Y-93089580D02*
X158090476Y-93137200D01*
X158090476Y-93137200D02*
X158233333Y-93184819D01*
X158233333Y-93184819D02*
X158328571Y-93184819D01*
X158328571Y-93184819D02*
X158471428Y-93137200D01*
X158471428Y-93137200D02*
X158566666Y-93041961D01*
X158566666Y-93041961D02*
X158614285Y-92946723D01*
X158614285Y-92946723D02*
X158661904Y-92756247D01*
X158661904Y-92756247D02*
X158661904Y-92613390D01*
X158661904Y-92613390D02*
X158614285Y-92422914D01*
X158614285Y-92422914D02*
X158566666Y-92327676D01*
X158566666Y-92327676D02*
X158471428Y-92232438D01*
X158471428Y-92232438D02*
X158328571Y-92184819D01*
X158328571Y-92184819D02*
X158233333Y-92184819D01*
X158233333Y-92184819D02*
X158090476Y-92232438D01*
X158090476Y-92232438D02*
X158042857Y-92280057D01*
X157090476Y-93184819D02*
X157661904Y-93184819D01*
X157376190Y-93184819D02*
X157376190Y-92184819D01*
X157376190Y-92184819D02*
X157471428Y-92327676D01*
X157471428Y-92327676D02*
X157566666Y-92422914D01*
X157566666Y-92422914D02*
X157661904Y-92470533D01*
X156757142Y-92184819D02*
X156138095Y-92184819D01*
X156138095Y-92184819D02*
X156471428Y-92565771D01*
X156471428Y-92565771D02*
X156328571Y-92565771D01*
X156328571Y-92565771D02*
X156233333Y-92613390D01*
X156233333Y-92613390D02*
X156185714Y-92661009D01*
X156185714Y-92661009D02*
X156138095Y-92756247D01*
X156138095Y-92756247D02*
X156138095Y-92994342D01*
X156138095Y-92994342D02*
X156185714Y-93089580D01*
X156185714Y-93089580D02*
X156233333Y-93137200D01*
X156233333Y-93137200D02*
X156328571Y-93184819D01*
X156328571Y-93184819D02*
X156614285Y-93184819D01*
X156614285Y-93184819D02*
X156709523Y-93137200D01*
X156709523Y-93137200D02*
X156757142Y-93089580D01*
X159642857Y-100459580D02*
X159690476Y-100507200D01*
X159690476Y-100507200D02*
X159833333Y-100554819D01*
X159833333Y-100554819D02*
X159928571Y-100554819D01*
X159928571Y-100554819D02*
X160071428Y-100507200D01*
X160071428Y-100507200D02*
X160166666Y-100411961D01*
X160166666Y-100411961D02*
X160214285Y-100316723D01*
X160214285Y-100316723D02*
X160261904Y-100126247D01*
X160261904Y-100126247D02*
X160261904Y-99983390D01*
X160261904Y-99983390D02*
X160214285Y-99792914D01*
X160214285Y-99792914D02*
X160166666Y-99697676D01*
X160166666Y-99697676D02*
X160071428Y-99602438D01*
X160071428Y-99602438D02*
X159928571Y-99554819D01*
X159928571Y-99554819D02*
X159833333Y-99554819D01*
X159833333Y-99554819D02*
X159690476Y-99602438D01*
X159690476Y-99602438D02*
X159642857Y-99650057D01*
X159309523Y-99554819D02*
X158642857Y-99554819D01*
X158642857Y-99554819D02*
X159071428Y-100554819D01*
X158119047Y-99983390D02*
X158214285Y-99935771D01*
X158214285Y-99935771D02*
X158261904Y-99888152D01*
X158261904Y-99888152D02*
X158309523Y-99792914D01*
X158309523Y-99792914D02*
X158309523Y-99745295D01*
X158309523Y-99745295D02*
X158261904Y-99650057D01*
X158261904Y-99650057D02*
X158214285Y-99602438D01*
X158214285Y-99602438D02*
X158119047Y-99554819D01*
X158119047Y-99554819D02*
X157928571Y-99554819D01*
X157928571Y-99554819D02*
X157833333Y-99602438D01*
X157833333Y-99602438D02*
X157785714Y-99650057D01*
X157785714Y-99650057D02*
X157738095Y-99745295D01*
X157738095Y-99745295D02*
X157738095Y-99792914D01*
X157738095Y-99792914D02*
X157785714Y-99888152D01*
X157785714Y-99888152D02*
X157833333Y-99935771D01*
X157833333Y-99935771D02*
X157928571Y-99983390D01*
X157928571Y-99983390D02*
X158119047Y-99983390D01*
X158119047Y-99983390D02*
X158214285Y-100031009D01*
X158214285Y-100031009D02*
X158261904Y-100078628D01*
X158261904Y-100078628D02*
X158309523Y-100173866D01*
X158309523Y-100173866D02*
X158309523Y-100364342D01*
X158309523Y-100364342D02*
X158261904Y-100459580D01*
X158261904Y-100459580D02*
X158214285Y-100507200D01*
X158214285Y-100507200D02*
X158119047Y-100554819D01*
X158119047Y-100554819D02*
X157928571Y-100554819D01*
X157928571Y-100554819D02*
X157833333Y-100507200D01*
X157833333Y-100507200D02*
X157785714Y-100459580D01*
X157785714Y-100459580D02*
X157738095Y-100364342D01*
X157738095Y-100364342D02*
X157738095Y-100173866D01*
X157738095Y-100173866D02*
X157785714Y-100078628D01*
X157785714Y-100078628D02*
X157833333Y-100031009D01*
X157833333Y-100031009D02*
X157928571Y-99983390D01*
X162529580Y-83457142D02*
X162577200Y-83409523D01*
X162577200Y-83409523D02*
X162624819Y-83266666D01*
X162624819Y-83266666D02*
X162624819Y-83171428D01*
X162624819Y-83171428D02*
X162577200Y-83028571D01*
X162577200Y-83028571D02*
X162481961Y-82933333D01*
X162481961Y-82933333D02*
X162386723Y-82885714D01*
X162386723Y-82885714D02*
X162196247Y-82838095D01*
X162196247Y-82838095D02*
X162053390Y-82838095D01*
X162053390Y-82838095D02*
X161862914Y-82885714D01*
X161862914Y-82885714D02*
X161767676Y-82933333D01*
X161767676Y-82933333D02*
X161672438Y-83028571D01*
X161672438Y-83028571D02*
X161624819Y-83171428D01*
X161624819Y-83171428D02*
X161624819Y-83266666D01*
X161624819Y-83266666D02*
X161672438Y-83409523D01*
X161672438Y-83409523D02*
X161720057Y-83457142D01*
X161720057Y-83838095D02*
X161672438Y-83885714D01*
X161672438Y-83885714D02*
X161624819Y-83980952D01*
X161624819Y-83980952D02*
X161624819Y-84219047D01*
X161624819Y-84219047D02*
X161672438Y-84314285D01*
X161672438Y-84314285D02*
X161720057Y-84361904D01*
X161720057Y-84361904D02*
X161815295Y-84409523D01*
X161815295Y-84409523D02*
X161910533Y-84409523D01*
X161910533Y-84409523D02*
X162053390Y-84361904D01*
X162053390Y-84361904D02*
X162624819Y-83790476D01*
X162624819Y-83790476D02*
X162624819Y-84409523D01*
X161624819Y-85028571D02*
X161624819Y-85123809D01*
X161624819Y-85123809D02*
X161672438Y-85219047D01*
X161672438Y-85219047D02*
X161720057Y-85266666D01*
X161720057Y-85266666D02*
X161815295Y-85314285D01*
X161815295Y-85314285D02*
X162005771Y-85361904D01*
X162005771Y-85361904D02*
X162243866Y-85361904D01*
X162243866Y-85361904D02*
X162434342Y-85314285D01*
X162434342Y-85314285D02*
X162529580Y-85266666D01*
X162529580Y-85266666D02*
X162577200Y-85219047D01*
X162577200Y-85219047D02*
X162624819Y-85123809D01*
X162624819Y-85123809D02*
X162624819Y-85028571D01*
X162624819Y-85028571D02*
X162577200Y-84933333D01*
X162577200Y-84933333D02*
X162529580Y-84885714D01*
X162529580Y-84885714D02*
X162434342Y-84838095D01*
X162434342Y-84838095D02*
X162243866Y-84790476D01*
X162243866Y-84790476D02*
X162005771Y-84790476D01*
X162005771Y-84790476D02*
X161815295Y-84838095D01*
X161815295Y-84838095D02*
X161720057Y-84885714D01*
X161720057Y-84885714D02*
X161672438Y-84933333D01*
X161672438Y-84933333D02*
X161624819Y-85028571D01*
X98039580Y-97557142D02*
X98087200Y-97509523D01*
X98087200Y-97509523D02*
X98134819Y-97366666D01*
X98134819Y-97366666D02*
X98134819Y-97271428D01*
X98134819Y-97271428D02*
X98087200Y-97128571D01*
X98087200Y-97128571D02*
X97991961Y-97033333D01*
X97991961Y-97033333D02*
X97896723Y-96985714D01*
X97896723Y-96985714D02*
X97706247Y-96938095D01*
X97706247Y-96938095D02*
X97563390Y-96938095D01*
X97563390Y-96938095D02*
X97372914Y-96985714D01*
X97372914Y-96985714D02*
X97277676Y-97033333D01*
X97277676Y-97033333D02*
X97182438Y-97128571D01*
X97182438Y-97128571D02*
X97134819Y-97271428D01*
X97134819Y-97271428D02*
X97134819Y-97366666D01*
X97134819Y-97366666D02*
X97182438Y-97509523D01*
X97182438Y-97509523D02*
X97230057Y-97557142D01*
X97230057Y-97938095D02*
X97182438Y-97985714D01*
X97182438Y-97985714D02*
X97134819Y-98080952D01*
X97134819Y-98080952D02*
X97134819Y-98319047D01*
X97134819Y-98319047D02*
X97182438Y-98414285D01*
X97182438Y-98414285D02*
X97230057Y-98461904D01*
X97230057Y-98461904D02*
X97325295Y-98509523D01*
X97325295Y-98509523D02*
X97420533Y-98509523D01*
X97420533Y-98509523D02*
X97563390Y-98461904D01*
X97563390Y-98461904D02*
X98134819Y-97890476D01*
X98134819Y-97890476D02*
X98134819Y-98509523D01*
X97134819Y-99366666D02*
X97134819Y-99176190D01*
X97134819Y-99176190D02*
X97182438Y-99080952D01*
X97182438Y-99080952D02*
X97230057Y-99033333D01*
X97230057Y-99033333D02*
X97372914Y-98938095D01*
X97372914Y-98938095D02*
X97563390Y-98890476D01*
X97563390Y-98890476D02*
X97944342Y-98890476D01*
X97944342Y-98890476D02*
X98039580Y-98938095D01*
X98039580Y-98938095D02*
X98087200Y-98985714D01*
X98087200Y-98985714D02*
X98134819Y-99080952D01*
X98134819Y-99080952D02*
X98134819Y-99271428D01*
X98134819Y-99271428D02*
X98087200Y-99366666D01*
X98087200Y-99366666D02*
X98039580Y-99414285D01*
X98039580Y-99414285D02*
X97944342Y-99461904D01*
X97944342Y-99461904D02*
X97706247Y-99461904D01*
X97706247Y-99461904D02*
X97611009Y-99414285D01*
X97611009Y-99414285D02*
X97563390Y-99366666D01*
X97563390Y-99366666D02*
X97515771Y-99271428D01*
X97515771Y-99271428D02*
X97515771Y-99080952D01*
X97515771Y-99080952D02*
X97563390Y-98985714D01*
X97563390Y-98985714D02*
X97611009Y-98938095D01*
X97611009Y-98938095D02*
X97706247Y-98890476D01*
X164842857Y-73029580D02*
X164890476Y-73077200D01*
X164890476Y-73077200D02*
X165033333Y-73124819D01*
X165033333Y-73124819D02*
X165128571Y-73124819D01*
X165128571Y-73124819D02*
X165271428Y-73077200D01*
X165271428Y-73077200D02*
X165366666Y-72981961D01*
X165366666Y-72981961D02*
X165414285Y-72886723D01*
X165414285Y-72886723D02*
X165461904Y-72696247D01*
X165461904Y-72696247D02*
X165461904Y-72553390D01*
X165461904Y-72553390D02*
X165414285Y-72362914D01*
X165414285Y-72362914D02*
X165366666Y-72267676D01*
X165366666Y-72267676D02*
X165271428Y-72172438D01*
X165271428Y-72172438D02*
X165128571Y-72124819D01*
X165128571Y-72124819D02*
X165033333Y-72124819D01*
X165033333Y-72124819D02*
X164890476Y-72172438D01*
X164890476Y-72172438D02*
X164842857Y-72220057D01*
X163938095Y-72124819D02*
X164414285Y-72124819D01*
X164414285Y-72124819D02*
X164461904Y-72601009D01*
X164461904Y-72601009D02*
X164414285Y-72553390D01*
X164414285Y-72553390D02*
X164319047Y-72505771D01*
X164319047Y-72505771D02*
X164080952Y-72505771D01*
X164080952Y-72505771D02*
X163985714Y-72553390D01*
X163985714Y-72553390D02*
X163938095Y-72601009D01*
X163938095Y-72601009D02*
X163890476Y-72696247D01*
X163890476Y-72696247D02*
X163890476Y-72934342D01*
X163890476Y-72934342D02*
X163938095Y-73029580D01*
X163938095Y-73029580D02*
X163985714Y-73077200D01*
X163985714Y-73077200D02*
X164080952Y-73124819D01*
X164080952Y-73124819D02*
X164319047Y-73124819D01*
X164319047Y-73124819D02*
X164414285Y-73077200D01*
X164414285Y-73077200D02*
X164461904Y-73029580D01*
X162985714Y-72124819D02*
X163461904Y-72124819D01*
X163461904Y-72124819D02*
X163509523Y-72601009D01*
X163509523Y-72601009D02*
X163461904Y-72553390D01*
X163461904Y-72553390D02*
X163366666Y-72505771D01*
X163366666Y-72505771D02*
X163128571Y-72505771D01*
X163128571Y-72505771D02*
X163033333Y-72553390D01*
X163033333Y-72553390D02*
X162985714Y-72601009D01*
X162985714Y-72601009D02*
X162938095Y-72696247D01*
X162938095Y-72696247D02*
X162938095Y-72934342D01*
X162938095Y-72934342D02*
X162985714Y-73029580D01*
X162985714Y-73029580D02*
X163033333Y-73077200D01*
X163033333Y-73077200D02*
X163128571Y-73124819D01*
X163128571Y-73124819D02*
X163366666Y-73124819D01*
X163366666Y-73124819D02*
X163461904Y-73077200D01*
X163461904Y-73077200D02*
X163509523Y-73029580D01*
X121742857Y-98329580D02*
X121790476Y-98377200D01*
X121790476Y-98377200D02*
X121933333Y-98424819D01*
X121933333Y-98424819D02*
X122028571Y-98424819D01*
X122028571Y-98424819D02*
X122171428Y-98377200D01*
X122171428Y-98377200D02*
X122266666Y-98281961D01*
X122266666Y-98281961D02*
X122314285Y-98186723D01*
X122314285Y-98186723D02*
X122361904Y-97996247D01*
X122361904Y-97996247D02*
X122361904Y-97853390D01*
X122361904Y-97853390D02*
X122314285Y-97662914D01*
X122314285Y-97662914D02*
X122266666Y-97567676D01*
X122266666Y-97567676D02*
X122171428Y-97472438D01*
X122171428Y-97472438D02*
X122028571Y-97424819D01*
X122028571Y-97424819D02*
X121933333Y-97424819D01*
X121933333Y-97424819D02*
X121790476Y-97472438D01*
X121790476Y-97472438D02*
X121742857Y-97520057D01*
X121409523Y-97424819D02*
X120790476Y-97424819D01*
X120790476Y-97424819D02*
X121123809Y-97805771D01*
X121123809Y-97805771D02*
X120980952Y-97805771D01*
X120980952Y-97805771D02*
X120885714Y-97853390D01*
X120885714Y-97853390D02*
X120838095Y-97901009D01*
X120838095Y-97901009D02*
X120790476Y-97996247D01*
X120790476Y-97996247D02*
X120790476Y-98234342D01*
X120790476Y-98234342D02*
X120838095Y-98329580D01*
X120838095Y-98329580D02*
X120885714Y-98377200D01*
X120885714Y-98377200D02*
X120980952Y-98424819D01*
X120980952Y-98424819D02*
X121266666Y-98424819D01*
X121266666Y-98424819D02*
X121361904Y-98377200D01*
X121361904Y-98377200D02*
X121409523Y-98329580D01*
X119885714Y-97424819D02*
X120361904Y-97424819D01*
X120361904Y-97424819D02*
X120409523Y-97901009D01*
X120409523Y-97901009D02*
X120361904Y-97853390D01*
X120361904Y-97853390D02*
X120266666Y-97805771D01*
X120266666Y-97805771D02*
X120028571Y-97805771D01*
X120028571Y-97805771D02*
X119933333Y-97853390D01*
X119933333Y-97853390D02*
X119885714Y-97901009D01*
X119885714Y-97901009D02*
X119838095Y-97996247D01*
X119838095Y-97996247D02*
X119838095Y-98234342D01*
X119838095Y-98234342D02*
X119885714Y-98329580D01*
X119885714Y-98329580D02*
X119933333Y-98377200D01*
X119933333Y-98377200D02*
X120028571Y-98424819D01*
X120028571Y-98424819D02*
X120266666Y-98424819D01*
X120266666Y-98424819D02*
X120361904Y-98377200D01*
X120361904Y-98377200D02*
X120409523Y-98329580D01*
X155684819Y-55357142D02*
X155208628Y-55023809D01*
X155684819Y-54785714D02*
X154684819Y-54785714D01*
X154684819Y-54785714D02*
X154684819Y-55166666D01*
X154684819Y-55166666D02*
X154732438Y-55261904D01*
X154732438Y-55261904D02*
X154780057Y-55309523D01*
X154780057Y-55309523D02*
X154875295Y-55357142D01*
X154875295Y-55357142D02*
X155018152Y-55357142D01*
X155018152Y-55357142D02*
X155113390Y-55309523D01*
X155113390Y-55309523D02*
X155161009Y-55261904D01*
X155161009Y-55261904D02*
X155208628Y-55166666D01*
X155208628Y-55166666D02*
X155208628Y-54785714D01*
X154684819Y-55690476D02*
X154684819Y-56357142D01*
X154684819Y-56357142D02*
X155684819Y-55928571D01*
X155113390Y-56880952D02*
X155065771Y-56785714D01*
X155065771Y-56785714D02*
X155018152Y-56738095D01*
X155018152Y-56738095D02*
X154922914Y-56690476D01*
X154922914Y-56690476D02*
X154875295Y-56690476D01*
X154875295Y-56690476D02*
X154780057Y-56738095D01*
X154780057Y-56738095D02*
X154732438Y-56785714D01*
X154732438Y-56785714D02*
X154684819Y-56880952D01*
X154684819Y-56880952D02*
X154684819Y-57071428D01*
X154684819Y-57071428D02*
X154732438Y-57166666D01*
X154732438Y-57166666D02*
X154780057Y-57214285D01*
X154780057Y-57214285D02*
X154875295Y-57261904D01*
X154875295Y-57261904D02*
X154922914Y-57261904D01*
X154922914Y-57261904D02*
X155018152Y-57214285D01*
X155018152Y-57214285D02*
X155065771Y-57166666D01*
X155065771Y-57166666D02*
X155113390Y-57071428D01*
X155113390Y-57071428D02*
X155113390Y-56880952D01*
X155113390Y-56880952D02*
X155161009Y-56785714D01*
X155161009Y-56785714D02*
X155208628Y-56738095D01*
X155208628Y-56738095D02*
X155303866Y-56690476D01*
X155303866Y-56690476D02*
X155494342Y-56690476D01*
X155494342Y-56690476D02*
X155589580Y-56738095D01*
X155589580Y-56738095D02*
X155637200Y-56785714D01*
X155637200Y-56785714D02*
X155684819Y-56880952D01*
X155684819Y-56880952D02*
X155684819Y-57071428D01*
X155684819Y-57071428D02*
X155637200Y-57166666D01*
X155637200Y-57166666D02*
X155589580Y-57214285D01*
X155589580Y-57214285D02*
X155494342Y-57261904D01*
X155494342Y-57261904D02*
X155303866Y-57261904D01*
X155303866Y-57261904D02*
X155208628Y-57214285D01*
X155208628Y-57214285D02*
X155161009Y-57166666D01*
X155161009Y-57166666D02*
X155113390Y-57071428D01*
X149584819Y-55457142D02*
X149108628Y-55123809D01*
X149584819Y-54885714D02*
X148584819Y-54885714D01*
X148584819Y-54885714D02*
X148584819Y-55266666D01*
X148584819Y-55266666D02*
X148632438Y-55361904D01*
X148632438Y-55361904D02*
X148680057Y-55409523D01*
X148680057Y-55409523D02*
X148775295Y-55457142D01*
X148775295Y-55457142D02*
X148918152Y-55457142D01*
X148918152Y-55457142D02*
X149013390Y-55409523D01*
X149013390Y-55409523D02*
X149061009Y-55361904D01*
X149061009Y-55361904D02*
X149108628Y-55266666D01*
X149108628Y-55266666D02*
X149108628Y-54885714D01*
X148584819Y-55790476D02*
X148584819Y-56457142D01*
X148584819Y-56457142D02*
X149584819Y-56028571D01*
X148584819Y-57266666D02*
X148584819Y-57076190D01*
X148584819Y-57076190D02*
X148632438Y-56980952D01*
X148632438Y-56980952D02*
X148680057Y-56933333D01*
X148680057Y-56933333D02*
X148822914Y-56838095D01*
X148822914Y-56838095D02*
X149013390Y-56790476D01*
X149013390Y-56790476D02*
X149394342Y-56790476D01*
X149394342Y-56790476D02*
X149489580Y-56838095D01*
X149489580Y-56838095D02*
X149537200Y-56885714D01*
X149537200Y-56885714D02*
X149584819Y-56980952D01*
X149584819Y-56980952D02*
X149584819Y-57171428D01*
X149584819Y-57171428D02*
X149537200Y-57266666D01*
X149537200Y-57266666D02*
X149489580Y-57314285D01*
X149489580Y-57314285D02*
X149394342Y-57361904D01*
X149394342Y-57361904D02*
X149156247Y-57361904D01*
X149156247Y-57361904D02*
X149061009Y-57314285D01*
X149061009Y-57314285D02*
X149013390Y-57266666D01*
X149013390Y-57266666D02*
X148965771Y-57171428D01*
X148965771Y-57171428D02*
X148965771Y-56980952D01*
X148965771Y-56980952D02*
X149013390Y-56885714D01*
X149013390Y-56885714D02*
X149061009Y-56838095D01*
X149061009Y-56838095D02*
X149156247Y-56790476D01*
X132659580Y-100957142D02*
X132707200Y-100909523D01*
X132707200Y-100909523D02*
X132754819Y-100766666D01*
X132754819Y-100766666D02*
X132754819Y-100671428D01*
X132754819Y-100671428D02*
X132707200Y-100528571D01*
X132707200Y-100528571D02*
X132611961Y-100433333D01*
X132611961Y-100433333D02*
X132516723Y-100385714D01*
X132516723Y-100385714D02*
X132326247Y-100338095D01*
X132326247Y-100338095D02*
X132183390Y-100338095D01*
X132183390Y-100338095D02*
X131992914Y-100385714D01*
X131992914Y-100385714D02*
X131897676Y-100433333D01*
X131897676Y-100433333D02*
X131802438Y-100528571D01*
X131802438Y-100528571D02*
X131754819Y-100671428D01*
X131754819Y-100671428D02*
X131754819Y-100766666D01*
X131754819Y-100766666D02*
X131802438Y-100909523D01*
X131802438Y-100909523D02*
X131850057Y-100957142D01*
X132088152Y-101814285D02*
X132754819Y-101814285D01*
X131707200Y-101576190D02*
X132421485Y-101338095D01*
X132421485Y-101338095D02*
X132421485Y-101957142D01*
X132183390Y-102480952D02*
X132135771Y-102385714D01*
X132135771Y-102385714D02*
X132088152Y-102338095D01*
X132088152Y-102338095D02*
X131992914Y-102290476D01*
X131992914Y-102290476D02*
X131945295Y-102290476D01*
X131945295Y-102290476D02*
X131850057Y-102338095D01*
X131850057Y-102338095D02*
X131802438Y-102385714D01*
X131802438Y-102385714D02*
X131754819Y-102480952D01*
X131754819Y-102480952D02*
X131754819Y-102671428D01*
X131754819Y-102671428D02*
X131802438Y-102766666D01*
X131802438Y-102766666D02*
X131850057Y-102814285D01*
X131850057Y-102814285D02*
X131945295Y-102861904D01*
X131945295Y-102861904D02*
X131992914Y-102861904D01*
X131992914Y-102861904D02*
X132088152Y-102814285D01*
X132088152Y-102814285D02*
X132135771Y-102766666D01*
X132135771Y-102766666D02*
X132183390Y-102671428D01*
X132183390Y-102671428D02*
X132183390Y-102480952D01*
X132183390Y-102480952D02*
X132231009Y-102385714D01*
X132231009Y-102385714D02*
X132278628Y-102338095D01*
X132278628Y-102338095D02*
X132373866Y-102290476D01*
X132373866Y-102290476D02*
X132564342Y-102290476D01*
X132564342Y-102290476D02*
X132659580Y-102338095D01*
X132659580Y-102338095D02*
X132707200Y-102385714D01*
X132707200Y-102385714D02*
X132754819Y-102480952D01*
X132754819Y-102480952D02*
X132754819Y-102671428D01*
X132754819Y-102671428D02*
X132707200Y-102766666D01*
X132707200Y-102766666D02*
X132659580Y-102814285D01*
X132659580Y-102814285D02*
X132564342Y-102861904D01*
X132564342Y-102861904D02*
X132373866Y-102861904D01*
X132373866Y-102861904D02*
X132278628Y-102814285D01*
X132278628Y-102814285D02*
X132231009Y-102766666D01*
X132231009Y-102766666D02*
X132183390Y-102671428D01*
D11*
%TO.C,C89*%
X106346267Y-77810000D02*
X106053733Y-77810000D01*
X106346267Y-76790000D02*
X106053733Y-76790000D01*
%TO.C,C88*%
X106246267Y-75310000D02*
X105953733Y-75310000D01*
X106246267Y-74290000D02*
X105953733Y-74290000D01*
D12*
%TO.C,J1*%
X113221000Y-52960000D02*
G75*
G02*
X112459000Y-52960000I-381000J0D01*
G01*
X112459000Y-52960000D02*
G75*
G02*
X113221000Y-52960000I381000J0D01*
G01*
D11*
%TO.C,C31*%
X96265000Y-114761252D02*
X96265000Y-114238748D01*
X97735000Y-114761252D02*
X97735000Y-114238748D01*
%TO.C,R1*%
X194190000Y-112627064D02*
X194190000Y-111172936D01*
X196010000Y-112627064D02*
X196010000Y-111172936D01*
%TO.C,C36*%
X120953733Y-95890000D02*
X121246267Y-95890000D01*
X120953733Y-96910000D02*
X121246267Y-96910000D01*
%TO.C,C79*%
X92353733Y-81490000D02*
X92646267Y-81490000D01*
X92353733Y-82510000D02*
X92646267Y-82510000D01*
%TO.C,C23*%
X158590000Y-84246267D02*
X158590000Y-83953733D01*
X159610000Y-84246267D02*
X159610000Y-83953733D01*
%TO.C,C60*%
X138126248Y-124065000D02*
X138648752Y-124065000D01*
X138126248Y-125535000D02*
X138648752Y-125535000D01*
%TO.C,R24*%
X160177500Y-90654724D02*
X160177500Y-90145276D01*
X161222500Y-90654724D02*
X161222500Y-90145276D01*
%TO.C,R60*%
X150990000Y-56246267D02*
X150990000Y-55953733D01*
X152010000Y-56246267D02*
X152010000Y-55953733D01*
%TO.C,C14*%
X187646267Y-93690000D02*
X187353733Y-93690000D01*
X187646267Y-94710000D02*
X187353733Y-94710000D01*
%TO.C,C86*%
X186190000Y-74453733D02*
X186190000Y-74746267D01*
X187210000Y-74453733D02*
X187210000Y-74746267D01*
%TO.C,C30*%
X93490000Y-114216233D02*
X93490000Y-114508767D01*
X94510000Y-114216233D02*
X94510000Y-114508767D01*
%TO.C,C40*%
X148390000Y-88753733D02*
X148390000Y-89046267D01*
X149410000Y-88753733D02*
X149410000Y-89046267D01*
%TO.C,C81*%
X192346267Y-80390000D02*
X192053733Y-80390000D01*
X192346267Y-81410000D02*
X192053733Y-81410000D01*
%TO.C,C9*%
X165758767Y-94990000D02*
X165466233Y-94990000D01*
X165758767Y-96010000D02*
X165466233Y-96010000D01*
%TO.C,C53*%
X164261252Y-73035000D02*
X163738748Y-73035000D01*
X164261252Y-71565000D02*
X163738748Y-71565000D01*
%TO.C,C32*%
X96265000Y-110438748D02*
X96265000Y-110961252D01*
X97735000Y-110438748D02*
X97735000Y-110961252D01*
%TO.C,R15*%
X161677500Y-90654724D02*
X161677500Y-90145276D01*
X162722500Y-90654724D02*
X162722500Y-90145276D01*
%TO.C,C72*%
X200890000Y-119746267D02*
X200890000Y-119453733D01*
X201910000Y-119746267D02*
X201910000Y-119453733D01*
%TO.C,C33*%
X93490000Y-111008767D02*
X93490000Y-110716233D01*
X94510000Y-111008767D02*
X94510000Y-110716233D01*
%TO.C,C65*%
X208065000Y-74561252D02*
X208065000Y-74038748D01*
X209535000Y-74561252D02*
X209535000Y-74038748D01*
%TO.C,C28*%
X95265000Y-102261252D02*
X95265000Y-101738748D01*
X96735000Y-102261252D02*
X96735000Y-101738748D01*
%TO.C,C19*%
X165753733Y-89790000D02*
X166046267Y-89790000D01*
X165753733Y-90810000D02*
X166046267Y-90810000D01*
%TO.C,C39*%
X133090000Y-87353733D02*
X133090000Y-87646267D01*
X134110000Y-87353733D02*
X134110000Y-87646267D01*
%TO.C,R10*%
X174490000Y-112627064D02*
X174490000Y-111172936D01*
X176310000Y-112627064D02*
X176310000Y-111172936D01*
%TO.C,C71*%
X183065000Y-119438748D02*
X183065000Y-119961252D01*
X184535000Y-119438748D02*
X184535000Y-119961252D01*
%TO.C,C52*%
X132016233Y-98490000D02*
X132308767Y-98490000D01*
X132016233Y-99510000D02*
X132308767Y-99510000D01*
%TO.C,C34*%
X120953733Y-97390000D02*
X121246267Y-97390000D01*
X120953733Y-98410000D02*
X121246267Y-98410000D01*
%TO.C,C37*%
X134590000Y-87353733D02*
X134590000Y-87646267D01*
X135610000Y-87353733D02*
X135610000Y-87646267D01*
%TO.C,C64*%
X187765000Y-74661252D02*
X187765000Y-74138748D01*
X189235000Y-74661252D02*
X189235000Y-74138748D01*
%TO.C,R21*%
X170077500Y-92945276D02*
X170077500Y-93454724D01*
X171122500Y-92945276D02*
X171122500Y-93454724D01*
%TO.C,C66*%
X206490000Y-74253733D02*
X206490000Y-74546267D01*
X207510000Y-74253733D02*
X207510000Y-74546267D01*
%TO.C,R19*%
X168577500Y-93454724D02*
X168577500Y-92945276D01*
X169622500Y-93454724D02*
X169622500Y-92945276D01*
%TO.C,C77*%
X202365000Y-70938748D02*
X202365000Y-71461252D01*
X203835000Y-70938748D02*
X203835000Y-71461252D01*
%TO.C,C38*%
X145990000Y-102846267D02*
X145990000Y-102553733D01*
X147010000Y-102846267D02*
X147010000Y-102553733D01*
%TO.C,C42*%
X146690000Y-98346267D02*
X146690000Y-98053733D01*
X147710000Y-98346267D02*
X147710000Y-98053733D01*
%TO.C,C73*%
X202565000Y-119438748D02*
X202565000Y-119961252D01*
X204035000Y-119438748D02*
X204035000Y-119961252D01*
%TO.C,C83*%
X186446267Y-82210000D02*
X186153733Y-82210000D01*
X186446267Y-81190000D02*
X186153733Y-81190000D01*
%TO.C,R2*%
X203990000Y-76372936D02*
X203990000Y-77827064D01*
X205810000Y-76372936D02*
X205810000Y-77827064D01*
%TO.C,C54*%
X164053733Y-76110000D02*
X164346267Y-76110000D01*
X164053733Y-75090000D02*
X164346267Y-75090000D01*
%TO.C,C85*%
X167090000Y-73046267D02*
X167090000Y-72753733D01*
X168110000Y-73046267D02*
X168110000Y-72753733D01*
%TO.C,C4*%
X128390000Y-85959420D02*
X128390000Y-86240580D01*
X129410000Y-85959420D02*
X129410000Y-86240580D01*
%TO.C,C43*%
X133290000Y-101746267D02*
X133290000Y-101453733D01*
X134310000Y-101746267D02*
X134310000Y-101453733D01*
%TO.C,C51*%
X134753733Y-92990000D02*
X135046267Y-92990000D01*
X134753733Y-94010000D02*
X135046267Y-94010000D01*
%TO.C,R80*%
X137777500Y-55445276D02*
X137777500Y-55954724D01*
X138822500Y-55445276D02*
X138822500Y-55954724D01*
%TO.C,R9*%
X183890000Y-76372936D02*
X183890000Y-77827064D01*
X185710000Y-76372936D02*
X185710000Y-77827064D01*
%TO.C,C84*%
X187553733Y-106690000D02*
X187846267Y-106690000D01*
X187553733Y-107710000D02*
X187846267Y-107710000D01*
%TO.C,C46*%
X147590000Y-102846267D02*
X147590000Y-102553733D01*
X148610000Y-102846267D02*
X148610000Y-102553733D01*
%TO.C,C7*%
X159690000Y-93953733D02*
X159690000Y-94246267D01*
X160710000Y-93953733D02*
X160710000Y-94246267D01*
%TO.C,C82*%
X193553733Y-106690000D02*
X193846267Y-106690000D01*
X193553733Y-107710000D02*
X193846267Y-107710000D01*
%TO.C,C49*%
X132016233Y-96990000D02*
X132308767Y-96990000D01*
X132016233Y-98010000D02*
X132308767Y-98010000D01*
%TO.C,C29*%
X93490000Y-101553733D02*
X93490000Y-101846267D01*
X94510000Y-101553733D02*
X94510000Y-101846267D01*
%TO.C,C41*%
X146690000Y-88791233D02*
X146690000Y-89083767D01*
X147710000Y-88791233D02*
X147710000Y-89083767D01*
%TO.C,C25*%
X162153733Y-80990000D02*
X162446267Y-80990000D01*
X162153733Y-82010000D02*
X162446267Y-82010000D01*
%TO.C,R77*%
X148977500Y-55832776D02*
X148977500Y-56342224D01*
X150022500Y-55832776D02*
X150022500Y-56342224D01*
%TO.C,C69*%
X198265000Y-114188747D02*
X198265000Y-114711251D01*
X199735000Y-114188747D02*
X199735000Y-114711251D01*
%TO.C,R66*%
X126037258Y-104477500D02*
X125562742Y-104477500D01*
X126037258Y-105522500D02*
X125562742Y-105522500D01*
%TO.C,R61*%
X125062742Y-84577500D02*
X125537258Y-84577500D01*
X125062742Y-85622500D02*
X125537258Y-85622500D01*
%TO.C,C18*%
X165753733Y-88290000D02*
X166046267Y-88290000D01*
X165753733Y-89310000D02*
X166046267Y-89310000D01*
%TO.C,R22*%
X161477500Y-93845276D02*
X161477500Y-94354724D01*
X162522500Y-93845276D02*
X162522500Y-94354724D01*
%TO.C,C67*%
X196590000Y-114446267D02*
X196590000Y-114153733D01*
X197610000Y-114446267D02*
X197610000Y-114153733D01*
%TO.C,C27*%
X93490000Y-98471267D02*
X93490000Y-98178733D01*
X94510000Y-98471267D02*
X94510000Y-98178733D01*
%TO.C,R81*%
X142777500Y-55457776D02*
X142777500Y-55967224D01*
X143822500Y-55457776D02*
X143822500Y-55967224D01*
%TO.C,C87*%
X176790000Y-114446267D02*
X176790000Y-114153733D01*
X177810000Y-114446267D02*
X177810000Y-114153733D01*
%TO.C,C80*%
X101953733Y-82190000D02*
X102246267Y-82190000D01*
X101953733Y-83210000D02*
X102246267Y-83210000D01*
%TO.C,C44*%
X144190000Y-87253733D02*
X144190000Y-87546267D01*
X145210000Y-87253733D02*
X145210000Y-87546267D01*
%TO.C,R79*%
X155777500Y-55645276D02*
X155777500Y-56154724D01*
X156822500Y-55645276D02*
X156822500Y-56154724D01*
%TO.C,C74*%
X180890000Y-71346267D02*
X180890000Y-71053733D01*
X181910000Y-71346267D02*
X181910000Y-71053733D01*
%TO.C,C50*%
X133690000Y-90753733D02*
X133690000Y-91046267D01*
X134710000Y-90753733D02*
X134710000Y-91046267D01*
%TO.C,C70*%
X181190000Y-119746267D02*
X181190000Y-119453733D01*
X182210000Y-119746267D02*
X182210000Y-119453733D01*
%TO.C,C47*%
X137453733Y-86390000D02*
X137746267Y-86390000D01*
X137453733Y-87410000D02*
X137746267Y-87410000D01*
%TO.C,C68*%
X178465000Y-114238748D02*
X178465000Y-114761252D01*
X179935000Y-114238748D02*
X179935000Y-114761252D01*
%TO.C,C21*%
X161590000Y-84246267D02*
X161590000Y-83953733D01*
X162610000Y-84246267D02*
X162610000Y-83953733D01*
%TO.C,C22*%
X160090000Y-84246267D02*
X160090000Y-83953733D01*
X161110000Y-84246267D02*
X161110000Y-83953733D01*
%TO.C,C45*%
X143146267Y-99290000D02*
X142853733Y-99290000D01*
X143146267Y-100310000D02*
X142853733Y-100310000D01*
%TO.C,C75*%
X182665000Y-71038748D02*
X182665000Y-71561252D01*
X184135000Y-71038748D02*
X184135000Y-71561252D01*
%TO.C,C76*%
X200690000Y-71346267D02*
X200690000Y-71053733D01*
X201710000Y-71346267D02*
X201710000Y-71053733D01*
%TO.C,C3*%
X124753733Y-98890000D02*
X125046267Y-98890000D01*
X124753733Y-99910000D02*
X125046267Y-99910000D01*
%TO.C,C13*%
X157546267Y-90790000D02*
X157253733Y-90790000D01*
X157546267Y-91810000D02*
X157253733Y-91810000D01*
%TO.C,C78*%
X159146267Y-101090000D02*
X158853733Y-101090000D01*
X159146267Y-102110000D02*
X158853733Y-102110000D01*
%TO.C,C20*%
X163090000Y-84246267D02*
X163090000Y-83953733D01*
X164110000Y-84246267D02*
X164110000Y-83953733D01*
%TO.C,C26*%
X95265000Y-97938748D02*
X95265000Y-98461252D01*
X96735000Y-97938748D02*
X96735000Y-98461252D01*
%TO.C,C55*%
X164053733Y-74610000D02*
X164346267Y-74610000D01*
X164053733Y-73590000D02*
X164346267Y-73590000D01*
%TO.C,C35*%
X120953733Y-98890000D02*
X121246267Y-98890000D01*
X120953733Y-99910000D02*
X121246267Y-99910000D01*
%TO.C,R78*%
X153277500Y-55745276D02*
X153277500Y-56254724D01*
X154322500Y-55745276D02*
X154322500Y-56254724D01*
%TO.C,R76*%
X147177500Y-55845276D02*
X147177500Y-56354724D01*
X148222500Y-55845276D02*
X148222500Y-56354724D01*
%TO.C,C48*%
X131790000Y-101746267D02*
X131790000Y-101453733D01*
X132810000Y-101746267D02*
X132810000Y-101453733D01*
%TD*%
M02*
