%TF.GenerationSoftware,KiCad,Pcbnew,8.0.1*%
%TF.CreationDate,2024-10-12T16:48:09+02:00*%
%TF.ProjectId,ultrasonic_V3_HW,756c7472-6173-46f6-9e69-635f56335f48,rev?*%
%TF.SameCoordinates,Original*%
%TF.FileFunction,Paste,Top*%
%TF.FilePolarity,Positive*%
%FSLAX46Y46*%
G04 Gerber Fmt 4.6, Leading zero omitted, Abs format (unit mm)*
G04 Created by KiCad (PCBNEW 8.0.1) date 2024-10-12 16:48:09*
%MOMM*%
%LPD*%
G01*
G04 APERTURE LIST*
G04 Aperture macros list*
%AMRoundRect*
0 Rectangle with rounded corners*
0 $1 Rounding radius*
0 $2 $3 $4 $5 $6 $7 $8 $9 X,Y pos of 4 corners*
0 Add a 4 corners polygon primitive as box body*
4,1,4,$2,$3,$4,$5,$6,$7,$8,$9,$2,$3,0*
0 Add four circle primitives for the rounded corners*
1,1,$1+$1,$2,$3*
1,1,$1+$1,$4,$5*
1,1,$1+$1,$6,$7*
1,1,$1+$1,$8,$9*
0 Add four rect primitives between the rounded corners*
20,1,$1+$1,$2,$3,$4,$5,0*
20,1,$1+$1,$4,$5,$6,$7,0*
20,1,$1+$1,$6,$7,$8,$9,0*
20,1,$1+$1,$8,$9,$2,$3,0*%
G04 Aperture macros list end*
%ADD10R,1.300000X1.600000*%
%ADD11RoundRect,0.150000X-0.512500X-0.150000X0.512500X-0.150000X0.512500X0.150000X-0.512500X0.150000X0*%
%ADD12RoundRect,0.150000X0.150000X-0.512500X0.150000X0.512500X-0.150000X0.512500X-0.150000X-0.512500X0*%
%ADD13RoundRect,0.237500X-0.237500X0.250000X-0.237500X-0.250000X0.237500X-0.250000X0.237500X0.250000X0*%
%ADD14RoundRect,0.237500X0.237500X-0.300000X0.237500X0.300000X-0.237500X0.300000X-0.237500X-0.300000X0*%
%ADD15RoundRect,0.237500X-0.250000X-0.237500X0.250000X-0.237500X0.250000X0.237500X-0.250000X0.237500X0*%
%ADD16RoundRect,0.237500X0.237500X-0.250000X0.237500X0.250000X-0.237500X0.250000X-0.237500X-0.250000X0*%
%ADD17RoundRect,0.237500X-0.237500X0.300000X-0.237500X-0.300000X0.237500X-0.300000X0.237500X0.300000X0*%
%ADD18RoundRect,0.150000X0.150000X-0.587500X0.150000X0.587500X-0.150000X0.587500X-0.150000X-0.587500X0*%
%ADD19RoundRect,0.250000X-0.325000X-0.450000X0.325000X-0.450000X0.325000X0.450000X-0.325000X0.450000X0*%
%ADD20RoundRect,0.375000X-0.625000X-0.375000X0.625000X-0.375000X0.625000X0.375000X-0.625000X0.375000X0*%
%ADD21RoundRect,0.500000X-0.500000X-1.400000X0.500000X-1.400000X0.500000X1.400000X-0.500000X1.400000X0*%
%ADD22RoundRect,0.150000X-0.150000X0.825000X-0.150000X-0.825000X0.150000X-0.825000X0.150000X0.825000X0*%
%ADD23RoundRect,0.100000X0.637500X0.100000X-0.637500X0.100000X-0.637500X-0.100000X0.637500X-0.100000X0*%
%ADD24RoundRect,0.225000X0.225000X0.375000X-0.225000X0.375000X-0.225000X-0.375000X0.225000X-0.375000X0*%
%ADD25RoundRect,0.225000X0.375000X-0.225000X0.375000X0.225000X-0.375000X0.225000X-0.375000X-0.225000X0*%
%ADD26RoundRect,0.200000X0.200000X-0.750000X0.200000X0.750000X-0.200000X0.750000X-0.200000X-0.750000X0*%
%ADD27RoundRect,0.035000X0.700000X0.105000X-0.700000X0.105000X-0.700000X-0.105000X0.700000X-0.105000X0*%
%ADD28RoundRect,0.237500X0.250000X0.237500X-0.250000X0.237500X-0.250000X-0.237500X0.250000X-0.237500X0*%
%ADD29RoundRect,0.237500X-0.300000X-0.237500X0.300000X-0.237500X0.300000X0.237500X-0.300000X0.237500X0*%
%ADD30RoundRect,0.100000X-0.637500X-0.100000X0.637500X-0.100000X0.637500X0.100000X-0.637500X0.100000X0*%
%ADD31RoundRect,0.150000X0.150000X-0.825000X0.150000X0.825000X-0.150000X0.825000X-0.150000X-0.825000X0*%
%ADD32RoundRect,0.100000X0.100000X-0.637500X0.100000X0.637500X-0.100000X0.637500X-0.100000X-0.637500X0*%
%ADD33R,1.450000X0.450000*%
%ADD34RoundRect,0.237500X0.300000X0.237500X-0.300000X0.237500X-0.300000X-0.237500X0.300000X-0.237500X0*%
%ADD35RoundRect,0.225000X-0.375000X0.225000X-0.375000X-0.225000X0.375000X-0.225000X0.375000X0.225000X0*%
%ADD36RoundRect,0.375000X0.375000X-0.625000X0.375000X0.625000X-0.375000X0.625000X-0.375000X-0.625000X0*%
%ADD37RoundRect,0.500000X1.400000X-0.500000X1.400000X0.500000X-1.400000X0.500000X-1.400000X-0.500000X0*%
%ADD38RoundRect,0.375000X-0.375000X0.625000X-0.375000X-0.625000X0.375000X-0.625000X0.375000X0.625000X0*%
%ADD39RoundRect,0.500000X-1.400000X0.500000X-1.400000X-0.500000X1.400000X-0.500000X1.400000X0.500000X0*%
%ADD40RoundRect,0.150000X0.825000X0.150000X-0.825000X0.150000X-0.825000X-0.150000X0.825000X-0.150000X0*%
%ADD41RoundRect,0.250000X-0.625000X0.375000X-0.625000X-0.375000X0.625000X-0.375000X0.625000X0.375000X0*%
%ADD42R,0.450000X1.450000*%
%ADD43RoundRect,0.250000X2.475000X-0.712500X2.475000X0.712500X-2.475000X0.712500X-2.475000X-0.712500X0*%
%ADD44RoundRect,0.200000X-0.200000X-0.275000X0.200000X-0.275000X0.200000X0.275000X-0.200000X0.275000X0*%
%ADD45RoundRect,0.250000X-0.850000X1.300000X-0.850000X-1.300000X0.850000X-1.300000X0.850000X1.300000X0*%
%ADD46RoundRect,0.250000X-0.510000X0.500000X-0.510000X-0.500000X0.510000X-0.500000X0.510000X0.500000X0*%
%ADD47R,8.200000X2.600000*%
%ADD48RoundRect,0.075000X-0.662500X-0.075000X0.662500X-0.075000X0.662500X0.075000X-0.662500X0.075000X0*%
%ADD49RoundRect,0.075000X-0.075000X-0.662500X0.075000X-0.662500X0.075000X0.662500X-0.075000X0.662500X0*%
%ADD50RoundRect,0.075000X0.075000X-0.650000X0.075000X0.650000X-0.075000X0.650000X-0.075000X-0.650000X0*%
%ADD51RoundRect,0.250000X-0.375000X-0.625000X0.375000X-0.625000X0.375000X0.625000X-0.375000X0.625000X0*%
%ADD52RoundRect,0.250000X-0.712500X-2.475000X0.712500X-2.475000X0.712500X2.475000X-0.712500X2.475000X0*%
%ADD53RoundRect,0.250000X0.475000X-0.337500X0.475000X0.337500X-0.475000X0.337500X-0.475000X-0.337500X0*%
%ADD54RoundRect,0.250001X0.374999X-0.354999X0.374999X0.354999X-0.374999X0.354999X-0.374999X-0.354999X0*%
%ADD55RoundRect,0.100000X0.100000X-0.687500X0.100000X0.687500X-0.100000X0.687500X-0.100000X-0.687500X0*%
G04 APERTURE END LIST*
D10*
%TO.C,X1*%
X124400000Y-85150000D03*
X124400000Y-88450000D03*
X126400000Y-88450000D03*
X126400000Y-85150000D03*
%TD*%
D11*
%TO.C,U24*%
X165362500Y-71950000D03*
X165362500Y-72900000D03*
X165362500Y-73850000D03*
X167637500Y-73850000D03*
X167637500Y-72900000D03*
X167637500Y-71950000D03*
%TD*%
D12*
%TO.C,U23*%
X105250000Y-77037500D03*
X106200000Y-77037500D03*
X107150000Y-77037500D03*
X107150000Y-74762500D03*
X106200000Y-74762500D03*
X105250000Y-74762500D03*
%TD*%
D13*
%TO.C,R26*%
X107000000Y-89675000D03*
X107000000Y-91500000D03*
%TD*%
D14*
%TO.C,C59*%
X137700000Y-116362500D03*
X137700000Y-114637500D03*
%TD*%
D15*
%TO.C,R27*%
X105087500Y-88087500D03*
X106912500Y-88087500D03*
%TD*%
D16*
%TO.C,R82*%
X125500000Y-56712500D03*
X125500000Y-54887500D03*
%TD*%
D17*
%TO.C,C6*%
X205100000Y-65037500D03*
X205100000Y-66762500D03*
%TD*%
D18*
%TO.C,D20*%
X149550000Y-60937500D03*
X151450000Y-60937500D03*
X150500000Y-59062500D03*
%TD*%
D19*
%TO.C,D27*%
X91075000Y-57180000D03*
X93125000Y-57180000D03*
%TD*%
D16*
%TO.C,R42*%
X98500000Y-91500000D03*
X98500000Y-89675000D03*
%TD*%
D20*
%TO.C,Q11*%
X134150000Y-133100000D03*
X134150000Y-135400000D03*
D21*
X140450000Y-135400000D03*
D20*
X134150000Y-137700000D03*
%TD*%
D22*
%TO.C,U11*%
X180405000Y-120325000D03*
X179135000Y-120325000D03*
X177865000Y-120325000D03*
X176595000Y-120325000D03*
X176595000Y-125275000D03*
X177865000Y-125275000D03*
X179135000Y-125275000D03*
X180405000Y-125275000D03*
%TD*%
D23*
%TO.C,U6*%
X105362500Y-83950000D03*
X105362500Y-83300000D03*
X105362500Y-82650000D03*
X105362500Y-82000000D03*
X105362500Y-81350000D03*
X105362500Y-80700000D03*
X105362500Y-80050000D03*
X99637500Y-80050000D03*
X99637500Y-80700000D03*
X99637500Y-81350000D03*
X99637500Y-82000000D03*
X99637500Y-82650000D03*
X99637500Y-83300000D03*
X99637500Y-83950000D03*
%TD*%
D17*
%TO.C,C12*%
X191975000Y-93337500D03*
X191975000Y-95062500D03*
%TD*%
D18*
%TO.C,D10*%
X122050000Y-56937500D03*
X123950000Y-56937500D03*
X123000000Y-55062500D03*
%TD*%
D15*
%TO.C,R69*%
X89587500Y-88500000D03*
X91412500Y-88500000D03*
%TD*%
D24*
%TO.C,D3*%
X136037500Y-127100000D03*
X132737500Y-127100000D03*
%TD*%
D25*
%TO.C,D1*%
X207200000Y-66850000D03*
X207200000Y-63550000D03*
%TD*%
D26*
%TO.C,Q6*%
X96050000Y-75500000D03*
X97950000Y-75500000D03*
X97000000Y-72500000D03*
%TD*%
D16*
%TO.C,R28*%
X105000000Y-91500000D03*
X105000000Y-89675000D03*
%TD*%
D27*
%TO.C,U3*%
X189625000Y-96000000D03*
X189625000Y-95500000D03*
X189625000Y-95000000D03*
X189625000Y-94500000D03*
X189625000Y-94000000D03*
X185325000Y-94000000D03*
X185325000Y-94500000D03*
X185325000Y-95000000D03*
X185325000Y-95500000D03*
X185325000Y-96000000D03*
%TD*%
D28*
%TO.C,R14*%
X179887500Y-92000000D03*
X178062500Y-92000000D03*
%TD*%
D18*
%TO.C,D25*%
X155250000Y-64837500D03*
X157150000Y-64837500D03*
X156200000Y-62962500D03*
%TD*%
D29*
%TO.C,R63*%
X129037500Y-79600000D03*
X130762500Y-79600000D03*
%TD*%
D16*
%TO.C,R37*%
X201900000Y-121812500D03*
X201900000Y-119987500D03*
%TD*%
D30*
%TO.C,U18*%
X87637500Y-82025000D03*
X87637500Y-82675000D03*
X87637500Y-83325000D03*
X87637500Y-83975000D03*
X93362500Y-83975000D03*
X93362500Y-83325000D03*
X93362500Y-82675000D03*
X93362500Y-82025000D03*
%TD*%
D16*
%TO.C,R12*%
X143300000Y-56625000D03*
X143300000Y-54800000D03*
%TD*%
D26*
%TO.C,Q15*%
X91600000Y-75500000D03*
X93500000Y-75500000D03*
X92550000Y-72500000D03*
%TD*%
D31*
%TO.C,U16*%
X124070000Y-104375000D03*
X125340000Y-104375000D03*
X126610000Y-104375000D03*
X127880000Y-104375000D03*
X127880000Y-99425000D03*
X126610000Y-99425000D03*
X125340000Y-99425000D03*
X124070000Y-99425000D03*
%TD*%
D15*
%TO.C,R3*%
X105287500Y-69700000D03*
X107112500Y-69700000D03*
%TD*%
D18*
%TO.C,D19*%
X144150000Y-64937500D03*
X146050000Y-64937500D03*
X145100000Y-63062500D03*
%TD*%
D32*
%TO.C,U7*%
X158100000Y-87300000D03*
X158750000Y-87300000D03*
X159400000Y-87300000D03*
X160050000Y-87300000D03*
X160700000Y-87300000D03*
X161350000Y-87300000D03*
X162000000Y-87300000D03*
X162650000Y-87300000D03*
X163300000Y-87300000D03*
X163950000Y-87300000D03*
X164600000Y-87300000D03*
X165250000Y-87300000D03*
X165900000Y-87300000D03*
X166550000Y-87300000D03*
X166550000Y-81575000D03*
X165900000Y-81575000D03*
X165250000Y-81575000D03*
X164600000Y-81575000D03*
X163950000Y-81575000D03*
X163300000Y-81575000D03*
X162650000Y-81575000D03*
X162000000Y-81575000D03*
X161350000Y-81575000D03*
X160700000Y-81575000D03*
X160050000Y-81575000D03*
X159400000Y-81575000D03*
X158750000Y-81575000D03*
X158100000Y-81575000D03*
%TD*%
D28*
%TO.C,R56*%
X142712500Y-116500000D03*
X140887500Y-116500000D03*
%TD*%
D33*
%TO.C,U17*%
X169312500Y-95975000D03*
X169312500Y-95325000D03*
X169312500Y-94675000D03*
X169312500Y-94025000D03*
X164912500Y-94025000D03*
X164912500Y-94675000D03*
X164912500Y-95325000D03*
X164912500Y-95975000D03*
%TD*%
D34*
%TO.C,C56*%
X144250000Y-118500000D03*
X142525000Y-118500000D03*
%TD*%
D26*
%TO.C,Q5*%
X100600000Y-75500000D03*
X102500000Y-75500000D03*
X101550000Y-72500000D03*
%TD*%
D16*
%TO.C,R54*%
X137800000Y-130412500D03*
X137800000Y-128587500D03*
%TD*%
D15*
%TO.C,R34*%
X205087500Y-69900000D03*
X206912500Y-69900000D03*
%TD*%
D23*
%TO.C,U2*%
X127662500Y-97050000D03*
X127662500Y-96400000D03*
X127662500Y-95750000D03*
X127662500Y-95100000D03*
X127662500Y-94450000D03*
X127662500Y-93800000D03*
X127662500Y-93150000D03*
X121937500Y-93150000D03*
X121937500Y-93800000D03*
X121937500Y-94450000D03*
X121937500Y-95100000D03*
X121937500Y-95750000D03*
X121937500Y-96400000D03*
X121937500Y-97050000D03*
%TD*%
D28*
%TO.C,R51*%
X135812500Y-129300000D03*
X133987500Y-129300000D03*
%TD*%
%TO.C,R23*%
X179887500Y-93500000D03*
X178062500Y-93500000D03*
%TD*%
%TO.C,R72*%
X171412500Y-97700000D03*
X169587500Y-97700000D03*
%TD*%
D18*
%TO.C,D8*%
X109950000Y-60937500D03*
X111850000Y-60937500D03*
X110900000Y-59062500D03*
%TD*%
D13*
%TO.C,R32*%
X188700000Y-68787500D03*
X188700000Y-70612500D03*
%TD*%
D29*
%TO.C,R62*%
X125737500Y-79600000D03*
X127462500Y-79600000D03*
%TD*%
D19*
%TO.C,D24*%
X91100000Y-63100000D03*
X93150000Y-63100000D03*
%TD*%
D13*
%TO.C,R44*%
X100500000Y-89675000D03*
X100500000Y-91500000D03*
%TD*%
D35*
%TO.C,D6*%
X172700000Y-122150000D03*
X172700000Y-125450000D03*
%TD*%
D29*
%TO.C,C8*%
X178112500Y-90500000D03*
X179837500Y-90500000D03*
%TD*%
D17*
%TO.C,C1*%
X165700000Y-98637500D03*
X165700000Y-100362500D03*
%TD*%
D36*
%TO.C,Q8*%
X173800000Y-116650000D03*
X176100000Y-116649999D03*
D37*
X176100000Y-110350001D03*
D36*
X178400000Y-116650000D03*
%TD*%
D38*
%TO.C,Q2*%
X186400000Y-72350000D03*
X184100000Y-72350000D03*
D39*
X184100000Y-78650000D03*
D38*
X181800000Y-72350000D03*
%TD*%
D29*
%TO.C,C24*%
X178112500Y-95000000D03*
X179837500Y-95000000D03*
%TD*%
D18*
%TO.C,D16*%
X142350000Y-60937500D03*
X144250000Y-60937500D03*
X143300000Y-59062500D03*
%TD*%
D28*
%TO.C,R38*%
X194912500Y-119100000D03*
X193087500Y-119100000D03*
%TD*%
D40*
%TO.C,U4*%
X163450000Y-102905000D03*
X163450000Y-101635000D03*
X163450000Y-100365000D03*
X163450000Y-99095000D03*
X158500000Y-99095000D03*
X158500000Y-100365000D03*
X158500000Y-101635000D03*
X158500000Y-102905000D03*
%TD*%
D18*
%TO.C,D15*%
X125250000Y-60937500D03*
X127150000Y-60937500D03*
X126200000Y-59062500D03*
%TD*%
D15*
%TO.C,R45*%
X96087500Y-78500000D03*
X97912500Y-78500000D03*
%TD*%
D14*
%TO.C,C17*%
X174900000Y-123862500D03*
X174900000Y-122137500D03*
%TD*%
D18*
%TO.C,D14*%
X137650000Y-60937500D03*
X139550000Y-60937500D03*
X138600000Y-59062500D03*
%TD*%
D29*
%TO.C,R64*%
X132375000Y-79600000D03*
X134100000Y-79600000D03*
%TD*%
D19*
%TO.C,D26*%
X91100000Y-60180000D03*
X93150000Y-60180000D03*
%TD*%
D41*
%TO.C,F4*%
X108500000Y-109100000D03*
X108500000Y-111900000D03*
%TD*%
D42*
%TO.C,U21*%
X186125000Y-106000000D03*
X186775000Y-106000000D03*
X187425000Y-106000000D03*
X188075000Y-106000000D03*
X188075000Y-101600000D03*
X187425000Y-101600000D03*
X186775000Y-101600000D03*
X186125000Y-101600000D03*
%TD*%
D18*
%TO.C,D9*%
X116950000Y-56937500D03*
X118850000Y-56937500D03*
X117900000Y-55062500D03*
%TD*%
D16*
%TO.C,R50*%
X136200000Y-116412500D03*
X136200000Y-114587500D03*
%TD*%
%TO.C,R57*%
X139200000Y-116412500D03*
X139200000Y-114587500D03*
%TD*%
%TO.C,R7*%
X167200000Y-100412500D03*
X167200000Y-98587500D03*
%TD*%
D15*
%TO.C,R18*%
X178062500Y-98000000D03*
X179887500Y-98000000D03*
%TD*%
D18*
%TO.C,D7*%
X111850000Y-56937500D03*
X113750000Y-56937500D03*
X112800000Y-55062500D03*
%TD*%
D28*
%TO.C,R5*%
X187412500Y-92000000D03*
X185587500Y-92000000D03*
%TD*%
D17*
%TO.C,C11*%
X164475000Y-90637500D03*
X164475000Y-92362500D03*
%TD*%
D18*
%TO.C,D13*%
X120250000Y-60937500D03*
X122150000Y-60937500D03*
X121200000Y-59062500D03*
%TD*%
D42*
%TO.C,U19*%
X193875000Y-83000000D03*
X193225000Y-83000000D03*
X192575000Y-83000000D03*
X191925000Y-83000000D03*
X191925000Y-87400000D03*
X192575000Y-87400000D03*
X193225000Y-87400000D03*
X193875000Y-87400000D03*
%TD*%
D43*
%TO.C,F2*%
X105400000Y-130287500D03*
X105400000Y-123512500D03*
%TD*%
D13*
%TO.C,R70*%
X91500000Y-90087500D03*
X91500000Y-91912500D03*
%TD*%
D36*
%TO.C,Q10*%
X181800000Y-116650000D03*
X184100000Y-116649999D03*
D37*
X184100000Y-110350001D03*
D36*
X186400000Y-116650000D03*
%TD*%
D42*
%TO.C,U20*%
X192025000Y-106000000D03*
X192675000Y-106000000D03*
X193325000Y-106000000D03*
X193975000Y-106000000D03*
X193975000Y-101600000D03*
X193325000Y-101600000D03*
X192675000Y-101600000D03*
X192025000Y-101600000D03*
%TD*%
D31*
%TO.C,U8*%
X179695000Y-68675000D03*
X180965000Y-68675000D03*
X182235000Y-68675000D03*
X183505000Y-68675000D03*
X183505000Y-63725000D03*
X182235000Y-63725000D03*
X180965000Y-63725000D03*
X179695000Y-63725000D03*
%TD*%
D28*
%TO.C,R55*%
X146300000Y-116500000D03*
X144475000Y-116500000D03*
%TD*%
D25*
%TO.C,D2*%
X187300000Y-67150000D03*
X187300000Y-63850000D03*
%TD*%
D16*
%TO.C,R68*%
X89500000Y-91912500D03*
X89500000Y-90087500D03*
%TD*%
%TO.C,R53*%
X139300000Y-130412500D03*
X139300000Y-128587500D03*
%TD*%
D22*
%TO.C,U10*%
X200305000Y-120425000D03*
X199035000Y-120425000D03*
X197765000Y-120425000D03*
X196495000Y-120425000D03*
X196495000Y-125375000D03*
X197765000Y-125375000D03*
X199035000Y-125375000D03*
X200305000Y-125375000D03*
%TD*%
D28*
%TO.C,R39*%
X175012500Y-119100000D03*
X173187500Y-119100000D03*
%TD*%
D16*
%TO.C,R40*%
X191300000Y-120712500D03*
X191300000Y-118887500D03*
%TD*%
D28*
%TO.C,R46*%
X100037500Y-60220000D03*
X98212500Y-60220000D03*
%TD*%
D18*
%TO.C,D22*%
X151550000Y-64837500D03*
X153450000Y-64837500D03*
X152500000Y-62962500D03*
%TD*%
%TO.C,D11*%
X115050000Y-60937500D03*
X116950000Y-60937500D03*
X116000000Y-59062500D03*
%TD*%
D15*
%TO.C,R31*%
X185187500Y-70100000D03*
X187012500Y-70100000D03*
%TD*%
D13*
%TO.C,R20*%
X133200000Y-117987500D03*
X133200000Y-119812500D03*
%TD*%
%TO.C,R30*%
X178000000Y-67287500D03*
X178000000Y-69112500D03*
%TD*%
D15*
%TO.C,R47*%
X91587500Y-78500000D03*
X93412500Y-78500000D03*
%TD*%
D14*
%TO.C,C58*%
X134387500Y-124862500D03*
X134387500Y-123137500D03*
%TD*%
D18*
%TO.C,D17*%
X139850000Y-56937500D03*
X141750000Y-56937500D03*
X140800000Y-55062500D03*
%TD*%
D16*
%TO.C,R75*%
X156300000Y-56812500D03*
X156300000Y-54987500D03*
%TD*%
D34*
%TO.C,C57*%
X144250000Y-120000000D03*
X142525000Y-120000000D03*
%TD*%
D29*
%TO.C,R65*%
X135737500Y-79600000D03*
X137462500Y-79600000D03*
%TD*%
D17*
%TO.C,C5*%
X185200000Y-65337500D03*
X185200000Y-67062500D03*
%TD*%
D15*
%TO.C,R41*%
X187087500Y-122100000D03*
X188912500Y-122100000D03*
%TD*%
D44*
%TO.C,R71*%
X118175000Y-93200000D03*
X119825000Y-93200000D03*
%TD*%
D31*
%TO.C,U9*%
X199595000Y-68575000D03*
X200865000Y-68575000D03*
X202135000Y-68575000D03*
X203405000Y-68575000D03*
X203405000Y-63625000D03*
X202135000Y-63625000D03*
X200865000Y-63625000D03*
X199595000Y-63625000D03*
%TD*%
D15*
%TO.C,R43*%
X98587500Y-88087500D03*
X100412500Y-88087500D03*
%TD*%
D38*
%TO.C,Q4*%
X198300000Y-72350000D03*
X196000000Y-72350000D03*
D39*
X196000000Y-78650000D03*
D38*
X193700000Y-72350000D03*
%TD*%
D15*
%TO.C,R29*%
X160062500Y-104500000D03*
X161887500Y-104500000D03*
%TD*%
%TO.C,R58*%
X100587500Y-78500000D03*
X102412500Y-78500000D03*
%TD*%
D45*
%TO.C,D4*%
X143300000Y-132190000D03*
D46*
X143300000Y-135410000D03*
%TD*%
D38*
%TO.C,Q3*%
X206300000Y-72350000D03*
X204000000Y-72350000D03*
D39*
X204000000Y-78650000D03*
D38*
X201700000Y-72350000D03*
%TD*%
%TO.C,Q1*%
X178400000Y-72350000D03*
X176100000Y-72350000D03*
D39*
X176100000Y-78650000D03*
D38*
X173800000Y-72350000D03*
%TD*%
D18*
%TO.C,D21*%
X147800000Y-64900000D03*
X149700000Y-64900000D03*
X148750000Y-63025000D03*
%TD*%
D15*
%TO.C,R17*%
X166287500Y-91000000D03*
X168112500Y-91000000D03*
%TD*%
D14*
%TO.C,C16*%
X194700000Y-124062500D03*
X194700000Y-122337500D03*
%TD*%
D16*
%TO.C,R11*%
X138300000Y-56612500D03*
X138300000Y-54787500D03*
%TD*%
D15*
%TO.C,R6*%
X105275000Y-65410000D03*
X107100000Y-65410000D03*
%TD*%
D47*
%TO.C,L2*%
X128387500Y-130000000D03*
X128387500Y-135600000D03*
%TD*%
D16*
%TO.C,R36*%
X182000000Y-121712500D03*
X182000000Y-119887500D03*
%TD*%
D48*
%TO.C,U1*%
X131837500Y-88500000D03*
X131837500Y-89000000D03*
X131837500Y-89500000D03*
X131837500Y-90000000D03*
X131837500Y-90500000D03*
X131837500Y-91000000D03*
X131837500Y-91500000D03*
X131837500Y-92000000D03*
X131837500Y-92500000D03*
X131837500Y-93000000D03*
X131837500Y-93500000D03*
X131837500Y-94000000D03*
X131837500Y-94500000D03*
X131837500Y-95000000D03*
X131837500Y-95500000D03*
X131837500Y-96000000D03*
X131837500Y-96500000D03*
X131837500Y-97000000D03*
X131837500Y-97500000D03*
X131837500Y-98000000D03*
X131837500Y-98500000D03*
X131837500Y-99000000D03*
X131837500Y-99500000D03*
X131837500Y-100000000D03*
X131837500Y-100500000D03*
D49*
X133500000Y-102162500D03*
X134000000Y-102162500D03*
X134500000Y-102162500D03*
X135000000Y-102162500D03*
X135500000Y-102162500D03*
X136000000Y-102162500D03*
X136500000Y-102162500D03*
X137000000Y-102162500D03*
X137500000Y-102162500D03*
X138000000Y-102162500D03*
X138500000Y-102162500D03*
X139000000Y-102162500D03*
X139500000Y-102162500D03*
X140000000Y-102162500D03*
X140500000Y-102162500D03*
X141000000Y-102162500D03*
X141500000Y-102162500D03*
X142000000Y-102162500D03*
X142500000Y-102162500D03*
X143000000Y-102162500D03*
X143500000Y-102162500D03*
X144000000Y-102162500D03*
X144500000Y-102162500D03*
X145000000Y-102162500D03*
X145500000Y-102162500D03*
D48*
X147162500Y-100500000D03*
X147162500Y-100000000D03*
X147162500Y-99500000D03*
X147162500Y-99000000D03*
X147162500Y-98500000D03*
X147162500Y-98000000D03*
X147162500Y-97500000D03*
X147162500Y-97000000D03*
X147162500Y-96500000D03*
X147162500Y-96000000D03*
X147162500Y-95500000D03*
X147162500Y-95000000D03*
X147162500Y-94500000D03*
X147162500Y-94000000D03*
X147162500Y-93500000D03*
X147162500Y-93000000D03*
X147162500Y-92500000D03*
X147162500Y-92000000D03*
X147162500Y-91500000D03*
X147162500Y-91000000D03*
X147162500Y-90500000D03*
X147162500Y-90000000D03*
X147162500Y-89500000D03*
X147162500Y-89000000D03*
X147162500Y-88500000D03*
D49*
X145500000Y-86837500D03*
X145000000Y-86837500D03*
X144500000Y-86837500D03*
X144000000Y-86837500D03*
X143500000Y-86837500D03*
X143000000Y-86837500D03*
X142500000Y-86837500D03*
X142000000Y-86837500D03*
X141500000Y-86837500D03*
X141000000Y-86837500D03*
X140500000Y-86837500D03*
X140000000Y-86837500D03*
X139500000Y-86837500D03*
X139000000Y-86837500D03*
X138500000Y-86837500D03*
X138000000Y-86837500D03*
X137500000Y-86837500D03*
X137000000Y-86837500D03*
X136500000Y-86837500D03*
X136000000Y-86837500D03*
X135500000Y-86837500D03*
X135000000Y-86837500D03*
X134500000Y-86837500D03*
X134000000Y-86837500D03*
X133500000Y-86837500D03*
%TD*%
D18*
%TO.C,D18*%
X145950000Y-60937500D03*
X147850000Y-60937500D03*
X146900000Y-59062500D03*
%TD*%
D16*
%TO.C,R73*%
X149500000Y-57012500D03*
X149500000Y-55187500D03*
%TD*%
D28*
%TO.C,R8*%
X183912500Y-92000000D03*
X182087500Y-92000000D03*
%TD*%
D42*
%TO.C,U22*%
X187975000Y-83000000D03*
X187325000Y-83000000D03*
X186675000Y-83000000D03*
X186025000Y-83000000D03*
X186025000Y-87400000D03*
X186675000Y-87400000D03*
X187325000Y-87400000D03*
X187975000Y-87400000D03*
%TD*%
D50*
%TO.C,U5*%
X158400000Y-95700000D03*
X158900000Y-95700000D03*
X159400000Y-95700000D03*
X159900000Y-95700000D03*
X160400000Y-95700000D03*
X160400000Y-91300000D03*
X159900000Y-91300000D03*
X159400000Y-91300000D03*
X158900000Y-91300000D03*
X158400000Y-91300000D03*
%TD*%
D29*
%TO.C,C61*%
X141025000Y-127000000D03*
X142750000Y-127000000D03*
%TD*%
D35*
%TO.C,D5*%
X192600000Y-122250000D03*
X192600000Y-125550000D03*
%TD*%
D15*
%TO.C,R16*%
X166287500Y-92500000D03*
X168112500Y-92500000D03*
%TD*%
D18*
%TO.C,D23*%
X153150000Y-60937500D03*
X155050000Y-60937500D03*
X154100000Y-59062500D03*
%TD*%
D16*
%TO.C,R74*%
X153800000Y-56912500D03*
X153800000Y-55087500D03*
%TD*%
D51*
%TO.C,F3*%
X108100000Y-97462500D03*
X110900000Y-97462500D03*
%TD*%
D29*
%TO.C,R49*%
X142525000Y-121500000D03*
X144250000Y-121500000D03*
%TD*%
D36*
%TO.C,Q7*%
X193700000Y-116650000D03*
X196000000Y-116649999D03*
D37*
X196000000Y-110350001D03*
D36*
X198300000Y-116650000D03*
%TD*%
D28*
%TO.C,R67*%
X100012500Y-57180000D03*
X98187500Y-57180000D03*
%TD*%
D13*
%TO.C,R33*%
X197900000Y-67187500D03*
X197900000Y-69012500D03*
%TD*%
D52*
%TO.C,F1*%
X146212500Y-132200000D03*
X152987500Y-132200000D03*
%TD*%
D15*
%TO.C,R4*%
X105300000Y-67500000D03*
X107125000Y-67500000D03*
%TD*%
D13*
%TO.C,R25*%
X169600000Y-82987500D03*
X169600000Y-84812500D03*
%TD*%
D53*
%TO.C,C15*%
X156090000Y-134300000D03*
X156090000Y-132225000D03*
%TD*%
%TO.C,C62*%
X159100000Y-134300000D03*
X159100000Y-132225000D03*
%TD*%
D54*
%TO.C,U15*%
X137612500Y-122450000D03*
X139162500Y-122450000D03*
X137612500Y-120950000D03*
X139162500Y-120950000D03*
D55*
X136437500Y-124562500D03*
X137087500Y-124562500D03*
X137737500Y-124562500D03*
X138387500Y-124562500D03*
X139037500Y-124562500D03*
X139687500Y-124562500D03*
X140337500Y-124562500D03*
X140337500Y-118837500D03*
X139687500Y-118837500D03*
X139037500Y-118837500D03*
X138387500Y-118837500D03*
X137737500Y-118837500D03*
X137087500Y-118837500D03*
X136437500Y-118837500D03*
%TD*%
D28*
%TO.C,R35*%
X193412500Y-68000000D03*
X191587500Y-68000000D03*
%TD*%
D13*
%TO.C,R52*%
X140887500Y-128587500D03*
X140887500Y-130412500D03*
%TD*%
D28*
%TO.C,R59*%
X100037500Y-63180000D03*
X98212500Y-63180000D03*
%TD*%
D17*
%TO.C,C63*%
X161500000Y-132237500D03*
X161500000Y-133962500D03*
%TD*%
D16*
%TO.C,R13*%
X147700000Y-57012500D03*
X147700000Y-55187500D03*
%TD*%
D18*
%TO.C,D12*%
X127150000Y-56937500D03*
X129050000Y-56937500D03*
X128100000Y-55062500D03*
%TD*%
D29*
%TO.C,C10*%
X178112500Y-96500000D03*
X179837500Y-96500000D03*
%TD*%
D13*
%TO.C,R48*%
X134700000Y-114587500D03*
X134700000Y-116412500D03*
%TD*%
D36*
%TO.C,Q9*%
X201700000Y-116650000D03*
X204000000Y-116649999D03*
D37*
X204000000Y-110350001D03*
D36*
X206300000Y-116650000D03*
%TD*%
M02*
