%TF.GenerationSoftware,KiCad,Pcbnew,8.0.1*%
%TF.CreationDate,2024-10-12T16:48:09+02:00*%
%TF.ProjectId,ultrasonic_V3_HW,756c7472-6173-46f6-9e69-635f56335f48,rev?*%
%TF.SameCoordinates,Original*%
%TF.FileFunction,Copper,L4,Bot*%
%TF.FilePolarity,Positive*%
%FSLAX46Y46*%
G04 Gerber Fmt 4.6, Leading zero omitted, Abs format (unit mm)*
G04 Created by KiCad (PCBNEW 8.0.1) date 2024-10-12 16:48:09*
%MOMM*%
%LPD*%
G01*
G04 APERTURE LIST*
G04 Aperture macros list*
%AMRoundRect*
0 Rectangle with rounded corners*
0 $1 Rounding radius*
0 $2 $3 $4 $5 $6 $7 $8 $9 X,Y pos of 4 corners*
0 Add a 4 corners polygon primitive as box body*
4,1,4,$2,$3,$4,$5,$6,$7,$8,$9,$2,$3,0*
0 Add four circle primitives for the rounded corners*
1,1,$1+$1,$2,$3*
1,1,$1+$1,$4,$5*
1,1,$1+$1,$6,$7*
1,1,$1+$1,$8,$9*
0 Add four rect primitives between the rounded corners*
20,1,$1+$1,$2,$3,$4,$5,0*
20,1,$1+$1,$4,$5,$6,$7,0*
20,1,$1+$1,$6,$7,$8,$9,0*
20,1,$1+$1,$8,$9,$2,$3,0*%
G04 Aperture macros list end*
%TA.AperFunction,SMDPad,CuDef*%
%ADD10RoundRect,0.237500X-0.300000X-0.237500X0.300000X-0.237500X0.300000X0.237500X-0.300000X0.237500X0*%
%TD*%
%TA.AperFunction,ComponentPad*%
%ADD11C,3.600000*%
%TD*%
%TA.AperFunction,ConnectorPad*%
%ADD12C,5.600000*%
%TD*%
%TA.AperFunction,ComponentPad*%
%ADD13R,1.700000X1.700000*%
%TD*%
%TA.AperFunction,ComponentPad*%
%ADD14O,1.700000X1.700000*%
%TD*%
%TA.AperFunction,ComponentPad*%
%ADD15R,2.600000X2.600000*%
%TD*%
%TA.AperFunction,ComponentPad*%
%ADD16C,2.600000*%
%TD*%
%TA.AperFunction,ComponentPad*%
%ADD17C,2.050000*%
%TD*%
%TA.AperFunction,ComponentPad*%
%ADD18C,2.250000*%
%TD*%
%TA.AperFunction,ComponentPad*%
%ADD19R,1.800000X1.800000*%
%TD*%
%TA.AperFunction,ComponentPad*%
%ADD20C,1.800000*%
%TD*%
%TA.AperFunction,HeatsinkPad*%
%ADD21C,0.600000*%
%TD*%
%TA.AperFunction,HeatsinkPad*%
%ADD22R,5.800000X3.200000*%
%TD*%
%TA.AperFunction,ComponentPad*%
%ADD23C,1.524000*%
%TD*%
%TA.AperFunction,ComponentPad*%
%ADD24C,3.352800*%
%TD*%
%TA.AperFunction,SMDPad,CuDef*%
%ADD25RoundRect,0.250000X-0.475000X0.337500X-0.475000X-0.337500X0.475000X-0.337500X0.475000X0.337500X0*%
%TD*%
%TA.AperFunction,SMDPad,CuDef*%
%ADD26RoundRect,0.250000X-0.625000X0.400000X-0.625000X-0.400000X0.625000X-0.400000X0.625000X0.400000X0*%
%TD*%
%TA.AperFunction,SMDPad,CuDef*%
%ADD27RoundRect,0.237500X0.300000X0.237500X-0.300000X0.237500X-0.300000X-0.237500X0.300000X-0.237500X0*%
%TD*%
%TA.AperFunction,SMDPad,CuDef*%
%ADD28RoundRect,0.237500X-0.237500X0.300000X-0.237500X-0.300000X0.237500X-0.300000X0.237500X0.300000X0*%
%TD*%
%TA.AperFunction,SMDPad,CuDef*%
%ADD29RoundRect,0.250000X0.337500X0.475000X-0.337500X0.475000X-0.337500X-0.475000X0.337500X-0.475000X0*%
%TD*%
%TA.AperFunction,SMDPad,CuDef*%
%ADD30RoundRect,0.237500X-0.237500X0.250000X-0.237500X-0.250000X0.237500X-0.250000X0.237500X0.250000X0*%
%TD*%
%TA.AperFunction,SMDPad,CuDef*%
%ADD31RoundRect,0.237500X0.237500X-0.300000X0.237500X0.300000X-0.237500X0.300000X-0.237500X-0.300000X0*%
%TD*%
%TA.AperFunction,SMDPad,CuDef*%
%ADD32RoundRect,0.250000X-0.337500X-0.475000X0.337500X-0.475000X0.337500X0.475000X-0.337500X0.475000X0*%
%TD*%
%TA.AperFunction,SMDPad,CuDef*%
%ADD33RoundRect,0.250000X0.475000X-0.337500X0.475000X0.337500X-0.475000X0.337500X-0.475000X-0.337500X0*%
%TD*%
%TA.AperFunction,SMDPad,CuDef*%
%ADD34RoundRect,0.237500X0.237500X-0.250000X0.237500X0.250000X-0.237500X0.250000X-0.237500X-0.250000X0*%
%TD*%
%TA.AperFunction,SMDPad,CuDef*%
%ADD35RoundRect,0.250000X0.625000X-0.400000X0.625000X0.400000X-0.625000X0.400000X-0.625000X-0.400000X0*%
%TD*%
%TA.AperFunction,SMDPad,CuDef*%
%ADD36RoundRect,0.225000X0.250000X-0.225000X0.250000X0.225000X-0.250000X0.225000X-0.250000X-0.225000X0*%
%TD*%
%TA.AperFunction,SMDPad,CuDef*%
%ADD37RoundRect,0.200000X-0.200000X-0.275000X0.200000X-0.275000X0.200000X0.275000X-0.200000X0.275000X0*%
%TD*%
%TA.AperFunction,SMDPad,CuDef*%
%ADD38RoundRect,0.200000X0.200000X0.275000X-0.200000X0.275000X-0.200000X-0.275000X0.200000X-0.275000X0*%
%TD*%
%TA.AperFunction,ViaPad*%
%ADD39C,0.600000*%
%TD*%
%TA.AperFunction,Conductor*%
%ADD40C,0.200000*%
%TD*%
%TA.AperFunction,Conductor*%
%ADD41C,1.000000*%
%TD*%
%TA.AperFunction,Conductor*%
%ADD42C,0.600000*%
%TD*%
%TA.AperFunction,Conductor*%
%ADD43C,1.600000*%
%TD*%
G04 APERTURE END LIST*
D10*
%TO.P,C89,1*%
%TO.N,/PowerManagement/P2V5_REF*%
X105337500Y-77300000D03*
%TO.P,C89,2*%
%TO.N,GND*%
X107062500Y-77300000D03*
%TD*%
%TO.P,C88,1*%
%TO.N,/P3V3*%
X105237500Y-74800000D03*
%TO.P,C88,2*%
%TO.N,GND*%
X106962500Y-74800000D03*
%TD*%
D11*
%TO.P,H3,1,1*%
%TO.N,GND*%
X209500000Y-139500000D03*
D12*
X209500000Y-139500000D03*
%TD*%
D13*
%TO.P,J4,1,Pin_1*%
%TO.N,/JTAG_TMS*%
X115000000Y-75600000D03*
D14*
%TO.P,J4,2,Pin_2*%
%TO.N,/JTAG_TCK*%
X115000000Y-78140000D03*
%TO.P,J4,3,Pin_3*%
%TO.N,/JTAG_TDI*%
X115000000Y-80680000D03*
%TO.P,J4,4,Pin_4*%
%TO.N,/JTAG_TDO*%
X115000000Y-83220000D03*
%TO.P,J4,5,Pin_5*%
%TO.N,unconnected-(J4-Pin_5-Pad5)*%
X115000000Y-85760000D03*
%TO.P,J4,6,Pin_6*%
%TO.N,/P3V3*%
X115000000Y-88300000D03*
%TO.P,J4,7,Pin_7*%
%TO.N,GND*%
X115000000Y-90840000D03*
%TD*%
D11*
%TO.P,H2,1,1*%
%TO.N,GND*%
X89500000Y-139500000D03*
D12*
X89500000Y-139500000D03*
%TD*%
D15*
%TO.P,J5,1,Pin_1*%
%TO.N,/PowerManagement/P15V-20V_5S_UNREGULATED*%
X93095000Y-124355000D03*
D16*
%TO.P,J5,2,Pin_2*%
%TO.N,GND*%
X93095000Y-129435000D03*
%TD*%
D17*
%TO.P,J7,1,In*%
%TO.N,Net-(J7-In)*%
X180100000Y-104500000D03*
D18*
%TO.P,J7,2,Ext*%
%TO.N,GND*%
X177560000Y-107040000D03*
X182640000Y-107040000D03*
X177560000Y-101960000D03*
X182640000Y-101960000D03*
%TD*%
D11*
%TO.P,H1,1,1*%
%TO.N,GND*%
X89500000Y-49500000D03*
D12*
X89500000Y-49500000D03*
%TD*%
D17*
%TO.P,J2,1,In*%
%TO.N,Net-(J2-In)*%
X200000000Y-84500000D03*
D18*
%TO.P,J2,2,Ext*%
%TO.N,GND*%
X202540000Y-81960000D03*
X197460000Y-81960000D03*
X202540000Y-87040000D03*
X197460000Y-87040000D03*
%TD*%
D17*
%TO.P,J6,1,In*%
%TO.N,Net-(J6-In)*%
X180100000Y-84500000D03*
D18*
%TO.P,J6,2,Ext*%
%TO.N,GND*%
X182640000Y-81960000D03*
X177560000Y-81960000D03*
X182640000Y-87040000D03*
X177560000Y-87040000D03*
%TD*%
D17*
%TO.P,J3,1,In*%
%TO.N,Net-(J3-In)*%
X200000000Y-104500000D03*
D18*
%TO.P,J3,2,Ext*%
%TO.N,GND*%
X197460000Y-107040000D03*
X202540000Y-107040000D03*
X197460000Y-101960000D03*
X202540000Y-101960000D03*
%TD*%
D11*
%TO.P,H4,1,1*%
%TO.N,GND*%
X209500000Y-49500000D03*
D12*
X209500000Y-49500000D03*
%TD*%
D19*
%TO.P,U12,1,IN*%
%TO.N,/PowerManagement/P15V-20V_5S_FUSED*%
X91520000Y-102512500D03*
D20*
%TO.P,U12,2,GND*%
%TO.N,GND*%
X91520000Y-99972500D03*
%TO.P,U12,3,OUT*%
%TO.N,Net-(U12-OUT)*%
X91520000Y-97432500D03*
%TD*%
D21*
%TO.P,U15,15,EP*%
%TO.N,GND*%
X135787500Y-123000000D03*
X137087500Y-123000000D03*
X138387500Y-123000000D03*
X139687500Y-123000000D03*
X140987500Y-123000000D03*
X135787500Y-121700000D03*
X137087500Y-121700000D03*
X138387500Y-121700000D03*
D22*
X138387500Y-121700000D03*
D21*
X139687500Y-121700000D03*
X140987500Y-121700000D03*
X135787500Y-120400000D03*
X137087500Y-120400000D03*
X138387500Y-120400000D03*
X139687500Y-120400000D03*
X140987500Y-120400000D03*
%TD*%
D19*
%TO.P,U13,1,IN*%
%TO.N,/PowerManagement/P15V-20V_5S_FUSED*%
X91520000Y-115050000D03*
D20*
%TO.P,U13,2,GND*%
%TO.N,GND*%
X91520000Y-112510000D03*
%TO.P,U13,3,OUT*%
%TO.N,Net-(U13-OUT)*%
X91520000Y-109970000D03*
%TD*%
D23*
%TO.P,J1,1,Pin_1*%
%TO.N,/LVDS_SCLK_N*%
X112840000Y-50500000D03*
%TO.P,J1,2,Pin_2*%
%TO.N,unconnected-(J1A-Pin_2-Pad2)*%
X115380000Y-50500000D03*
%TO.P,J1,3,Pin_3*%
%TO.N,/LVDS_CS_N*%
X117920000Y-50500000D03*
%TO.P,J1,4,Pin_4*%
%TO.N,unconnected-(J1A-Pin_4-Pad4)*%
X120460000Y-50500000D03*
%TO.P,J1,5,Pin_5*%
%TO.N,/LVDS_MISO_N*%
X123000000Y-50500000D03*
%TO.P,J1,6,Pin_6*%
%TO.N,unconnected-(J1A-Pin_6-Pad6)*%
X125540000Y-50500000D03*
%TO.P,J1,7,Pin_7*%
%TO.N,/LVDS_MOSI_N*%
X128080000Y-50500000D03*
%TO.P,J1,8,Pin_8*%
%TO.N,unconnected-(J1A-Pin_8-Pad8)*%
X130620000Y-50500000D03*
%TO.P,J1,9,Pin_9*%
%TO.N,GND*%
X133160000Y-50500000D03*
%TO.P,J1,10,Pin_10*%
%TO.N,unconnected-(J1A-Pin_10-Pad10)*%
X135700000Y-50500000D03*
%TO.P,J1,11,Pin_11*%
%TO.N,GND*%
X138240000Y-50500000D03*
%TO.P,J1,12,Pin_12*%
%TO.N,/CNTRL_MISO*%
X140780000Y-50500000D03*
%TO.P,J1,13,Pin_13*%
%TO.N,unconnected-(J1A-Pin_13-Pad13)*%
X143320000Y-50500000D03*
%TO.P,J1,14,Pin_14*%
%TO.N,/CNTRL_GPIO5*%
X145860000Y-50500000D03*
%TO.P,J1,15,Pin_15*%
%TO.N,/CNTRL_GPIO4*%
X148400000Y-50500000D03*
%TO.P,J1,16,Pin_16*%
%TO.N,/CNTRL_GPIO2*%
X150940000Y-50500000D03*
%TO.P,J1,17,Pin_17*%
%TO.N,GND*%
X153480000Y-50500000D03*
%TO.P,J1,18,Pin_18*%
%TO.N,/P3V3*%
X156020000Y-50500000D03*
%TO.P,J1,19,Pin_19*%
%TO.N,GND*%
X158560000Y-50500000D03*
%TO.P,J1,20,Pin_20*%
X161100000Y-50500000D03*
%TO.P,J1,21,Pin_21*%
X161100000Y-47960000D03*
%TO.P,J1,22,Pin_22*%
X158560000Y-47960000D03*
%TO.P,J1,23,Pin_23*%
%TO.N,Net-(J1A-Pin_23)*%
X156020000Y-47960000D03*
%TO.P,J1,24,Pin_24*%
%TO.N,Net-(J1A-Pin_24)*%
X153480000Y-47960000D03*
%TO.P,J1,25,Pin_25*%
%TO.N,Net-(J1A-Pin_25)*%
X150940000Y-47960000D03*
%TO.P,J1,26,Pin_26*%
%TO.N,Net-(J1A-Pin_26)*%
X148400000Y-47960000D03*
%TO.P,J1,27,Pin_27*%
%TO.N,GND*%
X145860000Y-47960000D03*
%TO.P,J1,28,Pin_28*%
%TO.N,Net-(J1A-Pin_28)*%
X143320000Y-47960000D03*
%TO.P,J1,29,Pin_29*%
%TO.N,GND*%
X140780000Y-47960000D03*
%TO.P,J1,30,Pin_30*%
%TO.N,Net-(J1A-Pin_30)*%
X138240000Y-47960000D03*
%TO.P,J1,31,Pin_31*%
%TO.N,GND*%
X135700000Y-47960000D03*
%TO.P,J1,32,Pin_32*%
%TO.N,unconnected-(J1A-Pin_32-Pad32)*%
X133160000Y-47960000D03*
%TO.P,J1,33,Pin_33*%
%TO.N,unconnected-(J1A-Pin_33-Pad33)*%
X130620000Y-47960000D03*
%TO.P,J1,34,Pin_34*%
%TO.N,Net-(J1A-Pin_34)*%
X128080000Y-47960000D03*
%TO.P,J1,35,Pin_35*%
%TO.N,unconnected-(J1A-Pin_35-Pad35)*%
X125540000Y-47960000D03*
%TO.P,J1,36,Pin_36*%
%TO.N,/LVDS_MISO_P*%
X123000000Y-47960000D03*
%TO.P,J1,37,Pin_37*%
%TO.N,unconnected-(J1A-Pin_37-Pad37)*%
X120460000Y-47960000D03*
%TO.P,J1,38,Pin_38*%
%TO.N,/LVDS_CS_P*%
X117920000Y-47960000D03*
%TO.P,J1,39,Pin_39*%
%TO.N,unconnected-(J1A-Pin_39-Pad39)*%
X115380000Y-47960000D03*
%TO.P,J1,40,Pin_40*%
%TO.N,/LVDS_SCLK_P*%
X112840000Y-47960000D03*
D24*
%TO.P,J1,41,MOUNT_HOLE*%
%TO.N,GND*%
X103708700Y-49230000D03*
%TO.P,J1,42,MOUNT_HOLE*%
X170231300Y-49230000D03*
%TD*%
D25*
%TO.P,C31,1*%
%TO.N,GND*%
X97000000Y-113462500D03*
%TO.P,C31,2*%
%TO.N,/PowerManagement/P15V-20V_5S_FUSED*%
X97000000Y-115537500D03*
%TD*%
D26*
%TO.P,R1,1*%
%TO.N,Net-(Q7-D)*%
X195100000Y-110350000D03*
%TO.P,R1,2*%
%TO.N,/PHV*%
X195100000Y-113450000D03*
%TD*%
D27*
%TO.P,C36,1*%
%TO.N,Net-(U2-VREG)*%
X121962500Y-96400000D03*
%TO.P,C36,2*%
%TO.N,GND*%
X120237500Y-96400000D03*
%TD*%
%TO.P,C79,1*%
%TO.N,/P3V3*%
X93362500Y-82000000D03*
%TO.P,C79,2*%
%TO.N,GND*%
X91637500Y-82000000D03*
%TD*%
D28*
%TO.P,C23,1*%
%TO.N,GND*%
X159100000Y-83237500D03*
%TO.P,C23,2*%
%TO.N,Net-(U7-VCOM)*%
X159100000Y-84962500D03*
%TD*%
D29*
%TO.P,C60,1*%
%TO.N,GND*%
X139425000Y-124800000D03*
%TO.P,C60,2*%
%TO.N,/P3V3*%
X137350000Y-124800000D03*
%TD*%
D30*
%TO.P,R24,1*%
%TO.N,Net-(U7-IRS)*%
X160700000Y-89487500D03*
%TO.P,R24,2*%
%TO.N,GND*%
X160700000Y-91312500D03*
%TD*%
D28*
%TO.P,R60,1*%
%TO.N,/P3V3*%
X151500000Y-55237500D03*
%TO.P,R60,2*%
%TO.N,/CNTRL_GPIO2*%
X151500000Y-56962500D03*
%TD*%
D10*
%TO.P,C14,1*%
%TO.N,/P3V3*%
X186637500Y-94200000D03*
%TO.P,C14,2*%
%TO.N,GND*%
X188362500Y-94200000D03*
%TD*%
D31*
%TO.P,C86,1*%
%TO.N,/PHV*%
X186700000Y-75462500D03*
%TO.P,C86,2*%
%TO.N,GND*%
X186700000Y-73737500D03*
%TD*%
%TO.P,C30,1*%
%TO.N,/PowerManagement/P15V-20V_5S_FUSED*%
X94000000Y-115225000D03*
%TO.P,C30,2*%
%TO.N,GND*%
X94000000Y-113500000D03*
%TD*%
%TO.P,C40,1*%
%TO.N,GND*%
X148900000Y-89762500D03*
%TO.P,C40,2*%
%TO.N,/P3V3*%
X148900000Y-88037500D03*
%TD*%
D10*
%TO.P,C81,1*%
%TO.N,/PHV*%
X191337500Y-80900000D03*
%TO.P,C81,2*%
%TO.N,GND*%
X193062500Y-80900000D03*
%TD*%
%TO.P,C9,1*%
%TO.N,/P3V3*%
X164750000Y-95500000D03*
%TO.P,C9,2*%
%TO.N,GND*%
X166475000Y-95500000D03*
%TD*%
D32*
%TO.P,C53,1*%
%TO.N,GND*%
X162962500Y-72300000D03*
%TO.P,C53,2*%
%TO.N,/P3V_REF*%
X165037500Y-72300000D03*
%TD*%
D33*
%TO.P,C32,1*%
%TO.N,GND*%
X97000000Y-111737500D03*
%TO.P,C32,2*%
%TO.N,Net-(U13-OUT)*%
X97000000Y-109662500D03*
%TD*%
D30*
%TO.P,R15,1*%
%TO.N,Net-(U7-IRS)*%
X162200000Y-89487500D03*
%TO.P,R15,2*%
%TO.N,/P3V3*%
X162200000Y-91312500D03*
%TD*%
D28*
%TO.P,C72,1*%
%TO.N,/P12V*%
X201400000Y-118737500D03*
%TO.P,C72,2*%
%TO.N,GND*%
X201400000Y-120462500D03*
%TD*%
%TO.P,C33,1*%
%TO.N,Net-(U13-OUT)*%
X94000000Y-110000000D03*
%TO.P,C33,2*%
%TO.N,GND*%
X94000000Y-111725000D03*
%TD*%
D25*
%TO.P,C65,1*%
%TO.N,GND*%
X208800000Y-73262500D03*
%TO.P,C65,2*%
%TO.N,/PHV*%
X208800000Y-75337500D03*
%TD*%
%TO.P,C28,1*%
%TO.N,GND*%
X96000000Y-100962500D03*
%TO.P,C28,2*%
%TO.N,/PowerManagement/P15V-20V_5S_FUSED*%
X96000000Y-103037500D03*
%TD*%
D27*
%TO.P,C19,1*%
%TO.N,GND*%
X166762500Y-90300000D03*
%TO.P,C19,2*%
%TO.N,/P3V3*%
X165037500Y-90300000D03*
%TD*%
D31*
%TO.P,C39,1*%
%TO.N,GND*%
X133600000Y-88362500D03*
%TO.P,C39,2*%
%TO.N,/P3V3*%
X133600000Y-86637500D03*
%TD*%
D26*
%TO.P,R10,1*%
%TO.N,Net-(Q8-D)*%
X175400000Y-110350000D03*
%TO.P,R10,2*%
%TO.N,/PHV*%
X175400000Y-113450000D03*
%TD*%
D33*
%TO.P,C71,1*%
%TO.N,GND*%
X183800000Y-120737500D03*
%TO.P,C71,2*%
%TO.N,/P12V*%
X183800000Y-118662500D03*
%TD*%
D27*
%TO.P,C52,1*%
%TO.N,GND*%
X133025000Y-99000000D03*
%TO.P,C52,2*%
%TO.N,/P3V3*%
X131300000Y-99000000D03*
%TD*%
%TO.P,C34,1*%
%TO.N,/P3V3*%
X121962500Y-97900000D03*
%TO.P,C34,2*%
%TO.N,GND*%
X120237500Y-97900000D03*
%TD*%
D31*
%TO.P,C37,1*%
%TO.N,GND*%
X135100000Y-88362500D03*
%TO.P,C37,2*%
%TO.N,/P3V3*%
X135100000Y-86637500D03*
%TD*%
D25*
%TO.P,C64,1*%
%TO.N,GND*%
X188500000Y-73362500D03*
%TO.P,C64,2*%
%TO.N,/PHV*%
X188500000Y-75437500D03*
%TD*%
D34*
%TO.P,R21,1*%
%TO.N,Net-(U17A-+)*%
X170600000Y-94112500D03*
%TO.P,R21,2*%
%TO.N,GND*%
X170600000Y-92287500D03*
%TD*%
D31*
%TO.P,C66,1*%
%TO.N,/PHV*%
X207000000Y-75262500D03*
%TO.P,C66,2*%
%TO.N,GND*%
X207000000Y-73537500D03*
%TD*%
D30*
%TO.P,R19,1*%
%TO.N,/P3V_REF*%
X169100000Y-92287500D03*
%TO.P,R19,2*%
%TO.N,Net-(U17A-+)*%
X169100000Y-94112500D03*
%TD*%
D33*
%TO.P,C77,1*%
%TO.N,GND*%
X203100000Y-72237500D03*
%TO.P,C77,2*%
%TO.N,/P12V*%
X203100000Y-70162500D03*
%TD*%
D28*
%TO.P,C38,1*%
%TO.N,GND*%
X146500000Y-101837500D03*
%TO.P,C38,2*%
%TO.N,/P3V3*%
X146500000Y-103562500D03*
%TD*%
%TO.P,C42,1*%
%TO.N,GND*%
X147200000Y-97337500D03*
%TO.P,C42,2*%
%TO.N,/P3V3*%
X147200000Y-99062500D03*
%TD*%
D33*
%TO.P,C73,1*%
%TO.N,GND*%
X203300000Y-120737500D03*
%TO.P,C73,2*%
%TO.N,/P12V*%
X203300000Y-118662500D03*
%TD*%
D10*
%TO.P,C83,2*%
%TO.N,GND*%
X187162500Y-81700000D03*
%TO.P,C83,1*%
%TO.N,/PHV*%
X185437500Y-81700000D03*
%TD*%
D35*
%TO.P,R2,1*%
%TO.N,Net-(Q3-D)*%
X204900000Y-78650000D03*
%TO.P,R2,2*%
%TO.N,/PHV*%
X204900000Y-75550000D03*
%TD*%
D27*
%TO.P,C54,1*%
%TO.N,/P3V_REF*%
X165062500Y-75600000D03*
%TO.P,C54,2*%
%TO.N,GND*%
X163337500Y-75600000D03*
%TD*%
D28*
%TO.P,C85,1*%
%TO.N,/P3V3*%
X167600000Y-72037500D03*
%TO.P,C85,2*%
%TO.N,GND*%
X167600000Y-73762500D03*
%TD*%
D36*
%TO.P,C4,1*%
%TO.N,GND*%
X128900000Y-86875000D03*
%TO.P,C4,2*%
%TO.N,/P3V3*%
X128900000Y-85325000D03*
%TD*%
D28*
%TO.P,C43,1*%
%TO.N,GND*%
X133800000Y-100737500D03*
%TO.P,C43,2*%
%TO.N,/P3V3*%
X133800000Y-102462500D03*
%TD*%
D27*
%TO.P,C51,1*%
%TO.N,GND*%
X135762500Y-93500000D03*
%TO.P,C51,2*%
%TO.N,/P3V3*%
X134037500Y-93500000D03*
%TD*%
D34*
%TO.P,R80,1*%
%TO.N,/CNTRL_SCLK*%
X138300000Y-56612500D03*
%TO.P,R80,2*%
%TO.N,GND*%
X138300000Y-54787500D03*
%TD*%
D35*
%TO.P,R9,1*%
%TO.N,Net-(Q2-D)*%
X184800000Y-78650000D03*
%TO.P,R9,2*%
%TO.N,/PHV*%
X184800000Y-75550000D03*
%TD*%
D27*
%TO.P,C84,1*%
%TO.N,/PHV*%
X188562500Y-107200000D03*
%TO.P,C84,2*%
%TO.N,GND*%
X186837500Y-107200000D03*
%TD*%
D28*
%TO.P,C46,1*%
%TO.N,GND*%
X148100000Y-101837500D03*
%TO.P,C46,2*%
%TO.N,/P3V3*%
X148100000Y-103562500D03*
%TD*%
D31*
%TO.P,C7,1*%
%TO.N,GND*%
X160200000Y-94962500D03*
%TO.P,C7,2*%
%TO.N,/P3V3*%
X160200000Y-93237500D03*
%TD*%
D27*
%TO.P,C82,1*%
%TO.N,/PHV*%
X194562500Y-107200000D03*
%TO.P,C82,2*%
%TO.N,GND*%
X192837500Y-107200000D03*
%TD*%
%TO.P,C49,1*%
%TO.N,GND*%
X133025000Y-97500000D03*
%TO.P,C49,2*%
%TO.N,/P3V3*%
X131300000Y-97500000D03*
%TD*%
D31*
%TO.P,C29,1*%
%TO.N,/PowerManagement/P15V-20V_5S_FUSED*%
X94000000Y-102562500D03*
%TO.P,C29,2*%
%TO.N,GND*%
X94000000Y-100837500D03*
%TD*%
%TO.P,C41,1*%
%TO.N,GND*%
X147200000Y-89800000D03*
%TO.P,C41,2*%
%TO.N,/P3V3*%
X147200000Y-88075000D03*
%TD*%
D27*
%TO.P,C25,1*%
%TO.N,GND*%
X163162500Y-81500000D03*
%TO.P,C25,2*%
%TO.N,/P3V3*%
X161437500Y-81500000D03*
%TD*%
D34*
%TO.P,R77,1*%
%TO.N,/CNTRL_GPIO3*%
X149500000Y-57000000D03*
%TO.P,R77,2*%
%TO.N,GND*%
X149500000Y-55175000D03*
%TD*%
D33*
%TO.P,C69,1*%
%TO.N,GND*%
X199000000Y-115487499D03*
%TO.P,C69,2*%
%TO.N,/PHV*%
X199000000Y-113412499D03*
%TD*%
D37*
%TO.P,R66,1*%
%TO.N,/P3V3*%
X124975000Y-105000000D03*
%TO.P,R66,2*%
%TO.N,Net-(U16-SIO2)*%
X126625000Y-105000000D03*
%TD*%
D38*
%TO.P,R61,1*%
%TO.N,/P3V3*%
X126125000Y-85100000D03*
%TO.P,R61,2*%
%TO.N,/fpga/STANBY_OSC*%
X124475000Y-85100000D03*
%TD*%
D27*
%TO.P,C18,1*%
%TO.N,GND*%
X166762500Y-88800000D03*
%TO.P,C18,2*%
%TO.N,/P3V3*%
X165037500Y-88800000D03*
%TD*%
D34*
%TO.P,R22,1*%
%TO.N,Net-(U5-SPI2C)*%
X162000000Y-95012500D03*
%TO.P,R22,2*%
%TO.N,/P3V3*%
X162000000Y-93187500D03*
%TD*%
D28*
%TO.P,C67,1*%
%TO.N,/PHV*%
X197100000Y-113437500D03*
%TO.P,C67,2*%
%TO.N,GND*%
X197100000Y-115162500D03*
%TD*%
%TO.P,C27,1*%
%TO.N,Net-(U12-OUT)*%
X94000000Y-97462500D03*
%TO.P,C27,2*%
%TO.N,GND*%
X94000000Y-99187500D03*
%TD*%
D34*
%TO.P,R81,1*%
%TO.N,/CNTRL_CS*%
X143300000Y-56625000D03*
%TO.P,R81,2*%
%TO.N,GND*%
X143300000Y-54800000D03*
%TD*%
D28*
%TO.P,C87,1*%
%TO.N,/PHV*%
X177300000Y-113437500D03*
%TO.P,C87,2*%
%TO.N,GND*%
X177300000Y-115162500D03*
%TD*%
D27*
%TO.P,C80,1*%
%TO.N,/P3V3*%
X102962500Y-82700000D03*
%TO.P,C80,2*%
%TO.N,GND*%
X101237500Y-82700000D03*
%TD*%
D31*
%TO.P,C44,1*%
%TO.N,GND*%
X144700000Y-88262500D03*
%TO.P,C44,2*%
%TO.N,/P3V3*%
X144700000Y-86537500D03*
%TD*%
D34*
%TO.P,R79,1*%
%TO.N,/CNTRL_GPIO0*%
X156300000Y-56812500D03*
%TO.P,R79,2*%
%TO.N,GND*%
X156300000Y-54987500D03*
%TD*%
D28*
%TO.P,C74,1*%
%TO.N,/P12V*%
X181400000Y-70337500D03*
%TO.P,C74,2*%
%TO.N,GND*%
X181400000Y-72062500D03*
%TD*%
D31*
%TO.P,C50,1*%
%TO.N,GND*%
X134200000Y-91762500D03*
%TO.P,C50,2*%
%TO.N,/P3V3*%
X134200000Y-90037500D03*
%TD*%
D28*
%TO.P,C70,1*%
%TO.N,/P12V*%
X181700000Y-118737500D03*
%TO.P,C70,2*%
%TO.N,GND*%
X181700000Y-120462500D03*
%TD*%
D27*
%TO.P,C47,1*%
%TO.N,GND*%
X138462500Y-86900000D03*
%TO.P,C47,2*%
%TO.N,/P3V3*%
X136737500Y-86900000D03*
%TD*%
D33*
%TO.P,C68,1*%
%TO.N,GND*%
X179200000Y-115537500D03*
%TO.P,C68,2*%
%TO.N,/PHV*%
X179200000Y-113462500D03*
%TD*%
D28*
%TO.P,C21,1*%
%TO.N,GND*%
X162100000Y-83237500D03*
%TO.P,C21,2*%
%TO.N,Net-(U7-VREFT)*%
X162100000Y-84962500D03*
%TD*%
%TO.P,C22,1*%
%TO.N,GND*%
X160600000Y-83237500D03*
%TO.P,C22,2*%
%TO.N,Net-(U7-VREF)*%
X160600000Y-84962500D03*
%TD*%
D10*
%TO.P,C45,1*%
%TO.N,GND*%
X142137500Y-99800000D03*
%TO.P,C45,2*%
%TO.N,/P3V3*%
X143862500Y-99800000D03*
%TD*%
D33*
%TO.P,C75,1*%
%TO.N,GND*%
X183400000Y-72337500D03*
%TO.P,C75,2*%
%TO.N,/P12V*%
X183400000Y-70262500D03*
%TD*%
D28*
%TO.P,C76,1*%
%TO.N,/P12V*%
X201200000Y-70337500D03*
%TO.P,C76,2*%
%TO.N,GND*%
X201200000Y-72062500D03*
%TD*%
D27*
%TO.P,C3,1*%
%TO.N,GND*%
X125762500Y-99400000D03*
%TO.P,C3,2*%
%TO.N,/P3V3*%
X124037500Y-99400000D03*
%TD*%
D10*
%TO.P,C13,1*%
%TO.N,GND*%
X156537500Y-91300000D03*
%TO.P,C13,2*%
%TO.N,/P3V_REF*%
X158262500Y-91300000D03*
%TD*%
%TO.P,C78,1*%
%TO.N,/P3V3*%
X158137500Y-101600000D03*
%TO.P,C78,2*%
%TO.N,GND*%
X159862500Y-101600000D03*
%TD*%
D28*
%TO.P,C20,1*%
%TO.N,GND*%
X163600000Y-83237500D03*
%TO.P,C20,2*%
%TO.N,Net-(U7-VREFB)*%
X163600000Y-84962500D03*
%TD*%
D33*
%TO.P,C26,1*%
%TO.N,GND*%
X96000000Y-99237500D03*
%TO.P,C26,2*%
%TO.N,Net-(U12-OUT)*%
X96000000Y-97162500D03*
%TD*%
D27*
%TO.P,C55,1*%
%TO.N,/P3V_REF*%
X165062500Y-74100000D03*
%TO.P,C55,2*%
%TO.N,GND*%
X163337500Y-74100000D03*
%TD*%
%TO.P,C35,1*%
%TO.N,/P3V3*%
X121962500Y-99400000D03*
%TO.P,C35,2*%
%TO.N,GND*%
X120237500Y-99400000D03*
%TD*%
D34*
%TO.P,R78,1*%
%TO.N,/CNTRL_GPIO1*%
X153800000Y-56912500D03*
%TO.P,R78,2*%
%TO.N,GND*%
X153800000Y-55087500D03*
%TD*%
%TO.P,R76,1*%
%TO.N,/CNTRL_MOSI*%
X147700000Y-57012500D03*
%TO.P,R76,2*%
%TO.N,GND*%
X147700000Y-55187500D03*
%TD*%
D28*
%TO.P,C48,1*%
%TO.N,GND*%
X132300000Y-100737500D03*
%TO.P,C48,2*%
%TO.N,/P3V3*%
X132300000Y-102462500D03*
%TD*%
D39*
%TO.N,/P3V3*%
X130900000Y-112500000D03*
X132000000Y-112500000D03*
X129800000Y-112500000D03*
X130900000Y-106100000D03*
X132000000Y-106100000D03*
X129800000Y-106100000D03*
%TO.N,GND*%
X125762500Y-97937500D03*
X129100000Y-94500000D03*
X166300000Y-75300000D03*
X106200000Y-72900000D03*
X106700000Y-78500000D03*
X122950000Y-88450000D03*
X180100000Y-116500000D03*
X200100000Y-116500000D03*
X204675000Y-120737500D03*
X180300000Y-72062500D03*
X189800000Y-73400000D03*
X208800000Y-72000000D03*
X200037500Y-72062500D03*
X207200000Y-61900000D03*
X186350000Y-63150000D03*
X172100000Y-72300000D03*
X192300000Y-72300000D03*
X208000000Y-116700000D03*
X188100000Y-116700000D03*
X192600000Y-127300000D03*
X161500000Y-135700000D03*
X159100000Y-136000000D03*
X156090000Y-135990000D03*
X172700000Y-126600000D03*
X185162500Y-120737500D03*
X192400000Y-81800000D03*
%TO.N,/PHV*%
X191200000Y-83000000D03*
%TO.N,GND*%
X186675000Y-80825000D03*
%TO.N,/PHV*%
X185200000Y-83000000D03*
%TO.N,GND*%
X187425000Y-104725000D03*
%TO.N,/PHV*%
X188900000Y-106000000D03*
%TO.N,GND*%
X193325000Y-108175000D03*
%TO.N,/PHV*%
X194800000Y-106000000D03*
%TO.N,GND*%
X98100000Y-99200000D03*
X98300000Y-101100000D03*
%TO.N,/P3V3*%
X149162500Y-103562500D03*
%TO.N,GND*%
X127900000Y-106200000D03*
X119100000Y-96400000D03*
X119100000Y-97900000D03*
X119100000Y-99400000D03*
%TO.N,/P3V3*%
X124100000Y-97900000D03*
%TO.N,GND*%
X161700000Y-72300000D03*
X162000000Y-73700000D03*
X162150000Y-75150000D03*
X127975000Y-86875000D03*
%TO.N,/P3V3*%
X127750000Y-85150000D03*
%TO.N,/P3V_REF*%
X165362500Y-70837500D03*
%TO.N,/P3V3*%
X169000000Y-73800000D03*
%TO.N,GND*%
X169000000Y-72900000D03*
%TO.N,/P3V3*%
X168950000Y-71950000D03*
%TO.N,/PowerManagement/P2V5_REF*%
X89100000Y-82700000D03*
X95200000Y-84000000D03*
X98500000Y-81000000D03*
X105250000Y-78650000D03*
%TO.N,GND*%
X108500000Y-77300000D03*
X108400000Y-74800000D03*
%TO.N,/P3V3*%
X107100000Y-73400000D03*
X105300000Y-73400000D03*
%TO.N,GND*%
X193175000Y-88625000D03*
X156600000Y-92600000D03*
X162600000Y-80247369D03*
X151500000Y-63500000D03*
X139400000Y-126000000D03*
X167900000Y-89800000D03*
X167900000Y-86700000D03*
X86400000Y-84000000D03*
X164600000Y-83200000D03*
X144500000Y-89500000D03*
X139300000Y-127400000D03*
X144000000Y-127000000D03*
X136600000Y-104100000D03*
X200865000Y-61565000D03*
X150100000Y-89400000D03*
X139200000Y-113412500D03*
X134900000Y-100700000D03*
X91500000Y-93300000D03*
X176700000Y-95000000D03*
X164775735Y-84475735D03*
X163200000Y-93000000D03*
X137700000Y-113412500D03*
X145400000Y-90000000D03*
X144200000Y-63600000D03*
X92500000Y-70600000D03*
X134400000Y-97600000D03*
X153200000Y-59600000D03*
X142500000Y-100800000D03*
X99400000Y-111700000D03*
X167900000Y-88800000D03*
X192725000Y-100475000D03*
X115100000Y-62200000D03*
X155300000Y-63500000D03*
X158162500Y-83237500D03*
X138200000Y-88300000D03*
X149400000Y-102000000D03*
X142500000Y-122900000D03*
X146000000Y-59600000D03*
X133200000Y-120987500D03*
X127100000Y-55700000D03*
X149600000Y-59600000D03*
X181000000Y-61800000D03*
X120200000Y-59700000D03*
X159400000Y-88800000D03*
X100500000Y-92500000D03*
X178100000Y-89300000D03*
X122100000Y-55700000D03*
X133100000Y-91400000D03*
X116900000Y-55700000D03*
X187300000Y-88600000D03*
X136100000Y-88400000D03*
X135800000Y-92400000D03*
X97000000Y-70600000D03*
X171800000Y-92300000D03*
X199035000Y-127135000D03*
X186800000Y-100500000D03*
X98400000Y-82700000D03*
X134400000Y-122012500D03*
X142300000Y-62200000D03*
X98662500Y-113462500D03*
X145900000Y-97600000D03*
X137600000Y-62200000D03*
X111800000Y-55700000D03*
X125200000Y-62200000D03*
X109900000Y-62200000D03*
X145400000Y-118500000D03*
X147800000Y-63600000D03*
X107000000Y-92700000D03*
X139900000Y-58200000D03*
X101550000Y-70550000D03*
X161000000Y-102000000D03*
X90600000Y-83000000D03*
X188100000Y-95000000D03*
X179135000Y-127100000D03*
X136200000Y-113412500D03*
%TO.N,/P3V3*%
X149700000Y-63600000D03*
X99300000Y-78500000D03*
X158700000Y-89400000D03*
X132800000Y-103400000D03*
X112300000Y-95300000D03*
X101345000Y-57180000D03*
X171800000Y-93600000D03*
X137000000Y-88100000D03*
X156835000Y-101635000D03*
X162003805Y-79713931D03*
X110800000Y-95300000D03*
X130100000Y-99300000D03*
X145500000Y-103700000D03*
X127200000Y-59700000D03*
X124000000Y-58200000D03*
X163300000Y-90300000D03*
X111900000Y-59700000D03*
X113800000Y-99500000D03*
X122200000Y-62200000D03*
X139600000Y-62200000D03*
X163362500Y-94700000D03*
X113800000Y-97400000D03*
X153500000Y-63400000D03*
X164000000Y-88800000D03*
X145900000Y-98900000D03*
X113800000Y-58200000D03*
X117000000Y-59700000D03*
X158800208Y-94475303D03*
X94800000Y-78500000D03*
X101425000Y-63200000D03*
X143500000Y-101000000D03*
X113800000Y-95300000D03*
X129100000Y-58200000D03*
X155100000Y-59600000D03*
X141800000Y-58200000D03*
X113100000Y-98500000D03*
X133100000Y-90200000D03*
X94700000Y-82000000D03*
X90300000Y-78500000D03*
X144300000Y-59700000D03*
X151500000Y-59500000D03*
X137300000Y-126200000D03*
X147800000Y-59700000D03*
X123156239Y-97065642D03*
X133100000Y-93500000D03*
X132700000Y-85800000D03*
X163200000Y-91300000D03*
X104200000Y-82700000D03*
X145500000Y-89100000D03*
X140000000Y-117400000D03*
X101425000Y-60200000D03*
X134700000Y-113400000D03*
X146100000Y-63600000D03*
X187000000Y-95500000D03*
X113100000Y-96400000D03*
X144400000Y-85100000D03*
X118900000Y-58200000D03*
X110800000Y-99500000D03*
X157200000Y-63400000D03*
X112300000Y-99500000D03*
%TO.N,Net-(D1-K)*%
X195200000Y-68000000D03*
X204037500Y-66762500D03*
%TO.N,/P3V_REF*%
X158289322Y-92400000D03*
%TO.N,Net-(D6-K)*%
X185400000Y-122100000D03*
X176000000Y-122100000D03*
%TO.N,Net-(U7-VREFB)*%
X163600000Y-86000000D03*
%TO.N,Net-(U7-VREFT)*%
X162100000Y-86000000D03*
%TO.N,Net-(U7-VREF)*%
X160800000Y-86000000D03*
%TO.N,Net-(U7-VCOM)*%
X159100000Y-86000000D03*
%TO.N,Net-(U2-VREG)*%
X123600000Y-96400000D03*
%TO.N,/CNTRL_SCLK*%
X141400000Y-91800000D03*
X141399242Y-68423506D03*
%TO.N,/CNTRL_CS*%
X143024268Y-68400000D03*
X143000000Y-91800000D03*
%TO.N,/CNTRL_MISO*%
X142200000Y-91200000D03*
X142224265Y-68400000D03*
%TO.N,/CNTRL_MOSI*%
X145200000Y-69200000D03*
X143700000Y-91200000D03*
%TO.N,/CNTRL_GPIO5*%
X140200000Y-88300000D03*
X140200000Y-69700000D03*
X108400000Y-69700000D03*
%TO.N,/CNTRL_GPIO4*%
X108400000Y-67500000D03*
X148700000Y-67500000D03*
X140800000Y-84951470D03*
%TO.N,/CNTRL_GPIO2*%
X108400000Y-65400000D03*
X152500000Y-66400000D03*
%TO.N,/PHV*%
X163600000Y-132200000D03*
X163600000Y-133000000D03*
X89500000Y-93500000D03*
X162800000Y-132200000D03*
X163600000Y-131400000D03*
X162800000Y-131400000D03*
X162800000Y-133000000D03*
%TO.N,/P12V*%
X179700000Y-70300000D03*
X200200000Y-118700000D03*
X98500000Y-92900000D03*
X199595000Y-70295000D03*
X180405000Y-118700000D03*
X210300000Y-70300000D03*
X108500000Y-113300000D03*
X206900000Y-122600000D03*
%TO.N,Net-(U17A-+)*%
X171600000Y-94700000D03*
%TO.N,/AMP_CS*%
X139000000Y-108000000D03*
X183500000Y-96400000D03*
%TO.N,/SPI_LOCAL_MOSI*%
X129700000Y-92900000D03*
X185800000Y-97000000D03*
X154500000Y-97000000D03*
X124524263Y-94024266D03*
%TO.N,Net-(Q7-D)*%
X193050001Y-110350001D03*
%TO.N,/SPI_LOCAL_MISO*%
X129713235Y-91986765D03*
X124500000Y-93200000D03*
%TO.N,/SPI_LOCAL_SCK*%
X117500000Y-95800000D03*
X157000000Y-97600000D03*
X124500000Y-95100000D03*
X129700000Y-93800000D03*
X185000000Y-97600000D03*
%TO.N,Net-(U5-SPI2C)*%
X163100000Y-95700000D03*
%TO.N,/fpga/STANBY_OSC*%
X123000000Y-85000000D03*
X129700000Y-90200000D03*
%TO.N,Net-(U16-SIO2)*%
X126600000Y-106200000D03*
%TO.N,/fpga/TDC_CS*%
X130300000Y-94500000D03*
X123400000Y-95100000D03*
%TO.N,/ADC_DF*%
X160500000Y-75800000D03*
X140600000Y-105200000D03*
%TO.N,/fpga/TDC_INTB*%
X129700000Y-91125000D03*
X124500000Y-92300000D03*
%TO.N,/DAC_CS*%
X156000000Y-95700000D03*
X140000000Y-107100000D03*
%TO.N,Net-(U7-IRS)*%
X160700000Y-88600000D03*
%TO.N,/ADC_STBY*%
X140800000Y-106200000D03*
X157674265Y-80600000D03*
%TO.N,/JTAG_TMS*%
X138800000Y-85300000D03*
%TO.N,/fpga/SRAM_HOLD*%
X125700000Y-101000000D03*
X134000000Y-104000000D03*
%TO.N,/JTAG_TDI*%
X137168973Y-85324295D03*
%TO.N,/JTAG_TDO*%
X136344722Y-85300016D03*
%TO.N,/JTAG_TCK*%
X137968968Y-85320706D03*
%TO.N,Net-(D24-K)*%
X100600000Y-73900000D03*
X89900000Y-63100000D03*
%TO.N,Net-(D26-K)*%
X96000000Y-73900000D03*
X89900000Y-60200000D03*
%TO.N,Net-(Q2-D)*%
X186800000Y-78700000D03*
%TO.N,/fpga/BRIDGE_D_SEL*%
X187659181Y-100292290D03*
X144000000Y-113700000D03*
%TO.N,/fpga/BRIDGE_B_SEL*%
X187000000Y-89500000D03*
X142300000Y-111000000D03*
%TO.N,/fpga/BRIDGE_C_SEL*%
X143000000Y-112800000D03*
X193325000Y-99675000D03*
%TO.N,/fpga/BRIDGE_A_SEL*%
X141400000Y-111900000D03*
X192575000Y-89425000D03*
%TO.N,/H-bridges/BRIDGE_AB_MUX_EN*%
X191875000Y-88825000D03*
X186000000Y-88800000D03*
X135000000Y-110400000D03*
%TO.N,/H-bridges/BRIDGE_CD_MUX_EN*%
X189000000Y-100600000D03*
X135800743Y-111100000D03*
X194025000Y-100275000D03*
%TO.N,Net-(Q3-D)*%
X207000000Y-78600000D03*
%TO.N,Net-(Q8-D)*%
X173300000Y-110400000D03*
%TD*%
D40*
%TO.N,Net-(D26-K)*%
X89900000Y-60200000D02*
X89300000Y-60800000D01*
X96000000Y-72800000D02*
X96000000Y-73900000D01*
X89300000Y-60800000D02*
X89300000Y-66100000D01*
X89300000Y-66100000D02*
X96000000Y-72800000D01*
%TO.N,GND*%
X125762500Y-99400000D02*
X125762500Y-97937500D01*
%TO.N,/P3V3*%
X124037500Y-97962500D02*
X124037500Y-99400000D01*
X124100000Y-97900000D02*
X124037500Y-97962500D01*
X122734358Y-97065642D02*
X121962500Y-97837500D01*
X123156239Y-97065642D02*
X122734358Y-97065642D01*
X121962500Y-97837500D02*
X121962500Y-97900000D01*
%TO.N,/SPI_LOCAL_SCK*%
X129700000Y-93800000D02*
X125800000Y-93800000D01*
X125800000Y-93800000D02*
X124500000Y-95100000D01*
%TO.N,/SPI_LOCAL_MOSI*%
X124575734Y-94024266D02*
X124524263Y-94024266D01*
X125700000Y-92900000D02*
X124575734Y-94024266D01*
X129700000Y-92900000D02*
X125700000Y-92900000D01*
%TO.N,/SPI_LOCAL_MISO*%
X125713235Y-91986765D02*
X124500000Y-93200000D01*
X129713235Y-91986765D02*
X125713235Y-91986765D01*
%TO.N,/fpga/TDC_INTB*%
X125675000Y-91125000D02*
X124500000Y-92300000D01*
X129700000Y-91125000D02*
X125675000Y-91125000D01*
%TO.N,GND*%
X180100000Y-116500000D02*
X180100000Y-116437500D01*
X180100000Y-116437500D02*
X179200000Y-115537500D01*
X178825000Y-115162500D02*
X179200000Y-115537500D01*
X177300000Y-115162500D02*
X178825000Y-115162500D01*
X198562500Y-115162500D02*
X197100000Y-115162500D01*
X199000000Y-115487499D02*
X198887499Y-115487499D01*
X198887499Y-115487499D02*
X198562500Y-115162500D01*
X200100000Y-116500000D02*
X199087499Y-115487499D01*
X199087499Y-115487499D02*
X199000000Y-115487499D01*
X204675000Y-120737500D02*
X203300000Y-120737500D01*
X204675000Y-120737500D02*
X204637500Y-120737500D01*
X203025000Y-120462500D02*
X203300000Y-120737500D01*
X201400000Y-120462500D02*
X203025000Y-120462500D01*
X180300000Y-72062500D02*
X181400000Y-72062500D01*
X183125000Y-72062500D02*
X183400000Y-72337500D01*
X181400000Y-72062500D02*
X183125000Y-72062500D01*
X189762500Y-73362500D02*
X188500000Y-73362500D01*
X189800000Y-73400000D02*
X189762500Y-73362500D01*
X188125000Y-73737500D02*
X188500000Y-73362500D01*
X186700000Y-73737500D02*
X188125000Y-73737500D01*
X208800000Y-73262500D02*
X208800000Y-72000000D01*
X208525000Y-73537500D02*
X208800000Y-73262500D01*
X207000000Y-73537500D02*
X208525000Y-73537500D01*
X200037500Y-72062500D02*
X201200000Y-72062500D01*
X203100000Y-72237500D02*
X201375000Y-72237500D01*
X201375000Y-72237500D02*
X201200000Y-72062500D01*
X185162500Y-120737500D02*
X183800000Y-120737500D01*
X182537500Y-120737500D02*
X183800000Y-120737500D01*
X182262500Y-120462500D02*
X182537500Y-120737500D01*
X181700000Y-120462500D02*
X182262500Y-120462500D01*
X192400000Y-81562500D02*
X193062500Y-80900000D01*
X192400000Y-81800000D02*
X192400000Y-81562500D01*
%TO.N,/PHV*%
X191337500Y-82862500D02*
X191200000Y-83000000D01*
X191337500Y-81700000D02*
X191337500Y-82862500D01*
%TO.N,GND*%
X186675000Y-81212500D02*
X187162500Y-81700000D01*
X186675000Y-80825000D02*
X186675000Y-81212500D01*
%TO.N,/PHV*%
X185437500Y-81012500D02*
X185437500Y-81700000D01*
X188700000Y-77750000D02*
X185437500Y-81012500D01*
X188700000Y-75637500D02*
X188700000Y-77750000D01*
X188500000Y-75437500D02*
X188700000Y-75637500D01*
X185437500Y-82762500D02*
X185200000Y-83000000D01*
X185437500Y-81700000D02*
X185437500Y-82762500D01*
%TO.N,GND*%
X186837500Y-105312500D02*
X186837500Y-107200000D01*
X187425000Y-104725000D02*
X186837500Y-105312500D01*
%TO.N,/PHV*%
X188562500Y-106337500D02*
X188900000Y-106000000D01*
X188562500Y-107200000D02*
X188562500Y-106337500D01*
%TO.N,GND*%
X193325000Y-108175000D02*
X193325000Y-107687500D01*
X193325000Y-107687500D02*
X192837500Y-107200000D01*
%TO.N,/PHV*%
X191900000Y-109100000D02*
X191600000Y-109400000D01*
X194562500Y-108137500D02*
X193600000Y-109100000D01*
X191600000Y-109400000D02*
X191600000Y-113450000D01*
X194562500Y-107200000D02*
X194562500Y-108137500D01*
X193600000Y-109100000D02*
X191900000Y-109100000D01*
X194562500Y-106237500D02*
X194800000Y-106000000D01*
X194562500Y-107200000D02*
X194562500Y-106237500D01*
X188562500Y-113312500D02*
X188700000Y-113450000D01*
X188562500Y-107200000D02*
X188562500Y-113312500D01*
X191300000Y-81662500D02*
X191300000Y-75450000D01*
X191337500Y-81700000D02*
X191300000Y-81662500D01*
%TO.N,/JTAG_TDO*%
X115025000Y-83195000D02*
X115000000Y-83220000D01*
X136344722Y-85300016D02*
X136344722Y-85244722D01*
X134295000Y-83195000D02*
X115025000Y-83195000D01*
X136344722Y-85244722D02*
X134295000Y-83195000D01*
%TO.N,/JTAG_TDI*%
X132555000Y-80655000D02*
X115025000Y-80655000D01*
X137168973Y-85324295D02*
X137168973Y-85268973D01*
X137168973Y-85268973D02*
X132555000Y-80655000D01*
X115025000Y-80655000D02*
X115000000Y-80680000D01*
%TO.N,/JTAG_TCK*%
X130815000Y-78115000D02*
X115025000Y-78115000D01*
X115025000Y-78115000D02*
X115000000Y-78140000D01*
X137968968Y-85268968D02*
X130815000Y-78115000D01*
X137968968Y-85320706D02*
X137968968Y-85268968D01*
%TO.N,/JTAG_TMS*%
X115025000Y-75575000D02*
X115000000Y-75600000D01*
X129075000Y-75575000D02*
X115025000Y-75575000D01*
X138800000Y-85300000D02*
X129075000Y-75575000D01*
D41*
%TO.N,/PowerManagement/P15V-20V_5S_FUSED*%
X94737500Y-103037500D02*
X96000000Y-103037500D01*
X94262500Y-102562500D02*
X94737500Y-103037500D01*
%TO.N,GND*%
X94000000Y-100837500D02*
X94125000Y-100962500D01*
X94125000Y-100962500D02*
X96000000Y-100962500D01*
X96000000Y-100962500D02*
X96137500Y-101100000D01*
%TO.N,/PowerManagement/P15V-20V_5S_FUSED*%
X94000000Y-102562500D02*
X94262500Y-102562500D01*
%TO.N,GND*%
X96137500Y-101100000D02*
X98300000Y-101100000D01*
X93215000Y-99972500D02*
X93215000Y-100052500D01*
%TO.N,/PowerManagement/P15V-20V_5S_FUSED*%
X92762500Y-102562500D02*
X94000000Y-102562500D01*
%TO.N,GND*%
X93215000Y-100052500D02*
X94000000Y-100837500D01*
%TO.N,/PowerManagement/P15V-20V_5S_FUSED*%
X92712500Y-102512500D02*
X92762500Y-102562500D01*
X91520000Y-102512500D02*
X92712500Y-102512500D01*
%TO.N,GND*%
X98062500Y-99237500D02*
X98100000Y-99200000D01*
X96000000Y-99237500D02*
X98062500Y-99237500D01*
X94162500Y-99237500D02*
X96000000Y-99237500D01*
X94112500Y-99187500D02*
X94162500Y-99237500D01*
X94000000Y-99187500D02*
X94112500Y-99187500D01*
X91520000Y-99972500D02*
X93215000Y-99972500D01*
X93215000Y-99972500D02*
X94000000Y-99187500D01*
X99400000Y-111700000D02*
X99362500Y-111737500D01*
X99362500Y-111737500D02*
X97000000Y-111737500D01*
X96987500Y-111725000D02*
X97000000Y-111737500D01*
D42*
%TO.N,Net-(U13-OUT)*%
X94337500Y-109662500D02*
X94000000Y-110000000D01*
D41*
%TO.N,GND*%
X94000000Y-111725000D02*
X96987500Y-111725000D01*
D42*
%TO.N,Net-(U13-OUT)*%
X97000000Y-109662500D02*
X94337500Y-109662500D01*
D40*
%TO.N,/P3V3*%
X148100000Y-103562500D02*
X149162500Y-103562500D01*
X143500000Y-100162500D02*
X143862500Y-99800000D01*
X143500000Y-101000000D02*
X143500000Y-100162500D01*
%TO.N,GND*%
X142500000Y-100162500D02*
X142137500Y-99800000D01*
X142500000Y-100800000D02*
X142500000Y-100162500D01*
%TO.N,/CNTRL_SCLK*%
X141400000Y-68424264D02*
X141399242Y-68423506D01*
X141400000Y-91800000D02*
X141400000Y-68424264D01*
%TO.N,/CNTRL_MISO*%
X142224265Y-89775736D02*
X142224265Y-68400000D01*
X142200000Y-89800001D02*
X142224265Y-89775736D01*
X142200000Y-91200000D02*
X142200000Y-89800001D01*
%TO.N,/CNTRL_CS*%
X143000000Y-89802941D02*
X142974265Y-89777206D01*
X143000000Y-91800000D02*
X143000000Y-89802941D01*
X142974265Y-68450003D02*
X143024268Y-68400000D01*
X142974265Y-89777206D02*
X142974265Y-68450003D01*
%TO.N,/CNTRL_MOSI*%
X143700000Y-70700000D02*
X145200000Y-69200000D01*
X143700000Y-91200000D02*
X143700000Y-70700000D01*
%TO.N,GND*%
X144500000Y-89500000D02*
X144500000Y-88462500D01*
X144500000Y-88462500D02*
X144700000Y-88262500D01*
%TO.N,/P3V3*%
X144700000Y-85400000D02*
X144700000Y-86537500D01*
X144400000Y-85100000D02*
X144700000Y-85400000D01*
%TO.N,/CNTRL_GPIO4*%
X140800000Y-67600000D02*
X140700000Y-67500000D01*
X140800000Y-84951470D02*
X140800000Y-67600000D01*
%TO.N,/CNTRL_GPIO5*%
X140200000Y-88300000D02*
X140200000Y-69700000D01*
X140200000Y-69700000D02*
X108400000Y-69700000D01*
%TO.N,/CNTRL_GPIO4*%
X148700000Y-67500000D02*
X140700000Y-67500000D01*
D43*
%TO.N,Net-(U12-OUT)*%
X94300000Y-97162500D02*
X96000000Y-97162500D01*
X94000000Y-97462500D02*
X94300000Y-97162500D01*
X93970000Y-97432500D02*
X94000000Y-97462500D01*
X91520000Y-97432500D02*
X93970000Y-97432500D01*
D41*
%TO.N,/PowerManagement/P15V-20V_5S_FUSED*%
X95325000Y-115225000D02*
X95637500Y-115537500D01*
X95637500Y-115537500D02*
X97000000Y-115537500D01*
X94000000Y-115225000D02*
X95325000Y-115225000D01*
X93125000Y-115225000D02*
X94000000Y-115225000D01*
X92950000Y-115050000D02*
X93125000Y-115225000D01*
X91520000Y-115050000D02*
X92950000Y-115050000D01*
D40*
%TO.N,/P3V3*%
X124037500Y-102037500D02*
X124037500Y-99400000D01*
X124975000Y-105000000D02*
X124975000Y-102975000D01*
X124975000Y-102975000D02*
X124037500Y-102037500D01*
%TO.N,GND*%
X120237500Y-96400000D02*
X119100000Y-96400000D01*
X120237500Y-97900000D02*
X119100000Y-97900000D01*
X120237500Y-99400000D02*
X119100000Y-99400000D01*
%TO.N,/P3V3*%
X121962500Y-99400000D02*
X121962500Y-97900000D01*
%TO.N,/P3V_REF*%
X162300000Y-77600000D02*
X164100000Y-77600000D01*
X157300000Y-82600000D02*
X162300000Y-77600000D01*
X164100000Y-77600000D02*
X165062500Y-76637500D01*
X157300000Y-90337500D02*
X157300000Y-82600000D01*
X165062500Y-76637500D02*
X165062500Y-75600000D01*
X158262500Y-91300000D02*
X157300000Y-90337500D01*
%TO.N,GND*%
X162600000Y-75600000D02*
X163337500Y-75600000D01*
X162150000Y-75150000D02*
X162600000Y-75600000D01*
X162000000Y-73700000D02*
X162400000Y-74100000D01*
X162400000Y-74100000D02*
X163337500Y-74100000D01*
X162962500Y-72300000D02*
X161700000Y-72300000D01*
%TO.N,/fpga/STANBY_OSC*%
X124600000Y-85100000D02*
X124475000Y-85100000D01*
X124375000Y-85000000D02*
X123000000Y-85000000D01*
%TO.N,/P3V3*%
X126175000Y-85150000D02*
X127750000Y-85150000D01*
X126125000Y-85100000D02*
X126175000Y-85150000D01*
%TO.N,/fpga/STANBY_OSC*%
X129700000Y-90200000D02*
X124600000Y-85100000D01*
X124475000Y-85100000D02*
X124375000Y-85000000D01*
%TO.N,GND*%
X127975000Y-86875000D02*
X128900000Y-86875000D01*
%TO.N,/P3V3*%
X128725000Y-85150000D02*
X128900000Y-85325000D01*
X127750000Y-85150000D02*
X128725000Y-85150000D01*
%TO.N,/P3V_REF*%
X165062500Y-75600000D02*
X165062500Y-74100000D01*
X165037500Y-72300000D02*
X165037500Y-74075000D01*
X165037500Y-74075000D02*
X165062500Y-74100000D01*
X165000000Y-72262500D02*
X165037500Y-72300000D01*
X165000000Y-71200000D02*
X165000000Y-72262500D01*
X165362500Y-70837500D02*
X165000000Y-71200000D01*
%TO.N,GND*%
X168462500Y-72900000D02*
X167600000Y-73762500D01*
X169000000Y-72900000D02*
X168462500Y-72900000D01*
%TO.N,/P3V3*%
X167687500Y-71950000D02*
X167600000Y-72037500D01*
X168950000Y-71950000D02*
X167687500Y-71950000D01*
%TO.N,GND*%
X91600000Y-82000000D02*
X91637500Y-82000000D01*
X90600000Y-83000000D02*
X91600000Y-82000000D01*
%TO.N,/PowerManagement/P2V5_REF*%
X90351471Y-84000000D02*
X95200000Y-84000000D01*
X89100000Y-82748529D02*
X90351471Y-84000000D01*
X89100000Y-82700000D02*
X89100000Y-82748529D01*
X98200000Y-81000000D02*
X95200000Y-84000000D01*
X98500000Y-81000000D02*
X98200000Y-81000000D01*
X102900000Y-81000000D02*
X105250000Y-78650000D01*
X98500000Y-81000000D02*
X102900000Y-81000000D01*
X105250000Y-77387500D02*
X105337500Y-77300000D01*
X105250000Y-78650000D02*
X105250000Y-77387500D01*
%TO.N,GND*%
X107062500Y-77300000D02*
X108500000Y-77300000D01*
X106962500Y-74800000D02*
X108400000Y-74800000D01*
%TO.N,/P3V3*%
X105300000Y-74737500D02*
X105237500Y-74800000D01*
X105300000Y-73400000D02*
X105300000Y-74737500D01*
%TO.N,GND*%
X156537500Y-91300000D02*
X156600000Y-91362500D01*
X162647369Y-80247369D02*
X163162500Y-80762500D01*
X133100000Y-91400000D02*
X133837500Y-91400000D01*
X164562500Y-83237500D02*
X163600000Y-83237500D01*
X133025000Y-99000000D02*
X133025000Y-97500000D01*
X159862500Y-101600000D02*
X160600000Y-101600000D01*
X167400000Y-90300000D02*
X167900000Y-89800000D01*
X138200000Y-87162500D02*
X138462500Y-86900000D01*
X166762500Y-90300000D02*
X167400000Y-90300000D01*
X147000000Y-90000000D02*
X147200000Y-89800000D01*
X149400000Y-102000000D02*
X149237500Y-101837500D01*
X135762500Y-92437500D02*
X135762500Y-93500000D01*
X156600000Y-91362500D02*
X156600000Y-92600000D01*
X171800000Y-92300000D02*
X171787500Y-92287500D01*
X160412500Y-91312500D02*
X160700000Y-91312500D01*
X159100000Y-83237500D02*
X163600000Y-83237500D01*
D41*
X96962500Y-113500000D02*
X97000000Y-113462500D01*
X93010000Y-112510000D02*
X94000000Y-113500000D01*
D40*
X188100000Y-95000000D02*
X188100000Y-94462500D01*
X133800000Y-100737500D02*
X134862500Y-100737500D01*
X139400000Y-124825000D02*
X139425000Y-124800000D01*
D41*
X93215000Y-112510000D02*
X94000000Y-111725000D01*
D40*
X136062500Y-88362500D02*
X135100000Y-88362500D01*
X158162500Y-83237500D02*
X159100000Y-83237500D01*
D41*
X98662500Y-113462500D02*
X97000000Y-113462500D01*
D40*
X134300000Y-97500000D02*
X134400000Y-97600000D01*
X159400000Y-88800000D02*
X159400000Y-90300000D01*
X149737500Y-89762500D02*
X150100000Y-89400000D01*
X163162500Y-80762500D02*
X163162500Y-81500000D01*
X166762500Y-88800000D02*
X167900000Y-88800000D01*
X162600000Y-80247369D02*
X162647369Y-80247369D01*
X188100000Y-94462500D02*
X188362500Y-94200000D01*
X101237500Y-82700000D02*
X98400000Y-82700000D01*
X145900000Y-97600000D02*
X146937500Y-97600000D01*
X138200000Y-88300000D02*
X138200000Y-87162500D01*
X133600000Y-88362500D02*
X135100000Y-88362500D01*
X132300000Y-100737500D02*
X133800000Y-100737500D01*
X133025000Y-97500000D02*
X134300000Y-97500000D01*
X148900000Y-89762500D02*
X149737500Y-89762500D01*
X149237500Y-101837500D02*
X148100000Y-101837500D01*
X145400000Y-90000000D02*
X147000000Y-90000000D01*
D41*
X93010000Y-112510000D02*
X93215000Y-112510000D01*
D40*
X135800000Y-92400000D02*
X135762500Y-92437500D01*
X164600000Y-83200000D02*
X164562500Y-83237500D01*
X146500000Y-101837500D02*
X148100000Y-101837500D01*
X171787500Y-92287500D02*
X170600000Y-92287500D01*
X134862500Y-100737500D02*
X134900000Y-100700000D01*
X160600000Y-101600000D02*
X161000000Y-102000000D01*
X139400000Y-126000000D02*
X139400000Y-124825000D01*
X136100000Y-88400000D02*
X136062500Y-88362500D01*
X133837500Y-91400000D02*
X134200000Y-91762500D01*
X158162500Y-83237500D02*
X158100000Y-83300000D01*
X159400000Y-90300000D02*
X160412500Y-91312500D01*
D41*
X91520000Y-112510000D02*
X93010000Y-112510000D01*
D40*
X146937500Y-97600000D02*
X147200000Y-97337500D01*
D41*
X94000000Y-113500000D02*
X96962500Y-113500000D01*
D40*
%TO.N,/P3V3*%
X137350000Y-126150000D02*
X137350000Y-124800000D01*
X145900000Y-98900000D02*
X147037500Y-98900000D01*
X132800000Y-103400000D02*
X132862500Y-103400000D01*
X132800000Y-102962500D02*
X132300000Y-102462500D01*
X145500000Y-89100000D02*
X146525000Y-88075000D01*
X132862500Y-103400000D02*
X133800000Y-102462500D01*
X156835000Y-101635000D02*
X158102500Y-101635000D01*
X146362500Y-103700000D02*
X146500000Y-103562500D01*
X161950000Y-93237500D02*
X162000000Y-93187500D01*
X136737500Y-87837500D02*
X137000000Y-88100000D01*
X164000000Y-88800000D02*
X165037500Y-88800000D01*
X145500000Y-103700000D02*
X146362500Y-103700000D01*
X163200000Y-91300000D02*
X162900000Y-91300000D01*
X160200000Y-93237500D02*
X161950000Y-93237500D01*
X131300000Y-99000000D02*
X131300000Y-97500000D01*
X137300000Y-126200000D02*
X137350000Y-126150000D01*
X161437500Y-80280236D02*
X162003805Y-79713931D01*
X187000000Y-95500000D02*
X187000000Y-94562500D01*
X164100000Y-95500000D02*
X164750000Y-95500000D01*
X93362500Y-82000000D02*
X94700000Y-82000000D01*
X158800208Y-94475303D02*
X160038011Y-93237500D01*
X148862500Y-88075000D02*
X148900000Y-88037500D01*
X146500000Y-103562500D02*
X148100000Y-103562500D01*
X163200000Y-91300000D02*
X163187500Y-91312500D01*
X102962500Y-82700000D02*
X104200000Y-82700000D01*
X158102500Y-101635000D02*
X158137500Y-101600000D01*
X186637500Y-94200000D02*
X172400000Y-94200000D01*
X187000000Y-94562500D02*
X186637500Y-94200000D01*
X132762500Y-85800000D02*
X133600000Y-86637500D01*
X160038011Y-93237500D02*
X160200000Y-93237500D01*
X133100000Y-90200000D02*
X134037500Y-90200000D01*
X147200000Y-88075000D02*
X148862500Y-88075000D01*
X136737500Y-86900000D02*
X136737500Y-87837500D01*
X163187500Y-91312500D02*
X162200000Y-91312500D01*
X163362500Y-94700000D02*
X163362500Y-94762500D01*
X132800000Y-103400000D02*
X132800000Y-102962500D01*
X163362500Y-94762500D02*
X164100000Y-95500000D01*
X147037500Y-98900000D02*
X147200000Y-99062500D01*
X132700000Y-85800000D02*
X132762500Y-85800000D01*
X131000000Y-99300000D02*
X131300000Y-99000000D01*
X172400000Y-94200000D02*
X171800000Y-93600000D01*
X133600000Y-86637500D02*
X135100000Y-86637500D01*
X134037500Y-90200000D02*
X134200000Y-90037500D01*
X146525000Y-88075000D02*
X147200000Y-88075000D01*
X133100000Y-93500000D02*
X134037500Y-93500000D01*
X163300000Y-90300000D02*
X165037500Y-90300000D01*
X161437500Y-81500000D02*
X161437500Y-80280236D01*
X130100000Y-99300000D02*
X131000000Y-99300000D01*
%TO.N,Net-(D1-K)*%
X202800000Y-68000000D02*
X204037500Y-66762500D01*
X195200000Y-68000000D02*
X202800000Y-68000000D01*
%TO.N,/P3V_REF*%
X168987500Y-92300000D02*
X158389322Y-92300000D01*
X158262500Y-92183856D02*
X158262500Y-91300000D01*
X158389322Y-92300000D02*
X158289322Y-92400000D01*
X158289322Y-92210678D02*
X158262500Y-92183856D01*
X158289322Y-92400000D02*
X158289322Y-92210678D01*
X169112500Y-92175000D02*
X168987500Y-92300000D01*
%TO.N,Net-(D6-K)*%
X185400000Y-122100000D02*
X176000000Y-122100000D01*
%TO.N,Net-(U7-VREFB)*%
X163600000Y-86000000D02*
X163600000Y-84962500D01*
%TO.N,Net-(U7-VREFT)*%
X162100000Y-86000000D02*
X162100000Y-84962500D01*
%TO.N,Net-(U7-VREF)*%
X160600000Y-85800000D02*
X160600000Y-84962500D01*
X160800000Y-86000000D02*
X160600000Y-85800000D01*
%TO.N,Net-(U7-VCOM)*%
X159100000Y-86000000D02*
X159100000Y-84962500D01*
D42*
%TO.N,Net-(U13-OUT)*%
X94000000Y-110000000D02*
X93800000Y-110000000D01*
X93800000Y-110000000D02*
X93770000Y-109970000D01*
X93770000Y-109970000D02*
X91520000Y-109970000D01*
D40*
%TO.N,Net-(U2-VREG)*%
X123600000Y-96400000D02*
X121962500Y-96400000D01*
%TO.N,/CNTRL_GPIO4*%
X108400000Y-67500000D02*
X140700000Y-67500000D01*
%TO.N,/CNTRL_GPIO2*%
X151500000Y-65400000D02*
X152500000Y-66400000D01*
X108400000Y-65400000D02*
X151500000Y-65400000D01*
%TO.N,/PHV*%
X102200000Y-94100000D02*
X105900000Y-97800000D01*
D41*
X202400000Y-132200000D02*
X210200000Y-124400000D01*
X206975000Y-75262500D02*
X206900000Y-75337500D01*
X210150000Y-113450000D02*
X196200000Y-113450000D01*
X162800000Y-133000000D02*
X162800000Y-131400000D01*
X188550000Y-75450000D02*
X188500000Y-75400000D01*
X206900000Y-75337500D02*
X205012500Y-75337500D01*
X189300000Y-75450000D02*
X184800000Y-75450000D01*
X208700000Y-75262500D02*
X206975000Y-75262500D01*
X163600000Y-132200000D02*
X163600000Y-133000000D01*
X210200000Y-76100000D02*
X210200000Y-76100000D01*
D40*
X122800000Y-132200000D02*
X162800000Y-132200000D01*
D41*
X191600000Y-113450000D02*
X188700000Y-113450000D01*
X196200000Y-113450000D02*
X195100000Y-113450000D01*
X191300000Y-75450000D02*
X189300000Y-75450000D01*
X208737500Y-75300000D02*
X208700000Y-75262500D01*
X163600000Y-131400000D02*
X162800000Y-132200000D01*
D40*
X105900000Y-97800000D02*
X105900000Y-115300000D01*
D41*
X164400000Y-132200000D02*
X163600000Y-131400000D01*
X210200000Y-75300000D02*
X208737500Y-75300000D01*
D40*
X89500000Y-93500000D02*
X90100000Y-94100000D01*
D41*
X188700000Y-113450000D02*
X175400000Y-113450000D01*
X210200000Y-114000000D02*
X210200000Y-75300000D01*
X210200000Y-124400000D02*
X210200000Y-114000000D01*
D40*
X105900000Y-115300000D02*
X122800000Y-132200000D01*
D41*
X164400000Y-132200000D02*
X202400000Y-132200000D01*
X162800000Y-132200000D02*
X163600000Y-132200000D01*
X162800000Y-132237500D02*
X162800000Y-133000000D01*
D40*
X90100000Y-94100000D02*
X102200000Y-94100000D01*
D41*
X210200000Y-113400000D02*
X210150000Y-113450000D01*
X196200000Y-113450000D02*
X191600000Y-113450000D01*
X205012500Y-75337500D02*
X204900000Y-75450000D01*
X204900000Y-75450000D02*
X191300000Y-75450000D01*
X210200000Y-114000000D02*
X210200000Y-113400000D01*
X189300000Y-75450000D02*
X188550000Y-75450000D01*
X163600000Y-133000000D02*
X164400000Y-132200000D01*
D40*
%TO.N,/P12V*%
X102800000Y-93300000D02*
X108500000Y-99000000D01*
D42*
X200200000Y-118700000D02*
X180405000Y-118700000D01*
X179700000Y-70300000D02*
X179737500Y-70337500D01*
D40*
X98900000Y-93300000D02*
X102800000Y-93300000D01*
D42*
X200500000Y-129000000D02*
X206900000Y-122600000D01*
D40*
X98500000Y-92900000D02*
X98900000Y-93300000D01*
D42*
X206600000Y-118700000D02*
X206900000Y-119000000D01*
X210300000Y-70300000D02*
X199600000Y-70300000D01*
D40*
X108500000Y-99000000D02*
X108500000Y-113300000D01*
D42*
X199552500Y-70337500D02*
X199595000Y-70295000D01*
X206900000Y-119000000D02*
X206900000Y-122600000D01*
X199600000Y-70300000D02*
X199595000Y-70295000D01*
X108500000Y-113300000D02*
X124200000Y-129000000D01*
X200200000Y-118700000D02*
X206600000Y-118700000D01*
X179737500Y-70337500D02*
X199552500Y-70337500D01*
X124200000Y-129000000D02*
X200500000Y-129000000D01*
D40*
%TO.N,Net-(U17A-+)*%
X171600000Y-94700000D02*
X171187500Y-94700000D01*
X170600000Y-94112500D02*
X169100000Y-94112500D01*
X171187500Y-94700000D02*
X170600000Y-94112500D01*
%TO.N,/AMP_CS*%
X149365685Y-108000000D02*
X139000000Y-108000000D01*
X154200000Y-96400000D02*
X152600000Y-98000000D01*
X152600000Y-104765685D02*
X152532842Y-104832843D01*
X152600000Y-98000000D02*
X152600000Y-104765685D01*
X183500000Y-96400000D02*
X163200000Y-96400000D01*
X156600000Y-96400000D02*
X154200000Y-96400000D01*
X152532842Y-104832843D02*
X149365685Y-108000000D01*
X163200000Y-96400000D02*
X156600000Y-96400000D01*
%TO.N,/SPI_LOCAL_MOSI*%
X154500000Y-97000000D02*
X185800000Y-97000000D01*
X153000000Y-104931371D02*
X149031371Y-108900000D01*
X118300000Y-95700000D02*
X119975734Y-94024266D01*
X119975734Y-94024266D02*
X124524263Y-94024266D01*
X149031371Y-108900000D02*
X122800000Y-108900000D01*
X153000000Y-98500000D02*
X153000000Y-104931371D01*
X122800000Y-108900000D02*
X118300000Y-104400000D01*
X118300000Y-104400000D02*
X118300000Y-95700000D01*
X154500000Y-97000000D02*
X153000000Y-98500000D01*
D42*
%TO.N,Net-(Q7-D)*%
X193050001Y-110350001D02*
X195100000Y-110350000D01*
D40*
%TO.N,/SPI_LOCAL_SCK*%
X157000000Y-97600000D02*
X185000000Y-97600000D01*
X153400000Y-105097057D02*
X148797057Y-109700000D01*
X153400000Y-99000000D02*
X153400000Y-105097057D01*
X157000000Y-97600000D02*
X154800000Y-97600000D01*
X121934314Y-109700000D02*
X117100000Y-104865686D01*
X148797057Y-109700000D02*
X121934314Y-109700000D01*
X154800000Y-97600000D02*
X153400000Y-99000000D01*
X117100000Y-96200000D02*
X117500000Y-95800000D01*
X117100000Y-104865686D02*
X117100000Y-96200000D01*
%TO.N,Net-(U5-SPI2C)*%
X162412500Y-95012500D02*
X162000000Y-95012500D01*
X163100000Y-95700000D02*
X162412500Y-95012500D01*
%TO.N,Net-(U16-SIO2)*%
X126625000Y-105000000D02*
X126525000Y-105000000D01*
X126600000Y-105025000D02*
X126625000Y-105000000D01*
X126600000Y-106200000D02*
X126600000Y-105025000D01*
%TO.N,/fpga/TDC_CS*%
X129100000Y-95700000D02*
X124000000Y-95700000D01*
X130300000Y-94500000D02*
X129100000Y-95700000D01*
X124000000Y-95700000D02*
X123400000Y-95100000D01*
%TO.N,/ADC_DF*%
X151300000Y-97268628D02*
X151300000Y-104368628D01*
X154900000Y-93668628D02*
X151300000Y-97268628D01*
X151300000Y-104368628D02*
X150468628Y-105200000D01*
X160500000Y-75800000D02*
X154900000Y-81400000D01*
X150468628Y-105200000D02*
X140600000Y-105200000D01*
X154900000Y-81400000D02*
X154900000Y-93668628D01*
%TO.N,/DAC_CS*%
X156000000Y-95700000D02*
X154000000Y-95700000D01*
X149700000Y-107100000D02*
X140000000Y-107100000D01*
X154000000Y-95700000D02*
X152200000Y-97500000D01*
X152200000Y-104600000D02*
X149700000Y-107100000D01*
X152200000Y-97500000D02*
X152200000Y-104600000D01*
%TO.N,Net-(U7-IRS)*%
X160700000Y-88600000D02*
X161200000Y-88600000D01*
X161200000Y-88600000D02*
X162087500Y-89487500D01*
X162087500Y-89487500D02*
X162200000Y-89487500D01*
X160700000Y-88600000D02*
X160700000Y-89487500D01*
%TO.N,/ADC_STBY*%
X151800000Y-97334314D02*
X151800000Y-104434314D01*
X155300000Y-82974265D02*
X155300000Y-93834314D01*
X150034314Y-106200000D02*
X140800000Y-106200000D01*
X140800000Y-106200000D02*
X141000000Y-106200000D01*
X151800000Y-104434314D02*
X150034314Y-106200000D01*
X157674265Y-80600000D02*
X155300000Y-82974265D01*
X155300000Y-93834314D02*
X151800000Y-97334314D01*
%TO.N,/fpga/SRAM_HOLD*%
X134000000Y-104000000D02*
X128700000Y-104000000D01*
X128700000Y-104000000D02*
X125700000Y-101000000D01*
%TO.N,Net-(D24-K)*%
X89900000Y-63100000D02*
X89900000Y-64900000D01*
X89900000Y-64900000D02*
X91700000Y-66700000D01*
X100600000Y-71000000D02*
X100600000Y-73900000D01*
X91700000Y-66700000D02*
X96300000Y-66700000D01*
X96300000Y-66700000D02*
X100600000Y-71000000D01*
D42*
%TO.N,Net-(Q2-D)*%
X186800000Y-78700000D02*
X184750001Y-78700001D01*
D40*
%TO.N,/fpga/BRIDGE_D_SEL*%
X155500000Y-106200000D02*
X155500000Y-100500000D01*
X156200000Y-99800000D02*
X187166891Y-99800000D01*
X187166891Y-99800000D02*
X187659181Y-100292290D01*
X155500000Y-100500000D02*
X156200000Y-99800000D01*
X148000000Y-113700000D02*
X155500000Y-106200000D01*
X144000000Y-113700000D02*
X148000000Y-113700000D01*
%TO.N,/fpga/BRIDGE_B_SEL*%
X154300000Y-105668628D02*
X148968628Y-111000000D01*
X187000000Y-89500000D02*
X189900000Y-92400000D01*
X148968628Y-111000000D02*
X142300000Y-111000000D01*
X155568628Y-98600000D02*
X154300000Y-99868630D01*
X189900000Y-97900000D02*
X189200000Y-98600000D01*
X189200000Y-98600000D02*
X155568628Y-98600000D01*
X189900000Y-92400000D02*
X189900000Y-97900000D01*
X154300000Y-99868630D02*
X154300000Y-105668628D01*
%TO.N,/fpga/BRIDGE_C_SEL*%
X155900000Y-99400000D02*
X193050000Y-99400000D01*
X148300000Y-112800000D02*
X155100000Y-106000000D01*
X143000000Y-112800000D02*
X148300000Y-112800000D01*
X155100000Y-106000000D02*
X155100000Y-100200000D01*
X155100000Y-100200000D02*
X155900000Y-99400000D01*
X193050000Y-99400000D02*
X193325000Y-99675000D01*
%TO.N,/fpga/BRIDGE_A_SEL*%
X148634314Y-111900000D02*
X154700000Y-105834314D01*
X141400000Y-111900000D02*
X148634314Y-111900000D01*
X192600000Y-98500000D02*
X192600000Y-89450000D01*
X154700000Y-105834314D02*
X154700000Y-100034315D01*
X192600000Y-89450000D02*
X192575000Y-89425000D01*
X154700000Y-100034315D02*
X155734314Y-99000000D01*
X192100000Y-99000000D02*
X192600000Y-98500000D01*
X155734314Y-99000000D02*
X192100000Y-99000000D01*
%TO.N,/H-bridges/BRIDGE_AB_MUX_EN*%
X148662743Y-110400000D02*
X153800000Y-105262743D01*
X153800000Y-99500000D02*
X155100000Y-98200000D01*
X153800000Y-105262743D02*
X153800000Y-99500000D01*
X186000000Y-89348529D02*
X186000000Y-88800000D01*
X189400000Y-92748529D02*
X186000000Y-89348529D01*
X135000000Y-110400000D02*
X148662743Y-110400000D01*
X155100000Y-98200000D02*
X188700000Y-98200000D01*
X189400000Y-97500000D02*
X189400000Y-92748529D01*
X188700000Y-98200000D02*
X189400000Y-97500000D01*
X191875000Y-88825000D02*
X191050000Y-88000000D01*
X191050000Y-88000000D02*
X186800000Y-88000000D01*
X186800000Y-88000000D02*
X186000000Y-88800000D01*
%TO.N,/H-bridges/BRIDGE_CD_MUX_EN*%
X148100000Y-114300000D02*
X156000000Y-106400000D01*
X156500000Y-100200000D02*
X184900000Y-100200000D01*
X156000000Y-100700000D02*
X156500000Y-100200000D01*
X192900000Y-101400000D02*
X194025000Y-100275000D01*
X135800743Y-111100000D02*
X138900000Y-111100000D01*
X189800000Y-101400000D02*
X192900000Y-101400000D01*
X188200000Y-101400000D02*
X189000000Y-100600000D01*
X142100000Y-114300000D02*
X148100000Y-114300000D01*
X189000000Y-100600000D02*
X189800000Y-101400000D01*
X156000000Y-106400000D02*
X156000000Y-100700000D01*
X184900000Y-100200000D02*
X186100000Y-101400000D01*
X186100000Y-101400000D02*
X188200000Y-101400000D01*
X138900000Y-111100000D02*
X142100000Y-114300000D01*
D42*
%TO.N,Net-(Q3-D)*%
X207000000Y-78600000D02*
X204950001Y-78600001D01*
%TO.N,Net-(Q8-D)*%
X173300000Y-110400000D02*
X175349999Y-110399999D01*
%TD*%
%TA.AperFunction,Conductor*%
%TO.N,/P3V3*%
G36*
X114243039Y-94819685D02*
G01*
X114288794Y-94872489D01*
X114300000Y-94924000D01*
X114300000Y-99876000D01*
X114280315Y-99943039D01*
X114227511Y-99988794D01*
X114176000Y-100000000D01*
X110424000Y-100000000D01*
X110356961Y-99980315D01*
X110311206Y-99927511D01*
X110300000Y-99876000D01*
X110300000Y-94924000D01*
X110319685Y-94856961D01*
X110372489Y-94811206D01*
X110424000Y-94800000D01*
X114176000Y-94800000D01*
X114243039Y-94819685D01*
G37*
%TD.AperFunction*%
%TD*%
M02*
